<?xml version="1.0" encoding="UTF-8" standalone="no"?>
<!DOCTYPE svg PUBLIC "-//W3C//DTD SVG 1.1//EN" "http://www.w3.org/Graphics/SVG/1.1/DTD/svg11.dtd">
<svg width="100%" height="100%" viewBox="0 0 300 300" version="1.1" xmlns="http://www.w3.org/2000/svg" xmlns:xlink="http://www.w3.org/1999/xlink" xml:space="preserve" xmlns:serif="http://www.serif.com/" style="fill-rule:evenodd;clip-rule:evenodd;stroke-linejoin:round;stroke-miterlimit:2;">
    <g id="Background">
        <path d="M300,30.271C300,13.564 286.436,0 269.729,0L30.271,0C13.564,0 0,13.564 0,30.271L0,269.729C0,286.436 13.564,300 30.271,300L269.729,300C286.436,300 300,286.436 300,269.729L300,30.271Z" style="fill:rgb(255,254,254);"/>
        <path d="M300,30.271C300,13.564 286.436,0 269.729,0L30.271,0C13.564,0 0,13.564 0,30.271L0,269.729C0,286.436 13.564,300 30.271,300L269.729,300C286.436,300 300,286.436 300,269.729L300,30.271ZM284,30.271L284,269.729C284,277.606 277.606,284 269.729,284C269.729,284 30.271,284 30.271,284C22.394,284 16,277.606 16,269.729L16,30.271C16,22.394 22.394,16 30.271,16L269.729,16C277.606,16 284,22.394 284,30.271Z" style="fill:rgb(77,77,77);"/>
        <g transform="matrix(1.25629,0,0,1.25629,-28.3775,-1.92156)">
            <path d="M180.131,174.282L180.131,175.422C180.131,186.506 177.407,199.955 155.026,199.955L123.37,199.955C100.961,199.955 98.234,186.506 98.234,175.422L98.234,122.818C98.234,122.586 98.423,122.399 98.655,122.399L139.208,122.573L179.711,122.399C179.942,122.399 180.13,122.586 180.131,122.818L180.131,131.011C192.072,131.011 201.766,140.706 201.766,152.646C201.766,164.587 192.072,174.282 180.131,174.282ZM180.131,138.883L180.131,166.409C187.727,166.409 193.894,160.242 193.894,152.646C193.894,145.05 187.727,138.883 180.131,138.883ZM118.502,57.692C118.502,57.692 125.61,69.531 120.498,82.602C110.514,108.134 130.224,111.086 130.224,111.086C130.224,111.086 120.603,105.706 128.877,86.055C137.248,66.171 118.502,57.692 118.502,57.692ZM142.001,41.902C142.001,41.902 151.979,52.726 144.743,76.665C135.047,108.742 157.05,111.245 159.186,111.079C161.323,110.913 145.958,108.41 157.564,75.671C166.108,51.569 142.001,41.902 142.001,41.902Z" style="fill:rgb(77,77,77);"/>
        </g>
    </g>
</svg>
