<?xml version="1.0" encoding="UTF-8" standalone="no"?>
<!DOCTYPE svg PUBLIC "-//W3C//DTD SVG 1.1//EN" "http://www.w3.org/Graphics/SVG/1.1/DTD/svg11.dtd">
<svg width="100%" height="100%" viewBox="0 0 300 300" version="1.1" xmlns="http://www.w3.org/2000/svg" xmlns:xlink="http://www.w3.org/1999/xlink" xml:space="preserve" xmlns:serif="http://www.serif.com/" style="fill-rule:evenodd;clip-rule:evenodd;stroke-linejoin:round;stroke-miterlimit:2;">
    <g id="Background">
        <path d="M300,30.271C300,13.564 286.436,0 269.729,0L30.271,0C13.564,0 0,13.564 0,30.271L0,269.729C0,286.436 13.564,300 30.271,300L269.729,300C286.436,300 300,286.436 300,269.729L300,30.271Z" style="fill:rgb(255,254,254);"/>
        <path d="M300,30.271C300,13.564 286.436,0 269.729,0L30.271,0C13.564,0 0,13.564 0,30.271L0,269.729C0,286.436 13.564,300 30.271,300L269.729,300C286.436,300 300,286.436 300,269.729L300,30.271ZM284,30.271L284,269.729C284,277.606 277.606,284 269.729,284C269.729,284 30.271,284 30.271,284C22.394,284 16,277.606 16,269.729L16,30.271C16,22.394 22.394,16 30.271,16L269.729,16C277.606,16 284,22.394 284,30.271Z" style="fill:rgb(77,77,77);"/>
        <g transform="matrix(0.779315,-0.779315,0.779315,0.779315,-48.4165,149.919)">
            <path d="M138.458,152.273L138.458,202.269L158.915,181.814L158.846,213.18L127.346,244.68L95.912,213.245L95.912,181.769L116.43,202.287L116.43,152.415L138.458,152.273ZM194.491,116.43L244.364,116.43L244.505,138.458L194.509,138.458L214.964,158.915L183.599,158.846L152.099,127.346L183.533,95.912L215.009,95.912L194.491,116.43ZM70.967,158.915L39.49,158.915L60.009,138.397L10.136,138.397L9.994,116.369L59.99,116.369L39.536,95.912L70.901,95.981L102.401,127.481L70.967,158.915ZM116.369,102.434L116.369,52.438L95.912,72.893L95.981,41.527L127.481,10.028L158.915,41.462L158.915,72.938L138.397,52.42L138.397,102.292L116.369,102.434Z" style="fill:rgb(77,77,77);"/>
        </g>
    </g>
</svg>
