<?xml version="1.0" encoding="UTF-8" standalone="no"?>
<!DOCTYPE svg PUBLIC "-//W3C//DTD SVG 1.1//EN" "http://www.w3.org/Graphics/SVG/1.1/DTD/svg11.dtd">
<svg width="100%" height="100%" viewBox="0 0 300 300" version="1.1" xmlns="http://www.w3.org/2000/svg" xmlns:xlink="http://www.w3.org/1999/xlink" xml:space="preserve" xmlns:serif="http://www.serif.com/" style="fill-rule:evenodd;clip-rule:evenodd;stroke-linejoin:round;stroke-miterlimit:2;">
    <g id="Background">
        <path d="M300,30.271C300,13.564 286.436,0 269.729,0L30.271,0C13.564,0 0,13.564 0,30.271L0,269.729C0,286.436 13.564,300 30.271,300L269.729,300C286.436,300 300,286.436 300,269.729L300,30.271Z" style="fill:rgb(255,254,254);"/>
        <path d="M300,30.271C300,13.564 286.436,0 269.729,0L30.271,0C13.564,0 0,13.564 0,30.271L0,269.729C0,286.436 13.564,300 30.271,300L269.729,300C286.436,300 300,286.436 300,269.729L300,30.271ZM284,30.271L284,269.729C284,277.606 277.606,284 269.729,284C269.729,284 30.271,284 30.271,284C22.394,284 16,277.606 16,269.729L16,30.271C16,22.394 22.394,16 30.271,16L269.729,16C277.606,16 284,22.394 284,30.271Z" style="fill:rgb(45,103,185);"/>
        <g transform="matrix(0.909079,0,0,0.909079,12.9415,34.6919)">
            <path d="M96.755,140L136.287,55.747C138.764,50.469 144.572,47.618 150.263,48.886C155.953,50.155 160,55.204 160,61.034L160,170.077L178.939,144.954C181.291,141.834 184.971,140 188.877,140C197.648,140 250.784,140 250.784,140C256.303,140 260.784,144.481 260.784,150C260.784,155.519 256.303,160 250.784,160L192.643,160L162.384,200.14C159.162,204.413 153.57,206.148 148.496,204.45C143.421,202.752 140,197.999 140,192.648L140,94.918L112.821,152.841C110.771,157.21 106.381,160 101.555,160L50.749,160C45.23,160 40.749,155.519 40.749,150C40.749,144.481 45.23,140 50.749,140L96.755,140Z" style="fill:rgb(45,103,185);"/>
        </g>
    </g>
</svg>
