<?xml version="1.0" encoding="UTF-8" standalone="no"?>
<!DOCTYPE svg PUBLIC "-//W3C//DTD SVG 1.1//EN" "http://www.w3.org/Graphics/SVG/1.1/DTD/svg11.dtd">
<svg width="100%" height="100%" viewBox="0 0 300 300" version="1.1" xmlns="http://www.w3.org/2000/svg" xmlns:xlink="http://www.w3.org/1999/xlink" xml:space="preserve" xmlns:serif="http://www.serif.com/" style="fill-rule:evenodd;clip-rule:evenodd;stroke-linejoin:round;stroke-miterlimit:2;">
    <g id="Background">
        <path d="M300,30.271C300,13.564 286.436,0 269.729,0L30.271,0C13.564,0 0,13.564 0,30.271L0,269.729C0,286.436 13.564,300 30.271,300L269.729,300C286.436,300 300,286.436 300,269.729L300,30.271Z" style="fill:rgb(255,254,254);"/>
        <path d="M300,30.271C300,13.564 286.436,0 269.729,0L30.271,0C13.564,0 0,13.564 0,30.271L0,269.729C0,286.436 13.564,300 30.271,300L269.729,300C286.436,300 300,286.436 300,269.729L300,30.271ZM284,30.271L284,269.729C284,277.606 277.606,284 269.729,284C269.729,284 30.271,284 30.271,284C22.394,284 16,277.606 16,269.729L16,30.271C16,22.394 22.394,16 30.271,16L269.729,16C277.606,16 284,22.394 284,30.271Z" style="fill:rgb(45,103,185);"/>
        <g>
            <g transform="matrix(1,0,0,1,2.84217e-14,-0.475058)">
                <path d="M121.555,165.508L178.445,165.508L178.445,145.216C178.445,143.461 177.02,142.037 175.265,142.037L124.735,142.037C122.98,142.037 121.555,143.461 121.555,145.216L121.555,165.508Z" style="fill:rgb(45,103,185);"/>
            </g>
            <g transform="matrix(1,0,0,1,1.47953,0.396999)">
                <path d="M145.115,91.354L127.366,109.103L127.366,135.165L145.115,135.165L145.115,91.354Z" style="fill:rgb(45,103,185);"/>
            </g>
            <path d="M170.749,67.987L153,85.736L153,135.562L170.749,135.562L170.749,67.987Z" style="fill:rgb(45,103,185);"/>
            <g transform="matrix(1,0,0,1.07315,0,-12.5108)">
                <path d="M116.458,244.583L183.542,244.583L183.542,174.782C183.542,172.713 181.862,171.033 179.793,171.033L120.207,171.033C118.138,171.033 116.458,172.713 116.458,174.782L116.458,244.583Z" style="fill:rgb(45,103,185);"/>
            </g>
        </g>
    </g>
</svg>
