<?xml version="1.0" encoding="UTF-8" standalone="no"?>
<!DOCTYPE svg PUBLIC "-//W3C//DTD SVG 1.1//EN" "http://www.w3.org/Graphics/SVG/1.1/DTD/svg11.dtd">
<svg width="100%" height="100%" viewBox="0 0 300 300" version="1.1" xmlns="http://www.w3.org/2000/svg" xmlns:xlink="http://www.w3.org/1999/xlink" xml:space="preserve" xmlns:serif="http://www.serif.com/" style="fill-rule:evenodd;clip-rule:evenodd;stroke-linejoin:round;stroke-miterlimit:1.41421;">
    <g>
        <g id="Background">
            <path d="M300,30.271C300,13.564 286.436,0 269.729,0L30.271,0C13.564,0 0,13.564 0,30.271L0,269.729C0,286.436 13.564,300 30.271,300L269.729,300C286.436,300 300,286.436 300,269.729L300,30.271Z" style="fill:rgb(255,254,254);"/>
            <path d="M269.925,0.001L270.12,0.002L270.51,0.01L270.705,0.015L270.899,0.022L271.093,0.03L271.286,0.039L271.672,0.061L271.865,0.074L272.057,0.088L272.249,0.104L272.44,0.12L272.632,0.138L272.823,0.156L273.013,0.176L273.393,0.22L273.583,0.243L273.772,0.268L273.96,0.294L274.149,0.321L274.337,0.349L274.524,0.378L274.712,0.409L274.898,0.44L275.085,0.473L275.271,0.507L275.457,0.542L275.642,0.578L275.827,0.615L276.195,0.693L276.379,0.734L276.562,0.776L276.745,0.819L276.927,0.862L277.291,0.954L277.472,1.001L277.652,1.049L277.833,1.099L278.012,1.149L278.192,1.201L278.371,1.253L278.549,1.307L278.727,1.362L278.904,1.418L279.081,1.475L279.258,1.533L279.434,1.592L279.609,1.652L279.784,1.713L279.959,1.775L280.133,1.838L280.307,1.902L280.48,1.968L280.652,2.034L280.824,2.101L280.996,2.169L281.167,2.239L281.337,2.309L281.507,2.38L281.677,2.453L281.846,2.526L282.014,2.6L282.182,2.676L282.349,2.752L282.516,2.829L282.848,2.987L283.013,3.067L283.178,3.148L283.342,3.231L283.505,3.314L283.668,3.398L283.83,3.483L283.992,3.569L284.153,3.656L284.314,3.744L284.474,3.832L284.633,3.922L284.792,4.013L285.108,4.197L285.265,4.291L285.421,4.385L285.577,4.48L285.732,4.576L286.04,4.772L286.346,4.97L286.498,5.071L286.8,5.275L286.95,5.379L287.099,5.483L287.248,5.588L287.396,5.694L287.69,5.908L287.836,6.017L287.981,6.126L288.126,6.237L288.27,6.348L288.413,6.46L288.556,6.573L288.698,6.686L288.98,6.916L289.119,7.032L289.259,7.149L289.535,7.385L289.672,7.505L289.808,7.625L289.943,7.746L290.078,7.868L290.212,7.99L290.346,8.114L290.478,8.238L290.61,8.363L290.741,8.488L291.001,8.742L291.13,8.87L291.258,8.999L291.512,9.259L291.637,9.39L291.762,9.522L291.886,9.654L292.01,9.788L292.132,9.922L292.254,10.057L292.375,10.192L292.495,10.328L292.615,10.465L292.851,10.741L292.968,10.881L293.084,11.02L293.314,11.302L293.427,11.444L293.54,11.587L293.652,11.73L293.763,11.874L293.874,12.019L293.983,12.164L294.092,12.31L294.306,12.604L294.412,12.752L294.517,12.901L294.621,13.05L294.725,13.2L294.929,13.502L295.03,13.654L295.228,13.96L295.424,14.268L295.52,14.423L295.615,14.579L295.709,14.735L295.803,14.892L295.987,15.208L296.078,15.367L296.168,15.526L296.256,15.686L296.344,15.847L296.431,16.008L296.517,16.17L296.602,16.332L296.686,16.495L296.769,16.658L296.852,16.822L296.933,16.987L297.013,17.152L297.171,17.484L297.248,17.651L297.324,17.818L297.4,17.986L297.474,18.154L297.547,18.323L297.62,18.493L297.691,18.663L297.761,18.833L297.831,19.004L297.899,19.176L297.966,19.348L298.032,19.52L298.098,19.693L298.162,19.867L298.225,20.041L298.287,20.216L298.348,20.391L298.408,20.566L298.467,20.742L298.525,20.919L298.582,21.096L298.638,21.273L298.693,21.451L298.747,21.629L298.799,21.808L298.851,21.988L298.901,22.167L298.951,22.348L298.999,22.528L299.046,22.709L299.138,23.073L299.181,23.255L299.224,23.438L299.266,23.621L299.307,23.805L299.385,24.173L299.422,24.358L299.458,24.543L299.493,24.729L299.527,24.915L299.56,25.102L299.591,25.288L299.622,25.476L299.651,25.663L299.679,25.851L299.706,26.04L299.732,26.228L299.757,26.417L299.78,26.607L299.824,26.987L299.844,27.177L299.862,27.368L299.88,27.56L299.896,27.751L299.912,27.943L299.926,28.135L299.939,28.328L299.961,28.714L299.97,28.907L299.978,29.101L299.985,29.295L299.99,29.49L299.998,29.88L300,30.271L300,269.729L299.999,269.925L299.998,270.12L299.994,270.315L299.99,270.51L299.985,270.705L299.978,270.899L299.97,271.093L299.961,271.286L299.95,271.479L299.939,271.672L299.926,271.865L299.912,272.057L299.896,272.249L299.88,272.44L299.862,272.632L299.844,272.823L299.824,273.013L299.802,273.203L299.78,273.393L299.757,273.583L299.732,273.772L299.706,273.96L299.679,274.149L299.651,274.337L299.622,274.524L299.591,274.712L299.56,274.898L299.527,275.085L299.493,275.271L299.458,275.457L299.422,275.642L299.385,275.827L299.346,276.011L299.307,276.195L299.266,276.379L299.224,276.562L299.181,276.745L299.138,276.927L299.092,277.109L299.046,277.291L298.999,277.472L298.951,277.652L298.901,277.833L298.851,278.012L298.799,278.192L298.747,278.371L298.693,278.549L298.638,278.727L298.582,278.904L298.525,279.081L298.467,279.258L298.408,279.434L298.348,279.609L298.287,279.784L298.225,279.959L298.162,280.133L298.098,280.307L298.032,280.48L297.966,280.652L297.899,280.824L297.831,280.996L297.761,281.167L297.691,281.337L297.62,281.507L297.547,281.677L297.474,281.846L297.4,282.014L297.324,282.182L297.248,282.349L297.171,282.516L297.092,282.682L297.013,282.848L296.933,283.013L296.852,283.178L296.769,283.342L296.686,283.505L296.602,283.668L296.517,283.83L296.431,283.992L296.344,284.153L296.256,284.314L296.168,284.474L296.078,284.633L295.987,284.792L295.895,284.95L295.803,285.108L295.709,285.265L295.615,285.421L295.52,285.577L295.424,285.732L295.326,285.886L295.228,286.04L295.129,286.193L295.03,286.346L294.929,286.498L294.827,286.649L294.725,286.8L294.621,286.95L294.517,287.099L294.412,287.248L294.306,287.396L294.199,287.543L294.092,287.69L293.983,287.836L293.874,287.981L293.763,288.126L293.652,288.27L293.54,288.413L293.427,288.556L293.314,288.698L293.199,288.839L293.084,288.98L292.968,289.119L292.851,289.259L292.733,289.397L292.615,289.535L292.495,289.672L292.375,289.808L292.254,289.943L292.132,290.078L292.01,290.212L291.886,290.346L291.762,290.478L291.637,290.61L291.512,290.741L291.385,290.871L291.258,291.001L291.13,291.13L291.001,291.258L290.871,291.385L290.741,291.512L290.61,291.637L290.478,291.762L290.346,291.886L290.212,292.01L290.078,292.132L289.943,292.254L289.808,292.375L289.672,292.495L289.535,292.615L289.397,292.733L289.259,292.851L289.119,292.968L288.98,293.084L288.839,293.199L288.698,293.314L288.556,293.427L288.413,293.54L288.27,293.652L288.126,293.763L287.981,293.874L287.836,293.983L287.69,294.092L287.543,294.199L287.396,294.306L287.248,294.412L287.099,294.517L286.95,294.621L286.8,294.725L286.649,294.827L286.498,294.929L286.346,295.03L286.193,295.129L286.04,295.228L285.886,295.326L285.732,295.424L285.577,295.52L285.421,295.615L285.265,295.709L285.108,295.803L284.95,295.895L284.792,295.987L284.633,296.078L284.474,296.168L284.314,296.256L284.153,296.344L283.992,296.431L283.83,296.517L283.668,296.602L283.505,296.686L283.342,296.769L283.178,296.852L283.013,296.933L282.848,297.013L282.682,297.092L282.516,297.171L282.349,297.248L282.182,297.324L282.014,297.4L281.846,297.474L281.677,297.547L281.507,297.62L281.337,297.691L281.167,297.761L280.996,297.831L280.824,297.899L280.652,297.966L280.48,298.032L280.307,298.098L280.133,298.162L279.959,298.225L279.784,298.287L279.609,298.348L279.434,298.408L279.258,298.467L279.081,298.525L278.904,298.582L278.727,298.638L278.549,298.693L278.371,298.747L278.192,298.799L278.012,298.851L277.833,298.901L277.652,298.951L277.472,298.999L277.291,299.046L277.109,299.092L276.927,299.138L276.745,299.181L276.562,299.224L276.379,299.266L276.195,299.307L276.011,299.346L275.827,299.385L275.642,299.422L275.457,299.458L275.271,299.493L275.085,299.527L274.898,299.56L274.712,299.591L274.524,299.622L274.337,299.651L274.149,299.679L273.96,299.706L273.772,299.732L273.583,299.757L273.393,299.78L273.203,299.802L273.013,299.824L272.823,299.844L272.632,299.862L272.44,299.88L272.249,299.896L272.057,299.912L271.865,299.926L271.672,299.939L271.479,299.95L271.286,299.961L271.093,299.97L270.899,299.978L270.705,299.985L270.51,299.99L270.315,299.994L270.12,299.998L269.925,299.999L269.729,300L30.271,300L30.075,299.999L29.88,299.998L29.685,299.994L29.49,299.99L29.295,299.985L29.101,299.978L28.907,299.97L28.714,299.961L28.521,299.95L28.328,299.939L28.135,299.926L27.943,299.912L27.751,299.896L27.56,299.88L27.368,299.862L27.177,299.844L26.987,299.824L26.797,299.802L26.607,299.78L26.417,299.757L26.228,299.732L26.04,299.706L25.851,299.679L25.663,299.651L25.476,299.622L25.288,299.591L25.102,299.56L24.915,299.527L24.729,299.493L24.543,299.458L24.358,299.422L24.173,299.385L23.989,299.346L23.805,299.307L23.621,299.266L23.438,299.224L23.255,299.181L23.073,299.138L22.891,299.092L22.709,299.046L22.528,298.999L22.348,298.951L22.167,298.901L21.988,298.851L21.808,298.799L21.629,298.747L21.451,298.693L21.273,298.638L21.096,298.582L20.919,298.525L20.742,298.467L20.566,298.408L20.391,298.348L20.216,298.287L20.041,298.225L19.867,298.162L19.693,298.098L19.52,298.032L19.348,297.966L19.176,297.899L19.004,297.831L18.833,297.761L18.663,297.691L18.493,297.62L18.323,297.547L18.154,297.474L17.986,297.4L17.818,297.324L17.651,297.248L17.484,297.171L17.318,297.092L17.152,297.013L16.987,296.933L16.822,296.852L16.658,296.769L16.495,296.686L16.332,296.602L16.17,296.517L16.008,296.431L15.847,296.344L15.686,296.256L15.526,296.168L15.367,296.078L15.208,295.987L15.05,295.895L14.892,295.803L14.735,295.709L14.579,295.615L14.423,295.52L14.268,295.424L14.114,295.326L13.96,295.228L13.807,295.129L13.654,295.03L13.502,294.929L13.351,294.827L13.2,294.725L13.05,294.621L12.901,294.517L12.752,294.412L12.604,294.306L12.457,294.199L12.31,294.092L12.164,293.983L12.019,293.874L11.874,293.763L11.73,293.652L11.587,293.54L11.444,293.427L11.302,293.314L11.161,293.199L11.02,293.084L10.881,292.968L10.741,292.851L10.603,292.733L10.465,292.615L10.328,292.495L10.192,292.375L10.057,292.254L9.922,292.132L9.788,292.01L9.654,291.886L9.522,291.762L9.39,291.637L9.259,291.512L9.129,291.385L8.999,291.258L8.87,291.13L8.742,291.001L8.615,290.871L8.488,290.741L8.363,290.61L8.238,290.478L8.114,290.346L7.99,290.212L7.868,290.078L7.746,289.943L7.625,289.808L7.505,289.672L7.385,289.535L7.267,289.397L7.149,289.259L7.032,289.119L6.916,288.98L6.801,288.839L6.686,288.698L6.573,288.556L6.46,288.413L6.348,288.27L6.237,288.126L6.126,287.981L6.017,287.836L5.908,287.69L5.801,287.543L5.694,287.396L5.588,287.248L5.483,287.099L5.379,286.95L5.275,286.8L5.173,286.649L5.071,286.498L4.97,286.346L4.871,286.193L4.772,286.04L4.674,285.886L4.576,285.732L4.48,285.577L4.385,285.421L4.291,285.265L4.197,285.108L4.105,284.95L4.013,284.792L3.922,284.633L3.832,284.474L3.744,284.314L3.656,284.153L3.569,283.992L3.483,283.83L3.398,283.668L3.314,283.505L3.231,283.342L3.148,283.178L3.067,283.013L2.987,282.848L2.908,282.682L2.829,282.516L2.752,282.349L2.676,282.182L2.6,282.014L2.526,281.846L2.453,281.677L2.38,281.507L2.309,281.337L2.239,281.167L2.169,280.996L2.101,280.824L2.034,280.652L1.968,280.48L1.902,280.307L1.838,280.133L1.775,279.959L1.713,279.784L1.652,279.609L1.592,279.434L1.533,279.258L1.475,279.081L1.418,278.904L1.362,278.727L1.307,278.549L1.253,278.371L1.201,278.192L1.149,278.012L1.099,277.833L1.049,277.652L1.001,277.472L0.954,277.291L0.908,277.109L0.862,276.927L0.819,276.745L0.776,276.562L0.734,276.379L0.693,276.195L0.654,276.011L0.615,275.827L0.578,275.642L0.542,275.457L0.507,275.271L0.473,275.085L0.44,274.898L0.409,274.712L0.378,274.524L0.349,274.337L0.321,274.149L0.294,273.96L0.268,273.772L0.243,273.583L0.22,273.393L0.198,273.203L0.176,273.013L0.156,272.823L0.138,272.632L0.12,272.44L0.104,272.249L0.088,272.057L0.074,271.865L0.061,271.672L0.05,271.479L0.039,271.286L0.03,271.093L0.022,270.899L0.015,270.705L0.01,270.51L0.006,270.315L0.002,270.12L0.001,269.925L0,269.729L0,30.271L0.001,30.075L0.002,29.88L0.006,29.685L0.01,29.49L0.015,29.295L0.022,29.101L0.03,28.907L0.039,28.714L0.05,28.521L0.061,28.328L0.074,28.135L0.088,27.943L0.104,27.751L0.12,27.56L0.138,27.368L0.156,27.177L0.176,26.987L0.198,26.797L0.22,26.607L0.243,26.417L0.268,26.228L0.294,26.04L0.321,25.851L0.349,25.663L0.378,25.476L0.409,25.288L0.44,25.102L0.473,24.915L0.507,24.729L0.542,24.543L0.578,24.358L0.615,24.173L0.654,23.989L0.693,23.805L0.734,23.621L0.776,23.438L0.819,23.255L0.862,23.073L0.908,22.891L0.954,22.709L1.001,22.528L1.049,22.348L1.099,22.167L1.149,21.988L1.201,21.808L1.253,21.629L1.307,21.451L1.362,21.273L1.418,21.096L1.475,20.919L1.533,20.742L1.592,20.566L1.652,20.391L1.713,20.216L1.775,20.041L1.838,19.867L1.902,19.693L1.968,19.52L2.034,19.348L2.101,19.176L2.169,19.004L2.239,18.833L2.309,18.663L2.38,18.493L2.453,18.323L2.526,18.154L2.6,17.986L2.676,17.818L2.752,17.651L2.829,17.484L2.908,17.318L2.987,17.152L3.067,16.987L3.148,16.822L3.231,16.658L3.314,16.495L3.398,16.332L3.483,16.17L3.569,16.008L3.656,15.847L3.744,15.686L3.832,15.526L3.922,15.367L4.013,15.208L4.105,15.05L4.197,14.892L4.291,14.735L4.385,14.579L4.48,14.423L4.576,14.268L4.674,14.114L4.772,13.96L4.871,13.807L4.97,13.654L5.071,13.502L5.173,13.351L5.275,13.2L5.379,13.05L5.483,12.901L5.588,12.752L5.694,12.604L5.801,12.457L5.908,12.31L6.017,12.164L6.126,12.019L6.237,11.874L6.348,11.73L6.46,11.587L6.573,11.444L6.686,11.302L6.801,11.161L6.916,11.02L7.032,10.881L7.149,10.741L7.267,10.603L7.385,10.465L7.505,10.328L7.625,10.192L7.746,10.057L7.868,9.922L7.99,9.788L8.114,9.654L8.238,9.522L8.363,9.39L8.488,9.259L8.615,9.129L8.742,8.999L8.87,8.87L8.999,8.742L9.129,8.615L9.259,8.488L9.39,8.363L9.522,8.238L9.654,8.114L9.788,7.99L9.922,7.868L10.057,7.746L10.192,7.625L10.328,7.505L10.465,7.385L10.603,7.267L10.741,7.149L10.881,7.032L11.02,6.916L11.161,6.801L11.302,6.686L11.444,6.573L11.587,6.46L11.73,6.348L11.874,6.237L12.019,6.126L12.164,6.017L12.31,5.908L12.457,5.801L12.604,5.694L12.752,5.588L12.901,5.483L13.05,5.379L13.2,5.275L13.351,5.173L13.502,5.071L13.654,4.97L13.807,4.871L13.96,4.772L14.114,4.674L14.268,4.576L14.423,4.48L14.579,4.385L14.735,4.291L14.892,4.197L15.05,4.105L15.208,4.013L15.367,3.922L15.526,3.832L15.686,3.744L15.847,3.656L16.008,3.569L16.17,3.483L16.332,3.398L16.495,3.314L16.658,3.231L16.822,3.148L16.987,3.067L17.152,2.987L17.318,2.908L17.484,2.829L17.651,2.752L17.818,2.676L17.986,2.6L18.154,2.526L18.323,2.453L18.493,2.38L18.663,2.309L18.833,2.239L19.004,2.169L19.176,2.101L19.348,2.034L19.52,1.968L19.693,1.902L19.867,1.838L20.041,1.775L20.216,1.713L20.391,1.652L20.566,1.592L20.742,1.533L20.919,1.475L21.096,1.418L21.273,1.362L21.451,1.307L21.629,1.253L21.808,1.201L21.988,1.149L22.167,1.099L22.348,1.049L22.528,1.001L22.709,0.954L22.891,0.908L23.073,0.862L23.255,0.819L23.438,0.776L23.621,0.734L23.805,0.693L23.989,0.654L24.173,0.615L24.358,0.578L24.543,0.542L24.729,0.507L24.915,0.473L25.102,0.44L25.288,0.409L25.476,0.378L25.663,0.349L25.851,0.321L26.04,0.294L26.228,0.268L26.417,0.243L26.607,0.22L26.797,0.198L26.987,0.176L27.177,0.156L27.368,0.138L27.56,0.12L27.751,0.104L27.943,0.088L28.135,0.074L28.328,0.061L28.521,0.05L28.714,0.039L28.907,0.03L29.101,0.022L29.295,0.015L29.49,0.01L29.685,0.006L29.88,0.002L30.075,0.001L30.271,0L269.729,0L269.925,0.001ZM30.296,16L30.176,16L30.083,16.001L29.989,16.003L29.896,16.005L29.803,16.007L29.71,16.011L29.617,16.015L29.525,16.019L29.433,16.024L29.341,16.029L29.25,16.036L29.159,16.042L29.068,16.049L28.977,16.057L28.886,16.066L28.796,16.074L28.706,16.084L28.616,16.094L28.527,16.104L28.438,16.115L28.348,16.127L28.26,16.139L28.171,16.152L28.083,16.165L27.995,16.179L27.907,16.193L27.819,16.208L27.732,16.223L27.644,16.239L27.557,16.256L27.471,16.273L27.384,16.29L27.298,16.308L27.212,16.326L27.126,16.345L27.04,16.365L26.955,16.385L26.87,16.406L26.785,16.427L26.7,16.448L26.615,16.47L26.531,16.493L26.447,16.516L26.363,16.539L26.279,16.564L26.195,16.588L26.112,16.613L26.029,16.639L25.946,16.665L25.864,16.691L25.781,16.719L25.699,16.746L25.617,16.774L25.535,16.803L25.454,16.832L25.372,16.861L25.291,16.891L25.21,16.922L25.129,16.953L25.049,16.984L24.969,17.016L24.889,17.049L24.809,17.082L24.729,17.115L24.65,17.149L24.571,17.183L24.492,17.218L24.413,17.253L24.335,17.289L24.257,17.325L24.179,17.362L24.101,17.399L24.023,17.437L23.946,17.475L23.869,17.514L23.792,17.553L23.716,17.592L23.639,17.632L23.563,17.673L23.487,17.714L23.412,17.755L23.337,17.797L23.262,17.839L23.187,17.882L23.112,17.925L23.038,17.969L22.964,18.013L22.89,18.057L22.817,18.102L22.744,18.148L22.671,18.193L22.598,18.24L22.526,18.286L22.453,18.334L22.382,18.381L22.31,18.429L22.239,18.478L22.168,18.527L22.097,18.576L22.027,18.626L21.957,18.676L21.887,18.727L21.817,18.778L21.748,18.829L21.679,18.881L21.611,18.933L21.542,18.986L21.474,19.039L21.407,19.092L21.339,19.146L21.272,19.201L21.206,19.255L21.139,19.311L21.073,19.366L21.007,19.422L20.942,19.478L20.877,19.535L20.812,19.592L20.748,19.65L20.684,19.707L20.62,19.766L20.557,19.824L20.494,19.883L20.431,19.943L20.369,20.003L20.307,20.063L20.245,20.123L20.184,20.184L20.123,20.245L20.063,20.307L20.003,20.369L19.943,20.431L19.883,20.494L19.824,20.557L19.766,20.62L19.707,20.684L19.65,20.748L19.592,20.812L19.535,20.877L19.478,20.942L19.422,21.007L19.366,21.073L19.311,21.139L19.255,21.206L19.201,21.272L19.146,21.339L19.092,21.407L19.039,21.474L18.986,21.542L18.933,21.611L18.881,21.679L18.829,21.748L18.778,21.817L18.727,21.887L18.676,21.957L18.626,22.027L18.576,22.097L18.527,22.168L18.478,22.239L18.429,22.31L18.381,22.382L18.334,22.453L18.286,22.526L18.24,22.598L18.193,22.671L18.148,22.744L18.102,22.817L18.057,22.89L18.013,22.964L17.969,23.038L17.925,23.112L17.882,23.187L17.839,23.262L17.797,23.337L17.755,23.412L17.714,23.487L17.673,23.563L17.632,23.639L17.592,23.716L17.553,23.792L17.514,23.869L17.475,23.946L17.437,24.023L17.399,24.101L17.362,24.179L17.325,24.257L17.289,24.335L17.253,24.413L17.218,24.492L17.183,24.571L17.149,24.65L17.115,24.729L17.082,24.809L17.049,24.889L17.016,24.969L16.984,25.049L16.953,25.129L16.922,25.21L16.891,25.291L16.861,25.372L16.832,25.454L16.803,25.535L16.774,25.617L16.746,25.699L16.719,25.781L16.691,25.864L16.665,25.946L16.639,26.029L16.613,26.112L16.588,26.195L16.564,26.279L16.539,26.363L16.516,26.447L16.493,26.531L16.47,26.615L16.448,26.7L16.427,26.785L16.406,26.87L16.385,26.955L16.365,27.04L16.345,27.126L16.326,27.212L16.308,27.298L16.29,27.384L16.273,27.471L16.256,27.557L16.239,27.644L16.223,27.732L16.208,27.819L16.193,27.907L16.179,27.995L16.165,28.083L16.152,28.171L16.139,28.26L16.127,28.348L16.115,28.438L16.104,28.527L16.094,28.616L16.084,28.706L16.074,28.796L16.066,28.886L16.057,28.977L16.049,29.068L16.042,29.159L16.036,29.25L16.029,29.341L16.024,29.433L16.019,29.525L16.015,29.617L16.011,29.71L16.007,29.803L16.005,29.896L16.003,29.989L16.001,30.083L16,30.176L16,269.824L16.001,269.917L16.005,270.104L16.007,270.197L16.015,270.383L16.019,270.475L16.029,270.659L16.036,270.75L16.042,270.841L16.049,270.932L16.057,271.023L16.066,271.114L16.074,271.204L16.094,271.384L16.104,271.473L16.115,271.562L16.127,271.652L16.139,271.74L16.152,271.829L16.165,271.917L16.193,272.093L16.208,272.181L16.223,272.268L16.239,272.355L16.29,272.616L16.308,272.702L16.327,272.788L16.345,272.874L16.365,272.96L16.385,273.045L16.406,273.13L16.427,273.216L16.448,273.3L16.47,273.385L16.539,273.637L16.564,273.721L16.588,273.805L16.613,273.888L16.691,274.137L16.719,274.219L16.746,274.301L16.774,274.383L16.803,274.465L16.832,274.546L16.861,274.628L16.891,274.709L16.953,274.871L16.984,274.951L17.016,275.031L17.115,275.271L17.149,275.351L17.183,275.429L17.253,275.587L17.325,275.743L17.399,275.899L17.437,275.977L17.475,276.054L17.592,276.285L17.632,276.361L17.672,276.436L17.713,276.512L17.755,276.589L17.797,276.663L17.839,276.738L17.882,276.813L17.925,276.887L17.969,276.962L18.057,277.11L18.147,277.256L18.194,277.33L18.286,277.474L18.334,277.547L18.382,277.619L18.429,277.69L18.478,277.761L18.526,277.832L18.576,277.903L18.626,277.973L18.676,278.044L18.727,278.113L18.777,278.182L18.829,278.252L18.881,278.321L18.933,278.389L18.986,278.458L19.039,278.526L19.092,278.593L19.147,278.661L19.201,278.728L19.256,278.795L19.31,278.86L19.366,278.927L19.422,278.993L19.478,279.058L19.592,279.188L19.649,279.252L19.707,279.316L19.825,279.444L19.884,279.506L19.942,279.568L20.003,279.632L20.063,279.693L20.123,279.755L20.245,279.877L20.307,279.938L20.368,279.997L20.494,280.117L20.557,280.176L20.62,280.234L20.684,280.293L20.748,280.35L20.812,280.408L20.942,280.522L21.007,280.578L21.073,280.634L21.139,280.689L21.206,280.745L21.272,280.799L21.34,280.854L21.407,280.908L21.474,280.961L21.61,281.067L21.678,281.119L21.748,281.171L21.817,281.223L21.886,281.273L21.957,281.324L22.097,281.424L22.168,281.474L22.239,281.522L22.31,281.571L22.381,281.619L22.454,281.666L22.526,281.714L22.598,281.761L22.67,281.806L22.743,281.852L22.817,281.898L22.89,281.943L22.964,281.987L23.038,282.032L23.186,282.118L23.262,282.161L23.336,282.203L23.411,282.245L23.563,282.327L23.64,282.368L23.716,282.408L23.793,282.447L23.869,282.487L24.1,282.601L24.178,282.638L24.256,282.674L24.335,282.711L24.414,282.747L24.57,282.817L24.649,282.851L24.729,282.885L24.81,282.919L24.888,282.951L24.969,282.984L25.05,283.016L25.129,283.047L25.291,283.109L25.373,283.139L25.454,283.168L25.534,283.197L25.617,283.226L25.781,283.282L25.864,283.309L26.028,283.361L26.113,283.387L26.196,283.412L26.278,283.436L26.362,283.46L26.447,283.484L26.615,283.53L26.7,283.552L26.786,283.574L26.869,283.594L26.955,283.615L27.04,283.635L27.125,283.654L27.212,283.674L27.384,283.71L27.47,283.727L27.558,283.744L27.645,283.761L27.732,283.777L27.906,283.807L27.994,283.821L28.083,283.835L28.259,283.861L28.35,283.873L28.438,283.885L28.527,283.896L28.616,283.906L28.796,283.926L28.886,283.934L28.976,283.943L29.067,283.951L29.251,283.965L29.342,283.971L29.432,283.976L29.525,283.981L29.618,283.985L29.71,283.989L29.803,283.993L29.895,283.995L30.083,283.999L30.176,284L269.824,284L269.917,283.999L270.011,283.997L270.105,283.995L270.197,283.993L270.29,283.989L270.382,283.985L270.475,283.981L270.568,283.976L270.658,283.971L270.749,283.965L270.841,283.958L270.933,283.951L271.024,283.943L271.114,283.934L271.204,283.926L271.294,283.916L271.384,283.906L271.473,283.896L271.562,283.885L271.65,283.873L271.741,283.861L271.829,283.848L271.917,283.835L272.006,283.821L272.094,283.807L272.181,283.792L272.268,283.777L272.355,283.761L272.442,283.744L272.53,283.727L272.616,283.71L272.702,283.692L272.788,283.674L272.875,283.654L272.96,283.635L273.045,283.615L273.131,283.594L273.215,283.574L273.3,283.552L273.385,283.53L273.469,283.507L273.553,283.484L273.638,283.46L273.722,283.436L273.804,283.412L273.887,283.387L273.972,283.361L274.054,283.335L274.136,283.309L274.219,283.281L274.301,283.254L274.383,283.226L274.465,283.197L274.546,283.168L274.627,283.139L274.709,283.109L274.79,283.078L274.871,283.047L274.95,283.016L275.031,282.984L275.112,282.951L275.19,282.919L275.271,282.885L275.352,282.851L275.429,282.817L275.507,282.782L275.586,282.747L275.665,282.711L275.744,282.675L275.822,282.638L275.9,282.601L275.977,282.563L276.053,282.525L276.131,282.486L276.208,282.447L276.284,282.408L276.361,282.368L276.436,282.328L276.512,282.287L276.589,282.244L276.663,282.203L276.738,282.161L276.814,282.118L276.888,282.075L276.962,282.032L277.036,281.987L277.11,281.943L277.183,281.898L277.256,281.852L277.33,281.806L277.402,281.761L277.473,281.714L277.547,281.666L277.619,281.618L277.69,281.571L277.761,281.522L277.831,281.474L277.903,281.424L277.973,281.374L278.044,281.324L278.114,281.273L278.182,281.223L278.252,281.171L278.322,281.118L278.389,281.067L278.458,281.014L278.526,280.961L278.593,280.908L278.66,280.854L278.728,280.799L278.795,280.744L278.86,280.69L278.927,280.633L278.993,280.578L279.058,280.522L279.123,280.465L279.187,280.408L279.252,280.35L279.316,280.293L279.38,280.234L279.444,280.175L279.506,280.117L279.569,280.057L279.632,279.997L279.693,279.938L279.755,279.877L279.816,279.816L279.877,279.755L279.938,279.693L279.997,279.632L280.057,279.569L280.117,279.506L280.175,279.444L280.234,279.38L280.293,279.316L280.35,279.252L280.408,279.187L280.465,279.123L280.522,279.058L280.578,278.993L280.633,278.927L280.69,278.86L280.744,278.795L280.799,278.728L280.854,278.66L280.908,278.593L280.961,278.526L281.014,278.458L281.067,278.389L281.118,278.322L281.171,278.252L281.223,278.182L281.273,278.114L281.324,278.044L281.374,277.973L281.424,277.903L281.474,277.831L281.522,277.761L281.571,277.69L281.618,277.619L281.666,277.547L281.714,277.473L281.761,277.402L281.806,277.33L281.852,277.256L281.898,277.183L281.943,277.11L281.987,277.036L282.032,276.962L282.075,276.888L282.118,276.814L282.161,276.738L282.203,276.663L282.244,276.589L282.287,276.512L282.328,276.436L282.368,276.361L282.408,276.284L282.447,276.208L282.486,276.131L282.525,276.053L282.563,275.977L282.601,275.9L282.638,275.822L282.675,275.744L282.711,275.665L282.747,275.586L282.782,275.507L282.817,275.429L282.851,275.352L282.885,275.271L282.919,275.19L282.951,275.112L282.984,275.031L283.016,274.95L283.047,274.871L283.078,274.79L283.109,274.709L283.139,274.627L283.168,274.546L283.197,274.465L283.226,274.383L283.254,274.301L283.281,274.219L283.309,274.136L283.335,274.054L283.361,273.972L283.387,273.887L283.412,273.804L283.436,273.722L283.46,273.638L283.484,273.553L283.507,273.469L283.53,273.385L283.552,273.3L283.574,273.215L283.594,273.131L283.615,273.045L283.635,272.96L283.654,272.875L283.674,272.788L283.692,272.702L283.71,272.616L283.727,272.53L283.744,272.442L283.761,272.355L283.777,272.268L283.792,272.181L283.807,272.094L283.821,272.006L283.835,271.917L283.848,271.829L283.861,271.741L283.873,271.65L283.885,271.562L283.896,271.473L283.906,271.384L283.916,271.294L283.926,271.204L283.934,271.114L283.943,271.024L283.951,270.933L283.958,270.841L283.965,270.749L283.971,270.658L283.976,270.568L283.981,270.475L283.985,270.382L283.989,270.29L283.993,270.197L283.995,270.105L283.997,270.011L283.999,269.917L284,269.824L284,269.704L284,30.296L284,30.176L283.999,30.083L283.997,29.989L283.995,29.895L283.993,29.803L283.989,29.71L283.985,29.618L283.981,29.525L283.976,29.432L283.971,29.342L283.965,29.251L283.958,29.159L283.951,29.067L283.943,28.976L283.934,28.886L283.926,28.796L283.916,28.706L283.906,28.616L283.896,28.527L283.885,28.438L283.873,28.35L283.861,28.259L283.848,28.171L283.835,28.083L283.821,27.994L283.807,27.906L283.792,27.819L283.777,27.732L283.761,27.645L283.744,27.558L283.727,27.47L283.71,27.384L283.692,27.298L283.674,27.212L283.654,27.125L283.635,27.04L283.615,26.955L283.594,26.869L283.574,26.786L283.552,26.7L283.53,26.615L283.507,26.531L283.484,26.447L283.46,26.362L283.436,26.278L283.412,26.196L283.387,26.113L283.361,26.028L283.335,25.946L283.309,25.864L283.282,25.781L283.254,25.699L283.226,25.617L283.197,25.534L283.168,25.454L283.139,25.373L283.109,25.291L283.078,25.21L283.047,25.129L283.016,25.05L282.984,24.969L282.951,24.888L282.919,24.81L282.885,24.729L282.851,24.649L282.817,24.57L282.782,24.492L282.747,24.414L282.711,24.335L282.674,24.256L282.638,24.178L282.601,24.1L282.563,24.023L282.525,23.946L282.487,23.869L282.447,23.793L282.408,23.716L282.368,23.64L282.327,23.563L282.286,23.487L282.245,23.411L282.203,23.336L282.161,23.262L282.118,23.186L282.075,23.112L282.032,23.038L281.987,22.964L281.943,22.89L281.898,22.817L281.852,22.743L281.806,22.67L281.761,22.598L281.714,22.526L281.666,22.454L281.619,22.381L281.571,22.31L281.522,22.239L281.474,22.168L281.424,22.097L281.374,22.027L281.324,21.957L281.273,21.886L281.223,21.817L281.171,21.748L281.119,21.678L281.067,21.61L281.014,21.542L280.961,21.474L280.908,21.407L280.854,21.34L280.799,21.272L280.745,21.206L280.689,21.139L280.634,21.073L280.578,21.007L280.522,20.942L280.465,20.877L280.408,20.812L280.35,20.748L280.293,20.684L280.234,20.62L280.176,20.557L280.117,20.494L280.057,20.431L279.997,20.368L279.938,20.307L279.877,20.245L279.816,20.184L279.755,20.123L279.693,20.063L279.632,20.003L279.568,19.942L279.506,19.884L279.444,19.825L279.38,19.766L279.316,19.707L279.252,19.649L279.188,19.592L279.123,19.535L279.058,19.478L278.993,19.422L278.927,19.366L278.86,19.31L278.795,19.256L278.728,19.201L278.661,19.147L278.593,19.092L278.526,19.039L278.458,18.986L278.389,18.933L278.321,18.881L278.252,18.829L278.182,18.777L278.113,18.727L278.044,18.676L277.973,18.626L277.903,18.576L277.832,18.526L277.761,18.478L277.69,18.429L277.619,18.382L277.547,18.334L277.474,18.286L277.402,18.24L277.33,18.194L277.256,18.147L277.183,18.102L277.11,18.057L277.036,18.013L276.962,17.969L276.887,17.925L276.813,17.882L276.738,17.839L276.663,17.797L276.589,17.755L276.512,17.713L276.436,17.672L276.361,17.632L276.285,17.592L276.208,17.553L276.131,17.514L276.054,17.475L275.977,17.437L275.899,17.399L275.821,17.362L275.743,17.325L275.665,17.289L275.587,17.253L275.508,17.218L275.429,17.183L275.351,17.149L275.271,17.115L275.191,17.082L275.111,17.049L275.031,17.016L274.951,16.984L274.871,16.953L274.79,16.922L274.709,16.891L274.628,16.861L274.546,16.832L274.465,16.803L274.383,16.774L274.301,16.746L274.219,16.719L274.137,16.691L274.054,16.665L273.971,16.639L273.888,16.613L273.805,16.588L273.721,16.564L273.637,16.539L273.553,16.516L273.469,16.493L273.385,16.47L273.3,16.448L273.216,16.427L273.13,16.406L273.045,16.385L272.96,16.365L272.874,16.345L272.788,16.327L272.702,16.308L272.616,16.29L272.529,16.273L272.442,16.256L272.355,16.239L272.268,16.223L272.181,16.208L272.093,16.193L272.005,16.179L271.917,16.165L271.829,16.152L271.74,16.139L271.652,16.127L271.562,16.115L271.473,16.104L271.384,16.094L271.294,16.084L271.204,16.074L271.114,16.066L271.023,16.057L270.932,16.049L270.841,16.042L270.75,16.036L270.659,16.029L270.567,16.024L270.475,16.019L270.383,16.015L270.29,16.011L270.197,16.007L270.104,16.005L270.011,16.003L269.917,16.001L269.824,16L269.704,16L30.296,16Z" style="fill:rgb(45,103,185);"/>
        </g>
        <g transform="matrix(1.27352,0,0,1.1454,-41.0584,-50.4053)">
            <path d="M200.03,111.246C200.03,105.021 195.485,99.968 189.886,99.968L110.161,99.968C104.562,99.968 100.017,105.021 100.017,111.246L100.017,238.686C100.017,244.91 104.562,249.964 110.161,249.964L189.886,249.964C195.485,249.964 200.03,244.91 200.03,238.686L200.03,111.246Z" style="fill:rgb(255,254,254);"/>
            <path d="M190.017,99.969L190.148,99.971L190.278,99.976L190.408,99.982L190.537,99.991L190.666,100.001L190.795,100.013L190.923,100.026L191.05,100.041L191.177,100.058L191.304,100.077L191.43,100.098L191.556,100.12L191.681,100.144L191.805,100.17L191.929,100.197L192.053,100.226L192.176,100.257L192.298,100.289L192.42,100.323L192.541,100.359L192.662,100.396L192.782,100.435L192.901,100.475L193.02,100.517L193.138,100.561L193.256,100.606L193.372,100.653L193.489,100.701L193.604,100.751L193.719,100.802L193.833,100.855L193.946,100.909L194.059,100.965L194.171,101.022L194.282,101.081L194.393,101.141L194.502,101.202L194.611,101.265L194.72,101.33L194.827,101.396L194.934,101.463L195.144,101.601L195.248,101.673L195.352,101.746L195.454,101.82L195.556,101.895L195.657,101.972L195.756,102.05L195.855,102.129L195.954,102.21L196.051,102.291L196.147,102.374L196.337,102.544L196.43,102.631L196.523,102.719L196.705,102.899L196.795,102.991L196.883,103.083L196.971,103.177L197.143,103.369L197.227,103.466L197.311,103.565L197.393,103.664L197.475,103.765L197.555,103.867L197.634,103.97L197.712,104.074L197.789,104.179L197.865,104.285L197.94,104.392L198.013,104.5L198.086,104.609L198.157,104.719L198.227,104.83L198.296,104.942L198.364,105.055L198.431,105.169L198.496,105.284L198.56,105.4L198.623,105.516L198.685,105.634L198.745,105.752L198.805,105.872L198.863,105.992L198.919,106.113L198.975,106.235L199.029,106.358L199.133,106.606L199.183,106.731L199.232,106.858L199.279,106.984L199.326,107.112L199.37,107.24L199.414,107.37L199.456,107.499L199.496,107.63L199.535,107.761L199.573,107.893L199.61,108.026L199.678,108.294L199.71,108.429L199.741,108.564L199.77,108.7L199.797,108.837L199.823,108.974L199.848,109.112L199.871,109.25L199.893,109.389L199.913,109.529L199.931,109.669L199.948,109.81L199.963,109.951L199.977,110.093L199.989,110.236L200,110.378L200.009,110.522L200.016,110.666L200.022,110.81L200.026,110.955L200.029,111.1L200.03,111.246L200.03,238.686L200.029,238.831L200.026,238.977L200.022,239.121L200.016,239.266L200.009,239.41L200,239.553L199.989,239.696L199.977,239.838L199.963,239.98L199.948,240.121L199.931,240.262L199.913,240.402L199.893,240.542L199.871,240.681L199.848,240.82L199.823,240.957L199.797,241.095L199.77,241.231L199.741,241.367L199.71,241.503L199.678,241.638L199.644,241.772L199.61,241.905L199.573,242.038L199.535,242.17L199.496,242.301L199.456,242.432L199.414,242.562L199.37,242.691L199.326,242.819L199.279,242.947L199.232,243.074L199.183,243.2L199.133,243.325L199.081,243.45L199.029,243.573L198.975,243.696L198.919,243.818L198.863,243.939L198.805,244.06L198.745,244.179L198.685,244.297L198.623,244.415L198.56,244.532L198.496,244.648L198.431,244.763L198.364,244.876L198.296,244.989L198.227,245.101L198.157,245.213L198.086,245.323L198.013,245.432L197.94,245.54L197.865,245.647L197.789,245.753L197.712,245.858L197.634,245.962L197.555,246.065L197.475,246.166L197.393,246.267L197.311,246.367L197.227,246.465L197.143,246.563L197.057,246.659L196.971,246.754L196.883,246.848L196.795,246.941L196.705,247.032L196.614,247.123L196.523,247.212L196.43,247.3L196.337,247.387L196.242,247.473L196.147,247.557L196.051,247.64L195.954,247.722L195.855,247.802L195.756,247.882L195.657,247.96L195.556,248.036L195.454,248.112L195.352,248.186L195.248,248.259L195.144,248.33L195.039,248.4L194.934,248.468L194.827,248.536L194.72,248.602L194.611,248.666L194.502,248.729L194.393,248.791L194.282,248.851L194.171,248.909L194.059,248.967L193.946,249.022L193.833,249.077L193.719,249.129L193.604,249.181L193.489,249.231L193.372,249.279L193.256,249.325L193.138,249.371L193.02,249.414L192.901,249.456L192.782,249.497L192.662,249.535L192.541,249.573L192.42,249.608L192.298,249.642L192.176,249.675L192.053,249.705L191.929,249.734L191.805,249.762L191.681,249.787L191.556,249.811L191.43,249.834L191.304,249.854L191.177,249.873L191.05,249.89L190.923,249.905L190.795,249.919L190.666,249.931L190.537,249.941L190.408,249.949L190.278,249.955L190.148,249.96L190.017,249.963L189.886,249.964L110.161,249.964L110.03,249.963L109.899,249.96L109.769,249.955L109.639,249.949L109.51,249.941L109.381,249.931L109.252,249.919L109.124,249.905L108.996,249.89L108.869,249.873L108.743,249.854L108.617,249.834L108.491,249.811L108.366,249.787L108.241,249.762L108.117,249.734L107.994,249.705L107.871,249.675L107.749,249.642L107.627,249.608L107.506,249.573L107.385,249.535L107.265,249.497L107.146,249.456L107.027,249.414L106.909,249.371L106.791,249.325L106.674,249.279L106.558,249.231L106.443,249.181L106.328,249.129L106.214,249.077L106.101,249.022L105.988,248.967L105.876,248.909L105.765,248.851L105.654,248.791L105.544,248.729L105.436,248.666L105.327,248.602L105.22,248.536L105.113,248.468L105.008,248.4L104.903,248.33L104.798,248.259L104.695,248.186L104.593,248.112L104.491,248.036L104.39,247.96L104.29,247.882L104.191,247.802L104.093,247.722L103.996,247.64L103.9,247.557L103.804,247.473L103.71,247.387L103.617,247.3L103.524,247.212L103.433,247.123L103.342,247.032L103.252,246.941L103.164,246.848L103.076,246.754L102.99,246.659L102.904,246.563L102.82,246.465L102.736,246.367L102.654,246.267L102.572,246.166L102.492,246.065L102.413,245.962L102.335,245.858L102.258,245.753L102.182,245.647L102.107,245.54L102.034,245.432L101.961,245.323L101.89,245.213L101.82,245.101L101.751,244.989L101.683,244.876L101.616,244.763L101.551,244.648L101.487,244.532L101.424,244.415L101.362,244.297L101.302,244.179L101.242,244.06L101.184,243.939L101.128,243.818L101.072,243.696L101.018,243.573L100.965,243.45L100.914,243.325L100.864,243.2L100.815,243.074L100.767,242.947L100.721,242.819L100.677,242.691L100.633,242.562L100.591,242.432L100.551,242.301L100.511,242.17L100.474,242.038L100.437,241.905L100.402,241.772L100.369,241.638L100.337,241.503L100.306,241.367L100.277,241.231L100.25,241.095L100.224,240.957L100.199,240.82L100.176,240.681L100.154,240.542L100.134,240.402L100.116,240.262L100.099,240.121L100.084,239.98L100.07,239.838L100.058,239.696L100.047,239.553L100.038,239.41L100.031,239.266L100.025,239.121L100.021,238.977L100.018,238.831L100.017,238.686L100.017,111.246L100.018,111.1L100.021,110.955L100.025,110.81L100.031,110.666L100.038,110.522L100.047,110.378L100.058,110.236L100.07,110.093L100.084,109.951L100.099,109.81L100.116,109.669L100.134,109.529L100.154,109.389L100.176,109.25L100.199,109.112L100.224,108.974L100.25,108.837L100.277,108.7L100.306,108.564L100.337,108.429L100.369,108.294L100.402,108.16L100.437,108.026L100.474,107.893L100.511,107.761L100.551,107.63L100.591,107.499L100.633,107.37L100.677,107.24L100.721,107.112L100.767,106.984L100.815,106.858L100.864,106.731L100.914,106.606L100.965,106.482L101.018,106.358L101.072,106.235L101.128,106.113L101.184,105.992L101.242,105.872L101.302,105.752L101.362,105.634L101.424,105.516L101.487,105.4L101.551,105.284L101.616,105.169L101.683,105.055L101.751,104.942L101.82,104.83L101.89,104.719L101.961,104.609L102.034,104.5L102.107,104.392L102.182,104.285L102.258,104.179L102.335,104.074L102.413,103.97L102.492,103.867L102.572,103.765L102.654,103.664L102.736,103.565L102.82,103.466L102.904,103.369L102.99,103.273L103.076,103.177L103.164,103.083L103.252,102.991L103.342,102.899L103.433,102.809L103.524,102.719L103.617,102.631L103.71,102.544L103.804,102.459L103.9,102.374L103.996,102.291L104.093,102.21L104.191,102.129L104.29,102.05L104.39,101.972L104.491,101.895L104.593,101.82L104.695,101.746L104.798,101.673L104.903,101.601L105.008,101.532L105.113,101.463L105.22,101.396L105.327,101.33L105.436,101.265L105.544,101.202L105.654,101.141L105.765,101.081L105.876,101.022L105.988,100.965L106.101,100.909L106.214,100.855L106.328,100.802L106.443,100.751L106.558,100.701L106.674,100.653L106.791,100.606L106.909,100.561L107.027,100.517L107.146,100.475L107.265,100.435L107.385,100.396L107.506,100.359L107.627,100.323L107.749,100.289L107.871,100.257L107.994,100.226L108.117,100.197L108.241,100.17L108.366,100.144L108.491,100.12L108.617,100.098L108.743,100.077L108.869,100.058L108.996,100.041L109.124,100.026L109.252,100.013L109.381,100.001L109.51,99.991L109.639,99.982L109.769,99.976L109.899,99.971L110.03,99.969L110.161,99.968L189.886,99.968L190.017,99.969ZM112.581,113.937L112.581,235.995L187.466,235.995L187.466,113.937L112.581,113.937Z" style="fill:rgb(45,103,185);"/>
        </g>
        <g transform="matrix(0.534164,0,0,0.534164,69.8754,159.173)">
            <circle cx="150" cy="128.591" r="9.36" style="fill:white;"/>
        </g>
    </g>
</svg>
