<?xml version="1.0" encoding="UTF-8" standalone="no"?>
<!DOCTYPE svg PUBLIC "-//W3C//DTD SVG 1.1//EN" "http://www.w3.org/Graphics/SVG/1.1/DTD/svg11.dtd">
<svg width="100%" height="100%" viewBox="0 0 195 144" version="1.1" xmlns="http://www.w3.org/2000/svg" xmlns:xlink="http://www.w3.org/1999/xlink" xml:space="preserve" xmlns:serif="http://www.serif.com/" style="fill-rule:evenodd;clip-rule:evenodd;stroke-linejoin:round;stroke-miterlimit:1.41421;">
    <g transform="matrix(1,0,0,1,-52.5279,-78.4664)">
        <path d="M210.025,221.534L91.906,221.534L91.906,221.534C70.172,221.53 52.528,203.884 52.528,182.149C52.528,162.874 66.405,146.814 84.705,143.424C84.887,107.541 114.075,78.466 150,78.466C185.925,78.466 215.113,107.541 215.295,143.424C233.595,146.814 247.472,162.874 247.472,182.149C247.472,203.236 230.863,220.475 210.025,221.487L210.025,221.534ZM207.223,205.605C207.51,205.615 207.798,205.62 208.088,205.62C221.042,205.62 231.559,195.103 231.559,182.149C231.559,171.034 223.817,161.714 213.435,159.291L213.429,159.317C212.545,159.102 211.642,158.937 210.722,158.825C209.857,158.727 208.978,158.678 208.088,158.678C204.063,158.678 200.274,159.693 196.962,161.481C198.946,156.096 200.03,150.277 200.03,144.207C200.03,127.797 192.113,113.223 179.893,104.097C171.573,97.815 161.218,94.088 150,94.088C138.782,94.088 128.427,97.815 120.107,104.097C107.887,113.223 99.97,127.797 99.97,144.207C99.97,150.277 101.054,156.096 103.038,161.481C99.726,159.693 95.937,158.678 91.912,158.678C91.087,158.678 90.272,158.72 89.468,158.804C88.483,158.917 87.516,159.091 86.572,159.321L86.565,159.291C76.183,161.714 68.441,171.034 68.441,182.149C68.441,195.103 78.958,205.62 91.912,205.62C92.202,205.62 92.49,205.615 92.777,205.605C93.025,205.629 93.276,205.642 93.53,205.642L123.517,205.642L123.499,205.666L176.501,205.666L176.483,205.642L206.47,205.642C206.724,205.642 206.975,205.629 207.223,205.605Z" style="fill:rgb(77,77,77);"/>
    </g>
</svg>
