<?xml version="1.0" encoding="UTF-8" standalone="no"?>
<!DOCTYPE svg PUBLIC "-//W3C//DTD SVG 1.1//EN" "http://www.w3.org/Graphics/SVG/1.1/DTD/svg11.dtd">
<svg width="100%" height="100%" viewBox="0 0 171 100" version="1.1" xmlns="http://www.w3.org/2000/svg" xmlns:xlink="http://www.w3.org/1999/xlink" xml:space="preserve" xmlns:serif="http://www.serif.com/" style="fill-rule:evenodd;clip-rule:evenodd;stroke-linejoin:round;stroke-miterlimit:1.41421;">
    <g transform="matrix(1,0,0,1,-65.3976,-99.9678)">
        <g>
            <g transform="matrix(1.07235e-16,-1.75127,1.42064,8.69891e-17,22.4725,513.322)">
                <path d="M207.484,99.968L236.031,150L178.937,150L207.484,99.968Z" style="fill:rgb(77,77,77);"/>
            </g>
            <g transform="matrix(4.0214e-17,-0.656744,0.532754,3.26218e-17,139.382,286.225)">
                <path d="M207.484,99.968L236.031,150L178.937,150L207.484,99.968Z" style="fill:white;"/>
            </g>
        </g>
        <g>
            <path d="M178.937,109.509C178.937,104.243 174.662,99.968 169.396,99.968L74.938,99.968C69.673,99.968 65.398,104.243 65.398,109.509L65.398,190.414C65.398,195.68 69.673,199.955 74.938,199.955L169.396,199.955C174.662,199.955 178.937,195.68 178.937,190.414L178.937,109.509Z" style="fill:rgb(77,77,77);"/>
            <rect x="79.844" y="115.903" width="84.647" height="68.193" style="fill:rgb(255,254,254);"/>
        </g>
    </g>
</svg>
