<?xml version="1.0" encoding="UTF-8" standalone="no"?>
<!DOCTYPE svg PUBLIC "-//W3C//DTD SVG 1.1//EN" "http://www.w3.org/Graphics/SVG/1.1/DTD/svg11.dtd">
<svg width="100%" height="100%" viewBox="0 0 171 164" version="1.1" xmlns="http://www.w3.org/2000/svg" xmlns:xlink="http://www.w3.org/1999/xlink" xml:space="preserve" xmlns:serif="http://www.serif.com/" style="fill-rule:evenodd;clip-rule:evenodd;stroke-linejoin:round;stroke-miterlimit:1.41421;">
    <g transform="matrix(1,0,0,1,-64.9735,-64.9735)">
        <path d="M182.537,71.431C189.453,74.301 195.91,78.059 201.765,82.561L190.938,109.383L205.644,134.855L234.306,138.893C234.781,142.528 235.027,146.236 235.027,150C235.027,153.764 234.781,157.472 234.306,161.107L205.644,165.145L190.938,190.617L201.765,217.439C195.91,221.941 189.453,225.699 182.537,228.569L164.706,205.762L135.294,205.762L117.463,228.569C110.547,225.699 104.09,221.941 98.235,217.439L109.062,190.617L94.356,165.145L65.694,161.107C65.219,157.472 64.973,153.764 64.973,150C64.973,146.236 65.219,142.528 65.694,138.893L94.356,134.855L109.062,109.383L98.235,82.561C104.09,78.059 110.547,74.301 117.463,71.431L135.294,94.238L164.706,94.238L182.537,71.431ZM223.914,192.03C223.765,192.292 223.614,192.553 223.462,192.812L223.914,192.03ZM76.086,192.03L76.538,192.812C76.386,192.553 76.235,192.292 76.086,192.03ZM150,118.87C167.181,118.87 181.13,132.819 181.13,150C181.13,167.181 167.181,181.13 150,181.13C132.819,181.13 118.87,167.181 118.87,150C118.87,132.819 132.819,118.87 150,118.87ZM223.462,107.188C223.614,107.447 223.765,107.708 223.914,107.97L223.462,107.188ZM76.538,107.188L76.086,107.97C76.235,107.708 76.386,107.447 76.538,107.188ZM150,64.973C150,64.973 150,64.973 150,64.973Z" style="fill:rgb(75,75,75);"/>
        <g transform="matrix(1.13747,0,0,1.13747,-20.62,-20.62)">
            <circle cx="150" cy="150" r="28.177" style="fill:rgb(255,254,254);"/>
        </g>
    </g>
</svg>
