<?xml version="1.0" encoding="UTF-8" standalone="no"?>
<!DOCTYPE svg PUBLIC "-//W3C//DTD SVG 1.1//EN" "http://www.w3.org/Graphics/SVG/1.1/DTD/svg11.dtd">
<svg width="100%" height="100%" viewBox="0 0 219 219" version="1.1" xmlns="http://www.w3.org/2000/svg" xmlns:xlink="http://www.w3.org/1999/xlink" xml:space="preserve" xmlns:serif="http://www.serif.com/" style="fill-rule:evenodd;clip-rule:evenodd;stroke-linejoin:round;stroke-miterlimit:1.41421;">
    <g transform="matrix(1,0,0,1,-40.9703,-40.9703)">
        <path d="M109.7,179.509C103.631,171.239 100.045,161.035 100.045,150C100.045,148.93 100.079,147.869 100.145,146.816L100.145,80.445L81.233,99.357L81.233,70.066L110.329,40.97L139.425,70.066L139.425,99.273L120.491,80.339L120.491,109.7C128.761,103.631 138.965,100.045 150,100.045C151.07,100.045 152.131,100.079 153.184,100.145L219.555,100.145L200.643,81.233L229.934,81.233L259.03,110.329L229.934,139.425L200.727,139.425L219.661,120.491L190.3,120.491C196.369,128.762 199.955,138.966 199.955,150C199.955,151.07 199.921,152.131 199.855,153.184L199.855,219.555L218.767,200.643L218.767,229.934L189.671,259.03L160.575,229.934L160.575,200.727L179.509,219.661L179.509,190.3C171.239,196.369 161.035,199.955 150,199.955C148.93,199.955 147.869,199.921 146.816,199.855L80.445,199.855L99.357,218.767L70.066,218.767L40.97,189.671L70.066,160.575L99.273,160.575L80.339,179.509L109.7,179.509ZM149.704,120.704C165.709,120.704 178.704,133.698 178.704,149.704C178.704,165.709 165.709,178.704 149.704,178.704C133.698,178.704 120.704,165.709 120.704,149.704C120.704,133.698 133.698,120.704 149.704,120.704Z" style="fill:rgb(77,77,77);"/>
    </g>
</svg>
