<?xml version="1.0" encoding="UTF-8" standalone="no"?>
<!DOCTYPE svg PUBLIC "-//W3C//DTD SVG 1.1//EN" "http://www.w3.org/Graphics/SVG/1.1/DTD/svg11.dtd">
<svg width="100%" height="100%" viewBox="0 0 153 132" version="1.1" xmlns="http://www.w3.org/2000/svg" xmlns:xlink="http://www.w3.org/1999/xlink" xml:space="preserve" xmlns:serif="http://www.serif.com/" style="fill-rule:evenodd;clip-rule:evenodd;stroke-linejoin:round;stroke-miterlimit:1.41421;">
    <g transform="matrix(1,0,0,1,-79.7313,-83.9785)">
        <g transform="matrix(1,0,0,1,0,7.61811)">
            <path d="M169.165,126.098L139.459,92.36L87.731,92.36C83.316,92.36 79.731,88.776 79.731,84.36C79.731,79.945 83.316,76.36 87.731,76.36L143.168,76.36C145.937,76.36 148.38,77.771 149.816,79.912L179.079,113.145L224.613,113.145C229.028,113.145 232.613,116.73 232.613,121.145C232.613,125.561 229.028,129.145 224.613,129.145L175.446,129.145C172.9,129.145 170.631,127.954 169.165,126.098Z" style="fill:rgb(75,75,75);"/>
        </g>
        <g transform="matrix(1,0,0,-1,0,292.297)">
            <path d="M169.165,126.098L139.459,92.36L87.731,92.36C83.316,92.36 79.731,88.776 79.731,84.36C79.731,79.945 83.316,76.36 87.731,76.36L143.168,76.36C145.937,76.36 148.38,77.771 149.816,79.912L179.079,113.145L224.613,113.145C229.028,113.145 232.613,116.73 232.613,121.145C232.613,125.561 229.028,129.145 224.613,129.145L175.446,129.145C172.9,129.145 170.631,127.954 169.165,126.098Z" style="fill:rgb(75,75,75);"/>
        </g>
    </g>
</svg>
