<?xml version="1.0" encoding="UTF-8" standalone="no"?>
<!DOCTYPE svg PUBLIC "-//W3C//DTD SVG 1.1//EN" "http://www.w3.org/Graphics/SVG/1.1/DTD/svg11.dtd">
<svg width="100%" height="100%" viewBox="0 0 225 200" version="1.1" xmlns="http://www.w3.org/2000/svg" xmlns:xlink="http://www.w3.org/1999/xlink" xml:space="preserve" xmlns:serif="http://www.serif.com/" style="fill-rule:evenodd;clip-rule:evenodd;stroke-linejoin:round;stroke-miterlimit:1.41421;">
    <g transform="matrix(1,0,0,1,-37.8083,-50.0253)">
        <path d="M181.066,86.193C174.239,79.658 172.476,69.071 177.409,60.526C183.204,50.488 196.058,47.044 206.096,52.839C216.133,58.634 219.577,71.488 213.782,81.526C208.849,90.071 198.799,93.838 189.726,91.193L175.628,115.61C184.847,122.494 191.209,132.994 192.605,145L220.792,145C223.037,135.82 231.324,129 241.192,129C252.782,129 262.192,138.41 262.192,150C262.192,161.59 252.782,171 241.192,171C231.324,171 223.037,164.18 220.792,155L192.605,155C191.209,167.006 184.847,177.506 175.628,184.39L189.726,208.807C198.799,206.162 208.849,209.929 213.782,218.474C219.577,228.512 216.133,241.366 206.096,247.161C196.058,252.956 183.204,249.512 177.409,239.474C172.476,230.929 174.239,220.342 181.066,213.807L166.974,189.4C161.767,191.648 156.028,192.894 150,192.894C143.972,192.894 138.233,191.648 133.026,189.4L118.934,213.807C125.761,220.342 127.524,230.929 122.591,239.474C116.796,249.512 103.942,252.956 93.904,247.161C83.867,241.366 80.423,228.512 86.218,218.474C91.151,209.929 101.201,206.162 110.274,208.807L124.372,184.39C115.153,177.506 108.791,167.006 107.395,155L79.208,155C76.963,164.18 68.676,171 58.808,171C47.218,171 37.808,161.59 37.808,150C37.808,138.41 47.218,129 58.808,129C68.676,129 76.963,135.82 79.208,145L107.395,145C108.791,132.994 115.153,122.494 124.372,115.61L110.274,91.193C101.201,93.838 91.151,90.071 86.218,81.526C80.423,71.488 83.867,58.634 93.904,52.839C103.942,47.044 116.796,50.488 122.591,60.526C127.524,69.071 125.761,79.658 118.934,86.193L133.026,110.6C138.233,108.352 143.972,107.106 150,107.106C156.028,107.106 161.767,108.352 166.974,110.6L181.066,86.193ZM159.2,175.935L150,160L140.8,175.935C143.677,176.957 146.774,177.513 150,177.513C153.226,177.513 156.323,176.957 159.2,175.935ZM132.145,170.926L141.34,155L122.941,155C124.105,161.332 127.441,166.907 132.145,170.926ZM177.059,155L158.66,155L167.855,170.926C172.559,166.907 175.895,161.332 177.059,155ZM132.145,129.074C127.441,133.093 124.105,138.668 122.941,145L141.34,145L132.145,129.074ZM167.855,129.074L158.66,145L177.059,145C175.895,138.668 172.559,133.093 167.855,129.074ZM159.2,124.065C156.323,123.043 153.226,122.487 150,122.487C146.774,122.487 143.677,123.043 140.8,124.065L150,140L159.2,124.065Z" style="fill:rgb(75,75,75);"/>
        <circle cx="150" cy="150" r="28.177" style="fill:rgb(255,254,254);"/>
    </g>
</svg>
