<?xml version="1.0" encoding="UTF-8" standalone="no"?>
<!DOCTYPE svg PUBLIC "-//W3C//DTD SVG 1.1//EN" "http://www.w3.org/Graphics/SVG/1.1/DTD/svg11.dtd">
<svg width="100%" height="100%" viewBox="0 0 221 221" version="1.1" xmlns="http://www.w3.org/2000/svg" xmlns:xlink="http://www.w3.org/1999/xlink" xml:space="preserve" xmlns:serif="http://www.serif.com/" style="fill-rule:evenodd;clip-rule:evenodd;stroke-linejoin:round;stroke-miterlimit:1.41421;">
    <g transform="matrix(0.707107,-0.707107,0.707107,0.707107,-101.876,110.256)">
        <path d="M62.539,139.838L105.61,139.838L105.61,160.184L62.645,160.184L81.557,179.096L52.267,179.096L23.171,150L52.267,120.904L81.473,120.904L62.539,139.838ZM247.733,179.096L218.443,179.096L237.355,160.184L194.39,160.184L194.39,139.838L237.461,139.838L218.527,120.904L247.733,120.904L276.829,150L247.733,179.096ZM176.634,160.184L158.878,160.184L158.878,139.84L167.8,139.84L167.8,139.838L176.634,139.838L176.634,160.184ZM132.2,139.838L132.2,139.84L141.122,139.84L141.122,160.184L123.366,160.184L123.366,139.838L132.2,139.838Z" style="fill:rgb(75,75,75);"/>
    </g>
</svg>
