<?xml version="1.0" encoding="UTF-8" standalone="no"?>
<!DOCTYPE svg PUBLIC "-//W3C//DTD SVG 1.1//EN" "http://www.w3.org/Graphics/SVG/1.1/DTD/svg11.dtd">
<svg width="100%" height="100%" viewBox="0 0 212 147" version="1.1" xmlns="http://www.w3.org/2000/svg" xmlns:xlink="http://www.w3.org/1999/xlink" xml:space="preserve" xmlns:serif="http://www.serif.com/" style="fill-rule:evenodd;clip-rule:evenodd;stroke-linejoin:round;stroke-miterlimit:1.41421;">
    <g transform="matrix(1,0,0,1,-48.8709,-67.1145)">
        <g>
            <g transform="matrix(1.00648,0,0,1.52827,-0.499135,-69.522)">
                <rect x="77.006" y="131.603" width="9.936" height="6.543" style="fill:rgb(75,75,75);"/>
            </g>
            <g>
                <g transform="matrix(1.00648,0,0,1.52827,-0.499135,-45.5387)">
                    <rect x="77.006" y="131.603" width="9.936" height="6.543" style="fill:rgb(75,75,75);"/>
                </g>
                <g transform="matrix(1.00648,0,0,1.52827,-0.499135,-21.5554)">
                    <rect x="77.006" y="131.603" width="9.936" height="6.543" style="fill:rgb(75,75,75);"/>
                </g>
                <g transform="matrix(1.00648,0,0,1.52827,22.5123,-21.5554)">
                    <rect x="77.006" y="131.603" width="9.936" height="6.543" style="fill:rgb(75,75,75);"/>
                </g>
                <g transform="matrix(1.00648,0,0,1.52827,45.5237,-21.5554)">
                    <rect x="77.006" y="131.603" width="9.936" height="6.543" style="fill:rgb(75,75,75);"/>
                </g>
            </g>
        </g>
        <g>
            <g transform="matrix(1.00648,0,0,1.52827,-0.499135,-69.522)">
                <rect x="77.006" y="131.603" width="9.936" height="6.543" style="fill:rgb(75,75,75);"/>
            </g>
            <g transform="matrix(1.00648,0,0,1.52827,-0.499135,-45.5387)">
                <rect x="77.006" y="131.603" width="9.936" height="6.543" style="fill:rgb(75,75,75);"/>
            </g>
            <g transform="matrix(1.00648,0,0,1.52827,-0.499135,-21.5554)">
                <rect x="77.006" y="131.603" width="9.936" height="6.543" style="fill:rgb(75,75,75);"/>
            </g>
            <g transform="matrix(1.00648,0,0,1.52827,22.5123,-69.522)">
                <rect x="77.006" y="131.603" width="9.936" height="6.543" style="fill:rgb(75,75,75);"/>
            </g>
            <g transform="matrix(1.00648,0,0,1.52827,22.5123,-45.5387)">
                <rect x="77.006" y="131.603" width="9.936" height="6.543" style="fill:rgb(75,75,75);"/>
            </g>
            <g transform="matrix(1.00648,0,0,1.52827,22.5123,-21.5554)">
                <rect x="77.006" y="131.603" width="9.936" height="6.543" style="fill:rgb(75,75,75);"/>
            </g>
            <g transform="matrix(1.00648,0,0,1.52827,45.5237,-69.522)">
                <rect x="77.006" y="131.603" width="9.936" height="6.543" style="fill:rgb(75,75,75);"/>
            </g>
            <g transform="matrix(1.00648,0,0,1.52827,45.5237,-45.5387)">
                <rect x="77.006" y="131.603" width="9.936" height="6.543" style="fill:rgb(75,75,75);"/>
            </g>
            <g transform="matrix(1.00648,0,0,1.52827,45.5237,-21.5554)">
                <rect x="77.006" y="131.603" width="9.936" height="6.543" style="fill:rgb(75,75,75);"/>
            </g>
        </g>
        <g>
            <g transform="matrix(1.00648,0,0,1.52827,92.0542,-103.505)">
                <rect x="77.006" y="131.603" width="9.936" height="6.543" style="fill:rgb(75,75,75);"/>
            </g>
            <g transform="matrix(1.00648,0,0,1.52827,92.0542,-79.522)">
                <rect x="77.006" y="131.603" width="9.936" height="6.543" style="fill:rgb(75,75,75);"/>
            </g>
            <g transform="matrix(1.00648,0,0,1.52827,92.0542,-55.5387)">
                <rect x="77.006" y="131.603" width="9.936" height="6.543" style="fill:rgb(75,75,75);"/>
            </g>
            <g transform="matrix(1.00648,0,0,1.52827,115.066,-103.505)">
                <rect x="77.006" y="131.603" width="9.936" height="6.543" style="fill:rgb(75,75,75);"/>
            </g>
            <g transform="matrix(1.00648,0,0,1.52827,115.066,-79.522)">
                <rect x="77.006" y="131.603" width="9.936" height="6.543" style="fill:rgb(75,75,75);"/>
            </g>
            <g transform="matrix(1.00648,0,0,1.52827,115.066,-55.5387)">
                <rect x="77.006" y="131.603" width="9.936" height="6.543" style="fill:rgb(75,75,75);"/>
            </g>
            <g transform="matrix(1.00648,0,0,1.52827,138.077,-103.505)">
                <rect x="77.006" y="131.603" width="9.936" height="6.543" style="fill:rgb(75,75,75);"/>
            </g>
            <g transform="matrix(1.00648,0,0,1.52827,138.077,-79.522)">
                <rect x="77.006" y="131.603" width="9.936" height="6.543" style="fill:rgb(75,75,75);"/>
            </g>
            <g transform="matrix(1.00648,0,0,1.52827,138.077,-55.5387)">
                <rect x="77.006" y="131.603" width="9.936" height="6.543" style="fill:rgb(75,75,75);"/>
            </g>
        </g>
        <path d="M137.074,108.008L145,108.008L145,73.837C145,73.306 145.166,72.812 145.45,72.407L145.453,72.403C145.453,72.403 145.453,72.402 145.453,72.402C145.906,71.758 146.654,71.337 147.5,71.337L179.333,71.337L179.333,69.226C179.333,68.061 180.279,67.115 181.444,67.115L213.697,67.115C214.862,67.115 215.809,68.061 215.809,69.226L215.809,71.337L247.515,71.337C248.36,71.337 249.109,71.758 249.561,72.402L249.565,72.407C249.848,72.812 250.015,73.306 250.015,73.837L250.015,203.429L257.375,203.429C258.755,203.429 259.875,204.55 259.875,205.929L259.875,210.929C259.875,212.309 258.755,213.429 257.375,213.429L211.659,213.429L209.121,213.429C209.121,213.429 200.03,213.429 200.03,213.429L194.952,213.429L186.021,213.429C186.021,213.429 183.482,213.429 183.482,213.429C183.482,213.429 64.613,213.429 64.613,213.429C64.613,213.429 59.613,213.429 59.613,213.429C59.613,213.429 51.371,213.429 51.371,213.429C49.991,213.429 48.871,212.309 48.871,210.929L48.871,205.929C48.871,204.549 49.991,203.429 51.371,203.429L57.113,203.429L57.113,110.508C57.113,110.385 57.122,110.263 57.139,110.144L57.14,110.143C57.14,110.143 57.14,110.137 57.14,110.137C57.32,108.933 58.359,108.008 59.613,108.008L77.006,108.008L77.006,104.269C77.006,103.104 77.952,102.158 79.117,102.158L97.052,102.158C98.218,102.158 99.164,103.104 99.164,104.269L99.164,108.008L114.916,108.008L114.916,104.269C114.916,103.104 115.862,102.158 117.027,102.158L134.962,102.158C136.128,102.158 137.074,103.104 137.074,104.269L137.074,108.008ZM145,118.008L67.113,118.008L67.113,203.429L145,203.429L145,118.008ZM240.015,81.337L155,81.337L155,203.429L182.213,203.429L182.213,180.281C182.213,179.581 182.781,179.012 183.482,179.012C183.482,179.012 211.659,179.012 211.659,179.012C212.36,179.012 212.929,179.581 212.929,180.281L212.929,203.429L240.015,203.429L240.015,81.337ZM194.952,184.089L187.29,184.089L187.29,203.429L194.952,203.429L194.952,184.089ZM207.851,184.089L200.03,184.089L200.03,203.429L207.851,203.429L207.851,184.089Z" style="fill:rgb(75,75,75);"/>
    </g>
</svg>
