<?xml version="1.0" encoding="UTF-8" standalone="no"?>
<!DOCTYPE svg PUBLIC "-//W3C//DTD SVG 1.1//EN" "http://www.w3.org/Graphics/SVG/1.1/DTD/svg11.dtd">
<svg width="100%" height="100%" viewBox="0 0 145 195" version="1.1" xmlns="http://www.w3.org/2000/svg" xmlns:xlink="http://www.w3.org/1999/xlink" xml:space="preserve" xmlns:serif="http://www.serif.com/" style="fill-rule:evenodd;clip-rule:evenodd;stroke-linejoin:round;stroke-miterlimit:1.41421;">
    <g transform="matrix(1,0,0,1,-86.9111,-53.9668)">
        <g transform="matrix(1,0,0,1,12.5669,-11.1512)">
            <path d="M108.355,124.446L108.355,108.582C108.356,87.559 125.424,70.491 146.446,70.491C167.469,70.491 184.538,87.559 184.538,108.582L184.538,138.278L165.17,138.278L165.17,108.582C165.17,98.248 156.78,89.858 146.446,89.858C136.113,89.858 127.723,98.248 127.723,108.582L127.723,124.446L108.355,124.446Z" style="fill:white;"/>
        </g>
        <g transform="matrix(1,0,0,1,12.5669,-11.1512)">
            <path d="M129.021,124.445L97.535,124.445L97.535,114.03C97.535,87.035 119.451,65.118 146.446,65.118C173.442,65.118 195.358,87.035 195.358,114.03L195.358,136.219C208.38,137.569 218.549,148.589 218.549,161.966L218.549,233.767C218.549,248.054 206.95,259.653 192.663,259.653L100.23,259.653C85.943,259.653 74.344,248.054 74.344,233.767L74.344,161.966C74.344,148.589 84.513,137.569 97.535,136.219L97.535,136.08L163.872,136.08L163.872,111.681C163.872,102.063 156.064,94.255 146.446,94.255C136.829,94.255 129.021,102.063 129.021,111.681L129.021,124.445ZM123.04,118.551L123.04,111.681C123.04,98.762 133.528,88.274 146.446,88.274C159.365,88.274 169.853,98.762 169.853,111.681L169.853,136.08L182.86,136.08L182.86,114.03C182.859,93.933 166.543,77.617 146.446,77.617C126.35,77.617 110.034,93.933 110.033,114.03L110.033,118.551L123.04,118.551Z" style="fill:rgb(75,75,75);"/>
        </g>
        <g transform="matrix(0.889868,0,0,0.828563,17.1331,32.01)">
            <path d="M229.228,146.24C229.228,134.478 220.336,124.929 209.385,124.929L109.494,124.929C98.543,124.929 89.651,134.478 89.651,146.24L89.651,227.191C89.651,238.952 98.543,248.502 109.494,248.502L209.385,248.502C220.336,248.502 229.228,238.952 229.228,227.191L229.228,146.24Z" style="fill:white;"/>
        </g>
        <g transform="matrix(1,0,0,1,0,-4.42193)">
            <path d="M170.26,220.021L146.977,220.021L146.977,202.689C140.819,198.813 136.724,191.955 136.724,184.148C136.724,172.064 146.534,162.253 158.618,162.253C170.702,162.253 180.512,172.064 180.512,184.148C180.512,191.955 176.417,198.813 170.26,202.689L170.26,220.021ZM163.448,213.755L163.448,198.857C169.629,196.826 174.097,191.004 174.097,184.148C174.097,175.605 167.161,168.669 158.618,168.669C150.075,168.669 143.14,175.605 143.14,184.148C143.14,191.154 147.805,197.08 154.197,198.984L154.197,213.755L163.448,213.755Z" style="fill:rgb(77,77,77);"/>
        </g>
    </g>
</svg>
