<?xml version="1.0" encoding="UTF-8" standalone="no"?>
<!DOCTYPE svg PUBLIC "-//W3C//DTD SVG 1.1//EN" "http://www.w3.org/Graphics/SVG/1.1/DTD/svg11.dtd">
<svg width="100%" height="100%" viewBox="0 0 220 221" version="1.1" xmlns="http://www.w3.org/2000/svg" xmlns:xlink="http://www.w3.org/1999/xlink" xml:space="preserve" xmlns:serif="http://www.serif.com/" style="fill-rule:evenodd;clip-rule:evenodd;stroke-linecap:round;stroke-linejoin:round;stroke-miterlimit:1.5;">
    <g transform="matrix(1,0,0,1,-45.0119,-35.4696)">
        <g transform="matrix(1,0,0,1,-7.01767,8.0407)">
            <path d="M58.03,179.647C58.002,218.533 89.456,241.948 120.553,241.964" style="fill:none;stroke:rgb(77,77,77);stroke-width:12px;"/>
        </g>
        <path d="M162.09,193.903L173.438,182.555L208.811,217.928L242.108,184.631L206.734,149.258L218.083,137.91L264.53,184.358L208.538,240.35L162.09,193.903ZM98.693,190.226C93.431,180.235 94.999,167.575 103.398,159.176L183.356,79.218C193.684,68.89 210.454,68.89 220.782,79.218C231.11,89.546 231.11,106.316 220.782,116.644L140.824,196.602C132.51,204.915 120.022,206.537 110.08,201.466L102.534,209.012C99.412,212.134 94.343,212.134 91.221,209.012C88.099,205.89 88.099,200.821 91.221,197.699L91.22,197.698L98.693,190.226ZM210.275,107.177C215.091,102.361 215.091,94.541 210.275,89.725C205.459,84.909 197.639,84.909 192.823,89.725L113.297,169.251C108.48,174.067 108.48,181.887 113.297,186.703C118.113,191.52 125.933,191.52 130.749,186.703L210.275,107.177ZM162.09,81.917L150.742,93.266L115.369,57.892L82.072,91.189L117.445,126.562L106.097,137.91L59.65,91.462L115.642,35.47L162.09,81.917Z" style="fill:rgb(75,75,75);"/>
    </g>
</svg>
