<?xml version="1.0" encoding="UTF-8" standalone="no"?>
<!DOCTYPE svg PUBLIC "-//W3C//DTD SVG 1.1//EN" "http://www.w3.org/Graphics/SVG/1.1/DTD/svg11.dtd">
<svg width="100%" height="100%" viewBox="0 0 166 204" version="1.1" xmlns="http://www.w3.org/2000/svg" xmlns:xlink="http://www.w3.org/1999/xlink" xml:space="preserve" xmlns:serif="http://www.serif.com/" style="fill-rule:evenodd;clip-rule:evenodd;stroke-linejoin:round;stroke-miterlimit:1.41421;">
    <g id="Layer1" transform="matrix(1,0,0,1,-69.3127,-55.7629)">
        <g>
            <g transform="matrix(1,0,0,1,2.13633,7.44273)">
                <path d="M150,251.643C149.913,251.602 119.057,237.1 95.732,195.074C65.581,140.753 67.191,75.178 67.191,75.178C122.952,75.971 149.943,48.379 150,48.32C150.057,48.379 177.048,75.971 232.809,75.178C232.809,75.178 234.419,140.753 204.268,195.074C180.91,237.159 150,251.643 150,251.643Z" style="fill:rgb(78,78,78);"/>
            </g>
            <g transform="matrix(0.853263,0,0,0.84723,24.1469,29.7079)">
                <path d="M150,251.643C149.913,251.602 119.057,237.1 95.732,195.074C65.581,140.753 67.191,75.178 67.191,75.178C122.952,75.971 149.943,48.379 150,48.32C150.057,48.379 177.048,75.971 232.809,75.178C232.809,75.178 234.419,140.753 204.268,195.074C180.91,237.159 150,251.643 150,251.643Z" style="fill:rgb(77,77,77);fill-opacity:0;"/>
                <path d="M150.084,48.405L150.186,48.504L150.327,48.64L150.507,48.811L150.728,49.017L150.988,49.254L151.133,49.385L151.288,49.524L151.452,49.67L151.627,49.823L151.812,49.983L152.006,50.151L152.211,50.325L152.426,50.507L152.65,50.694L152.885,50.888L153.129,51.089L153.384,51.295L153.649,51.508L153.923,51.726L154.208,51.95L154.502,52.179L154.807,52.413L155.122,52.653L155.446,52.897L155.781,53.147L156.126,53.401L156.481,53.659L156.845,53.922L157.22,54.189L157.605,54.46L158,54.735L158.405,55.014L158.821,55.296L159.246,55.581L159.681,55.87L160.127,56.161L160.582,56.456L161.048,56.753L161.524,57.053L162.01,57.355L162.506,57.66L162.758,57.813L163.012,57.966L163.269,58.12L163.528,58.275L163.79,58.43L164.055,58.585L164.322,58.741L164.591,58.897L164.863,59.053L165.138,59.21L165.415,59.367L165.695,59.525L165.977,59.682L166.262,59.84L166.549,59.999L166.839,60.157L167.131,60.316L167.426,60.474L167.724,60.633L168.024,60.793L168.326,60.952L168.631,61.111L168.939,61.271L169.249,61.43L169.562,61.59L169.877,61.749L170.195,61.909L170.516,62.068L170.839,62.228L171.164,62.387L171.492,62.547L171.823,62.706L172.156,62.865L172.492,63.024L172.83,63.183L173.171,63.341L173.514,63.5L173.86,63.658L174.208,63.816L174.559,63.974L174.913,64.131L175.269,64.289L175.628,64.445L175.989,64.602L176.353,64.758L176.72,64.914L177.088,65.069L177.46,65.224L177.834,65.379L178.211,65.533L178.59,65.686L178.972,65.839L179.356,65.992L179.743,66.144L180.132,66.295L180.525,66.446L180.919,66.597L181.316,66.746L181.716,66.895L182.118,67.044L182.523,67.191L182.931,67.338L183.341,67.485L183.753,67.63L184.169,67.775L184.586,67.919L185.007,68.062L185.43,68.205L185.855,68.346L186.283,68.487L186.714,68.627L187.147,68.765L187.583,68.903L188.021,69.041L188.462,69.177L188.906,69.312L189.352,69.446L189.801,69.579L190.252,69.711L190.706,69.842L191.162,69.972L191.621,70.101L192.083,70.228L192.547,70.355L193.014,70.48L193.483,70.605L193.955,70.728L194.43,70.849L194.907,70.97L195.387,71.089L195.869,71.207L196.354,71.324L196.841,71.439L197.331,71.553L197.824,71.666L198.319,71.778L198.817,71.887L199.318,71.996L199.821,72.103L200.327,72.209L200.835,72.313L201.346,72.415L201.859,72.517L202.375,72.616L202.894,72.714L203.415,72.811L203.939,72.905L204.466,72.999L204.995,73.09L205.526,73.18L206.061,73.268L206.597,73.355L207.137,73.44L207.679,73.523L208.224,73.604L208.771,73.684L209.321,73.762L209.873,73.837L210.429,73.912L210.986,73.984L211.547,74.054L212.11,74.123L212.675,74.189L213.243,74.254L213.814,74.316L214.388,74.377L214.964,74.436L215.542,74.492L216.124,74.547L216.707,74.6L217.294,74.65L217.883,74.698L218.475,74.745L219.069,74.789L219.666,74.831L220.266,74.87L220.868,74.908L221.473,74.943L222.08,74.977L222.69,75.007L223.303,75.036L223.918,75.062L224.536,75.086L225.157,75.108L225.78,75.127L226.406,75.144L227.034,75.159L227.665,75.171L228.299,75.18L228.935,75.187L229.574,75.192L230.216,75.194L230.86,75.194L231.507,75.191L232.156,75.186L232.809,75.178L232.812,75.367L232.816,75.602L232.819,75.927L232.822,76.342L232.824,76.843L232.823,77.431L232.819,78.101L232.811,78.854L232.806,79.261L232.799,79.687L232.791,80.134L232.782,80.599L232.771,81.084L232.758,81.587L232.744,82.11L232.728,82.651L232.71,83.21L232.69,83.787L232.668,84.382L232.644,84.995L232.618,85.625L232.589,86.273L232.558,86.937L232.524,87.618L232.488,88.316L232.448,89.03L232.406,89.76L232.361,90.506L232.313,91.267L232.262,92.045L232.207,92.837L232.15,93.644L232.089,94.466L232.024,95.303L231.956,96.154L231.884,97.019L231.808,97.898L231.728,98.791L231.644,99.697L231.557,100.616L231.465,101.549L231.368,102.494L231.268,103.452L231.163,104.422L231.053,105.404L230.939,106.399L230.82,107.404L230.696,108.422L230.632,108.935L230.567,109.451L230.5,109.969L230.433,110.49L230.364,111.014L230.294,111.541L230.222,112.07L230.149,112.602L230.075,113.137L230,113.674L229.923,114.213L229.845,114.755L229.765,115.3L229.684,115.847L229.602,116.397L229.518,116.949L229.433,117.503L229.346,118.059L229.258,118.618L229.168,119.18L229.077,119.743L228.985,120.309L228.891,120.877L228.795,121.447L228.698,122.019L228.6,122.594L228.499,123.17L228.398,123.749L228.294,124.33L228.189,124.912L228.083,125.497L227.975,126.084L227.865,126.672L227.754,127.263L227.641,127.855L227.526,128.449L227.41,129.045L227.292,129.643L227.172,130.243L227.051,130.844L226.928,131.447L226.803,132.052L226.677,132.658L226.548,133.267L226.418,133.876L226.286,134.488L226.153,135.1L226.017,135.715L225.88,136.33L225.741,136.948L225.6,137.567L225.457,138.187L225.313,138.808L225.166,139.431L225.018,140.055L224.868,140.681L224.716,141.308L224.562,141.936L224.406,142.565L224.248,143.196L224.088,143.827L223.926,144.46L223.762,145.094L223.596,145.729L223.429,146.365L223.259,147.002L223.087,147.64L222.913,148.279L222.737,148.919L222.559,149.56L222.379,150.202L222.197,150.845L222.013,151.488L221.826,152.133L221.638,152.778L221.447,153.424L221.255,154.07L221.06,154.718L220.863,155.366L220.663,156.014L220.462,156.663L220.258,157.313L220.052,157.964L219.844,158.615L219.634,159.266L219.421,159.918L219.207,160.57L218.989,161.223L218.77,161.876L218.548,162.53L218.324,163.184L218.098,163.838L217.869,164.493L217.638,165.147L217.405,165.802L217.169,166.458L216.931,167.113L216.69,167.769L216.448,168.424L216.202,169.08L215.954,169.736L215.704,170.392L215.452,171.048L215.196,171.704L214.939,172.359L214.679,173.015L214.416,173.671L214.151,174.326L213.883,174.982L213.613,175.637L213.34,176.292L213.065,176.947L212.787,177.601L212.507,178.256L212.224,178.91L211.938,179.563L211.65,180.216L211.359,180.869L211.065,181.521L210.769,182.173L210.47,182.825L210.168,183.476L209.864,184.126L209.557,184.776L209.248,185.425L208.935,186.074L208.62,186.722L208.302,187.369L207.981,188.016L207.658,188.662L207.332,189.307L207.003,189.951L206.671,190.595L206.336,191.237L205.999,191.879L205.658,192.52L205.315,193.16L204.969,193.799L204.62,194.437L204.268,195.074L203.994,195.566L203.719,196.056L203.444,196.543L203.168,197.027L202.891,197.509L202.614,197.988L202.336,198.465L202.057,198.939L201.778,199.411L201.498,199.881L201.218,200.348L200.937,200.812L200.656,201.274L200.374,201.733L200.092,202.19L199.809,202.645L199.526,203.097L199.242,203.547L198.958,203.994L198.673,204.439L198.388,204.881L198.103,205.321L197.817,205.759L197.531,206.194L197.245,206.626L196.958,207.057L196.67,207.485L196.383,207.91L196.095,208.333L195.807,208.754L195.518,209.172L195.23,209.588L194.941,210.002L194.652,210.413L194.362,210.821L194.073,211.228L193.783,211.632L193.493,212.034L193.203,212.433L192.912,212.83L192.622,213.225L192.331,213.617L192.041,214.007L191.75,214.395L191.459,214.78L191.168,215.163L190.877,215.544L190.586,215.922L190.295,216.299L190.004,216.672L189.713,217.044L189.422,217.413L189.131,217.78L188.84,218.145L188.549,218.507L188.258,218.868L187.967,219.225L187.676,219.581L187.385,219.934L187.095,220.286L186.805,220.634L186.514,220.981L186.224,221.326L185.934,221.668L185.645,222.008L185.355,222.345L185.066,222.681L184.777,223.014L184.488,223.345L184.199,223.674L183.911,224.001L183.623,224.325L183.335,224.648L183.048,224.968L182.761,225.286L182.474,225.602L182.188,225.915L181.902,226.227L181.616,226.536L181.331,226.843L181.046,227.148L180.762,227.451L180.478,227.751L180.194,228.05L179.911,228.346L179.629,228.641L179.347,228.933L179.065,229.223L178.784,229.511L178.503,229.796L178.224,230.08L177.944,230.362L177.665,230.641L177.387,230.919L177.109,231.194L176.832,231.467L176.556,231.738L176.28,232.008L176.005,232.275L175.731,232.54L175.457,232.803L175.184,233.063L174.912,233.322L174.64,233.579L174.369,233.834L174.099,234.086L173.83,234.337L173.561,234.586L173.293,234.832L173.026,235.077L172.76,235.32L172.495,235.56L172.23,235.799L171.967,236.035L171.704,236.27L171.442,236.503L170.921,236.962L170.404,237.413L169.891,237.857L169.381,238.292L168.876,238.72L168.375,239.141L167.878,239.553L167.385,239.958L166.897,240.355L166.414,240.745L165.935,241.127L165.461,241.501L164.992,241.868L164.528,242.228L164.069,242.58L163.616,242.925L163.168,243.262L162.725,243.592L162.288,243.915L161.857,244.231L161.431,244.54L161.012,244.841L160.598,245.135L160.191,245.423L159.79,245.703L159.395,245.976L159.007,246.242L158.625,246.502L158.25,246.754L157.882,247L157.521,247.238L157.166,247.47L156.819,247.696L156.479,247.914L156.147,248.126L155.822,248.332L155.504,248.53L155.195,248.723L154.893,248.908L154.599,249.087L154.313,249.26L154.035,249.427L153.765,249.587L153.504,249.741L153.251,249.888L153.006,250.029L152.771,250.164L152.544,250.293L152.326,250.416L152.117,250.532L151.727,250.748L151.374,250.939L151.059,251.106L150.783,251.251L150.548,251.372L150.353,251.47L150.2,251.546L150.089,251.6L150,251.643L149.903,251.597L149.789,251.541L149.632,251.463L149.434,251.363L149.196,251.24L148.917,251.094L148.6,250.925L148.244,250.732L147.852,250.515L147.642,250.398L147.423,250.274L147.195,250.145L146.958,250.009L146.713,249.867L146.459,249.719L146.197,249.564L145.927,249.404L145.648,249.237L145.361,249.063L145.067,248.883L144.764,248.697L144.454,248.504L144.136,248.305L143.81,248.099L143.477,247.886L143.137,247.667L142.789,247.441L142.435,247.209L142.073,246.97L141.704,246.723L141.329,246.47L140.947,246.211L140.559,245.944L140.164,245.67L139.762,245.39L139.355,245.102L138.941,244.807L138.522,244.506L138.096,244.197L137.665,243.881L137.228,243.557L136.785,243.227L136.337,242.889L135.884,242.544L135.425,242.192L134.961,241.832L134.492,241.465L134.019,241.09L133.54,240.708L133.057,240.318L132.569,239.921L132.077,239.516L131.58,239.103L131.079,238.683L130.574,238.255L130.065,237.819L129.552,237.375L129.036,236.924L128.515,236.465L128.253,236.232L127.991,235.997L127.728,235.761L127.463,235.522L127.198,235.282L126.932,235.039L126.666,234.795L126.398,234.548L126.13,234.299L125.861,234.049L125.591,233.796L125.32,233.541L125.049,233.285L124.777,233.026L124.504,232.765L124.231,232.502L123.957,232.238L123.682,231.971L123.406,231.702L123.13,231.43L122.853,231.157L122.576,230.882L122.298,230.605L122.02,230.325L121.741,230.044L121.461,229.76L121.181,229.475L120.9,229.187L120.619,228.897L120.337,228.605L120.055,228.311L119.772,228.015L119.489,227.716L119.205,227.416L118.921,227.113L118.637,226.808L118.352,226.501L118.067,226.192L117.781,225.881L117.495,225.568L117.209,225.252L116.922,224.935L116.635,224.615L116.348,224.293L116.06,223.968L115.772,223.642L115.484,223.313L115.196,222.982L114.907,222.649L114.618,222.314L114.329,221.977L114.04,221.637L113.75,221.295L113.46,220.951L113.171,220.605L112.881,220.256L112.59,219.905L112.3,219.552L112.01,219.197L111.719,218.839L111.429,218.479L111.138,218.117L110.848,217.753L110.557,217.386L110.266,217.017L109.976,216.646L109.685,216.273L109.394,215.897L109.104,215.519L108.813,215.139L108.523,214.756L108.232,214.371L107.942,213.984L107.651,213.594L107.361,213.202L107.071,212.808L106.781,212.411L106.492,212.012L106.202,211.611L105.913,211.207L105.623,210.801L105.334,210.393L105.046,209.982L104.757,209.569L104.469,209.154L104.181,208.736L103.893,208.316L103.606,207.893L103.319,207.468L103.032,207.041L102.745,206.611L102.459,206.179L102.173,205.745L101.888,205.308L101.603,204.868L101.318,204.426L101.034,203.982L100.751,203.535L100.467,203.086L100.184,202.635L99.902,202.181L99.62,201.724L99.339,201.266L99.058,200.804L98.777,200.34L98.498,199.874L98.218,199.405L97.94,198.934L97.661,198.46L97.384,197.984L97.107,197.505L96.831,197.024L96.555,196.541L96.28,196.054L96.006,195.566L95.732,195.074L95.38,194.437L95.031,193.799L94.685,193.16L94.342,192.52L94.001,191.879L93.664,191.237L93.329,190.595L92.997,189.951L92.668,189.307L92.342,188.662L92.019,188.016L91.698,187.369L91.38,186.722L91.065,186.074L90.752,185.425L90.443,184.776L90.136,184.126L89.832,183.476L89.53,182.825L89.231,182.173L88.935,181.521L88.641,180.869L88.35,180.216L88.062,179.563L87.776,178.91L87.493,178.256L87.213,177.601L86.935,176.947L86.66,176.292L86.387,175.637L86.117,174.982L85.849,174.326L85.584,173.671L85.321,173.015L85.061,172.359L84.804,171.704L84.548,171.048L84.296,170.392L84.046,169.736L83.798,169.08L83.552,168.424L83.31,167.769L83.069,167.113L82.831,166.458L82.595,165.802L82.362,165.147L82.131,164.493L81.902,163.838L81.676,163.184L81.452,162.53L81.23,161.876L81.011,161.223L80.793,160.57L80.579,159.918L80.366,159.266L80.156,158.615L79.948,157.964L79.742,157.313L79.538,156.663L79.337,156.014L79.137,155.366L78.94,154.718L78.745,154.07L78.553,153.424L78.362,152.778L78.174,152.133L77.987,151.488L77.803,150.845L77.621,150.202L77.441,149.56L77.263,148.919L77.087,148.279L76.913,147.64L76.741,147.002L76.571,146.365L76.404,145.729L76.238,145.094L76.074,144.46L75.912,143.827L75.752,143.196L75.594,142.565L75.438,141.936L75.284,141.308L75.132,140.681L74.982,140.055L74.834,139.431L74.687,138.808L74.543,138.187L74.4,137.567L74.259,136.948L74.12,136.33L73.983,135.715L73.847,135.1L73.714,134.488L73.582,133.876L73.452,133.267L73.323,132.658L73.197,132.052L73.072,131.447L72.949,130.844L72.828,130.243L72.708,129.643L72.59,129.045L72.474,128.449L72.359,127.855L72.246,127.263L72.135,126.672L72.025,126.084L71.917,125.497L71.811,124.912L71.706,124.33L71.602,123.749L71.501,123.17L71.4,122.594L71.302,122.019L71.205,121.447L71.109,120.877L71.015,120.309L70.923,119.743L70.832,119.18L70.742,118.618L70.654,118.059L70.567,117.503L70.482,116.949L70.398,116.397L70.316,115.847L70.235,115.3L70.155,114.755L70.077,114.213L70,113.674L69.925,113.137L69.851,112.602L69.778,112.07L69.706,111.541L69.636,111.014L69.567,110.49L69.5,109.969L69.433,109.451L69.368,108.935L69.304,108.422L69.18,107.404L69.061,106.399L68.947,105.404L68.837,104.422L68.732,103.452L68.632,102.494L68.535,101.549L68.443,100.616L68.356,99.697L68.272,98.791L68.192,97.898L68.116,97.019L68.044,96.154L67.976,95.303L67.911,94.466L67.85,93.644L67.793,92.837L67.738,92.045L67.687,91.267L67.639,90.506L67.594,89.76L67.552,89.03L67.512,88.316L67.476,87.618L67.442,86.937L67.411,86.273L67.382,85.625L67.356,84.995L67.332,84.382L67.31,83.787L67.29,83.21L67.272,82.651L67.256,82.11L67.242,81.587L67.229,81.084L67.218,80.599L67.209,80.134L67.201,79.687L67.194,79.261L67.189,78.854L67.181,78.101L67.177,77.431L67.176,76.843L67.178,76.342L67.181,75.927L67.184,75.602L67.188,75.367L67.191,75.178L67.844,75.186L68.493,75.191L69.14,75.194L69.784,75.194L70.426,75.192L71.065,75.187L71.701,75.18L72.335,75.171L72.966,75.159L73.594,75.144L74.22,75.127L74.843,75.108L75.464,75.086L76.082,75.062L76.697,75.036L77.31,75.007L77.92,74.977L78.527,74.943L79.132,74.908L79.734,74.87L80.334,74.831L80.931,74.789L81.525,74.745L82.117,74.698L82.706,74.65L83.293,74.6L83.876,74.547L84.458,74.492L85.036,74.436L85.612,74.377L86.186,74.316L86.757,74.254L87.325,74.189L87.89,74.123L88.453,74.054L89.014,73.984L89.571,73.912L90.127,73.837L90.679,73.762L91.229,73.684L91.776,73.604L92.321,73.523L92.863,73.44L93.403,73.355L93.939,73.268L94.474,73.18L95.005,73.09L95.534,72.999L96.061,72.905L96.585,72.811L97.106,72.714L97.625,72.616L98.141,72.517L98.654,72.415L99.165,72.313L99.673,72.209L100.179,72.103L100.682,71.996L101.183,71.887L101.681,71.778L102.176,71.666L102.669,71.553L103.159,71.439L103.646,71.324L104.131,71.207L104.613,71.089L105.093,70.97L105.57,70.849L106.045,70.728L106.517,70.605L106.986,70.48L107.453,70.355L107.917,70.228L108.379,70.101L108.838,69.972L109.294,69.842L109.748,69.711L110.199,69.579L110.648,69.446L111.094,69.312L111.538,69.177L111.979,69.041L112.417,68.903L112.853,68.765L113.286,68.627L113.717,68.487L114.145,68.346L114.57,68.205L114.993,68.062L115.414,67.919L115.831,67.775L116.247,67.63L116.659,67.485L117.069,67.338L117.477,67.191L117.882,67.044L118.284,66.895L118.684,66.746L119.081,66.597L119.475,66.446L119.868,66.295L120.257,66.144L120.644,65.992L121.028,65.839L121.41,65.686L121.789,65.533L122.166,65.379L122.54,65.224L122.912,65.069L123.28,64.914L123.647,64.758L124.011,64.602L124.372,64.445L124.731,64.289L125.087,64.131L125.441,63.974L125.792,63.816L126.14,63.658L126.486,63.5L126.829,63.341L127.17,63.183L127.508,63.024L127.844,62.865L128.177,62.706L128.508,62.547L128.836,62.387L129.161,62.228L129.484,62.068L129.805,61.909L130.123,61.749L130.438,61.59L130.751,61.43L131.061,61.271L131.369,61.111L131.674,60.952L131.976,60.793L132.276,60.633L132.574,60.474L132.869,60.316L133.161,60.157L133.451,59.999L133.738,59.84L134.023,59.682L134.305,59.525L134.585,59.367L134.862,59.21L135.137,59.053L135.409,58.897L135.678,58.741L135.945,58.585L136.21,58.43L136.472,58.275L136.731,58.12L136.988,57.966L137.242,57.813L137.494,57.66L137.99,57.355L138.476,57.053L138.952,56.753L139.418,56.456L139.873,56.161L140.319,55.87L140.754,55.581L141.179,55.296L141.595,55.014L142,54.735L142.395,54.46L142.78,54.189L143.155,53.922L143.519,53.659L143.874,53.401L144.219,53.147L144.554,52.897L144.878,52.653L145.193,52.413L145.498,52.179L145.792,51.95L146.077,51.726L146.351,51.508L146.616,51.295L146.871,51.089L147.115,50.888L147.35,50.694L147.574,50.507L147.789,50.325L147.994,50.151L148.188,49.983L148.373,49.823L148.548,49.67L148.712,49.524L148.867,49.385L149.012,49.254L149.272,49.017L149.493,48.811L149.673,48.64L149.814,48.504L149.916,48.405L150,48.32L150.084,48.405ZM149.607,63.06L149.183,63.362L148.748,63.668L148.302,63.978L147.846,64.292L147.379,64.609L146.902,64.93L146.414,65.253L145.915,65.58L145.405,65.909L144.885,66.241L144.354,66.576L143.813,66.913L143.268,67.247L142.981,67.422L142.698,67.592L142.412,67.764L142.124,67.935L141.833,68.107L141.54,68.28L141.244,68.452L140.945,68.625L140.643,68.799L140.339,68.973L140.032,69.147L139.722,69.321L139.41,69.495L139.095,69.67L138.777,69.845L138.457,70.02L138.134,70.196L137.808,70.371L137.48,70.546L137.149,70.722L136.815,70.898L136.478,71.074L136.139,71.249L135.797,71.425L135.453,71.601L135.105,71.777L134.755,71.952L134.403,72.128L134.047,72.303L133.689,72.479L133.328,72.654L132.965,72.829L132.599,73.004L132.23,73.179L131.858,73.353L131.484,73.527L131.107,73.701L130.728,73.875L130.345,74.048L129.96,74.222L129.572,74.394L129.182,74.566L128.789,74.738L128.393,74.91L127.994,75.081L127.593,75.252L127.189,75.422L126.782,75.591L126.373,75.76L125.961,75.929L125.546,76.097L125.129,76.264L124.709,76.431L124.286,76.597L123.86,76.763L123.432,76.928L123.001,77.092L122.567,77.255L122.131,77.418L121.691,77.58L121.25,77.741L120.805,77.901L120.358,78.061L119.908,78.22L119.455,78.377L119,78.534L118.542,78.69L118.081,78.845L117.618,79L117.152,79.153L116.683,79.305L116.211,79.456L115.737,79.606L115.26,79.755L114.78,79.904L114.298,80.05L113.813,80.196L113.325,80.341L112.835,80.484L112.342,80.627L111.846,80.768L111.347,80.908L110.846,81.046L110.342,81.184L109.836,81.32L109.326,81.455L108.814,81.588L108.3,81.72L107.782,81.851L107.262,81.98L106.739,82.108L106.214,82.235L105.686,82.36L105.155,82.483L104.622,82.605L104.085,82.726L103.546,82.845L103.005,82.962L102.461,83.078L101.914,83.192L101.364,83.305L100.812,83.416L100.257,83.525L99.699,83.633L99.139,83.739L98.576,83.843L98.01,83.945L97.441,84.046L96.87,84.145L96.297,84.242L95.72,84.337L95.141,84.43L94.559,84.522L93.975,84.611L93.388,84.699L92.798,84.785L92.206,84.869L91.611,84.95L91.013,85.03L90.412,85.108L89.809,85.184L89.204,85.257L88.595,85.329L87.984,85.398L87.37,85.466L86.754,85.531L86.135,85.594L85.513,85.655L84.889,85.714L84.262,85.77L83.632,85.824L83,85.876L82.365,85.926L81.728,85.973L81.087,86.018L80.445,86.061L79.799,86.101L79.151,86.139L78.552,86.171L78.563,86.391L78.595,87.043L78.63,87.711L78.668,88.395L78.708,89.095L78.751,89.81L78.797,90.541L78.846,91.286L78.899,92.047L78.954,92.822L79.013,93.612L79.075,94.416L79.141,95.234L79.21,96.066L79.283,96.911L79.359,97.769L79.44,98.641L79.524,99.525L79.613,100.423L79.705,101.332L79.802,102.254L79.903,103.188L80.009,104.133L80.119,105.09L80.234,106.058L80.354,107.042L80.414,107.531L80.477,108.028L80.541,108.527L80.606,109.028L80.672,109.533L80.74,110.04L80.809,110.549L80.879,111.061L80.95,111.575L81.023,112.092L81.097,112.611L81.172,113.133L81.248,113.657L81.326,114.183L81.406,114.712L81.486,115.243L81.568,115.776L81.652,116.312L81.736,116.849L81.822,117.389L81.91,117.931L81.999,118.475L82.089,119.022L82.181,119.57L82.275,120.12L82.37,120.672L82.466,121.227L82.564,121.783L82.663,122.341L82.764,122.901L82.866,123.463L82.97,124.027L83.075,124.592L83.182,125.159L83.291,125.728L83.401,126.299L83.513,126.872L83.626,127.446L83.741,128.021L83.857,128.599L83.975,129.178L84.095,129.758L84.217,130.34L84.34,130.924L84.465,131.509L84.591,132.095L84.719,132.683L84.849,133.272L84.981,133.863L85.114,134.454L85.249,135.048L85.386,135.642L85.524,136.238L85.665,136.834L85.807,137.433L85.951,138.032L86.096,138.632L86.244,139.233L86.393,139.836L86.544,140.44L86.697,141.044L86.852,141.65L87.009,142.256L87.168,142.863L87.328,143.472L87.49,144.081L87.655,144.691L87.821,145.302L87.989,145.913L88.159,146.526L88.331,147.139L88.505,147.753L88.681,148.367L88.859,148.982L89.039,149.598L89.221,150.214L89.405,150.831L89.59,151.449L89.778,152.067L89.968,152.685L90.16,153.304L90.354,153.923L90.551,154.543L90.749,155.163L90.949,155.783L91.151,156.404L91.356,157.025L91.563,157.646L91.771,158.267L91.982,158.889L92.195,159.511L92.41,160.133L92.628,160.755L92.847,161.377L93.069,161.999L93.293,162.621L93.519,163.243L93.747,163.865L93.977,164.487L94.21,165.109L94.445,165.731L94.682,166.353L94.922,166.975L95.163,167.596L95.407,168.217L95.654,168.838L95.902,169.459L96.153,170.079L96.406,170.699L96.662,171.319L96.92,171.938L97.18,172.557L97.442,173.175L97.707,173.793L97.974,174.41L98.244,175.027L98.516,175.643L98.791,176.259L99.067,176.874L99.347,177.489L99.628,178.102L99.912,178.716L100.199,179.328L100.488,179.94L100.779,180.551L101.073,181.161L101.369,181.77L101.668,182.378L101.969,182.986L102.273,183.593L102.579,184.198L102.888,184.803L103.2,185.407L103.513,186.009L103.83,186.611L104.149,187.212L104.47,187.811L104.794,188.41L105.121,189.007L105.452,189.606L105.706,190.063L105.963,190.52L106.22,190.974L106.478,191.427L106.736,191.876L106.995,192.324L107.254,192.769L107.514,193.211L107.775,193.652L108.035,194.089L108.297,194.525L108.559,194.958L108.821,195.389L109.084,195.817L109.347,196.243L109.61,196.667L109.874,197.088L110.139,197.507L110.403,197.924L110.668,198.339L110.934,198.751L111.2,199.16L111.466,199.568L111.732,199.973L111.999,200.376L112.266,200.776L112.533,201.175L112.801,201.571L113.069,201.964L113.337,202.356L113.605,202.745L113.873,203.132L114.142,203.517L114.411,203.899L114.68,204.279L114.949,204.657L115.219,205.033L115.488,205.406L115.758,205.777L116.027,206.146L116.297,206.513L116.567,206.878L116.837,207.24L117.107,207.6L117.377,207.958L117.647,208.314L117.917,208.668L118.188,209.019L118.458,209.368L118.728,209.715L118.998,210.06L119.268,210.403L119.538,210.744L119.808,211.082L120.078,211.418L120.348,211.752L120.617,212.084L120.887,212.414L121.156,212.742L121.425,213.067L121.694,213.391L121.963,213.712L122.232,214.031L122.501,214.349L122.769,214.664L123.037,214.977L123.305,215.287L123.572,215.596L123.84,215.903L124.107,216.207L124.374,216.51L124.64,216.81L124.906,217.109L125.172,217.405L125.438,217.699L125.703,217.991L125.968,218.282L126.232,218.57L126.496,218.856L126.76,219.14L127.023,219.422L127.286,219.702L127.548,219.98L127.81,220.256L128.072,220.53L128.332,220.802L128.593,221.072L128.853,221.34L129.112,221.606L129.371,221.87L129.63,222.131L129.887,222.392L130.145,222.65L130.401,222.906L130.657,223.16L130.913,223.412L131.168,223.662L131.422,223.91L131.675,224.157L131.928,224.401L132.18,224.643L132.432,224.884L132.683,225.122L132.933,225.359L133.182,225.594L133.431,225.826L133.678,226.057L133.926,226.286L134.172,226.513L134.417,226.738L134.662,226.961L134.906,227.183L135.149,227.402L135.391,227.62L135.633,227.836L135.868,228.045L136.352,228.471L136.826,228.886L137.297,229.293L137.764,229.693L138.227,230.086L138.686,230.471L139.141,230.849L139.592,231.219L140.038,231.583L140.48,231.939L140.917,232.288L141.349,232.63L141.777,232.965L142.199,233.293L142.617,233.614L143.03,233.928L143.437,234.235L143.839,234.535L144.235,234.828L144.626,235.115L145.011,235.395L145.391,235.667L145.765,235.934L146.132,236.193L146.494,236.446L146.849,236.692L147.198,236.932L147.541,237.165L147.877,237.391L148.206,237.611L148.529,237.825L148.845,238.032L149.154,238.233L149.456,238.427L149.751,238.615L150,238.773L150.211,238.639L150.505,238.452L150.807,238.258L151.116,238.058L151.431,237.851L151.753,237.638L152.082,237.419L152.418,237.193L152.76,236.96L153.109,236.721L153.464,236.475L153.826,236.223L154.193,235.964L154.567,235.698L154.946,235.425L155.331,235.146L155.722,234.86L156.118,234.567L156.52,234.267L156.928,233.96L157.34,233.647L157.758,233.326L158.181,232.998L158.608,232.664L159.041,232.322L159.478,231.973L159.92,231.617L160.367,231.253L160.817,230.883L161.272,230.505L161.732,230.12L162.195,229.728L162.663,229.328L163.134,228.921L163.609,228.506L164.093,228.079L164.328,227.871L164.57,227.655L164.812,227.437L165.055,227.218L165.3,226.996L165.544,226.773L165.79,226.548L166.037,226.321L166.284,226.092L166.532,225.861L166.781,225.628L167.031,225.393L167.281,225.157L167.532,224.918L167.784,224.678L168.036,224.435L168.289,224.191L168.543,223.944L168.798,223.696L169.053,223.446L169.308,223.194L169.565,222.939L169.822,222.683L170.079,222.425L170.337,222.165L170.596,221.903L170.855,221.639L171.115,221.373L171.375,221.105L171.636,220.835L171.897,220.563L172.159,220.288L172.421,220.012L172.684,219.734L172.947,219.454L173.21,219.172L173.474,218.888L173.739,218.601L174.004,218.313L174.269,218.023L174.534,217.73L174.8,217.436L175.066,217.139L175.333,216.841L175.6,216.54L175.867,216.237L176.134,215.933L176.402,215.626L176.67,215.317L176.938,215.006L177.207,214.692L177.475,214.377L177.744,214.06L178.013,213.74L178.282,213.419L178.552,213.095L178.822,212.769L179.091,212.441L179.361,212.111L179.631,211.779L179.901,211.444L180.172,211.108L180.442,210.769L180.712,210.428L180.983,210.085L181.253,209.74L181.524,209.392L181.794,209.043L182.065,208.691L182.335,208.337L182.606,207.981L182.876,207.623L183.146,207.262L183.417,206.899L183.687,206.534L183.957,206.167L184.228,205.798L184.498,205.426L184.767,205.052L185.037,204.676L185.307,204.298L185.576,203.917L185.845,203.534L186.115,203.149L186.383,202.762L186.652,202.372L186.92,201.981L187.189,201.586L187.457,201.19L187.724,200.791L187.992,200.39L188.259,199.987L188.526,199.581L188.792,199.173L189.058,198.763L189.324,198.35L189.59,197.935L189.855,197.518L190.119,197.098L190.384,196.677L190.648,196.252L190.911,195.826L191.174,195.397L191.437,194.965L191.699,194.532L191.961,194.096L192.222,193.657L192.483,193.216L192.743,192.773L193.003,192.327L193.262,191.879L193.521,191.429L193.779,190.976L194.036,190.521L194.293,190.063L194.548,189.606L194.879,189.007L195.206,188.41L195.53,187.811L195.851,187.212L196.17,186.611L196.487,186.009L196.8,185.407L197.112,184.803L197.421,184.198L197.727,183.593L198.031,182.986L198.332,182.378L198.631,181.77L198.927,181.161L199.221,180.551L199.512,179.94L199.801,179.328L200.088,178.716L200.372,178.102L200.653,177.489L200.933,176.874L201.209,176.259L201.484,175.643L201.756,175.027L202.026,174.41L202.293,173.793L202.558,173.175L202.82,172.557L203.08,171.938L203.338,171.319L203.594,170.699L203.847,170.079L204.098,169.459L204.346,168.838L204.593,168.217L204.837,167.596L205.078,166.975L205.318,166.353L205.555,165.731L205.79,165.109L206.023,164.487L206.253,163.865L206.481,163.243L206.707,162.621L206.931,161.999L207.153,161.377L207.372,160.755L207.59,160.133L207.805,159.511L208.018,158.889L208.229,158.267L208.437,157.646L208.644,157.025L208.849,156.404L209.051,155.783L209.251,155.163L209.449,154.543L209.646,153.923L209.84,153.304L210.032,152.685L210.222,152.067L210.409,151.449L210.595,150.831L210.779,150.214L210.961,149.598L211.141,148.982L211.319,148.367L211.495,147.753L211.669,147.139L211.841,146.526L212.011,145.913L212.179,145.302L212.345,144.691L212.51,144.081L212.672,143.472L212.832,142.863L212.991,142.256L213.148,141.65L213.303,141.044L213.456,140.44L213.607,139.836L213.756,139.233L213.904,138.632L214.049,138.032L214.193,137.433L214.335,136.834L214.476,136.238L214.614,135.642L214.751,135.048L214.886,134.454L215.019,133.863L215.151,133.272L215.281,132.683L215.409,132.095L215.535,131.509L215.66,130.924L215.783,130.34L215.905,129.758L216.025,129.178L216.143,128.599L216.259,128.021L216.374,127.446L216.487,126.871L216.599,126.299L216.709,125.728L216.818,125.159L216.925,124.592L217.03,124.027L217.134,123.463L217.236,122.901L217.337,122.341L217.436,121.783L217.534,121.227L217.63,120.672L217.725,120.12L217.819,119.57L217.911,119.021L218.001,118.475L218.09,117.931L218.178,117.389L218.264,116.85L218.348,116.312L218.432,115.776L218.514,115.243L218.594,114.712L218.674,114.183L218.752,113.657L218.828,113.133L218.903,112.611L218.977,112.092L219.05,111.575L219.121,111.061L219.191,110.549L219.26,110.039L219.328,109.533L219.394,109.029L219.459,108.527L219.523,108.028L219.586,107.531L219.647,107.042L219.766,106.058L219.881,105.09L219.991,104.133L220.097,103.187L220.198,102.254L220.295,101.332L220.387,100.423L220.476,99.525L220.56,98.641L220.641,97.769L220.717,96.911L220.79,96.066L220.859,95.234L220.925,94.416L220.987,93.612L221.046,92.822L221.101,92.047L221.154,91.286L221.203,90.541L221.249,89.81L221.292,89.095L221.332,88.395L221.37,87.711L221.405,87.043L221.437,86.392L221.448,86.171L220.849,86.139L220.201,86.101L219.555,86.061L218.913,86.018L218.272,85.973L217.635,85.926L217,85.876L216.368,85.824L215.738,85.77L215.111,85.714L214.487,85.655L213.865,85.594L213.246,85.531L212.63,85.466L212.016,85.398L211.405,85.329L210.796,85.257L210.191,85.184L209.588,85.108L208.987,85.03L208.389,84.95L207.794,84.869L207.202,84.785L206.612,84.699L206.025,84.611L205.441,84.522L204.859,84.43L204.28,84.337L203.703,84.242L203.13,84.145L202.559,84.046L201.99,83.945L201.424,83.843L200.861,83.739L200.301,83.633L199.743,83.525L199.188,83.416L198.636,83.305L198.086,83.192L197.539,83.078L196.995,82.962L196.454,82.845L195.915,82.726L195.378,82.605L194.845,82.483L194.314,82.36L193.786,82.235L193.261,82.108L192.738,81.98L192.218,81.851L191.7,81.72L191.186,81.588L190.674,81.455L190.164,81.32L189.658,81.184L189.154,81.046L188.653,80.908L188.154,80.768L187.658,80.627L187.165,80.484L186.675,80.341L186.187,80.196L185.702,80.05L185.22,79.904L184.74,79.755L184.263,79.606L183.789,79.456L183.317,79.305L182.848,79.153L182.382,79L181.919,78.845L181.458,78.69L181,78.534L180.545,78.377L180.092,78.22L179.642,78.061L179.195,77.901L178.75,77.741L178.309,77.58L177.869,77.418L177.433,77.255L176.999,77.092L176.568,76.928L176.14,76.763L175.714,76.597L175.292,76.431L174.871,76.264L174.454,76.097L174.039,75.929L173.627,75.76L173.218,75.591L172.811,75.422L172.407,75.252L172.006,75.081L171.607,74.91L171.211,74.738L170.818,74.566L170.428,74.394L170.04,74.222L169.655,74.048L169.272,73.875L168.893,73.701L168.516,73.527L168.142,73.353L167.77,73.179L167.401,73.004L167.035,72.829L166.672,72.654L166.311,72.479L165.953,72.303L165.597,72.128L165.245,71.952L164.895,71.777L164.547,71.601L164.203,71.425L163.861,71.249L163.522,71.074L163.185,70.898L162.851,70.722L162.52,70.546L162.192,70.371L161.866,70.196L161.543,70.02L161.223,69.845L160.905,69.67L160.59,69.495L160.278,69.321L159.968,69.147L159.661,68.973L159.357,68.799L159.055,68.625L158.756,68.452L158.46,68.28L158.167,68.107L157.876,67.935L157.588,67.764L157.302,67.592L157.019,67.422L156.732,67.247L156.187,66.913L155.646,66.576L155.115,66.241L154.595,65.909L154.085,65.58L153.586,65.253L153.098,64.93L152.621,64.609L152.154,64.292L151.698,63.978L151.252,63.668L150.817,63.362L150.393,63.06L150,62.777L149.607,63.06Z" style="fill:white;"/>
            </g>
        </g>
    </g>
</svg>
