<?xml version="1.0" encoding="UTF-8" standalone="no"?>
<!DOCTYPE svg PUBLIC "-//W3C//DTD SVG 1.1//EN" "http://www.w3.org/Graphics/SVG/1.1/DTD/svg11.dtd">
<svg width="100%" height="100%" viewBox="0 0 271 271" version="1.1" xmlns="http://www.w3.org/2000/svg" xmlns:xlink="http://www.w3.org/1999/xlink" xml:space="preserve" xmlns:serif="http://www.serif.com/" style="fill-rule:evenodd;clip-rule:evenodd;stroke-linejoin:round;stroke-miterlimit:1.41421;">
    <g transform="matrix(1,0,0,1,-14.7978,-14.7927)">
        <path d="M139.811,98.502L139.811,54.267L120.899,73.179L120.899,43.889L149.995,14.793L179.091,43.889L179.091,73.095L160.157,54.161L160.157,98.21C171.656,95.412 183.085,88.891 193.598,82.295C209.045,72.605 223.294,60.792 239.049,52.307C241.865,50.79 244.707,49.177 247.774,49.208C252.056,49.32 250.029,56.696 247.537,61.264C241.749,71.879 234.36,81.505 227.484,91.569C217.235,106.611 206.471,121.79 201.612,139.372C201.573,139.517 201.533,139.661 201.495,139.806L245.728,139.806L226.816,120.894L256.106,120.894L285.202,149.99L256.106,179.086L226.9,179.086L245.834,160.152L201.724,160.152C204.529,171.679 211.122,183.097 217.708,193.591C226.373,207.398 236.347,220.351 244.862,234.154C248.313,239.746 253.953,247.681 249.503,250.346C246.592,252.09 243.313,249.851 240.522,248.451C230.172,243.259 220.892,236.03 211.212,229.374C195.415,218.534 179.59,207.008 161.07,201.736C160.776,201.652 160.483,201.573 160.189,201.497L160.189,245.723L179.101,226.81L179.101,256.101L150.005,285.197L120.909,256.101L120.909,226.895L139.843,245.829L139.843,201.79C128.346,204.588 116.919,211.107 106.409,217.701C92.603,226.363 79.65,236.333 65.847,244.846C60.255,248.294 52.321,253.933 49.655,249.483C47.912,246.572 50.15,243.294 51.55,240.504C56.742,230.155 63.971,220.879 70.627,211.201C81.467,195.407 92.993,179.587 98.264,161.069C98.348,160.774 98.428,160.479 98.504,160.184L54.272,160.184L73.184,179.096L43.894,179.096L14.798,150L43.894,120.904L73.1,120.904L54.166,139.838L98.209,139.838C95.41,128.342 88.892,116.916 82.299,106.406C73.637,92.598 63.667,79.642 55.156,65.838C51.707,60.245 46.069,52.309 50.519,49.644C53.429,47.9 56.708,50.139 59.498,51.54C69.845,56.733 79.122,63.964 88.799,70.62C104.592,81.463 120.413,92.991 138.931,98.264C139.224,98.348 139.517,98.427 139.811,98.502ZM199.438,160.152L198.967,160.152C194.95,179.597 179.628,194.928 160.189,198.959L160.189,199.408C161.67,199.747 163.154,200.165 164.638,200.664C175.122,204.19 184.804,209.751 194.215,215.63C209.845,225.393 224.117,237.388 240.328,246.006C242.821,247.33 245.598,249.237 248.182,248.651C249.971,248.245 247.923,244.015 246.468,241.162C246.17,240.578 245.861,240 245.545,239.426C240.314,229.946 233.797,221.29 227.668,212.381C217.567,197.67 207.213,182.784 201.236,166.27C200.508,164.26 199.906,162.219 199.438,160.152ZM101.04,160.184L100.528,160.184C98.422,168.868 94.173,177.419 89.666,185.354C79.965,202.43 67.693,218 57.357,234.558C54.756,238.724 51.291,243.072 51.302,247.664C51.307,249.888 55.891,247.952 58.84,246.449C59.423,246.152 60.002,245.843 60.575,245.527C70.055,240.298 78.71,233.784 87.619,227.657C102.335,217.556 117.313,207.175 133.73,201.234C135.738,200.508 137.778,199.906 139.843,199.439L139.843,198.966C120.4,194.947 105.069,179.624 101.04,160.184ZM139.811,100.591C138.33,100.252 136.847,99.834 135.363,99.335C124.88,95.809 115.2,90.246 105.792,84.367C90.165,74.602 75.898,62.605 59.691,53.985C57.199,52.66 54.423,50.753 51.84,51.339C49.864,51.787 52.114,56.006 53.552,58.829C53.85,59.413 54.158,59.991 54.475,60.565C59.651,69.952 66.183,78.654 72.344,87.614C83.695,104.153 96.007,121.041 100.675,139.838L101.035,139.838C105.055,120.398 120.375,105.071 139.811,101.041L139.811,100.591ZM199.41,139.806C199.749,138.327 200.166,136.845 200.665,135.363C204.192,124.879 209.756,115.198 215.636,105.789C225.156,90.555 236.621,76.561 245.377,60.867C246.923,58.095 248.976,55.183 248.71,52.084C248.669,51.607 248.315,51.287 247.63,51.29C242.09,51.405 236.892,55.794 231.332,59.42C210.018,73.319 189.999,90.178 166.271,98.765C164.264,99.491 162.223,100.093 160.157,100.56L160.157,101.034C179.597,105.052 194.926,120.371 198.958,139.806L199.41,139.806Z" style="fill:rgb(75,75,75);"/>
    </g>
    <g transform="matrix(1.22305,0,0,1.22305,-48.2553,-48.2503)">
        <circle cx="150" cy="150" r="28.177" style="fill:rgb(255,254,254);"/>
    </g>
</svg>
