<?xml version="1.0" encoding="UTF-8" standalone="no"?>
<!DOCTYPE svg PUBLIC "-//W3C//DTD SVG 1.1//EN" "http://www.w3.org/Graphics/SVG/1.1/DTD/svg11.dtd">
<svg width="100%" height="100%" viewBox="0 0 198 159" version="1.1" xmlns="http://www.w3.org/2000/svg" xmlns:xlink="http://www.w3.org/1999/xlink" xml:space="preserve" xmlns:serif="http://www.serif.com/" style="fill-rule:evenodd;clip-rule:evenodd;stroke-linejoin:round;stroke-miterlimit:1.41421;">
    <g transform="matrix(1,0,0,1,-51.3447,-70.9972)">
        <g transform="matrix(1.24916,0,0,1.21656,-37.7449,-42.62)">
            <path d="M222.869,110.307C222.869,104.6 218.357,99.968 212.8,99.968L87.793,99.968C82.235,99.968 77.724,104.6 77.724,110.307L77.724,206.356C77.724,212.062 82.235,216.695 87.793,216.695L212.8,216.695C218.357,216.695 222.869,212.062 222.869,206.356L222.869,110.307Z" style="fill:rgb(255,254,254);"/>
            <path d="M212.93,99.969L213.06,99.971L213.189,99.975L213.318,99.981L213.446,99.989L213.574,99.998L213.702,100.009L213.829,100.021L213.956,100.035L214.082,100.051L214.207,100.068L214.333,100.087L214.457,100.107L214.582,100.129L214.705,100.153L214.828,100.178L214.951,100.205L215.073,100.233L215.194,100.262L215.315,100.294L215.436,100.326L215.555,100.36L215.674,100.396L215.793,100.433L215.911,100.471L216.028,100.511L216.145,100.553L216.261,100.596L216.376,100.64L216.491,100.685L216.605,100.732L216.718,100.781L216.83,100.831L216.942,100.882L217.053,100.934L217.164,100.988L217.273,101.043L217.382,101.1L217.491,101.157L217.598,101.216L217.705,101.277L217.81,101.338L217.915,101.401L218.02,101.465L218.123,101.531L218.226,101.598L218.327,101.665L218.428,101.735L218.528,101.805L218.627,101.876L218.726,101.949L218.823,102.023L218.919,102.098L219.015,102.174L219.11,102.251L219.203,102.33L219.296,102.41L219.388,102.49L219.479,102.572L219.569,102.655L219.658,102.739L219.746,102.824L219.833,102.91L219.919,102.997L220.003,103.086L220.087,103.175L220.17,103.265L220.252,103.357L220.333,103.449L220.412,103.542L220.491,103.636L220.569,103.732L220.645,103.828L220.72,103.925L220.795,104.023L220.868,104.122L220.94,104.222L221.01,104.323L221.08,104.425L221.148,104.528L221.216,104.631L221.282,104.736L221.347,104.841L221.41,104.947L221.473,105.054L221.534,105.162L221.594,105.271L221.653,105.38L221.711,105.49L221.767,105.602L221.822,105.713L221.876,105.826L221.928,105.939L221.979,106.053L222.029,106.168L222.077,106.284L222.124,106.4L222.17,106.517L222.215,106.635L222.258,106.753L222.299,106.872L222.34,106.992L222.379,107.113L222.416,107.234L222.452,107.355L222.487,107.478L222.52,107.6L222.552,107.724L222.582,107.848L222.611,107.973L222.638,108.098L222.664,108.224L222.689,108.35L222.712,108.477L222.733,108.605L222.753,108.733L222.771,108.862L222.788,108.991L222.803,109.12L222.817,109.25L222.829,109.381L222.84,109.512L222.849,109.643L222.856,109.775L222.862,109.907L222.866,110.04L222.868,110.173L222.869,110.307L222.869,206.356L222.868,206.489L222.866,206.622L222.862,206.755L222.856,206.887L222.849,207.019L222.84,207.151L222.829,207.282L222.817,207.412L222.803,207.542L222.788,207.672L222.771,207.801L222.753,207.929L222.733,208.057L222.712,208.185L222.689,208.312L222.664,208.438L222.638,208.564L222.611,208.689L222.582,208.814L222.552,208.938L222.52,209.062L222.487,209.185L222.452,209.307L222.416,209.429L222.379,209.55L222.34,209.67L222.299,209.79L222.258,209.909L222.215,210.027L222.17,210.145L222.124,210.262L222.077,210.378L222.029,210.494L221.979,210.609L221.928,210.723L221.876,210.836L221.822,210.949L221.767,211.061L221.711,211.172L221.653,211.282L221.594,211.392L221.534,211.5L221.473,211.608L221.41,211.715L221.347,211.821L221.282,211.927L221.216,212.031L221.148,212.135L221.08,212.237L221.01,212.339L220.94,212.44L220.868,212.54L220.795,212.639L220.72,212.737L220.645,212.834L220.569,212.931L220.491,213.026L220.412,213.12L220.333,213.213L220.252,213.306L220.17,213.397L220.087,213.487L220.003,213.577L219.919,213.665L219.833,213.752L219.746,213.838L219.658,213.923L219.569,214.007L219.479,214.09L219.388,214.172L219.296,214.253L219.203,214.332L219.11,214.411L219.015,214.488L218.919,214.564L218.823,214.639L218.726,214.713L218.627,214.786L218.528,214.857L218.428,214.928L218.327,214.997L218.226,215.065L218.123,215.131L218.02,215.197L217.915,215.261L217.81,215.324L217.705,215.386L217.598,215.446L217.491,215.505L217.382,215.563L217.273,215.619L217.164,215.674L217.053,215.728L216.942,215.781L216.83,215.832L216.718,215.881L216.605,215.93L216.491,215.977L216.376,216.023L216.261,216.067L216.145,216.11L216.028,216.151L215.911,216.191L215.793,216.229L215.674,216.266L215.555,216.302L215.436,216.336L215.315,216.369L215.194,216.4L215.073,216.43L214.951,216.458L214.828,216.484L214.705,216.509L214.582,216.533L214.457,216.555L214.333,216.575L214.207,216.594L214.082,216.611L213.956,216.627L213.829,216.641L213.702,216.654L213.574,216.664L213.446,216.674L213.318,216.681L213.189,216.687L213.06,216.691L212.93,216.694L212.8,216.695L87.793,216.695L87.663,216.694L87.533,216.691L87.404,216.687L87.275,216.681L87.146,216.674L87.018,216.664L86.891,216.654L86.764,216.641L86.637,216.627L86.511,216.611L86.385,216.594L86.26,216.575L86.135,216.555L86.011,216.533L85.888,216.509L85.764,216.484L85.642,216.458L85.52,216.43L85.398,216.4L85.277,216.369L85.157,216.336L85.037,216.302L84.918,216.266L84.8,216.229L84.682,216.191L84.565,216.151L84.448,216.11L84.332,216.067L84.217,216.023L84.102,215.977L83.988,215.93L83.875,215.881L83.762,215.832L83.65,215.781L83.539,215.728L83.429,215.674L83.319,215.619L83.21,215.563L83.102,215.505L82.995,215.446L82.888,215.386L82.782,215.324L82.677,215.261L82.573,215.197L82.47,215.131L82.367,215.065L82.265,214.997L82.165,214.928L82.065,214.857L81.965,214.786L81.867,214.713L81.77,214.639L81.673,214.564L81.578,214.488L81.483,214.411L81.389,214.332L81.297,214.253L81.205,214.172L81.114,214.09L81.024,214.007L80.935,213.923L80.847,213.838L80.76,213.752L80.674,213.665L80.589,213.577L80.505,213.487L80.422,213.397L80.341,213.306L80.26,213.213L80.18,213.12L80.102,213.026L80.024,212.931L79.948,212.834L79.872,212.737L79.798,212.639L79.725,212.54L79.653,212.44L79.582,212.339L79.513,212.237L79.444,212.135L79.377,212.031L79.311,211.927L79.246,211.821L79.182,211.715L79.12,211.608L79.058,211.5L78.998,211.392L78.94,211.282L78.882,211.172L78.826,211.061L78.771,210.949L78.717,210.836L78.665,210.723L78.614,210.609L78.564,210.494L78.515,210.378L78.468,210.262L78.422,210.145L78.378,210.027L78.335,209.909L78.293,209.79L78.253,209.67L78.214,209.55L78.177,209.429L78.141,209.307L78.106,209.185L78.073,209.062L78.041,208.938L78.01,208.814L77.982,208.689L77.954,208.564L77.928,208.438L77.904,208.312L77.881,208.185L77.86,208.057L77.84,207.929L77.821,207.801L77.805,207.672L77.789,207.542L77.776,207.412L77.764,207.282L77.753,207.151L77.744,207.019L77.737,206.887L77.731,206.755L77.727,206.622L77.724,206.489L77.724,206.356L77.724,110.307L77.724,110.173L77.727,110.04L77.731,109.907L77.737,109.775L77.744,109.643L77.753,109.512L77.764,109.381L77.776,109.25L77.789,109.12L77.805,108.991L77.821,108.862L77.84,108.733L77.86,108.605L77.881,108.477L77.904,108.35L77.928,108.224L77.954,108.098L77.982,107.973L78.01,107.848L78.041,107.724L78.073,107.6L78.106,107.478L78.141,107.355L78.177,107.234L78.214,107.113L78.253,106.992L78.293,106.872L78.335,106.753L78.378,106.635L78.422,106.517L78.468,106.4L78.515,106.284L78.564,106.168L78.614,106.053L78.665,105.939L78.717,105.826L78.771,105.713L78.826,105.602L78.882,105.49L78.94,105.38L78.998,105.271L79.058,105.162L79.12,105.054L79.182,104.947L79.246,104.841L79.311,104.736L79.377,104.631L79.444,104.528L79.513,104.425L79.582,104.323L79.653,104.222L79.725,104.122L79.798,104.023L79.872,103.925L79.948,103.828L80.024,103.732L80.102,103.636L80.18,103.542L80.26,103.449L80.341,103.357L80.422,103.265L80.505,103.175L80.589,103.086L80.674,102.997L80.76,102.91L80.847,102.824L80.935,102.739L81.024,102.655L81.114,102.572L81.205,102.49L81.297,102.41L81.389,102.33L81.483,102.251L81.578,102.174L81.673,102.098L81.77,102.023L81.867,101.949L81.965,101.876L82.065,101.805L82.165,101.735L82.265,101.665L82.367,101.598L82.47,101.531L82.573,101.465L82.677,101.401L82.782,101.338L82.888,101.277L82.995,101.216L83.102,101.157L83.21,101.1L83.319,101.043L83.429,100.988L83.539,100.934L83.65,100.882L83.762,100.831L83.875,100.781L83.988,100.732L84.102,100.685L84.217,100.64L84.332,100.596L84.448,100.553L84.565,100.511L84.682,100.471L84.8,100.433L84.918,100.396L85.037,100.36L85.157,100.326L85.277,100.294L85.398,100.262L85.52,100.233L85.642,100.205L85.764,100.178L85.888,100.153L86.011,100.129L86.135,100.107L86.26,100.087L86.385,100.068L86.511,100.051L86.637,100.035L86.764,100.021L86.891,100.009L87.018,99.998L87.146,99.989L87.275,99.981L87.404,99.975L87.533,99.971L87.663,99.969L87.793,99.968L212.8,99.968L212.93,99.969ZM90.532,113.12L90.532,203.543L210.061,203.543L210.061,113.12L90.532,113.12Z" style="fill:rgb(77,77,77);"/>
        </g>
        <g transform="matrix(6.12323e-17,1,-0.187648,1.14901e-17,177.361,8.71835)">
            <rect x="104.624" y="117.507" width="16.014" height="56.608" style="fill:rgb(76,76,76);"/>
        </g>
        <g transform="matrix(6.12323e-17,1,-0.187648,1.14901e-17,157.74,8.71835)">
            <rect x="104.624" y="117.507" width="16.014" height="56.608" style="fill:rgb(76,76,76);"/>
        </g>
        <g transform="matrix(6.12323e-17,1,-0.187648,1.14901e-17,196.949,8.71835)">
            <rect x="104.624" y="117.507" width="16.014" height="56.608" style="fill:rgb(76,76,76);"/>
        </g>
        <g transform="matrix(1,0,0,1,0,0.346175)">
            <path d="M200.03,177.958L184.015,177.958L164.31,177.958L164.31,185.965L135.737,185.965L135.737,177.958L116.032,177.958L116.032,161.944L135.69,161.944L135.69,169.951L164.31,169.951L164.31,161.944L184.015,161.944L184.015,113.343L200.03,113.343L200.03,177.958ZM116.032,177.958L100.017,177.958L100.017,113.343L116.032,113.343L116.032,177.958Z" style="fill:rgb(76,76,76);"/>
        </g>
    </g>
</svg>
