<?xml version="1.0" encoding="UTF-8" standalone="no"?>
<!DOCTYPE svg PUBLIC "-//W3C//DTD SVG 1.1//EN" "http://www.w3.org/Graphics/SVG/1.1/DTD/svg11.dtd">
<svg width="100%" height="100%" viewBox="0 0 201 171" version="1.1" xmlns="http://www.w3.org/2000/svg" xmlns:xlink="http://www.w3.org/1999/xlink" xml:space="preserve" xmlns:serif="http://www.serif.com/" style="fill-rule:evenodd;clip-rule:evenodd;stroke-linejoin:round;stroke-miterlimit:1.41421;">
    <g transform="matrix(1,0,0,1,-49.9796,-79.279)">
        <g>
            <path d="M220.721,220.721C239.477,201.965 250.015,176.526 250.015,150C250.015,123.474 239.477,98.035 220.721,79.279L212.311,87.689C228.837,104.215 238.121,126.629 238.121,150C238.121,173.371 228.837,195.785 212.311,212.311L220.721,220.721Z" style="fill:rgb(77,77,77);"/>
            <g transform="matrix(-1,0,0,1,299.994,2.10765e-06)">
                <path d="M220.721,220.721C239.477,201.965 250.015,176.526 250.015,150C250.015,123.474 239.477,98.035 220.721,79.279L212.311,87.689C228.837,104.215 238.121,126.629 238.121,150C238.121,173.371 228.837,195.785 212.311,212.311L220.721,220.721Z" style="fill:rgb(77,77,77);"/>
            </g>
            <path d="M202.559,202.559C216.499,188.619 224.33,169.713 224.33,150C224.33,130.287 216.499,111.381 202.559,97.441L194.329,105.671C206.086,117.428 212.691,133.373 212.691,150C212.691,166.627 206.086,182.572 194.329,194.329L202.559,202.559Z" style="fill:rgb(77,77,77);"/>
            <g transform="matrix(-1,0,0,1,299.994,2.10765e-06)">
                <path d="M202.559,202.559C216.499,188.619 224.33,169.713 224.33,150C224.33,130.287 216.499,111.381 202.559,97.441L194.329,105.671C206.086,117.428 212.691,133.373 212.691,150C212.691,166.627 206.086,182.572 194.329,194.329L202.559,202.559Z" style="fill:rgb(77,77,77);"/>
            </g>
            <g transform="matrix(1,0,0,1,0,2.10765e-06)">
                <path d="M185.377,185.377C194.76,175.994 200.031,163.269 200.031,150C200.031,136.731 194.76,124.006 185.377,114.623L177.168,122.832C184.374,130.037 188.422,139.81 188.422,150C188.422,160.19 184.374,169.963 177.168,177.168L185.377,185.377Z" style="fill:rgb(77,77,77);"/>
            </g>
            <g transform="matrix(-1,0,0,1,299.994,4.2153e-06)">
                <path d="M185.377,185.377C194.76,175.994 200.031,163.269 200.031,150C200.031,136.731 194.76,124.006 185.377,114.623L177.168,122.832C184.374,130.037 188.422,139.81 188.422,150C188.422,160.19 184.374,169.963 177.168,177.168L185.377,185.377Z" style="fill:rgb(77,77,77);"/>
            </g>
        </g>
        <path d="M141.65,168.998C134.351,165.782 129.251,158.482 129.251,150C129.251,138.548 138.548,129.251 150,129.251C161.452,129.251 170.749,138.548 170.749,150C170.749,158.482 165.649,165.782 158.35,168.998L158.35,249.964L141.65,249.964L141.65,168.998Z" style="fill:rgb(77,77,77);"/>
    </g>
</svg>
