<?xml version="1.0" encoding="UTF-8" standalone="no"?>
<!DOCTYPE svg PUBLIC "-//W3C//DTD SVG 1.1//EN" "http://www.w3.org/Graphics/SVG/1.1/DTD/svg11.dtd">
<svg width="100%" height="100%" viewBox="0 0 192 93" version="1.1" xmlns="http://www.w3.org/2000/svg" xmlns:xlink="http://www.w3.org/1999/xlink" xml:space="preserve" xmlns:serif="http://www.serif.com/" style="fill-rule:evenodd;clip-rule:evenodd;stroke-linejoin:round;stroke-miterlimit:1.41421;">
    <g transform="matrix(1,0,0,1,-54.192,-103.92)">
        <g transform="matrix(1,0,0,1,16.2706,26.0628)">
            <path d="M47.137,123.841L80.641,104.257C81.889,103.585 82.369,102.529 82.369,101.377C82.369,100.609 82.177,99.841 81.793,99.169C81.217,97.921 80.065,96.769 78.529,96.769C78.049,96.769 77.377,96.961 76.801,97.345L41.569,118.369C39.073,119.905 37.921,121.249 37.921,123.937C37.921,126.529 39.073,127.873 41.473,129.217L76.705,150.529C77.281,150.913 77.953,151.105 78.529,151.105C79.969,151.105 81.121,150.049 81.793,148.705C82.081,148.033 82.273,147.265 82.273,146.593C82.273,145.441 81.793,144.385 80.641,143.617L47.137,123.841Z" style="fill:rgb(76,76,76);fill-rule:nonzero;"/>
            <path d="M220.321,123.841L186.817,143.617C185.569,144.385 185.089,145.441 185.089,146.593C185.089,147.265 185.281,148.033 185.569,148.705C186.241,150.049 187.393,151.105 188.929,151.105C189.505,151.105 190.081,150.913 190.657,150.529L225.985,129.217C228.289,127.873 229.537,126.529 229.537,123.937C229.537,121.249 228.289,119.905 225.889,118.369L190.657,97.345C190.081,96.961 189.409,96.769 188.833,96.769C187.393,96.769 186.145,97.921 185.569,99.169C185.281,99.841 185.089,100.609 185.089,101.281C185.089,102.433 185.569,103.489 186.817,104.257L220.321,123.841Z" style="fill:rgb(76,76,76);fill-rule:nonzero;"/>
        </g>
        <g transform="matrix(1,0,0,1,16.3186,29.5188)">
            <path d="M153.553,79.393C153.745,78.817 153.841,78.337 153.841,77.857C153.841,76.417 152.881,75.265 151.249,74.689C150.673,74.497 150.097,74.401 149.521,74.401C147.985,74.401 146.737,75.265 146.161,76.801L113.809,161.665C113.617,162.145 113.521,162.625 113.521,163.105C113.521,164.545 114.577,165.505 116.305,166.177C116.977,166.465 117.553,166.561 118.129,166.561C119.569,166.561 120.625,165.793 121.201,164.161L153.553,79.393Z" style="fill:rgb(76,76,76);fill-rule:nonzero;"/>
        </g>
    </g>
</svg>
