<?xml version="1.0" encoding="UTF-8" standalone="no"?>
<!DOCTYPE svg PUBLIC "-//W3C//DTD SVG 1.1//EN" "http://www.w3.org/Graphics/SVG/1.1/DTD/svg11.dtd">
<svg width="100%" height="100%" viewBox="0 0 300 300" version="1.1" xmlns="http://www.w3.org/2000/svg" xmlns:xlink="http://www.w3.org/1999/xlink" xml:space="preserve" xmlns:serif="http://www.serif.com/" style="fill-rule:evenodd;clip-rule:evenodd;stroke-linejoin:round;stroke-miterlimit:2;">
    <g id="Background">
        <path d="M300,30.271C300,13.564 286.436,0 269.729,0L30.271,0C13.564,0 0,13.564 0,30.271L0,269.729C0,286.436 13.564,300 30.271,300L269.729,300C286.436,300 300,286.436 300,269.729L300,30.271Z" style="fill:rgb(255,254,254);"/>
        <path d="M300,30.271C300,13.564 286.436,0 269.729,0L30.271,0C13.564,0 0,13.564 0,30.271L0,269.729C0,286.436 13.564,300 30.271,300L269.729,300C286.436,300 300,286.436 300,269.729L300,30.271ZM284,30.271L284,269.729C284,277.606 277.606,284 269.729,284C269.729,284 30.271,284 30.271,284C22.394,284 16,277.606 16,269.729L16,30.271C16,22.394 22.394,16 30.271,16L269.729,16C277.606,16 284,22.394 284,30.271Z" style="fill:rgb(16,158,0);"/>
        <path d="M216.943,234.5C216.943,230.502 213.697,227.257 209.7,227.257L90.3,227.257C86.303,227.257 83.057,230.502 83.057,234.5C83.057,238.497 86.303,241.743 90.3,241.743L209.7,241.743C213.697,241.743 216.943,238.497 216.943,234.5ZM250.015,71.91C250.015,63.45 243.146,56.581 234.686,56.581L65.308,56.581C56.848,56.581 49.98,63.45 49.98,71.91L49.98,185.253C49.98,193.713 56.848,200.581 65.308,200.581L234.686,200.581C243.146,200.581 250.015,193.713 250.015,185.253L250.015,71.91ZM235.604,71.402L65.604,71.402L65.604,185.402L235.604,185.402L235.604,71.402Z" style="fill:rgb(16,158,0);"/>
        <g transform="matrix(0.405892,0,0,0.405892,89.5973,68.3672)">
            <path d="M56.585,109.005L141.545,158.025L141.545,256.101L56.585,207.46L56.585,109.005ZM159.53,158.707L245.034,109.005L245.034,207.219L159.53,256.101L159.53,158.707ZM65.702,91.785L150.829,141.462L235.238,91.785L150.829,40.599L65.702,91.785Z" style="fill:rgb(16,158,0);"/>
        </g>
    </g>
</svg>
