<?xml version="1.0" encoding="UTF-8" standalone="no"?>
<!DOCTYPE svg PUBLIC "-//W3C//DTD SVG 1.1//EN" "http://www.w3.org/Graphics/SVG/1.1/DTD/svg11.dtd">
<svg width="100%" height="100%" viewBox="0 0 300 300" version="1.1" xmlns="http://www.w3.org/2000/svg" xmlns:xlink="http://www.w3.org/1999/xlink" xml:space="preserve" xmlns:serif="http://www.serif.com/" style="fill-rule:evenodd;clip-rule:evenodd;stroke-linejoin:round;stroke-miterlimit:2;">
    <g id="Background">
        <path d="M300,30.271C300,13.564 286.436,0 269.729,0L30.271,0C13.564,0 0,13.564 0,30.271L0,269.729C0,286.436 13.564,300 30.271,300L269.729,300C286.436,300 300,286.436 300,269.729L300,30.271Z" style="fill:rgb(255,254,254);"/>
        <path d="M300,30.271C300,13.564 286.436,0 269.729,0L30.271,0C13.564,0 0,13.564 0,30.271L0,269.729C0,286.436 13.564,300 30.271,300L269.729,300C286.436,300 300,286.436 300,269.729L300,30.271ZM284,30.271L284,269.729C284,277.606 277.606,284 269.729,284C269.729,284 30.271,284 30.271,284C22.394,284 16,277.606 16,269.729L16,30.271C16,22.394 22.394,16 30.271,16L269.729,16C277.606,16 284,22.394 284,30.271Z" style="fill:rgb(16,158,0);"/>
        <g transform="matrix(1.28407,0,0,1.28407,-48.6762,-42.5554)">
            <path d="M169.165,166.199L139.459,199.936L87.731,199.936C83.316,199.936 79.731,203.521 79.731,207.936C79.731,212.352 83.316,215.936 87.731,215.936L143.168,215.936C145.937,215.936 148.38,214.526 149.816,212.385L179.079,179.151L224.613,179.151C229.028,179.151 232.613,175.567 232.613,171.151C232.613,166.736 229.028,163.151 224.613,163.151L175.446,163.151C172.9,163.151 170.631,164.343 169.165,166.199ZM169.165,133.716L139.459,99.978L87.731,99.978C83.316,99.978 79.731,96.394 79.731,91.978C79.731,87.563 83.316,83.979 87.731,83.978L143.168,83.978C145.937,83.979 148.38,85.389 149.816,87.53L179.079,120.763L224.613,120.763C229.028,120.763 232.613,124.348 232.613,128.763C232.613,133.179 229.028,136.763 224.613,136.763L175.446,136.763C172.9,136.763 170.631,135.572 169.165,133.716Z" style="fill:rgb(16,158,0);"/>
        </g>
    </g>
</svg>
