<?xml version="1.0" encoding="UTF-8" standalone="no"?>
<!DOCTYPE svg PUBLIC "-//W3C//DTD SVG 1.1//EN" "http://www.w3.org/Graphics/SVG/1.1/DTD/svg11.dtd">
<svg width="100%" height="100%" viewBox="0 0 300 300" version="1.1" xmlns="http://www.w3.org/2000/svg" xmlns:xlink="http://www.w3.org/1999/xlink" xml:space="preserve" xmlns:serif="http://www.serif.com/" style="fill-rule:evenodd;clip-rule:evenodd;stroke-linejoin:round;stroke-miterlimit:2;">
    <g id="Background">
        <path d="M300,30.271C300,13.564 286.436,0 269.729,0L30.271,0C13.564,0 0,13.564 0,30.271L0,269.729C0,286.436 13.564,300 30.271,300L269.729,300C286.436,300 300,286.436 300,269.729L300,30.271Z" style="fill:rgb(255,254,254);"/>
        <path d="M300,30.271C300,13.564 286.436,0 269.729,0L30.271,0C13.564,0 0,13.564 0,30.271L0,269.729C0,286.436 13.564,300 30.271,300L269.729,300C286.436,300 300,286.436 300,269.729L300,30.271ZM284,30.271L284,269.729C284,277.606 277.606,284 269.729,284C269.729,284 30.271,284 30.271,284C22.394,284 16,277.606 16,269.729L16,30.271C16,22.394 22.394,16 30.271,16L269.729,16C277.606,16 284,22.394 284,30.271Z" style="fill:rgb(16,158,0);"/>
        <path d="M69.997,234.964L69.997,121.73L70.43,121.73L110,99.968L110.069,121.73L110.357,121.73L149.927,99.968L149.996,121.73L185.149,121.73L192.535,55.694L207.524,55.694L214.91,121.73L229.997,121.73L229.997,234.964L238.331,234.964L238.331,249.964L61.769,249.964L61.769,234.964L69.997,234.964ZM120.07,185.379L100.07,185.379L100.07,205.379L120.07,205.379L120.07,185.379ZM160.05,185.379L140.05,185.379L140.05,205.379L160.05,205.379L160.05,185.379ZM200.03,185.379L180.03,185.379L180.03,205.379L200.03,205.379L200.03,185.379ZM120.07,150L100.07,150L100.07,170L120.07,170L120.07,150ZM160.05,150L140.05,150L140.05,170L160.05,170L160.05,150ZM200.03,150L180.03,150L180.03,170L200.03,170L200.03,150Z" style="fill:rgb(16,158,0);"/>
    </g>
</svg>
