<?xml version="1.0" encoding="UTF-8" standalone="no"?>
<!DOCTYPE svg PUBLIC "-//W3C//DTD SVG 1.1//EN" "http://www.w3.org/Graphics/SVG/1.1/DTD/svg11.dtd">
<svg width="100%" height="100%" viewBox="0 0 300 300" version="1.1" xmlns="http://www.w3.org/2000/svg" xmlns:xlink="http://www.w3.org/1999/xlink" xml:space="preserve" xmlns:serif="http://www.serif.com/" style="fill-rule:evenodd;clip-rule:evenodd;stroke-linejoin:round;stroke-miterlimit:2;">
    <g id="Background">
        <path d="M300,30.271C300,13.564 286.436,0 269.729,0L30.271,0C13.564,0 0,13.564 0,30.271L0,269.729C0,286.436 13.564,300 30.271,300L269.729,300C286.436,300 300,286.436 300,269.729L300,30.271Z" style="fill:rgb(255,254,254);"/>
        <path d="M300,30.271C300,13.564 286.436,0 269.729,0L30.271,0C13.564,0 0,13.564 0,30.271L0,269.729C0,286.436 13.564,300 30.271,300L269.729,300C286.436,300 300,286.436 300,269.729L300,30.271ZM284,30.271L284,269.729C284,277.606 277.606,284 269.729,284C269.729,284 30.271,284 30.271,284C22.394,284 16,277.606 16,269.729L16,30.271C16,22.394 22.394,16 30.271,16L269.729,16C277.606,16 284,22.394 284,30.271Z" style="fill:rgb(16,158,0);"/>
        <g transform="matrix(1.51007,0,0,1.51007,-73.4551,-63.1163)">
            <path d="M207.746,91.788C207.746,90.698 206.86,89.813 205.77,89.813L190.766,89.813C189.676,89.813 188.791,90.698 188.791,91.788L188.791,190.472C188.791,191.562 189.676,192.447 190.766,192.447L205.77,192.447C206.86,192.447 207.746,191.562 207.746,190.472L207.746,91.788ZM179.467,141.121C179.38,145.907 93.977,195.33 90.689,192.315C87.543,189.43 87.222,93.207 90.689,89.927C93.641,87.135 179.556,136.24 179.467,141.121Z" style="fill:rgb(16,158,0);"/>
        </g>
    </g>
</svg>
