<?xml version="1.0" encoding="UTF-8" standalone="no"?>
<!DOCTYPE svg PUBLIC "-//W3C//DTD SVG 1.1//EN" "http://www.w3.org/Graphics/SVG/1.1/DTD/svg11.dtd">
<svg width="100%" height="100%" viewBox="0 0 300 300" version="1.1" xmlns="http://www.w3.org/2000/svg" xmlns:xlink="http://www.w3.org/1999/xlink" xml:space="preserve" xmlns:serif="http://www.serif.com/" style="fill-rule:evenodd;clip-rule:evenodd;stroke-linejoin:round;stroke-miterlimit:2;">
    <g id="Background">
        <path d="M300,30.271C300,13.564 286.436,0 269.729,0L30.271,0C13.564,0 0,13.564 0,30.271L0,269.729C0,286.436 13.564,300 30.271,300L269.729,300C286.436,300 300,286.436 300,269.729L300,30.271Z" style="fill:rgb(255,254,254);"/>
        <path d="M300,30.271C300,13.564 286.436,0 269.729,0L30.271,0C13.564,0 0,13.564 0,30.271L0,269.729C0,286.436 13.564,300 30.271,300L269.729,300C286.436,300 300,286.436 300,269.729L300,30.271ZM284,30.271L284,269.729C284,277.606 277.606,284 269.729,284C269.729,284 30.271,284 30.271,284C22.394,284 16,277.606 16,269.729L16,30.271C16,22.394 22.394,16 30.271,16L269.729,16C277.606,16 284,22.394 284,30.271Z" style="fill:rgb(16,158,0);"/>
        <path d="M94.046,180.962L94.046,224.945L49.98,224.945L49.98,180.962L94.046,180.962ZM250.015,224.945L206.001,224.945L206.001,180.962L250.015,180.962L250.015,224.945ZM194.058,224.945L105.988,224.945L105.988,180.962L194.058,180.962L194.058,224.945ZM144.029,130.929L144.029,169.019L49.98,169.019L49.98,130.929L144.029,130.929ZM250.015,169.019L155.971,169.019L155.971,130.929L250.015,130.929L250.015,169.019ZM94.046,118.987L49.98,118.987L49.98,75.055L94.046,75.055L94.046,118.987ZM194.058,75.055L194.058,118.987L105.988,118.987L105.988,75.055L194.058,75.055ZM250.015,118.987L206.001,118.987L206.001,75.055L250.015,75.055L250.015,118.987Z" style="fill:rgb(16,158,0);"/>
    </g>
</svg>
