<?xml version="1.0" encoding="UTF-8" standalone="no"?>
<!DOCTYPE svg PUBLIC "-//W3C//DTD SVG 1.1//EN" "http://www.w3.org/Graphics/SVG/1.1/DTD/svg11.dtd">
<svg width="100%" height="100%" viewBox="0 0 300 300" version="1.1" xmlns="http://www.w3.org/2000/svg" xmlns:xlink="http://www.w3.org/1999/xlink" xml:space="preserve" xmlns:serif="http://www.serif.com/" style="fill-rule:evenodd;clip-rule:evenodd;stroke-linejoin:round;stroke-miterlimit:2;">
    <g id="Background">
        <path d="M300,30.271C300,13.564 286.436,0 269.729,0L30.271,0C13.564,0 0,13.564 0,30.271L0,269.729C0,286.436 13.564,300 30.271,300L269.729,300C286.436,300 300,286.436 300,269.729L300,30.271Z" style="fill:rgb(255,254,254);"/>
        <path d="M300,30.271C300,13.564 286.436,0 269.729,0L30.271,0C13.564,0 0,13.564 0,30.271L0,269.729C0,286.436 13.564,300 30.271,300L269.729,300C286.436,300 300,286.436 300,269.729L300,30.271ZM284,30.271L284,269.729C284,277.606 277.606,284 269.729,284C269.729,284 30.271,284 30.271,284C22.394,284 16,277.606 16,269.729L16,30.271C16,22.394 22.394,16 30.271,16L269.729,16C277.606,16 284,22.394 284,30.271Z" style="fill:rgb(16,158,0);"/>
        <g transform="matrix(2.76622,0,0,2.76622,33.3881,46.661)">
            <path d="M35.309,68.715L14.926,68.715L14.926,43.063L42.156,15.834L69.385,43.063L69.385,68.715L49.003,68.715L49.003,48.315L35.309,48.315L35.309,68.715ZM42.156,6C42.773,6 43.39,6.234 43.86,6.705C43.887,6.732 43.913,6.759 43.939,6.787L77.607,40.456C78.546,41.395 78.546,42.92 77.607,43.86C76.667,44.799 75.142,44.799 74.203,43.86L42.156,11.813L10.109,43.86C9.169,44.799 7.644,44.799 6.705,43.86C5.765,42.92 5.765,41.395 6.705,40.456L40.373,6.787C40.398,6.759 40.425,6.732 40.452,6.705C40.922,6.234 41.539,6 42.156,6ZM59.487,18.217L59.487,14.384C59.487,13.21 60.304,12.257 61.312,12.257L64.963,12.257C65.97,12.257 66.788,13.21 66.788,14.384L66.788,25.519L59.487,18.217Z" style="fill:rgb(16,158,0);"/>
            <path d="M35.309,68.715L14.926,68.715L14.926,43.063L42.156,15.834L69.385,43.063L69.385,68.715L49.003,68.715L49.003,48.315L35.309,48.315L35.309,68.715ZM53.341,64.377L65.047,64.377L65.047,44.86L42.156,21.968L19.264,44.86L19.264,64.377L30.97,64.377L30.97,48.315C30.97,45.919 32.913,43.977 35.309,43.977L49.003,43.977C51.399,43.977 53.341,45.919 53.341,48.315L53.341,64.377ZM42.156,6C42.773,6 43.39,6.234 43.86,6.705C43.887,6.732 43.913,6.759 43.939,6.787L77.607,40.456C78.546,41.395 78.546,42.92 77.607,43.86C76.667,44.799 75.142,44.799 74.203,43.86L42.156,11.813L10.109,43.86C9.169,44.799 7.644,44.799 6.705,43.86C5.765,42.92 5.765,41.395 6.705,40.456L40.373,6.787C40.398,6.759 40.425,6.732 40.452,6.705C40.922,6.234 41.539,6 42.156,6ZM59.487,18.217L59.487,14.384C59.487,13.21 60.304,12.257 61.312,12.257L64.963,12.257C65.97,12.257 66.788,13.21 66.788,14.384L66.788,25.519L59.487,18.217Z" style="fill:rgb(16,158,0);"/>
        </g>
    </g>
</svg>
