<?xml version="1.0" encoding="UTF-8" standalone="no"?>
<!DOCTYPE svg PUBLIC "-//W3C//DTD SVG 1.1//EN" "http://www.w3.org/Graphics/SVG/1.1/DTD/svg11.dtd">
<svg width="100%" height="100%" viewBox="0 0 300 300" version="1.1" xmlns="http://www.w3.org/2000/svg" xmlns:xlink="http://www.w3.org/1999/xlink" xml:space="preserve" xmlns:serif="http://www.serif.com/" style="fill-rule:evenodd;clip-rule:evenodd;stroke-linejoin:round;stroke-miterlimit:2;">
    <g id="Background">
        <path d="M300,30.271C300,13.564 286.436,0 269.729,0L30.271,0C13.564,0 0,13.564 0,30.271L0,269.729C0,286.436 13.564,300 30.271,300L269.729,300C286.436,300 300,286.436 300,269.729L300,30.271Z" style="fill:rgb(255,254,254);"/>
        <path d="M300,30.271C300,13.564 286.436,0 269.729,0L30.271,0C13.564,0 0,13.564 0,30.271L0,269.729C0,286.436 13.564,300 30.271,300L269.729,300C286.436,300 300,286.436 300,269.729L300,30.271ZM284,30.271L284,269.729C284,277.606 277.606,284 269.729,284C269.729,284 30.271,284 30.271,284C22.394,284 16,277.606 16,269.729L16,30.271C16,22.394 22.394,16 30.271,16L269.729,16C277.606,16 284,22.394 284,30.271Z" style="fill:rgb(16,158,0);"/>
        <g transform="matrix(0.707107,-0.707107,0.707107,0.707107,-62.132,150)">
            <path d="M62.539,139.838L105.61,139.838L105.61,160.184L62.645,160.184L81.557,179.096L52.267,179.096L23.171,150L52.267,120.904L81.473,120.904L62.539,139.838ZM247.733,179.096L218.443,179.096L237.355,160.184L194.39,160.184L194.39,139.838L237.461,139.838L218.527,120.904L247.733,120.904L276.829,150L247.733,179.096ZM176.634,160.184L158.878,160.184L158.878,139.84L167.8,139.84L167.8,139.838L176.634,139.838L176.634,160.184ZM132.2,139.838L132.2,139.84L141.122,139.84L141.122,160.184L123.366,160.184L123.366,139.838L132.2,139.838Z" style="fill:rgb(16,158,0);"/>
        </g>
    </g>
</svg>
