<?xml version="1.0" encoding="UTF-8" standalone="no"?>
<!DOCTYPE svg PUBLIC "-//W3C//DTD SVG 1.1//EN" "http://www.w3.org/Graphics/SVG/1.1/DTD/svg11.dtd">
<svg width="100%" height="100%" viewBox="0 0 300 300" version="1.1" xmlns="http://www.w3.org/2000/svg" xmlns:xlink="http://www.w3.org/1999/xlink" xml:space="preserve" xmlns:serif="http://www.serif.com/" style="fill-rule:evenodd;clip-rule:evenodd;stroke-linejoin:round;stroke-miterlimit:2;">
    <g id="Background">
        <path d="M300,30.271C300,13.564 286.436,0 269.729,0L30.271,0C13.564,0 0,13.564 0,30.271L0,269.729C0,286.436 13.564,300 30.271,300L269.729,300C286.436,300 300,286.436 300,269.729L300,30.271Z" style="fill:rgb(255,254,254);"/>
        <path d="M300,30.271C300,13.564 286.436,0 269.729,0L30.271,0C13.564,0 0,13.564 0,30.271L0,269.729C0,286.436 13.564,300 30.271,300L269.729,300C286.436,300 300,286.436 300,269.729L300,30.271ZM284,30.271L284,269.729C284,277.606 277.606,284 269.729,284C269.729,284 30.271,284 30.271,284C22.394,284 16,277.606 16,269.729L16,30.271C16,22.394 22.394,16 30.271,16L269.729,16C277.606,16 284,22.394 284,30.271Z" style="fill:rgb(16,158,0);"/>
        <g transform="matrix(1.07278,0,0,1.07278,-10.9175,-10.9175)">
            <path d="M196.31,213.09C182.983,221.772 167.076,226.819 150,226.819C103.087,226.819 65,188.731 65,141.819C65,94.906 103.087,56.819 150,56.819C196.913,56.819 235,94.906 235,141.819C235,166.26 224.662,188.306 208.122,203.819L227.794,231.319C230.202,234.685 229.424,239.374 226.058,241.782C222.691,244.19 218.003,243.413 215.594,240.046L196.31,213.09ZM150,71.819C188.634,71.819 220,103.184 220,141.819C220,180.453 188.634,211.819 150,211.819C111.366,211.819 80,180.453 80,141.819C80,103.184 111.366,71.819 150,71.819ZM189.505,103.463L110.495,103.463L110.495,182.473L189.505,182.473L189.505,103.463ZM175.341,117.243L123.892,117.243L123.892,168.692L175.341,168.692L175.341,117.243Z" style="fill:rgb(16,158,0);"/>
        </g>
    </g>
</svg>
