<?xml version="1.0" encoding="UTF-8" standalone="no"?>
<!DOCTYPE svg PUBLIC "-//W3C//DTD SVG 1.1//EN" "http://www.w3.org/Graphics/SVG/1.1/DTD/svg11.dtd">
<svg width="100%" height="100%" viewBox="0 0 300 300" version="1.1" xmlns="http://www.w3.org/2000/svg" xmlns:xlink="http://www.w3.org/1999/xlink" xml:space="preserve" xmlns:serif="http://www.serif.com/" style="fill-rule:evenodd;clip-rule:evenodd;stroke-linecap:round;stroke-linejoin:round;stroke-miterlimit:1.5;">
    <g id="Background">
        <path d="M300,30.271C300,13.564 286.436,0 269.729,0L30.271,0C13.564,0 0,13.564 0,30.271L0,269.729C0,286.436 13.564,300 30.271,300L269.729,300C286.436,300 300,286.436 300,269.729L300,30.271Z" style="fill:rgb(255,254,254);"/>
        <path d="M300,30.271C300,13.564 286.436,0 269.729,0L30.271,0C13.564,0 0,13.564 0,30.271L0,269.729C0,286.436 13.564,300 30.271,300L269.729,300C286.436,300 300,286.436 300,269.729L300,30.271ZM284,30.271L284,269.729C284,277.606 277.606,284 269.729,284C269.729,284 30.271,284 30.271,284C22.394,284 16,277.606 16,269.729L16,30.271C16,22.394 22.394,16 30.271,16L269.729,16C277.606,16 284,22.394 284,30.271Z" style="fill:rgb(16,158,0);"/>
        <g transform="matrix(0.90594,0,0,0.904159,18.8652,13.8978)">
            <g transform="matrix(1,0,0,1,-0.5,7.10543e-15)">
                <path d="M240.5,53.349C240.5,45.982 234.518,40 227.151,40L82.849,40C75.482,40 69.5,45.982 69.5,53.349L69.5,226.651C69.5,234.018 75.482,240 82.849,240L227.151,240C234.518,240 240.5,234.018 240.5,226.651L240.5,53.349ZM220.5,202.5C220.5,201.12 219.38,200 218,200L203,200C201.62,200 200.5,201.12 200.5,202.5L200.5,207.5C200.5,208.88 201.62,210 203,210L218,210C219.38,210 220.5,208.88 220.5,207.5L220.5,202.5ZM140.5,202.5C140.5,201.12 139.38,200 138,200L123,200C121.62,200 120.5,201.12 120.5,202.5L120.5,207.5C120.5,208.88 121.62,210 123,210L138,210C139.38,210 140.5,208.88 140.5,207.5L140.5,202.5ZM180.5,202.5C180.5,201.12 179.38,200 178,200L163,200C161.62,200 160.5,201.12 160.5,202.5L160.5,207.5C160.5,208.88 161.62,210 163,210L178,210C179.38,210 180.5,208.88 180.5,207.5L180.5,202.5ZM220.5,182.5C220.5,181.12 219.38,180 218,180L203,180C201.62,180 200.5,181.12 200.5,182.5L200.5,187.5C200.5,188.88 201.62,190 203,190L218,190C219.38,190 220.5,188.88 220.5,187.5L220.5,182.5ZM140.5,182.5C140.5,181.12 139.38,180 138,180L123,180C121.62,180 120.5,181.12 120.5,182.5L120.5,187.5C120.5,188.88 121.62,190 123,190L138,190C139.38,190 140.5,188.88 140.5,187.5L140.5,182.5ZM180.5,182.5C180.5,181.12 179.38,180 178,180L163,180C161.62,180 160.5,181.12 160.5,182.5L160.5,187.5C160.5,188.88 161.62,190 163,190L178,190C179.38,190 180.5,188.88 180.5,187.5L180.5,182.5ZM220.5,162.5C220.5,161.12 219.38,160 218,160L203,160C201.62,160 200.5,161.12 200.5,162.5L200.5,167.5C200.5,168.88 201.62,170 203,170L218,170C219.38,170 220.5,168.88 220.5,167.5L220.5,162.5ZM140.5,162.5C140.5,161.12 139.38,160 138,160L123,160C121.62,160 120.5,161.12 120.5,162.5L120.5,167.5C120.5,168.88 121.62,170 123,170L138,170C139.38,170 140.5,168.88 140.5,167.5L140.5,162.5ZM180.5,162.5C180.5,161.12 179.38,160 178,160L163,160C161.62,160 160.5,161.12 160.5,162.5L160.5,167.5C160.5,168.88 161.62,170 163,170L178,170C179.38,170 180.5,168.88 180.5,167.5L180.5,162.5ZM220.5,60L120.5,60L120.5,140L220.5,140L220.5,60Z" style="fill:rgb(16,158,0);stroke:black;stroke-width:0.23px;"/>
            </g>
            <g transform="matrix(1,0,0,1,17,7.10543e-15)">
                <path d="M59.5,40.005C74.171,40.271 86,52.265 86,67C86,69.535 85.65,71.988 84.995,74.316C83.059,88.83 79,121.47 79,140C79,158.53 83.059,191.17 84.995,205.684C85.65,208.012 86,210.465 86,213C86,227.735 74.171,239.729 59.5,239.995L59.5,240C59.417,240 59.333,240 59.25,239.999C59.167,240 59.083,240 59,240L59,239.995C44.329,239.729 32.5,227.735 32.5,213C32.5,210.465 32.85,208.012 33.505,205.684C35.441,191.17 39.5,158.53 39.5,140C39.5,121.47 35.441,88.83 33.505,74.316C32.85,71.988 32.5,69.535 32.5,67C32.5,52.265 44.329,40.271 59,40.005L59,40C59.083,40 59.167,40 59.25,40.001C59.333,40 59.417,40 59.5,40L59.5,40.005Z" style="fill:rgb(16,158,0);stroke:white;stroke-width:2.53px;"/>
            </g>
            <g transform="matrix(1,0,0,1,-175.94,101.324)">
                <path d="M292.083,135.483L292.083,152.941C292.083,164.853 282.412,174.524 270.5,174.524C258.588,174.524 248.917,164.853 248.917,152.941L248.917,135.483L253.083,135.483L253.083,152.941C253.083,162.553 260.887,170.357 270.5,170.357C280.113,170.357 287.917,162.553 287.917,152.941L287.917,135.483L292.083,135.483Z" style="fill:rgb(16,158,0);"/>
            </g>
        </g>
    </g>
</svg>
