<?xml version="1.0" encoding="UTF-8" standalone="no"?>
<!DOCTYPE svg PUBLIC "-//W3C//DTD SVG 1.1//EN" "http://www.w3.org/Graphics/SVG/1.1/DTD/svg11.dtd">
<svg width="100%" height="100%" viewBox="0 0 300 300" version="1.1" xmlns="http://www.w3.org/2000/svg" xmlns:xlink="http://www.w3.org/1999/xlink" xml:space="preserve" xmlns:serif="http://www.serif.com/" style="fill-rule:evenodd;clip-rule:evenodd;stroke-linejoin:round;stroke-miterlimit:2;">
    <g id="Background">
        <path d="M300,30.271C300,13.564 286.436,0 269.729,0L30.271,0C13.564,0 0,13.564 0,30.271L0,269.729C0,286.436 13.564,300 30.271,300L269.729,300C286.436,300 300,286.436 300,269.729L300,30.271Z" style="fill:rgb(255,254,254);"/>
        <path d="M300,30.271C300,13.564 286.436,0 269.729,0L30.271,0C13.564,0 0,13.564 0,30.271L0,269.729C0,286.436 13.564,300 30.271,300L269.729,300C286.436,300 300,286.436 300,269.729L300,30.271ZM284,30.271L284,269.729C284,277.606 277.606,284 269.729,284C269.729,284 30.271,284 30.271,284C22.394,284 16,277.606 16,269.729L16,30.271C16,22.394 22.394,16 30.271,16L269.729,16C277.606,16 284,22.394 284,30.271Z" style="fill:rgb(16,158,0);"/>
        <g transform="matrix(0.868896,0,0,0.868896,10.9631,19.8692)">
            <path d="M198.976,160.166C197.379,167.888 194,174.96 189.288,180.934L212.976,209.141L215.295,182.509L234.279,205.116L230.756,245.571L189.226,241.954L170.874,220.1L197.544,222.423L173.707,194.039C166.651,197.849 158.576,200.012 150,200.012C125.837,200.012 105.654,182.84 100.999,160.045L80.128,160.045C76.765,165.445 70.775,169.042 63.952,169.042C53.442,169.042 44.91,160.509 44.91,150C44.91,139.491 53.442,130.958 63.952,130.958C70.775,130.958 76.765,134.555 80.128,139.955L100.999,139.955C105.654,117.16 125.837,99.988 150,99.988C158.571,99.988 166.641,102.148 173.695,105.954L197.384,77.762L170.752,80.074L189.742,57.473L230.198,53.96L233.804,95.491L215.446,117.34L213.13,90.67L189.28,119.055C193.991,125.024 197.371,132.091 198.971,139.807L235.789,139.807L216.886,120.904L246.406,120.904L275.121,149.619L245.644,179.096L217.106,179.096L236.036,160.166L198.976,160.166ZM150,115.467C169.059,115.467 184.533,130.941 184.533,150C184.533,169.059 169.059,184.533 150,184.533C130.941,184.533 115.467,169.059 115.467,150C115.467,130.941 130.941,115.467 150,115.467Z" style="fill:rgb(16,158,0);"/>
        </g>
    </g>
</svg>
