<?xml version="1.0" encoding="UTF-8" standalone="no"?>
<!DOCTYPE svg PUBLIC "-//W3C//DTD SVG 1.1//EN" "http://www.w3.org/Graphics/SVG/1.1/DTD/svg11.dtd">
<svg width="100%" height="100%" viewBox="0 0 300 300" version="1.1" xmlns="http://www.w3.org/2000/svg" xmlns:xlink="http://www.w3.org/1999/xlink" xml:space="preserve" xmlns:serif="http://www.serif.com/" style="fill-rule:evenodd;clip-rule:evenodd;stroke-linejoin:round;stroke-miterlimit:2;">
    <g id="Background">
        <path d="M300,30.271C300,13.564 286.436,0 269.729,0L30.271,0C13.564,0 0,13.564 0,30.271L0,269.729C0,286.436 13.564,300 30.271,300L269.729,300C286.436,300 300,286.436 300,269.729L300,30.271Z" style="fill:rgb(255,254,254);"/>
        <path d="M300,30.271C300,13.564 286.436,0 269.729,0L30.271,0C13.564,0 0,13.564 0,30.271L0,269.729C0,286.436 13.564,300 30.271,300L269.729,300C286.436,300 300,286.436 300,269.729L300,30.271ZM284,30.271L284,269.729C284,277.606 277.606,284 269.729,284C269.729,284 30.271,284 30.271,284C22.394,284 16,277.606 16,269.729L16,30.271C16,22.394 22.394,16 30.271,16L269.729,16C277.606,16 284,22.394 284,30.271Z" style="fill:rgb(16,158,0);"/>
        <path d="M131.341,192.374C130.843,192.226 130.41,192.065 130.059,191.889C127.041,190.38 124.431,186.842 124.445,183.468C124.519,164.915 119.164,157.19 110.759,143.644C110.759,143.644 110.759,143.644 110.759,143.644C106.782,136.656 104.688,128.73 104.688,120.661C104.688,95.293 124.994,74.696 150.005,74.696C175.016,74.696 195.322,95.293 195.322,120.661C195.322,128.73 193.228,136.656 189.25,143.644C180.845,157.19 175.491,164.915 175.565,183.468C175.578,186.842 172.968,190.38 169.951,191.889C169.571,192.079 169.096,192.252 168.547,192.409L168.547,220.396C168.547,221.704 167.485,222.766 166.177,222.766L166.132,222.766L158.544,233.292L141.344,233.292L133.756,222.766L133.711,222.766C132.403,222.766 131.341,221.704 131.341,220.396L131.341,192.374ZM85.478,143.891C87.463,143.749 97.606,161.039 96.355,162.731C94.871,164.739 64.594,170.877 63.568,169.101C62.599,167.422 83.185,144.056 85.478,143.891ZM215.126,143.891C213.141,143.749 202.998,161.039 204.249,162.731C205.733,164.739 236.01,170.877 237.035,169.101C238.004,167.422 217.419,144.056 215.126,143.891ZM82.168,109.784C83.958,110.653 84.097,130.698 82.168,131.538C79.878,132.535 50.589,122.712 50.589,120.661C50.589,118.723 80.1,108.78 82.168,109.784ZM218.436,109.784C216.646,110.653 216.506,130.698 218.436,131.538C220.725,132.535 250.015,122.712 250.015,120.661C250.015,118.723 220.504,108.78 218.436,109.784ZM96.355,78.591C97.471,80.239 87.568,97.668 85.478,97.431C82.997,97.149 62.543,73.997 63.568,72.221C64.538,70.543 95.066,76.688 96.355,78.591ZM204.249,78.591C203.133,80.239 213.035,97.668 215.126,97.431C217.607,97.149 238.061,73.997 237.035,72.221C236.066,70.543 205.538,76.688 204.249,78.591Z" style="fill:rgb(16,158,0);"/>
    </g>
</svg>
