<?xml version="1.0" encoding="UTF-8" standalone="no"?>
<!DOCTYPE svg PUBLIC "-//W3C//DTD SVG 1.1//EN" "http://www.w3.org/Graphics/SVG/1.1/DTD/svg11.dtd">
<svg width="100%" height="100%" viewBox="0 0 300 300" version="1.1" xmlns="http://www.w3.org/2000/svg" xmlns:xlink="http://www.w3.org/1999/xlink" xml:space="preserve" xmlns:serif="http://www.serif.com/" style="fill-rule:evenodd;clip-rule:evenodd;stroke-linejoin:round;stroke-miterlimit:2;">
    <g id="Background">
        <path d="M300,30.271C300,13.564 286.436,0 269.729,0L30.271,0C13.564,0 0,13.564 0,30.271L0,269.729C0,286.436 13.564,300 30.271,300L269.729,300C286.436,300 300,286.436 300,269.729L300,30.271Z" style="fill:rgb(255,254,254);"/>
        <path d="M300,30.271C300,13.564 286.436,0 269.729,0L30.271,0C13.564,0 0,13.564 0,30.271L0,269.729C0,286.436 13.564,300 30.271,300L269.729,300C286.436,300 300,286.436 300,269.729L300,30.271ZM284,30.271L284,269.729C284,277.606 277.606,284 269.729,284C269.729,284 30.271,284 30.271,284C22.394,284 16,277.606 16,269.729L16,30.271C16,22.394 22.394,16 30.271,16L269.729,16C277.606,16 284,22.394 284,30.271Z" style="fill:rgb(16,158,0);"/>
        <g transform="matrix(1.25885,0,0,1.25885,-38.8571,-37.5576)">
            <path d="M144,108.687C135.889,106.136 130,98.553 130,89.605C130,78.566 138.962,69.605 150,69.605C161.038,69.605 170,78.566 170,89.605C170,98.553 164.111,106.136 156,108.687L156,130.917C164.111,133.468 170,141.052 170,150C170,153.336 169.181,156.482 167.734,159.249L190.731,182.246C193.51,180.783 196.674,179.955 200.03,179.955C211.068,179.955 220.03,188.917 220.03,199.955C220.03,210.993 211.068,219.955 200.03,219.955C188.991,219.955 180.03,210.993 180.03,199.955C180.03,196.638 180.838,193.51 182.27,190.755L159.249,167.734C156.482,169.181 153.336,170 150,170C146.664,170 143.518,169.181 140.751,167.734L117.761,190.724C119.202,193.486 120.017,196.626 120.017,199.955C120.017,210.993 111.056,219.955 100.017,219.955C88.979,219.955 80.017,210.993 80.017,199.955C80.017,188.917 88.979,179.955 100.017,179.955C103.361,179.955 106.514,180.777 109.285,182.23L132.266,159.249C130.819,156.482 130,153.336 130,150C130,141.052 135.889,133.468 144,130.917L144,108.687Z" style="fill:rgb(16,158,0);"/>
        </g>
    </g>
</svg>
