<?xml version="1.0" encoding="UTF-8" standalone="no"?>
<!DOCTYPE svg PUBLIC "-//W3C//DTD SVG 1.1//EN" "http://www.w3.org/Graphics/SVG/1.1/DTD/svg11.dtd">
<svg width="100%" height="100%" viewBox="0 0 300 300" version="1.1" xmlns="http://www.w3.org/2000/svg" xmlns:xlink="http://www.w3.org/1999/xlink" xml:space="preserve" xmlns:serif="http://www.serif.com/" style="fill-rule:evenodd;clip-rule:evenodd;stroke-linejoin:round;stroke-miterlimit:2;">
    <g id="Background">
        <path d="M300,30.271C300,13.564 286.436,0 269.729,0L30.271,0C13.564,0 0,13.564 0,30.271L0,269.729C0,286.436 13.564,300 30.271,300L269.729,300C286.436,300 300,286.436 300,269.729L300,30.271Z" style="fill:rgb(255,254,254);"/>
        <path d="M300,30.271C300,13.564 286.436,0 269.729,0L30.271,0C13.564,0 0,13.564 0,30.271L0,269.729C0,286.436 13.564,300 30.271,300L269.729,300C286.436,300 300,286.436 300,269.729L300,30.271ZM284,30.271L284,269.729C284,277.606 277.606,284 269.729,284C269.729,284 30.271,284 30.271,284C22.394,284 16,277.606 16,269.729L16,30.271C16,22.394 22.394,16 30.271,16L269.729,16C277.606,16 284,22.394 284,30.271Z" style="fill:rgb(16,158,0);"/>
        <g transform="matrix(1.21315,0,0,1.21315,-50.1698,-14.9885)">
            <path d="M83.447,114.85C84.685,104.595 98.947,90.017 106.447,90.85C113.947,91.683 129.061,114.285 128.447,121.85C127.688,131.197 120.1,132.663 114.447,134.85C112.599,135.565 109.439,137.571 113.447,147.85C118.913,161.871 136.686,181.75 144.447,183.85C156.143,187.015 152.217,183.414 157.447,177.85C161.973,173.034 165.501,171.347 169.447,172.85C176.447,175.517 195.113,194.35 194.447,201.85C193.78,209.35 176.004,221.079 165.447,217.85C151.28,213.517 123.113,193.017 109.447,175.85C95.78,158.683 81.726,129.104 83.447,114.85ZM233.697,143.476C233.628,101.034 199.152,66.6 156.697,66.6L156.655,66.6C153.087,66.577 150.197,63.673 150.197,60.1C150.197,56.513 153.109,53.6 156.697,53.6C206.369,53.6 246.697,93.928 246.697,143.6C246.697,147.187 243.784,150.1 240.197,150.1C236.609,150.1 233.697,147.187 233.697,143.6L233.697,143.476ZM156.655,118.6C153.087,118.577 150.197,115.673 150.197,112.1C150.197,108.513 153.109,105.6 156.697,105.6C177.67,105.6 194.697,122.627 194.697,143.6C194.697,147.187 191.784,150.1 188.197,150.1C184.609,150.1 181.697,147.187 181.697,143.6C181.697,129.802 170.495,118.6 156.697,118.6L156.655,118.6ZM156.904,79.6C192.134,79.715 220.697,108.348 220.697,143.6C220.697,147.187 217.784,150.1 214.197,150.1C210.609,150.1 207.697,147.187 207.697,143.6C207.697,115.509 184.936,92.691 156.862,92.6L156.697,92.6C153.109,92.6 150.197,89.687 150.197,86.1C150.197,82.513 153.109,79.6 156.697,79.6L156.904,79.6Z" style="fill:rgb(16,158,0);"/>
        </g>
    </g>
</svg>
