<?xml version="1.0" encoding="UTF-8" standalone="no"?>
<!DOCTYPE svg PUBLIC "-//W3C//DTD SVG 1.1//EN" "http://www.w3.org/Graphics/SVG/1.1/DTD/svg11.dtd">
<svg width="100%" height="100%" viewBox="0 0 300 300" version="1.1" xmlns="http://www.w3.org/2000/svg" xmlns:xlink="http://www.w3.org/1999/xlink" xml:space="preserve" xmlns:serif="http://www.serif.com/" style="fill-rule:evenodd;clip-rule:evenodd;stroke-linejoin:round;stroke-miterlimit:2;">
    <g id="Background">
        <path d="M300,30.271C300,13.564 286.436,0 269.729,0L30.271,0C13.564,0 0,13.564 0,30.271L0,269.729C0,286.436 13.564,300 30.271,300L269.729,300C286.436,300 300,286.436 300,269.729L300,30.271Z" style="fill:rgb(255,254,254);"/>
        <path d="M300,30.271C300,13.564 286.436,0 269.729,0L30.271,0C13.564,0 0,13.564 0,30.271L0,269.729C0,286.436 13.564,300 30.271,300L269.729,300C286.436,300 300,286.436 300,269.729L300,30.271ZM284,30.271L284,269.729C284,277.606 277.606,284 269.729,284C269.729,284 30.271,284 30.271,284C22.394,284 16,277.606 16,269.729L16,30.271C16,22.394 22.394,16 30.271,16L269.729,16C277.606,16 284,22.394 284,30.271Z" style="fill:rgb(16,158,0);"/>
        <g transform="matrix(0.871355,0,0,0.871355,38.9775,35.1186)">
            <path d="M72.756,101.516C69.449,94.064 67.611,85.816 67.611,77.14C67.611,44.014 94.408,17.12 127.414,17.12C160.42,17.12 187.216,44.014 187.216,77.14C187.216,85.816 185.378,94.064 182.071,101.516L182.094,101.516L127.414,246.564L72.733,101.516L72.756,101.516ZM127.414,35.129C150.516,35.129 169.272,53.954 169.272,77.14C169.272,100.326 150.516,119.151 127.414,119.151C104.311,119.151 85.555,100.326 85.555,77.14C85.555,53.954 104.311,35.129 127.414,35.129Z" style="fill:rgb(16,158,0);"/>
        </g>
    </g>
</svg>
