<?xml version="1.0" encoding="UTF-8" standalone="no"?>
<!DOCTYPE svg PUBLIC "-//W3C//DTD SVG 1.1//EN" "http://www.w3.org/Graphics/SVG/1.1/DTD/svg11.dtd">
<svg width="100%" height="100%" viewBox="0 0 300 300" version="1.1" xmlns="http://www.w3.org/2000/svg" xmlns:xlink="http://www.w3.org/1999/xlink" xml:space="preserve" xmlns:serif="http://www.serif.com/" style="fill-rule:evenodd;clip-rule:evenodd;stroke-linejoin:round;stroke-miterlimit:2;">
    <g id="Background">
        <path d="M300,30.271C300,13.564 286.436,0 269.729,0L30.271,0C13.564,0 0,13.564 0,30.271L0,269.729C0,286.436 13.564,300 30.271,300L269.729,300C286.436,300 300,286.436 300,269.729L300,30.271Z" style="fill:rgb(255,254,254);"/>
        <path d="M300,30.271C300,13.564 286.436,0 269.729,0L30.271,0C13.564,0 0,13.564 0,30.271L0,269.729C0,286.436 13.564,300 30.271,300L269.729,300C286.436,300 300,286.436 300,269.729L300,30.271ZM284,30.271L284,269.729C284,277.606 277.606,284 269.729,284C269.729,284 30.271,284 30.271,284C22.394,284 16,277.606 16,269.729L16,30.271C16,22.394 22.394,16 30.271,16L269.729,16C277.606,16 284,22.394 284,30.271Z" style="fill:rgb(16,158,0);"/>
        <g transform="matrix(1.99958,0,0,1.99958,-149.96,-149.764)">
            <path d="M200.03,178.304L164.31,178.304L164.31,186.311L135.737,186.311L135.737,178.304L116.032,178.304L116.032,162.29L135.69,162.29L135.69,170.297L164.31,170.297L164.31,162.29L184.015,162.29L184.015,113.689L200.03,113.689L200.03,178.304ZM116.032,178.304L100.017,178.304L100.017,113.689L116.032,113.689L116.032,178.304ZM155.311,129.357L155.311,113.343L144.689,113.343L144.689,129.357L155.311,129.357ZM135.69,129.357L135.69,113.343L125.067,113.343L125.067,129.357L135.69,129.357ZM174.899,129.357L174.899,113.343L164.277,113.343L164.277,129.357L174.899,129.357Z" style="fill:rgb(16,158,0);"/>
        </g>
    </g>
</svg>
