<?xml version="1.0" encoding="UTF-8" standalone="no"?>
<!DOCTYPE svg PUBLIC "-//W3C//DTD SVG 1.1//EN" "http://www.w3.org/Graphics/SVG/1.1/DTD/svg11.dtd">
<svg width="100%" height="100%" viewBox="0 0 300 300" version="1.1" xmlns="http://www.w3.org/2000/svg" xmlns:xlink="http://www.w3.org/1999/xlink" xml:space="preserve" xmlns:serif="http://www.serif.com/" style="fill-rule:evenodd;clip-rule:evenodd;stroke-linejoin:round;stroke-miterlimit:2;">
    <g id="Background">
        <path d="M300,30.271C300,13.564 286.436,0 269.729,0L30.271,0C13.564,0 0,13.564 0,30.271L0,269.729C0,286.436 13.564,300 30.271,300L269.729,300C286.436,300 300,286.436 300,269.729L300,30.271Z" style="fill:rgb(255,254,254);"/>
        <path d="M300,30.271C300,13.564 286.436,0 269.729,0L30.271,0C13.564,0 0,13.564 0,30.271L0,269.729C0,286.436 13.564,300 30.271,300L269.729,300C286.436,300 300,286.436 300,269.729L300,30.271ZM284,30.271L284,269.729C284,277.606 277.606,284 269.729,284C269.729,284 30.271,284 30.271,284C22.394,284 16,277.606 16,269.729L16,30.271C16,22.394 22.394,16 30.271,16L269.729,16C277.606,16 284,22.394 284,30.271Z" style="fill:rgb(16,158,0);"/>
        <g transform="matrix(1,0,0,1,0.252169,0.0276936)">
            <path d="M111.053,249.964C77.488,249.964 50.238,222.713 50.238,189.148L50.238,189.103C50.262,185.308 53.35,182.234 57.151,182.234C60.967,182.234 64.064,185.332 64.064,189.148C64.064,189.322 64.058,189.495 64.045,189.666C64.322,215.203 85.001,235.88 110.535,236.156C110.706,236.143 110.879,236.137 111.053,236.137C114.869,236.137 117.967,239.235 117.967,243.05C117.967,246.851 114.893,249.939 111.098,249.963L111.053,249.964ZM155.334,196.078L165.795,185.617L198.401,218.224L229.093,187.532L196.487,154.925L206.948,144.465L249.762,187.279L198.149,238.893L155.334,196.078ZM96.896,192.688C92.045,183.479 93.491,171.81 101.233,164.067L174.937,90.363C184.457,80.843 199.915,80.843 209.435,90.363C218.956,99.884 218.956,115.342 209.435,124.862L135.732,198.566C128.068,206.229 116.557,207.724 107.393,203.049L100.436,210.005C97.559,212.883 92.886,212.883 90.008,210.005C87.13,207.128 87.13,202.455 90.008,199.577L90.008,199.577L96.896,192.688ZM199.751,116.135C204.19,111.696 204.19,104.487 199.751,100.048C195.311,95.609 188.103,95.609 183.664,100.048L110.357,173.354C105.918,177.794 105.918,185.002 110.357,189.442C114.797,193.881 122.005,193.881 126.444,189.442L199.751,116.135ZM155.334,92.851L144.874,103.312L112.267,70.705L81.575,101.397L114.182,134.004L103.721,144.465L60.906,101.65L112.52,50.036L155.334,92.851Z" style="fill:rgb(16,158,0);"/>
        </g>
    </g>
</svg>
