<?xml version="1.0" encoding="UTF-8" standalone="no"?>
<!DOCTYPE svg PUBLIC "-//W3C//DTD SVG 1.1//EN" "http://www.w3.org/Graphics/SVG/1.1/DTD/svg11.dtd">
<svg width="100%" height="100%" viewBox="0 0 300 300" version="1.1" xmlns="http://www.w3.org/2000/svg" xmlns:xlink="http://www.w3.org/1999/xlink" xml:space="preserve" xmlns:serif="http://www.serif.com/" style="fill-rule:evenodd;clip-rule:evenodd;stroke-linejoin:round;stroke-miterlimit:2;">
    <g id="Background">
        <path d="M300,30.271C300,13.564 286.436,0 269.729,0L30.271,0C13.564,0 0,13.564 0,30.271L0,269.729C0,286.436 13.564,300 30.271,300L269.729,300C286.436,300 300,286.436 300,269.729L300,30.271Z" style="fill:rgb(255,254,254);"/>
        <path d="M300,30.271C300,13.564 286.436,0 269.729,0L30.271,0C13.564,0 0,13.564 0,30.271L0,269.729C0,286.436 13.564,300 30.271,300L269.729,300C286.436,300 300,286.436 300,269.729L300,30.271ZM284,30.271L284,269.729C284,277.606 277.606,284 269.729,284C269.729,284 30.271,284 30.271,284C22.394,284 16,277.606 16,269.729L16,30.271C16,22.394 22.394,16 30.271,16L269.729,16C277.606,16 284,22.394 284,30.271Z" style="fill:rgb(16,158,0);"/>
        <g transform="matrix(0.851155,0,0,0.851155,22.3268,22.3268)">
            <path d="M142.23,100.647L142.23,62.571L127.8,77.001L127.8,54.695L150,32.495L172.2,54.695L172.2,77.049L157.801,62.65L157.801,100.652C165.782,101.906 173.138,105.052 179.395,109.616L206.328,82.684L185.921,82.684L201.693,66.912L233.088,66.912L233.088,98.307L217.282,114.113L217.282,93.75L190.402,120.63C194.962,126.89 198.104,134.248 199.353,142.23L237.429,142.23L222.999,127.8L245.305,127.8L267.505,150L245.305,172.2L222.951,172.2L237.35,157.801L199.348,157.801C198.094,165.782 194.948,173.138 190.384,179.395L217.316,206.328L217.316,185.921L233.088,201.693L233.088,233.088L201.693,233.088L185.887,217.282L206.25,217.282L179.37,190.402C173.11,194.962 165.752,198.104 157.77,199.353L157.77,237.429L172.2,222.999L172.2,245.305L150,267.505L127.8,245.305L127.8,222.951L142.199,237.35L142.199,199.348C134.218,198.094 126.862,194.948 120.605,190.384L93.672,217.316L114.079,217.316L98.307,233.088L66.912,233.088L66.912,201.693L82.718,185.887L82.718,206.25L109.598,179.37C105.038,173.11 101.896,165.752 100.647,157.77L62.571,157.77L77.001,172.2L54.695,172.2L32.495,150L54.695,127.8L77.049,127.8L62.65,142.199L100.652,142.199C101.906,134.218 105.052,126.862 109.616,120.605L82.684,93.672L82.684,114.079L66.912,98.307L66.912,66.912L98.307,66.912L114.113,82.718L93.75,82.718L120.63,109.598C126.89,105.038 134.248,101.896 142.23,100.647ZM150,120.789C166.122,120.789 179.211,133.878 179.211,150C179.211,166.122 166.122,179.211 150,179.211C133.878,179.211 120.789,166.122 120.789,150C120.789,133.878 133.878,120.789 150,120.789Z" style="fill:rgb(16,158,0);"/>
        </g>
    </g>
</svg>
