<?xml version="1.0" encoding="UTF-8" standalone="no"?>
<!DOCTYPE svg PUBLIC "-//W3C//DTD SVG 1.1//EN" "http://www.w3.org/Graphics/SVG/1.1/DTD/svg11.dtd">
<svg width="100%" height="100%" viewBox="0 0 300 300" version="1.1" xmlns="http://www.w3.org/2000/svg" xmlns:xlink="http://www.w3.org/1999/xlink" xml:space="preserve" xmlns:serif="http://www.serif.com/" style="fill-rule:evenodd;clip-rule:evenodd;stroke-linejoin:round;stroke-miterlimit:2;">
    <g id="Background">
        <path d="M300,30.271C300,13.564 286.436,0 269.729,0L30.271,0C13.564,0 0,13.564 0,30.271L0,269.729C0,286.436 13.564,300 30.271,300L269.729,300C286.436,300 300,286.436 300,269.729L300,30.271Z" style="fill:rgb(255,254,254);"/>
        <path d="M300,30.271C300,13.564 286.436,0 269.729,0L30.271,0C13.564,0 0,13.564 0,30.271L0,269.729C0,286.436 13.564,300 30.271,300L269.729,300C286.436,300 300,286.436 300,269.729L300,30.271ZM284,30.271L284,269.729C284,277.606 277.606,284 269.729,284C269.729,284 30.271,284 30.271,284C22.394,284 16,277.606 16,269.729L16,30.271C16,22.394 22.394,16 30.271,16L269.729,16C277.606,16 284,22.394 284,30.271Z" style="fill:rgb(16,158,0);"/>
        <path d="M150,249.903C149.914,249.863 119.588,235.608 96.662,194.303C67.028,140.913 68.611,76.461 68.611,76.461C123.415,77.241 149.944,50.122 150,50.064C150.056,50.122 176.585,77.241 231.389,76.461C231.389,76.461 232.972,140.913 203.338,194.303C180.38,235.666 150,249.903 150,249.903ZM150,234.002C149.927,233.968 124.05,221.891 104.489,186.896C79.203,141.662 80.553,87.057 80.553,87.057C127.316,87.717 149.952,64.741 150,64.692C150.048,64.741 172.684,87.717 219.447,87.057C219.447,87.057 220.797,141.662 195.511,186.896C175.922,221.94 150,234.002 150,234.002ZM150,76.952C140.453,83.821 120.706,94.755 90.235,96.367C91.02,113.134 94.847,150.178 112.781,182.261C126.117,206.119 142.549,218.406 150,223.091C157.448,218.408 173.881,206.122 187.219,182.261C205.153,150.178 208.98,113.134 209.765,96.367C179.297,94.756 159.548,83.822 150,76.952Z" style="fill:rgb(16,158,0);"/>
    </g>
</svg>
