<?xml version="1.0" encoding="UTF-8" standalone="no"?>
<!DOCTYPE svg PUBLIC "-//W3C//DTD SVG 1.1//EN" "http://www.w3.org/Graphics/SVG/1.1/DTD/svg11.dtd">
<svg width="100%" height="100%" viewBox="0 0 300 300" version="1.1" xmlns="http://www.w3.org/2000/svg" xmlns:xlink="http://www.w3.org/1999/xlink" xml:space="preserve" xmlns:serif="http://www.serif.com/" style="fill-rule:evenodd;clip-rule:evenodd;stroke-linejoin:round;stroke-miterlimit:2;">
    <g id="Background">
        <path d="M300,30.271C300,13.564 286.436,0 269.729,0L30.271,0C13.564,0 0,13.564 0,30.271L0,269.729C0,286.436 13.564,300 30.271,300L269.729,300C286.436,300 300,286.436 300,269.729L300,30.271Z" style="fill:rgb(255,254,254);"/>
        <path d="M300,30.271C300,13.564 286.436,0 269.729,0L30.271,0C13.564,0 0,13.564 0,30.271L0,269.729C0,286.436 13.564,300 30.271,300L269.729,300C286.436,300 300,286.436 300,269.729L300,30.271ZM284,30.271L284,269.729C284,277.606 277.606,284 269.729,284C269.729,284 30.271,284 30.271,284C22.394,284 16,277.606 16,269.729L16,30.271C16,22.394 22.394,16 30.271,16L269.729,16C277.606,16 284,22.394 284,30.271Z" style="fill:rgb(16,158,0);"/>
        <path d="M102.573,154.988C102.573,152.235 100.338,150 97.585,150L54.974,150C52.221,150 49.985,152.235 49.985,154.988L49.985,241.883C49.985,244.636 52.221,246.872 54.974,246.872L97.585,246.872C100.338,246.872 102.573,244.636 102.573,241.883L102.573,154.988ZM176.755,107.936C176.755,105.183 174.52,102.948 171.767,102.948L129.156,102.948C126.403,102.948 124.168,105.183 124.168,107.936L124.168,241.883C124.168,244.636 126.403,246.872 129.156,246.872L171.767,246.872C174.52,246.872 176.755,244.636 176.755,241.883L176.755,107.936ZM250.015,58.117C250.015,55.364 247.779,53.128 245.026,53.128L202.415,53.128C199.662,53.128 197.427,55.364 197.427,58.117L197.427,241.883C197.427,244.636 199.662,246.872 202.415,246.872L245.026,246.872C247.779,246.872 250.015,244.636 250.015,241.883L250.015,58.117Z" style="fill:rgb(16,158,0);"/>
    </g>
</svg>
