<?xml version="1.0" encoding="UTF-8" standalone="no"?>
<!DOCTYPE svg PUBLIC "-//W3C//DTD SVG 1.1//EN" "http://www.w3.org/Graphics/SVG/1.1/DTD/svg11.dtd">
<svg width="100%" height="100%" viewBox="0 0 300 300" version="1.1" xmlns="http://www.w3.org/2000/svg" xmlns:xlink="http://www.w3.org/1999/xlink" xml:space="preserve" xmlns:serif="http://www.serif.com/" style="fill-rule:evenodd;clip-rule:evenodd;stroke-linejoin:round;stroke-miterlimit:2;">
    <g id="Background">
        <path d="M300,30.271C300,13.564 286.436,0 269.729,0L30.271,0C13.564,0 0,13.564 0,30.271L0,269.729C0,286.436 13.564,300 30.271,300L269.729,300C286.436,300 300,286.436 300,269.729L300,30.271Z" style="fill:rgb(255,254,254);"/>
        <path d="M300,30.271C300,13.564 286.436,0 269.729,0L30.271,0C13.564,0 0,13.564 0,30.271L0,269.729C0,286.436 13.564,300 30.271,300L269.729,300C286.436,300 300,286.436 300,269.729L300,30.271ZM284,30.271L284,269.729C284,277.606 277.606,284 269.729,284C269.729,284 30.271,284 30.271,284C22.394,284 16,277.606 16,269.729L16,30.271C16,22.394 22.394,16 30.271,16L269.729,16C277.606,16 284,22.394 284,30.271Z" style="fill:rgb(16,158,0);"/>
        <g transform="matrix(1,0,0,1,-0.221789,-0.776668)">
            <path d="M99.139,200.867L99.012,200.74C71.673,173.402 71.673,129.078 99.012,101.74L145.68,148.408L158.4,135.688C158.279,135.155 158.215,134.6 158.215,134.03C158.215,129.89 161.576,126.53 165.715,126.53C169.855,126.53 173.215,129.89 173.215,134.03C173.215,138.169 169.855,141.53 165.715,141.53C165.145,141.53 164.59,141.466 164.056,141.345L151.337,154.065L198.012,200.74C183.876,214.876 165.199,221.702 146.677,221.22L157.26,250.74L81.26,250.74L99.139,200.867ZM226.69,137.82C226.639,121.263 220.04,105.397 208.329,93.685C196.572,81.928 180.627,75.324 164,75.324C160.788,75.324 158.181,72.716 158.181,69.504C158.181,66.293 160.788,63.685 164,63.685C183.714,63.685 202.62,71.516 216.559,85.455C230.471,99.367 238.299,118.227 238.33,137.899L238.33,138.015C238.33,141.226 235.722,143.834 232.51,143.834C229.298,143.834 226.691,141.226 226.691,138.015L226.69,137.82ZM164.002,87.984C177.271,87.984 189.995,93.255 199.377,102.637C208.76,112.02 214.031,124.745 214.031,138.015L214.031,138.015C214.031,141.218 211.43,143.819 208.226,143.819C205.022,143.819 202.421,141.218 202.421,138.015C202.422,127.824 198.374,118.052 191.168,110.846C183.963,103.641 174.19,99.593 164,99.593L164,99.593L164,99.593C160.796,99.593 158.195,96.992 158.195,93.789C158.195,90.585 160.796,87.984 164,87.984L164.002,87.984Z" style="fill:rgb(16,158,0);"/>
        </g>
    </g>
</svg>
