<?xml version="1.0" encoding="UTF-8" standalone="no"?>
<!DOCTYPE svg PUBLIC "-//W3C//DTD SVG 1.1//EN" "http://www.w3.org/Graphics/SVG/1.1/DTD/svg11.dtd">
<svg width="100%" height="100%" viewBox="0 0 300 300" version="1.1" xmlns="http://www.w3.org/2000/svg" xmlns:xlink="http://www.w3.org/1999/xlink" xml:space="preserve" xmlns:serif="http://www.serif.com/" style="fill-rule:evenodd;clip-rule:evenodd;stroke-linejoin:round;stroke-miterlimit:2;">
    <g id="Background">
        <path d="M300,30.271C300,13.564 286.436,0 269.729,0L30.271,0C13.564,0 0,13.564 0,30.271L0,269.729C0,286.436 13.564,300 30.271,300L269.729,300C286.436,300 300,286.436 300,269.729L300,30.271Z" style="fill:rgb(255,254,254);"/>
        <path d="M300,30.271C300,13.564 286.436,0 269.729,0L30.271,0C13.564,0 0,13.564 0,30.271L0,269.729C0,286.436 13.564,300 30.271,300L269.729,300C286.436,300 300,286.436 300,269.729L300,30.271ZM284,30.271L284,269.729C284,277.606 277.606,284 269.729,284C269.729,284 30.271,284 30.271,284C22.394,284 16,277.606 16,269.729L16,30.271C16,22.394 22.394,16 30.271,16L269.729,16C277.606,16 284,22.394 284,30.271Z" style="fill:rgb(16,158,0);"/>
        <g transform="matrix(1.05448,0,0,1.05448,14.5007,19.9757)">
            <path d="M159.487,177.049L190.853,177.049L190.853,185.871L172.229,185.871L172.229,193.04L188.136,193.04L188.136,201.33L172.229,201.33L172.229,218.105L159.487,218.105L159.487,177.049ZM114.986,218.105L114.986,177.049L136.13,177.049C140.051,177.049 143.047,177.385 145.12,178.057C147.192,178.729 148.863,179.976 150.133,181.796C151.402,183.616 152.037,185.833 152.037,188.447C152.037,190.725 151.552,192.69 150.581,194.342C149.61,195.995 148.275,197.334 146.576,198.361C145.493,199.015 144.009,199.556 142.123,199.986C143.636,200.49 144.737,200.994 145.428,201.498C145.895,201.834 146.571,202.553 147.458,203.654C148.345,204.756 148.938,205.605 149.237,206.203L155.37,218.105L141.031,218.105L134.254,205.559C133.395,203.934 132.629,202.879 131.957,202.394C131.042,201.759 130.006,201.442 128.849,201.442L127.728,201.442L127.728,218.105L114.986,218.105ZM66.144,177.049L79.419,177.049L88.661,206.595L97.762,177.049L110.645,177.049L95.41,218.105L81.659,218.105L66.144,177.049ZM127.728,193.684L133.077,193.684C133.656,193.684 134.776,193.498 136.438,193.124C137.278,192.956 137.964,192.527 138.497,191.836C139.029,191.145 139.295,190.352 139.295,189.455C139.295,188.13 138.875,187.112 138.034,186.403C137.194,185.693 135.617,185.339 133.301,185.339L127.728,185.339L127.728,193.684ZM169.309,124.792L195.327,150.811L183.909,162.377L157.826,136.294L157.825,157.638L141.497,141.238L141.497,108.371L174.296,108.371L190.717,124.792L169.309,124.792ZM121.377,114.259L95.294,140.342L116.637,140.343L100.238,156.671L67.371,156.671L67.371,123.872L83.792,107.451L83.792,128.86L109.811,102.841L121.377,114.259ZM135.854,76.734L161.937,50.651L140.593,50.65L156.992,34.322L189.86,34.322L189.86,67.121L173.438,83.542L173.438,62.133L147.42,88.152L135.854,76.734ZM82.701,82.513L66.28,66.092L87.689,66.092L61.67,40.074L73.088,28.508L99.171,54.591L99.172,33.247L115.5,49.646L115.5,82.513L82.701,82.513Z" style="fill:rgb(16,158,0);"/>
        </g>
    </g>
</svg>
