<?xml version="1.0" encoding="UTF-8" standalone="no"?>
<!DOCTYPE svg PUBLIC "-//W3C//DTD SVG 1.1//EN" "http://www.w3.org/Graphics/SVG/1.1/DTD/svg11.dtd">
<svg width="100%" height="100%" viewBox="0 0 300 300" version="1.1" xmlns="http://www.w3.org/2000/svg" xmlns:xlink="http://www.w3.org/1999/xlink" xml:space="preserve" xmlns:serif="http://www.serif.com/" style="fill-rule:evenodd;clip-rule:evenodd;stroke-linejoin:round;stroke-miterlimit:2;">
    <g id="Background">
        <path d="M300,30.271C300,13.564 286.436,0 269.729,0L30.271,0C13.564,0 0,13.564 0,30.271L0,269.729C0,286.436 13.564,300 30.271,300L269.729,300C286.436,300 300,286.436 300,269.729L300,30.271Z" style="fill:rgb(255,254,254);"/>
        <path d="M300,30.271C300,13.564 286.436,0 269.729,0L30.271,0C13.564,0 0,13.564 0,30.271L0,269.729C0,286.436 13.564,300 30.271,300L269.729,300C286.436,300 300,286.436 300,269.729L300,30.271ZM284,30.271L284,269.729C284,277.606 277.606,284 269.729,284C269.729,284 30.271,284 30.271,284C22.394,284 16,277.606 16,269.729L16,30.271C16,22.394 22.394,16 30.271,16L269.729,16C277.606,16 284,22.394 284,30.271Z" style="fill:rgb(16,158,0);"/>
        <path d="M141.65,168.998C134.351,165.782 129.251,158.482 129.251,150C129.251,138.548 138.548,129.251 150,129.251C161.452,129.251 170.749,138.548 170.749,150C170.749,158.482 165.649,165.782 158.35,168.998L158.35,249.964L141.65,249.964L141.65,168.998ZM79.273,220.721C60.517,201.965 49.98,176.526 49.98,150C49.98,123.474 60.517,98.035 79.273,79.279L87.683,87.689C71.158,104.215 61.873,126.629 61.873,150C61.873,173.371 71.158,195.785 87.683,212.311L79.273,220.721ZM220.721,220.721C239.477,201.965 250.015,176.526 250.015,150C250.015,123.474 239.477,98.035 220.721,79.279L212.311,87.689C228.837,104.215 238.121,126.629 238.121,150C238.121,173.371 228.837,195.785 212.311,212.311L220.721,220.721ZM97.435,202.559C83.496,188.619 75.665,169.713 75.665,150C75.665,130.287 83.496,111.381 97.435,97.441L105.665,105.671C93.908,117.428 87.303,133.373 87.303,150C87.303,166.627 93.908,182.572 105.665,194.329L97.435,202.559ZM202.559,202.559C216.499,188.619 224.33,169.713 224.33,150C224.33,130.287 216.499,111.381 202.559,97.441L194.329,105.671C206.086,117.428 212.691,133.373 212.691,150C212.691,166.627 206.086,182.572 194.329,194.329L202.559,202.559ZM114.617,185.377C105.235,175.994 99.964,163.269 99.964,150C99.964,136.731 105.235,124.006 114.617,114.623L122.826,122.832C115.62,130.037 111.572,139.81 111.572,150C111.572,160.19 115.62,169.963 122.826,177.168L114.617,185.377ZM185.377,185.377C194.76,175.994 200.031,163.269 200.031,150C200.031,136.731 194.76,124.006 185.377,114.623L177.168,122.832C184.374,130.037 188.422,139.81 188.422,150C188.422,160.19 184.374,169.963 177.168,177.168L185.377,185.377Z" style="fill:rgb(16,158,0);"/>
    </g>
</svg>
