<?xml version="1.0" encoding="UTF-8" standalone="no"?>
<!DOCTYPE svg PUBLIC "-//W3C//DTD SVG 1.1//EN" "http://www.w3.org/Graphics/SVG/1.1/DTD/svg11.dtd">
<svg width="100%" height="100%" viewBox="0 0 85 69" version="1.1" xmlns="http://www.w3.org/2000/svg" xmlns:xlink="http://www.w3.org/1999/xlink" xml:space="preserve" xmlns:serif="http://www.serif.com/" style="fill-rule:evenodd;clip-rule:evenodd;stroke-linejoin:round;stroke-miterlimit:1.41421;">
    <g transform="matrix(1,0,0,1,-107.844,-81.285)">
        <g transform="matrix(1,0,0,1,2.40859,-32.2235)">
            <path d="M147.591,119.509C148.208,119.508 148.825,119.743 149.295,120.213C149.323,120.24 149.349,120.268 149.374,120.296L183.043,153.964C183.982,154.904 183.982,156.429 183.043,157.368C182.103,158.308 180.578,158.308 179.638,157.368L147.591,125.321L115.544,157.368C114.605,158.308 113.08,158.308 112.14,157.368C111.201,156.429 111.201,154.904 112.14,153.964L145.808,120.296C145.834,120.268 145.86,120.24 145.887,120.213C146.358,119.743 146.974,119.508 147.591,119.509Z" style="fill:rgb(75,75,75);"/>
            <path d="M147.649,119.509L147.707,119.511L147.765,119.515L147.822,119.519L147.88,119.526L147.937,119.533L147.995,119.542L148.052,119.552L148.109,119.564L148.165,119.577L148.222,119.591L148.278,119.607L148.333,119.624L148.389,119.643L148.444,119.663L148.498,119.684L148.553,119.707L148.606,119.731L148.66,119.757L148.712,119.783L148.765,119.812L148.816,119.841L148.867,119.872L148.918,119.905L148.967,119.938L149.016,119.973L149.065,120.01L149.113,120.048L149.159,120.087L149.206,120.128L149.251,120.17L149.295,120.213L149.336,120.254L149.374,120.296L183.043,153.964L183.086,154.009L183.128,154.054L183.168,154.1L183.208,154.147L183.246,154.194L183.282,154.243L183.317,154.292L183.351,154.342L183.383,154.392L183.414,154.443L183.444,154.494L183.472,154.547L183.499,154.599L183.524,154.652L183.548,154.706L183.571,154.76L183.592,154.815L183.612,154.87L183.631,154.925L183.648,154.981L183.664,155.037L183.678,155.093L183.691,155.15L183.703,155.206L183.713,155.263L183.722,155.321L183.73,155.378L183.736,155.435L183.741,155.493L183.744,155.551L183.746,155.608L183.747,155.666L183.746,155.724L183.744,155.782L183.741,155.839L183.736,155.897L183.73,155.954L183.722,156.012L183.713,156.069L183.703,156.126L183.691,156.183L183.678,156.239L183.664,156.296L183.648,156.352L183.631,156.407L183.612,156.463L183.592,156.518L183.571,156.572L183.548,156.626L183.524,156.68L183.499,156.733L183.472,156.786L183.444,156.838L183.414,156.889L183.383,156.94L183.351,156.991L183.317,157.041L183.282,157.09L183.246,157.138L183.208,157.186L183.168,157.232L183.128,157.278L183.086,157.324L183.043,157.368L182.998,157.412L182.953,157.454L182.907,157.494L182.86,157.533L182.812,157.571L182.764,157.608L182.715,157.643L182.665,157.676L182.615,157.709L182.564,157.74L182.512,157.769L182.46,157.798L182.407,157.824L182.354,157.85L182.301,157.874L182.246,157.897L182.192,157.918L182.137,157.938L182.082,157.957L182.026,157.974L181.97,157.99L181.914,158.004L181.857,158.017L181.8,158.029L181.743,158.039L181.686,158.048L181.629,158.056L181.571,158.062L181.514,158.067L181.456,158.07L181.398,158.072L181.341,158.073L181.283,158.072L181.225,158.07L181.167,158.067L181.11,158.062L181.052,158.056L180.995,158.048L180.938,158.039L180.881,158.029L180.824,158.017L180.767,158.004L180.711,157.99L180.655,157.974L180.599,157.957L180.544,157.938L180.489,157.918L180.435,157.897L180.38,157.874L180.327,157.85L180.274,157.824L180.221,157.798L180.169,157.769L180.117,157.74L180.066,157.709L180.016,157.676L179.966,157.643L179.917,157.608L179.869,157.571L179.821,157.533L179.774,157.494L179.728,157.454L179.683,157.412L179.638,157.368L147.591,125.321L115.544,157.368L115.5,157.412L115.455,157.454L115.409,157.494L115.362,157.533L115.314,157.571L115.266,157.608L115.217,157.643L115.167,157.676L115.117,157.709L115.066,157.74L115.014,157.769L114.962,157.798L114.909,157.824L114.856,157.85L114.802,157.874L114.748,157.897L114.694,157.918L114.639,157.938L114.583,157.957L114.528,157.974L114.472,157.99L114.416,158.004L114.359,158.017L114.302,158.029L114.245,158.039L114.188,158.048L114.131,158.056L114.073,158.062L114.015,158.067L113.958,158.07L113.9,158.072L113.842,158.073L113.785,158.072L113.727,158.07L113.669,158.067L113.612,158.062L113.554,158.056L113.497,158.048L113.439,158.039L113.382,158.029L113.326,158.017L113.269,158.004L113.213,157.99L113.157,157.974L113.101,157.957L113.046,157.938L112.991,157.918L112.936,157.897L112.882,157.874L112.829,157.85L112.775,157.824L112.723,157.798L112.671,157.769L112.619,157.74L112.568,157.709L112.518,157.676L112.468,157.643L112.419,157.608L112.371,157.571L112.323,157.533L112.276,157.494L112.23,157.454L112.185,157.412L112.14,157.368L112.097,157.324L112.055,157.278L112.014,157.232L111.975,157.186L111.937,157.138L111.901,157.09L111.866,157.041L111.832,156.991L111.8,156.94L111.769,156.889L111.739,156.838L111.711,156.786L111.684,156.733L111.659,156.68L111.635,156.626L111.612,156.572L111.591,156.518L111.571,156.463L111.552,156.407L111.535,156.352L111.519,156.296L111.504,156.239L111.491,156.183L111.48,156.126L111.469,156.069L111.46,156.012L111.453,155.954L111.447,155.897L111.442,155.839L111.438,155.782L111.436,155.724L111.436,155.666L111.436,155.608L111.438,155.551L111.442,155.493L111.447,155.435L111.453,155.378L111.46,155.321L111.469,155.263L111.48,155.206L111.491,155.15L111.504,155.093L111.519,155.037L111.535,154.981L111.552,154.925L111.571,154.87L111.591,154.815L111.612,154.76L111.635,154.706L111.659,154.652L111.684,154.599L111.711,154.547L111.739,154.494L111.769,154.443L111.8,154.392L111.832,154.342L111.866,154.292L111.901,154.243L111.937,154.194L111.975,154.147L112.014,154.1L112.055,154.054L112.097,154.009L112.14,153.964L145.808,120.296L145.847,120.254L145.887,120.213L145.932,120.17L145.977,120.128L146.023,120.087L146.07,120.048L146.118,120.01L146.166,119.973L146.215,119.938L146.265,119.905L146.316,119.872L146.367,119.841L146.418,119.812L146.47,119.783L146.523,119.757L146.576,119.731L146.63,119.707L146.684,119.684L146.739,119.663L146.794,119.643L146.849,119.624L146.905,119.607L146.961,119.591L147.018,119.577L147.074,119.564L147.131,119.552L147.188,119.542L147.245,119.533L147.303,119.526L147.36,119.519L147.418,119.515L147.476,119.511L147.534,119.509L147.591,119.509L147.649,119.509Z" style="fill:rgb(77,77,77);"/>
        </g>
        <path d="M143.153,150L122.771,150L122.771,124.348L150,97.119L177.229,124.348L177.229,150L156.847,150L156.847,129.6L143.153,129.6L143.153,150Z" style="fill:rgb(77,77,77);"/>
        <path d="M167.331,99.502L167.331,95.669C167.331,94.495 168.149,93.542 169.156,93.542L172.807,93.542C173.814,93.542 174.632,94.495 174.632,95.669L174.632,106.804L167.331,99.502Z" style="fill:rgb(77,77,77);"/>
    </g>
</svg>
