<?xml version="1.0" encoding="UTF-8" standalone="no"?>
<!DOCTYPE svg PUBLIC "-//W3C//DTD SVG 1.1//EN" "http://www.w3.org/Graphics/SVG/1.1/DTD/svg11.dtd">
<svg width="100%" height="100%" viewBox="0 0 300 300" version="1.1" xmlns="http://www.w3.org/2000/svg" xmlns:xlink="http://www.w3.org/1999/xlink" xml:space="preserve" xmlns:serif="http://www.serif.com/" style="fill-rule:evenodd;clip-rule:evenodd;stroke-linejoin:round;stroke-miterlimit:2;">
    <g id="Background">
        <path d="M300,30.271C300,13.564 286.436,0 269.729,0L30.271,0C13.564,0 0,13.564 0,30.271L0,269.729C0,286.436 13.564,300 30.271,300L269.729,300C286.436,300 300,286.436 300,269.729L300,30.271Z" style="fill:rgb(255,254,254);"/>
        <path d="M300,30.271C300,13.564 286.436,0 269.729,0L30.271,0C13.564,0 0,13.564 0,30.271L0,269.729C0,286.436 13.564,300 30.271,300L269.729,300C286.436,300 300,286.436 300,269.729L300,30.271ZM284,30.271L284,269.729C284,277.606 277.606,284 269.729,284C269.729,284 30.271,284 30.271,284C22.394,284 16,277.606 16,269.729L16,30.271C16,22.394 22.394,16 30.271,16L269.729,16C277.606,16 284,22.394 284,30.271Z" style="fill:rgb(227,28,0);"/>
        <g transform="matrix(1,0,0,1,48.1143,48.0838)">
            <path d="M124.887,128.178C123.216,129.85 121.502,131.565 119.785,133.281L124.695,151.603C124.788,151.951 124.67,152.307 124.42,152.534C124.41,152.546 124.399,152.557 124.389,152.567L108.405,168.551L112.134,182.466C112.183,182.598 112.226,182.734 112.264,182.873L115.921,196.522C116.564,198.924 115.137,201.396 112.735,202.04C110.334,202.683 107.861,201.256 107.218,198.854L105.573,192.716C105.544,192.659 105.521,192.598 105.504,192.534L98.495,166.378C98.397,166.012 98.531,165.639 98.806,165.414C98.826,165.39 98.847,165.367 98.869,165.344L114.784,149.429L112.427,140.63C109.571,143.477 106.894,146.141 104.616,148.398C99.146,153.819 93.616,159.372 78.647,158.812C68.99,158.45 61.611,153.351 58.031,150.3L99.219,109.111C100.503,107.828 100.503,105.744 99.219,104.46C97.936,103.177 95.852,103.177 94.568,104.46L53.38,145.649C50.329,142.068 45.23,134.689 44.868,125.033C44.307,110.063 49.86,104.533 55.281,99.063C57.481,96.844 60.066,94.245 62.831,91.472L54.63,89.275L38.715,105.19C38.693,105.212 38.669,105.233 38.645,105.253C38.42,105.528 38.047,105.662 37.682,105.564L11.525,98.556C11.461,98.539 11.4,98.515 11.344,98.486L5.205,96.842C2.804,96.198 1.376,93.726 2.02,91.324C2.663,88.922 5.135,87.495 7.537,88.138L21.186,91.796C21.325,91.833 21.461,91.876 21.594,91.926L35.509,95.654L51.492,79.671C51.503,79.66 51.514,79.65 51.525,79.639C51.752,79.389 52.108,79.271 52.457,79.365L70.179,84.113C71.968,82.324 73.758,80.534 75.501,78.793L68.659,71.951L50.728,71.951C50.623,71.951 50.522,71.933 50.427,71.901C48.555,71.777 46.883,70.483 46.371,68.571L42.714,54.922C42.07,52.52 43.498,50.048 45.899,49.404C48.301,48.76 50.773,50.188 51.417,52.59L54.19,62.94L72.006,62.94C72.343,62.94 72.639,63.121 72.803,63.39C72.866,63.428 72.925,63.475 72.98,63.529L81.877,72.427L83.762,70.546L85.824,68.49L79.488,62.155C79.125,61.791 79.125,61.201 79.488,60.838L93.025,47.301L93.025,35.038C93.025,32.551 95.044,30.533 97.53,30.533C100.016,30.533 102.035,32.551 102.035,35.038L102.035,49.168C102.035,50.235 101.663,51.216 101.042,51.988C101.005,52.05 100.959,52.109 100.905,52.163L91.572,61.496L142.682,112.607L152.015,103.274C152.069,103.22 152.128,103.174 152.191,103.136C152.963,102.515 153.944,102.144 155.011,102.144L169.141,102.144C171.627,102.144 173.646,104.162 173.646,106.649C173.646,109.135 171.627,111.154 169.141,111.154L156.878,111.154L143.341,124.69C142.978,125.054 142.387,125.054 142.024,124.69L135.189,117.856L133.153,119.898L131.253,121.802L140.437,130.987C140.492,131.041 140.538,131.101 140.576,131.164C140.846,131.327 141.026,131.623 141.026,131.961L141.026,149.776L151.377,152.549C153.778,153.193 155.206,155.665 154.562,158.067C153.919,160.469 151.447,161.896 149.045,161.253L135.396,157.595C133.484,157.083 132.189,155.411 132.066,153.539C132.033,153.445 132.016,153.344 132.016,153.238L132.016,135.307L124.887,128.178ZM105.995,70.156C106.729,68.953 107.613,67.822 108.648,66.787C112.304,63.13 117.168,61.356 122.107,61.43C122.856,58.436 123.417,55.353 123.774,52.194C125.551,36.465 121.977,21.433 114.58,9.149L114.584,9.147C113.266,6.863 114.05,3.939 116.333,2.62C118.617,1.302 121.541,2.086 122.86,4.369L122.86,4.369C131.105,18.381 135.061,35.422 133.047,53.242C132.642,56.825 132.009,60.323 131.165,63.721C132.99,64.663 134.715,65.893 136.27,67.41L136.411,67.556C137.863,69.072 139.046,70.747 139.958,72.514C143.357,71.67 146.855,71.037 150.438,70.633C168.257,68.619 185.299,72.574 199.311,80.819L199.311,80.82C201.594,82.138 202.377,85.063 201.059,87.346C199.741,89.63 196.816,90.414 194.533,89.095L194.53,89.1C182.246,81.703 167.215,78.128 151.485,79.906C148.327,80.263 145.244,80.824 142.249,81.573C142.324,86.512 140.549,91.375 136.893,95.032C135.858,96.067 134.726,96.951 133.524,97.685L105.995,70.156Z" style="fill:rgb(227,28,0);"/>
        </g>
    </g>
</svg>
