<?xml version="1.0" encoding="UTF-8" standalone="no"?>
<!DOCTYPE svg PUBLIC "-//W3C//DTD SVG 1.1//EN" "http://www.w3.org/Graphics/SVG/1.1/DTD/svg11.dtd">
<svg width="100%" height="100%" viewBox="0 0 300 300" version="1.1" xmlns="http://www.w3.org/2000/svg" xmlns:xlink="http://www.w3.org/1999/xlink" xml:space="preserve" xmlns:serif="http://www.serif.com/" style="fill-rule:evenodd;clip-rule:evenodd;stroke-linejoin:round;stroke-miterlimit:2;">
    <g id="Background">
        <path d="M300,30.271C300,13.564 286.436,0 269.729,0L30.271,0C13.564,0 0,13.564 0,30.271L0,269.729C0,286.436 13.564,300 30.271,300L269.729,300C286.436,300 300,286.436 300,269.729L300,30.271Z" style="fill:rgb(255,254,254);"/>
        <path d="M300,30.271C300,13.564 286.436,0 269.729,0L30.271,0C13.564,0 0,13.564 0,30.271L0,269.729C0,286.436 13.564,300 30.271,300L269.729,300C286.436,300 300,286.436 300,269.729L300,30.271ZM284,30.271L284,269.729C284,277.606 277.606,284 269.729,284C269.729,284 30.271,284 30.271,284C22.394,284 16,277.606 16,269.729L16,30.271C16,22.394 22.394,16 30.271,16L269.729,16C277.606,16 284,22.394 284,30.271Z" style="fill:rgb(227,28,0);"/>
        <g transform="matrix(0.947987,0,0,0.947987,13.0039,9.90418)">
            <path d="M127.213,115.518L135.14,115.518L135.14,81.348C135.14,80.816 135.306,80.323 135.59,79.918L135.593,79.912C136.046,79.269 136.794,78.848 137.64,78.848L169.472,78.848L169.472,76.736C169.472,75.571 170.419,74.625 171.584,74.625L203.837,74.625C205.002,74.625 205.948,75.571 205.948,76.736L205.948,78.848L237.654,78.848C238.5,78.848 239.248,79.269 239.701,79.912L239.704,79.918C239.988,80.323 240.154,80.816 240.154,81.348L240.154,210.94L247.515,210.94C248.894,210.94 250.015,212.06 250.015,213.44L250.015,218.44C250.015,219.819 248.894,220.94 247.515,220.94L41.511,220.94C40.131,220.94 39.011,219.82 39.011,218.44L39.011,213.44C39.011,212.06 40.131,210.94 41.511,210.94L47.253,210.94L47.253,118.018C47.253,117.895 47.262,117.774 47.279,117.655L47.28,117.647C47.46,116.443 48.499,115.518 49.753,115.518L67.146,115.518L67.146,111.78C67.146,110.614 68.092,109.668 69.257,109.668L87.192,109.668C88.357,109.668 89.303,110.614 89.303,111.78L89.303,115.518L105.056,115.518L105.056,111.78C105.056,110.614 106.002,109.668 107.167,109.668L125.102,109.668C126.267,109.668 127.213,110.614 127.213,111.78L127.213,115.518ZM135.14,125.518L57.253,125.518L57.253,210.94L135.14,210.94L135.14,125.518ZM230.154,88.848L145.14,88.848L145.14,210.94L172.352,210.94L172.352,187.792C172.352,187.091 172.921,186.523 173.622,186.522L201.799,186.522C202.5,186.523 203.068,187.091 203.068,187.792L203.068,210.94L230.154,210.94L230.154,88.848ZM185.092,191.6L177.43,191.6L177.43,210.94L185.092,210.94L185.092,191.6ZM197.991,191.6L190.169,191.6L190.169,210.94L197.991,210.94L197.991,191.6ZM77.146,187.08L67.146,187.08L67.146,197.08L77.146,197.08L77.146,187.08ZM100.157,187.08L90.157,187.08L90.157,197.08L100.157,197.08L100.157,187.08ZM123.168,187.08L113.168,187.08L113.168,197.08L123.168,197.08L123.168,187.08ZM77.146,163.096L67.146,163.096L67.146,173.096L77.146,173.096L77.146,163.096ZM100.157,163.096L90.157,163.096L90.157,173.096L100.157,173.096L100.157,163.096ZM123.168,163.096L113.168,163.096L113.168,173.096L123.168,173.096L123.168,163.096ZM169.699,153.096L159.699,153.096L159.699,163.096L169.699,163.096L169.699,153.096ZM192.71,153.096L182.71,153.096L182.71,163.096L192.71,163.096L192.71,153.096ZM215.722,153.096L205.722,153.096L205.722,163.096L215.722,163.096L215.722,153.096ZM77.146,139.113L67.146,139.113L67.146,149.113L77.146,149.113L77.146,139.113ZM100.157,139.113L90.157,139.113L90.157,149.113L100.157,149.113L100.157,139.113ZM123.168,139.113L113.168,139.113L113.168,149.113L123.168,149.113L123.168,139.113ZM169.699,129.113L159.699,129.113L159.699,139.113L169.699,139.113L169.699,129.113ZM192.71,129.113L182.71,129.113L182.71,139.113L192.71,139.113L192.71,129.113ZM215.722,129.113L205.722,129.113L205.722,139.113L215.722,139.113L215.722,129.113ZM169.699,105.13L159.699,105.13L159.699,115.13L169.699,115.13L169.699,105.13ZM192.71,105.13L182.71,105.13L182.71,115.13L192.71,115.13L192.71,105.13ZM215.722,105.13L205.722,105.13L205.722,115.13L215.722,115.13L215.722,105.13Z" style="fill:rgb(227,28,0);"/>
        </g>
    </g>
</svg>
