<?xml version="1.0" encoding="UTF-8" standalone="no"?>
<!DOCTYPE svg PUBLIC "-//W3C//DTD SVG 1.1//EN" "http://www.w3.org/Graphics/SVG/1.1/DTD/svg11.dtd">
<svg width="100%" height="100%" viewBox="0 0 300 300" version="1.1" xmlns="http://www.w3.org/2000/svg" xmlns:xlink="http://www.w3.org/1999/xlink" xml:space="preserve" xmlns:serif="http://www.serif.com/" style="fill-rule:evenodd;clip-rule:evenodd;stroke-linejoin:round;stroke-miterlimit:2;">
    <g id="Background">
        <path d="M300,30.271C300,13.564 286.436,0 269.729,0L30.271,0C13.564,0 0,13.564 0,30.271L0,269.729C0,286.436 13.564,300 30.271,300L269.729,300C286.436,300 300,286.436 300,269.729L300,30.271Z" style="fill:rgb(255,254,254);"/>
        <path d="M300,30.271C300,13.564 286.436,0 269.729,0L30.271,0C13.564,0 0,13.564 0,30.271L0,269.729C0,286.436 13.564,300 30.271,300L269.729,300C286.436,300 300,286.436 300,269.729L300,30.271ZM284,30.271L284,269.729C284,277.606 277.606,284 269.729,284C269.729,284 30.271,284 30.271,284C22.394,284 16,277.606 16,269.729L16,30.271C16,22.394 22.394,16 30.271,16L269.729,16C277.606,16 284,22.394 284,30.271Z" style="fill:rgb(227,28,0);"/>
        <g transform="matrix(1.56702,0,0,1.56702,-63.7997,-83.1068)">
            <path d="M81,109C82.238,98.745 96.5,84.167 104,85C111.5,85.833 126.614,108.435 126,116C125.241,125.347 117.654,126.813 112,129C110.153,129.715 106.992,131.721 111,142C116.466,156.021 134.239,175.9 142,178C153.696,181.165 149.77,177.564 155,172C159.526,167.184 163.054,165.497 167,167C174,169.667 192.667,188.5 192,196C191.333,203.5 173.557,215.229 163,212C148.833,207.667 120.667,187.167 107,170C93.333,152.833 79.279,123.254 81,109Z" style="fill:rgb(227,28,0);"/>
        </g>
    </g>
</svg>
