<?xml version="1.0" encoding="UTF-8" standalone="no"?>
<!DOCTYPE svg PUBLIC "-//W3C//DTD SVG 1.1//EN" "http://www.w3.org/Graphics/SVG/1.1/DTD/svg11.dtd">
<svg width="100%" height="100%" viewBox="0 0 300 300" version="1.1" xmlns="http://www.w3.org/2000/svg" xmlns:xlink="http://www.w3.org/1999/xlink" xml:space="preserve" xmlns:serif="http://www.serif.com/" style="fill-rule:evenodd;clip-rule:evenodd;stroke-miterlimit:1.5;">
    <g>
        <g>
            <g id="Background">
                <path d="M300,30.271C300,13.564 286.436,0 269.729,0L30.271,0C13.564,0 0,13.564 0,30.271L0,269.729C0,286.436 13.564,300 30.271,300L269.729,300C286.436,300 300,286.436 300,269.729L300,30.271Z" style="fill:rgb(255,254,254);"/>
                <path d="M269.925,0.001L270.12,0.002L270.51,0.01L270.705,0.015L270.899,0.022L271.093,0.03L271.286,0.039L271.672,0.061L271.865,0.074L272.057,0.088L272.249,0.104L272.44,0.12L272.632,0.138L272.823,0.156L273.013,0.176L273.393,0.22L273.583,0.243L273.772,0.268L273.96,0.294L274.149,0.321L274.337,0.349L274.524,0.378L274.712,0.409L274.898,0.44L275.085,0.473L275.271,0.507L275.457,0.542L275.642,0.578L275.827,0.615L276.195,0.693L276.379,0.734L276.562,0.776L276.745,0.819L276.927,0.862L277.291,0.954L277.472,1.001L277.652,1.049L277.833,1.099L278.012,1.149L278.192,1.201L278.371,1.253L278.549,1.307L278.727,1.362L278.904,1.418L279.081,1.475L279.258,1.533L279.434,1.592L279.609,1.652L279.784,1.713L279.959,1.775L280.133,1.838L280.307,1.902L280.48,1.968L280.652,2.034L280.824,2.101L280.996,2.169L281.167,2.239L281.337,2.309L281.507,2.38L281.677,2.453L281.846,2.526L282.014,2.6L282.182,2.676L282.349,2.752L282.516,2.829L282.848,2.987L283.013,3.067L283.178,3.148L283.342,3.231L283.505,3.314L283.668,3.398L283.83,3.483L283.992,3.569L284.153,3.656L284.314,3.744L284.474,3.832L284.633,3.922L284.792,4.013L285.108,4.197L285.265,4.291L285.421,4.385L285.577,4.48L285.732,4.576L286.04,4.772L286.346,4.97L286.498,5.071L286.8,5.275L286.95,5.379L287.099,5.483L287.248,5.588L287.396,5.694L287.69,5.908L287.836,6.017L287.981,6.126L288.126,6.237L288.27,6.348L288.413,6.46L288.556,6.573L288.698,6.686L288.98,6.916L289.119,7.032L289.259,7.149L289.535,7.385L289.672,7.505L289.808,7.625L289.943,7.746L290.078,7.868L290.212,7.99L290.346,8.114L290.478,8.238L290.61,8.363L290.741,8.488L291.001,8.742L291.13,8.87L291.258,8.999L291.512,9.259L291.637,9.39L291.762,9.522L291.886,9.654L292.01,9.788L292.132,9.922L292.254,10.057L292.375,10.192L292.495,10.328L292.615,10.465L292.851,10.741L292.968,10.881L293.084,11.02L293.314,11.302L293.427,11.444L293.54,11.587L293.652,11.73L293.763,11.874L293.874,12.019L293.983,12.164L294.092,12.31L294.306,12.604L294.412,12.752L294.517,12.901L294.621,13.05L294.725,13.2L294.929,13.502L295.03,13.654L295.228,13.96L295.424,14.268L295.52,14.423L295.615,14.579L295.709,14.735L295.803,14.892L295.987,15.208L296.078,15.367L296.168,15.526L296.256,15.686L296.344,15.847L296.431,16.008L296.517,16.17L296.602,16.332L296.686,16.495L296.769,16.658L296.852,16.822L296.933,16.987L297.013,17.152L297.171,17.484L297.248,17.651L297.324,17.818L297.4,17.986L297.474,18.154L297.547,18.323L297.62,18.493L297.691,18.663L297.761,18.833L297.831,19.004L297.899,19.176L297.966,19.348L298.032,19.52L298.098,19.693L298.162,19.867L298.225,20.041L298.287,20.216L298.348,20.391L298.408,20.566L298.467,20.742L298.525,20.919L298.582,21.096L298.638,21.273L298.693,21.451L298.747,21.629L298.799,21.808L298.851,21.988L298.901,22.167L298.951,22.348L298.999,22.528L299.046,22.709L299.138,23.073L299.181,23.255L299.224,23.438L299.266,23.621L299.307,23.805L299.385,24.173L299.422,24.358L299.458,24.543L299.493,24.729L299.527,24.915L299.56,25.102L299.591,25.288L299.622,25.476L299.651,25.663L299.679,25.851L299.706,26.04L299.732,26.228L299.757,26.417L299.78,26.607L299.824,26.987L299.844,27.177L299.862,27.368L299.88,27.56L299.896,27.751L299.912,27.943L299.926,28.135L299.939,28.328L299.961,28.714L299.97,28.907L299.978,29.101L299.985,29.295L299.99,29.49L299.998,29.88L300,30.271L300,269.729L299.999,269.925L299.998,270.12L299.994,270.315L299.99,270.51L299.985,270.705L299.978,270.899L299.97,271.093L299.961,271.286L299.95,271.479L299.939,271.672L299.926,271.865L299.912,272.057L299.896,272.249L299.88,272.44L299.862,272.632L299.844,272.823L299.824,273.013L299.802,273.203L299.78,273.393L299.757,273.583L299.732,273.772L299.706,273.96L299.679,274.149L299.651,274.337L299.622,274.524L299.591,274.712L299.56,274.898L299.527,275.085L299.493,275.271L299.458,275.457L299.422,275.642L299.385,275.827L299.346,276.011L299.307,276.195L299.266,276.379L299.224,276.562L299.181,276.745L299.138,276.927L299.092,277.109L299.046,277.291L298.999,277.472L298.951,277.652L298.901,277.833L298.851,278.012L298.799,278.192L298.747,278.371L298.693,278.549L298.638,278.727L298.582,278.904L298.525,279.081L298.467,279.258L298.408,279.434L298.348,279.609L298.287,279.784L298.225,279.959L298.162,280.133L298.098,280.307L298.032,280.48L297.966,280.652L297.899,280.824L297.831,280.996L297.761,281.167L297.691,281.337L297.62,281.507L297.547,281.677L297.474,281.846L297.4,282.014L297.324,282.182L297.248,282.349L297.171,282.516L297.092,282.682L297.013,282.848L296.933,283.013L296.852,283.178L296.769,283.342L296.686,283.505L296.602,283.668L296.517,283.83L296.431,283.992L296.344,284.153L296.256,284.314L296.168,284.474L296.078,284.633L295.987,284.792L295.895,284.95L295.803,285.108L295.709,285.265L295.615,285.421L295.52,285.577L295.424,285.732L295.326,285.886L295.228,286.04L295.129,286.193L295.03,286.346L294.929,286.498L294.827,286.649L294.725,286.8L294.621,286.95L294.517,287.099L294.412,287.248L294.306,287.396L294.199,287.543L294.092,287.69L293.983,287.836L293.874,287.981L293.763,288.126L293.652,288.27L293.54,288.413L293.427,288.556L293.314,288.698L293.199,288.839L293.084,288.98L292.968,289.119L292.851,289.259L292.733,289.397L292.615,289.535L292.495,289.672L292.375,289.808L292.254,289.943L292.132,290.078L292.01,290.212L291.886,290.346L291.762,290.478L291.637,290.61L291.512,290.741L291.385,290.871L291.258,291.001L291.13,291.13L291.001,291.258L290.871,291.385L290.741,291.512L290.61,291.637L290.478,291.762L290.346,291.886L290.212,292.01L290.078,292.132L289.943,292.254L289.808,292.375L289.672,292.495L289.535,292.615L289.397,292.733L289.259,292.851L289.119,292.968L288.98,293.084L288.839,293.199L288.698,293.314L288.556,293.427L288.413,293.54L288.27,293.652L288.126,293.763L287.981,293.874L287.836,293.983L287.69,294.092L287.543,294.199L287.396,294.306L287.248,294.412L287.099,294.517L286.95,294.621L286.8,294.725L286.649,294.827L286.498,294.929L286.346,295.03L286.193,295.129L286.04,295.228L285.886,295.326L285.732,295.424L285.577,295.52L285.421,295.615L285.265,295.709L285.108,295.803L284.95,295.895L284.792,295.987L284.633,296.078L284.474,296.168L284.314,296.256L284.153,296.344L283.992,296.431L283.83,296.517L283.668,296.602L283.505,296.686L283.342,296.769L283.178,296.852L283.013,296.933L282.848,297.013L282.682,297.092L282.516,297.171L282.349,297.248L282.182,297.324L282.014,297.4L281.846,297.474L281.677,297.547L281.507,297.62L281.337,297.691L281.167,297.761L280.996,297.831L280.824,297.899L280.652,297.966L280.48,298.032L280.307,298.098L280.133,298.162L279.959,298.225L279.784,298.287L279.609,298.348L279.434,298.408L279.258,298.467L279.081,298.525L278.904,298.582L278.727,298.638L278.549,298.693L278.371,298.747L278.192,298.799L278.012,298.851L277.833,298.901L277.652,298.951L277.472,298.999L277.291,299.046L277.109,299.092L276.927,299.138L276.745,299.181L276.562,299.224L276.379,299.266L276.195,299.307L276.011,299.346L275.827,299.385L275.642,299.422L275.457,299.458L275.271,299.493L275.085,299.527L274.898,299.56L274.712,299.591L274.524,299.622L274.337,299.651L274.149,299.679L273.96,299.706L273.772,299.732L273.583,299.757L273.393,299.78L273.203,299.802L273.013,299.824L272.823,299.844L272.632,299.862L272.44,299.88L272.249,299.896L272.057,299.912L271.865,299.926L271.672,299.939L271.479,299.95L271.286,299.961L271.093,299.97L270.899,299.978L270.705,299.985L270.51,299.99L270.315,299.994L270.12,299.998L269.925,299.999L269.729,300L30.271,300L30.075,299.999L29.88,299.998L29.685,299.994L29.49,299.99L29.295,299.985L29.101,299.978L28.907,299.97L28.714,299.961L28.521,299.95L28.328,299.939L28.135,299.926L27.943,299.912L27.751,299.896L27.56,299.88L27.368,299.862L27.177,299.844L26.987,299.824L26.797,299.802L26.607,299.78L26.417,299.757L26.228,299.732L26.04,299.706L25.851,299.679L25.663,299.651L25.476,299.622L25.288,299.591L25.102,299.56L24.915,299.527L24.729,299.493L24.543,299.458L24.358,299.422L24.173,299.385L23.989,299.346L23.805,299.307L23.621,299.266L23.438,299.224L23.255,299.181L23.073,299.138L22.891,299.092L22.709,299.046L22.528,298.999L22.348,298.951L22.167,298.901L21.988,298.851L21.808,298.799L21.629,298.747L21.451,298.693L21.273,298.638L21.096,298.582L20.919,298.525L20.742,298.467L20.566,298.408L20.391,298.348L20.216,298.287L20.041,298.225L19.867,298.162L19.693,298.098L19.52,298.032L19.348,297.966L19.176,297.899L19.004,297.831L18.833,297.761L18.663,297.691L18.493,297.62L18.323,297.547L18.154,297.474L17.986,297.4L17.818,297.324L17.651,297.248L17.484,297.171L17.318,297.092L17.152,297.013L16.987,296.933L16.822,296.852L16.658,296.769L16.495,296.686L16.332,296.602L16.17,296.517L16.008,296.431L15.847,296.344L15.686,296.256L15.526,296.168L15.367,296.078L15.208,295.987L15.05,295.895L14.892,295.803L14.735,295.709L14.579,295.615L14.423,295.52L14.268,295.424L14.114,295.326L13.96,295.228L13.807,295.129L13.654,295.03L13.502,294.929L13.351,294.827L13.2,294.725L13.05,294.621L12.901,294.517L12.752,294.412L12.604,294.306L12.457,294.199L12.31,294.092L12.164,293.983L12.019,293.874L11.874,293.763L11.73,293.652L11.587,293.54L11.444,293.427L11.302,293.314L11.161,293.199L11.02,293.084L10.881,292.968L10.741,292.851L10.603,292.733L10.465,292.615L10.328,292.495L10.192,292.375L10.057,292.254L9.922,292.132L9.788,292.01L9.654,291.886L9.522,291.762L9.39,291.637L9.259,291.512L9.129,291.385L8.999,291.258L8.87,291.13L8.742,291.001L8.615,290.871L8.488,290.741L8.363,290.61L8.238,290.478L8.114,290.346L7.99,290.212L7.868,290.078L7.746,289.943L7.625,289.808L7.505,289.672L7.385,289.535L7.267,289.397L7.149,289.259L7.032,289.119L6.916,288.98L6.801,288.839L6.686,288.698L6.573,288.556L6.46,288.413L6.348,288.27L6.237,288.126L6.126,287.981L6.017,287.836L5.908,287.69L5.801,287.543L5.694,287.396L5.588,287.248L5.483,287.099L5.379,286.95L5.275,286.8L5.173,286.649L5.071,286.498L4.97,286.346L4.871,286.193L4.772,286.04L4.674,285.886L4.576,285.732L4.48,285.577L4.385,285.421L4.291,285.265L4.197,285.108L4.105,284.95L4.013,284.792L3.922,284.633L3.832,284.474L3.744,284.314L3.656,284.153L3.569,283.992L3.483,283.83L3.398,283.668L3.314,283.505L3.231,283.342L3.148,283.178L3.067,283.013L2.987,282.848L2.908,282.682L2.829,282.516L2.752,282.349L2.676,282.182L2.6,282.014L2.526,281.846L2.453,281.677L2.38,281.507L2.309,281.337L2.239,281.167L2.169,280.996L2.101,280.824L2.034,280.652L1.968,280.48L1.902,280.307L1.838,280.133L1.775,279.959L1.713,279.784L1.652,279.609L1.592,279.434L1.533,279.258L1.475,279.081L1.418,278.904L1.362,278.727L1.307,278.549L1.253,278.371L1.201,278.192L1.149,278.012L1.099,277.833L1.049,277.652L1.001,277.472L0.954,277.291L0.908,277.109L0.862,276.927L0.819,276.745L0.776,276.562L0.734,276.379L0.693,276.195L0.654,276.011L0.615,275.827L0.578,275.642L0.542,275.457L0.507,275.271L0.473,275.085L0.44,274.898L0.409,274.712L0.378,274.524L0.349,274.337L0.321,274.149L0.294,273.96L0.268,273.772L0.243,273.583L0.22,273.393L0.198,273.203L0.176,273.013L0.156,272.823L0.138,272.632L0.12,272.44L0.104,272.249L0.088,272.057L0.074,271.865L0.061,271.672L0.05,271.479L0.039,271.286L0.03,271.093L0.022,270.899L0.015,270.705L0.01,270.51L0.006,270.315L0.002,270.12L0.001,269.925L0,269.729L0,30.271L0.001,30.075L0.002,29.88L0.006,29.685L0.01,29.49L0.015,29.295L0.022,29.101L0.03,28.907L0.039,28.714L0.05,28.521L0.061,28.328L0.074,28.135L0.088,27.943L0.104,27.751L0.12,27.56L0.138,27.368L0.156,27.177L0.176,26.987L0.198,26.797L0.22,26.607L0.243,26.417L0.268,26.228L0.294,26.04L0.321,25.851L0.349,25.663L0.378,25.476L0.409,25.288L0.44,25.102L0.473,24.915L0.507,24.729L0.542,24.543L0.578,24.358L0.615,24.173L0.654,23.989L0.693,23.805L0.734,23.621L0.776,23.438L0.819,23.255L0.862,23.073L0.908,22.891L0.954,22.709L1.001,22.528L1.049,22.348L1.099,22.167L1.149,21.988L1.201,21.808L1.253,21.629L1.307,21.451L1.362,21.273L1.418,21.096L1.475,20.919L1.533,20.742L1.592,20.566L1.652,20.391L1.713,20.216L1.775,20.041L1.838,19.867L1.902,19.693L1.968,19.52L2.034,19.348L2.101,19.176L2.169,19.004L2.239,18.833L2.309,18.663L2.38,18.493L2.453,18.323L2.526,18.154L2.6,17.986L2.676,17.818L2.752,17.651L2.829,17.484L2.908,17.318L2.987,17.152L3.067,16.987L3.148,16.822L3.231,16.658L3.314,16.495L3.398,16.332L3.483,16.17L3.569,16.008L3.656,15.847L3.744,15.686L3.832,15.526L3.922,15.367L4.013,15.208L4.105,15.05L4.197,14.892L4.291,14.735L4.385,14.579L4.48,14.423L4.576,14.268L4.674,14.114L4.772,13.96L4.871,13.807L4.97,13.654L5.071,13.502L5.173,13.351L5.275,13.2L5.379,13.05L5.483,12.901L5.588,12.752L5.694,12.604L5.801,12.457L5.908,12.31L6.017,12.164L6.126,12.019L6.237,11.874L6.348,11.73L6.46,11.587L6.573,11.444L6.686,11.302L6.801,11.161L6.916,11.02L7.032,10.881L7.149,10.741L7.267,10.603L7.385,10.465L7.505,10.328L7.625,10.192L7.746,10.057L7.868,9.922L7.99,9.788L8.114,9.654L8.238,9.522L8.363,9.39L8.488,9.259L8.615,9.129L8.742,8.999L8.87,8.87L8.999,8.742L9.129,8.615L9.259,8.488L9.39,8.363L9.522,8.238L9.654,8.114L9.788,7.99L9.922,7.868L10.057,7.746L10.192,7.625L10.328,7.505L10.465,7.385L10.603,7.267L10.741,7.149L10.881,7.032L11.02,6.916L11.161,6.801L11.302,6.686L11.444,6.573L11.587,6.46L11.73,6.348L11.874,6.237L12.019,6.126L12.164,6.017L12.31,5.908L12.457,5.801L12.604,5.694L12.752,5.588L12.901,5.483L13.05,5.379L13.2,5.275L13.351,5.173L13.502,5.071L13.654,4.97L13.807,4.871L13.96,4.772L14.114,4.674L14.268,4.576L14.423,4.48L14.579,4.385L14.735,4.291L14.892,4.197L15.05,4.105L15.208,4.013L15.367,3.922L15.526,3.832L15.686,3.744L15.847,3.656L16.008,3.569L16.17,3.483L16.332,3.398L16.495,3.314L16.658,3.231L16.822,3.148L16.987,3.067L17.152,2.987L17.318,2.908L17.484,2.829L17.651,2.752L17.818,2.676L17.986,2.6L18.154,2.526L18.323,2.453L18.493,2.38L18.663,2.309L18.833,2.239L19.004,2.169L19.176,2.101L19.348,2.034L19.52,1.968L19.693,1.902L19.867,1.838L20.041,1.775L20.216,1.713L20.391,1.652L20.566,1.592L20.742,1.533L20.919,1.475L21.096,1.418L21.273,1.362L21.451,1.307L21.629,1.253L21.808,1.201L21.988,1.149L22.167,1.099L22.348,1.049L22.528,1.001L22.709,0.954L22.891,0.908L23.073,0.862L23.255,0.819L23.438,0.776L23.621,0.734L23.805,0.693L23.989,0.654L24.173,0.615L24.358,0.578L24.543,0.542L24.729,0.507L24.915,0.473L25.102,0.44L25.288,0.409L25.476,0.378L25.663,0.349L25.851,0.321L26.04,0.294L26.228,0.268L26.417,0.243L26.607,0.22L26.797,0.198L26.987,0.176L27.177,0.156L27.368,0.138L27.56,0.12L27.751,0.104L27.943,0.088L28.135,0.074L28.328,0.061L28.521,0.05L28.714,0.039L28.907,0.03L29.101,0.022L29.295,0.015L29.49,0.01L29.685,0.006L29.88,0.002L30.075,0.001L30.271,0L269.729,0L269.925,0.001ZM30.296,16L30.176,16L30.083,16.001L29.989,16.003L29.896,16.005L29.803,16.007L29.71,16.011L29.617,16.015L29.525,16.019L29.433,16.024L29.341,16.029L29.25,16.036L29.159,16.042L29.068,16.049L28.977,16.057L28.886,16.066L28.796,16.074L28.706,16.084L28.616,16.094L28.527,16.104L28.438,16.115L28.348,16.127L28.26,16.139L28.171,16.152L28.083,16.165L27.995,16.179L27.907,16.193L27.819,16.208L27.732,16.223L27.644,16.239L27.557,16.256L27.471,16.273L27.384,16.29L27.298,16.308L27.212,16.326L27.126,16.345L27.04,16.365L26.955,16.385L26.87,16.406L26.785,16.427L26.7,16.448L26.615,16.47L26.531,16.493L26.447,16.516L26.363,16.539L26.279,16.564L26.195,16.588L26.112,16.613L26.029,16.639L25.946,16.665L25.864,16.691L25.781,16.719L25.699,16.746L25.617,16.774L25.535,16.803L25.454,16.832L25.372,16.861L25.291,16.891L25.21,16.922L25.129,16.953L25.049,16.984L24.969,17.016L24.889,17.049L24.809,17.082L24.729,17.115L24.65,17.149L24.571,17.183L24.492,17.218L24.413,17.253L24.335,17.289L24.257,17.325L24.179,17.362L24.101,17.399L24.023,17.437L23.946,17.475L23.869,17.514L23.792,17.553L23.716,17.592L23.639,17.632L23.563,17.673L23.487,17.714L23.412,17.755L23.337,17.797L23.262,17.839L23.187,17.882L23.112,17.925L23.038,17.969L22.964,18.013L22.89,18.057L22.817,18.102L22.744,18.148L22.671,18.193L22.598,18.24L22.526,18.286L22.453,18.334L22.382,18.381L22.31,18.429L22.239,18.478L22.168,18.527L22.097,18.576L22.027,18.626L21.957,18.676L21.887,18.727L21.817,18.778L21.748,18.829L21.679,18.881L21.611,18.933L21.542,18.986L21.474,19.039L21.407,19.092L21.339,19.146L21.272,19.201L21.206,19.255L21.139,19.311L21.073,19.366L21.007,19.422L20.942,19.478L20.877,19.535L20.812,19.592L20.748,19.65L20.684,19.707L20.62,19.766L20.557,19.824L20.494,19.883L20.431,19.943L20.369,20.003L20.307,20.063L20.245,20.123L20.184,20.184L20.123,20.245L20.063,20.307L20.003,20.369L19.943,20.431L19.883,20.494L19.824,20.557L19.766,20.62L19.707,20.684L19.65,20.748L19.592,20.812L19.535,20.877L19.478,20.942L19.422,21.007L19.366,21.073L19.311,21.139L19.255,21.206L19.201,21.272L19.146,21.339L19.092,21.407L19.039,21.474L18.986,21.542L18.933,21.611L18.881,21.679L18.829,21.748L18.778,21.817L18.727,21.887L18.676,21.957L18.626,22.027L18.576,22.097L18.527,22.168L18.478,22.239L18.429,22.31L18.381,22.382L18.334,22.453L18.286,22.526L18.24,22.598L18.193,22.671L18.148,22.744L18.102,22.817L18.057,22.89L18.013,22.964L17.969,23.038L17.925,23.112L17.882,23.187L17.839,23.262L17.797,23.337L17.755,23.412L17.714,23.487L17.673,23.563L17.632,23.639L17.592,23.716L17.553,23.792L17.514,23.869L17.475,23.946L17.437,24.023L17.399,24.101L17.362,24.179L17.325,24.257L17.289,24.335L17.253,24.413L17.218,24.492L17.183,24.571L17.149,24.65L17.115,24.729L17.082,24.809L17.049,24.889L17.016,24.969L16.984,25.049L16.953,25.129L16.922,25.21L16.891,25.291L16.861,25.372L16.832,25.454L16.803,25.535L16.774,25.617L16.746,25.699L16.719,25.781L16.691,25.864L16.665,25.946L16.639,26.029L16.613,26.112L16.588,26.195L16.564,26.279L16.539,26.363L16.516,26.447L16.493,26.531L16.47,26.615L16.448,26.7L16.427,26.785L16.406,26.87L16.385,26.955L16.365,27.04L16.345,27.126L16.326,27.212L16.308,27.298L16.29,27.384L16.273,27.471L16.256,27.557L16.239,27.644L16.223,27.732L16.208,27.819L16.193,27.907L16.179,27.995L16.165,28.083L16.152,28.171L16.139,28.26L16.127,28.348L16.115,28.438L16.104,28.527L16.094,28.616L16.084,28.706L16.074,28.796L16.066,28.886L16.057,28.977L16.049,29.068L16.042,29.159L16.036,29.25L16.029,29.341L16.024,29.433L16.019,29.525L16.015,29.617L16.011,29.71L16.007,29.803L16.005,29.896L16.003,29.989L16.001,30.083L16,30.176L16,269.824L16.001,269.917L16.005,270.104L16.007,270.197L16.015,270.383L16.019,270.475L16.029,270.659L16.036,270.75L16.042,270.841L16.049,270.932L16.057,271.023L16.066,271.114L16.074,271.204L16.094,271.384L16.104,271.473L16.115,271.562L16.127,271.652L16.139,271.74L16.152,271.829L16.165,271.917L16.193,272.093L16.208,272.181L16.223,272.268L16.239,272.355L16.29,272.616L16.308,272.702L16.327,272.788L16.345,272.874L16.365,272.96L16.385,273.045L16.406,273.13L16.427,273.216L16.448,273.3L16.47,273.385L16.539,273.637L16.564,273.721L16.588,273.805L16.613,273.888L16.691,274.137L16.719,274.219L16.746,274.301L16.774,274.383L16.803,274.465L16.832,274.546L16.861,274.628L16.891,274.709L16.953,274.871L16.984,274.951L17.016,275.031L17.115,275.271L17.149,275.351L17.183,275.429L17.253,275.587L17.325,275.743L17.399,275.899L17.437,275.977L17.475,276.054L17.592,276.285L17.632,276.361L17.672,276.436L17.713,276.512L17.755,276.589L17.797,276.663L17.839,276.738L17.882,276.813L17.925,276.887L17.969,276.962L18.057,277.11L18.147,277.256L18.194,277.33L18.286,277.474L18.334,277.547L18.382,277.619L18.429,277.69L18.478,277.761L18.526,277.832L18.576,277.903L18.626,277.973L18.676,278.044L18.727,278.113L18.777,278.182L18.829,278.252L18.881,278.321L18.933,278.389L18.986,278.458L19.039,278.526L19.092,278.593L19.147,278.661L19.201,278.728L19.256,278.795L19.31,278.86L19.366,278.927L19.422,278.993L19.478,279.058L19.592,279.188L19.649,279.252L19.707,279.316L19.825,279.444L19.884,279.506L19.942,279.568L20.003,279.632L20.063,279.693L20.123,279.755L20.245,279.877L20.307,279.938L20.368,279.997L20.494,280.117L20.557,280.176L20.62,280.234L20.684,280.293L20.748,280.35L20.812,280.408L20.942,280.522L21.007,280.578L21.073,280.634L21.139,280.689L21.206,280.745L21.272,280.799L21.34,280.854L21.407,280.908L21.474,280.961L21.61,281.067L21.678,281.119L21.748,281.171L21.817,281.223L21.886,281.273L21.957,281.324L22.097,281.424L22.168,281.474L22.239,281.522L22.31,281.571L22.381,281.619L22.454,281.666L22.526,281.714L22.598,281.761L22.67,281.806L22.743,281.852L22.817,281.898L22.89,281.943L22.964,281.987L23.038,282.032L23.186,282.118L23.262,282.161L23.336,282.203L23.411,282.245L23.563,282.327L23.64,282.368L23.716,282.408L23.793,282.447L23.869,282.487L24.1,282.601L24.178,282.638L24.256,282.674L24.335,282.711L24.414,282.747L24.57,282.817L24.649,282.851L24.729,282.885L24.81,282.919L24.888,282.951L24.969,282.984L25.05,283.016L25.129,283.047L25.291,283.109L25.373,283.139L25.454,283.168L25.534,283.197L25.617,283.226L25.781,283.282L25.864,283.309L26.028,283.361L26.113,283.387L26.196,283.412L26.278,283.436L26.362,283.46L26.447,283.484L26.615,283.53L26.7,283.552L26.786,283.574L26.869,283.594L26.955,283.615L27.04,283.635L27.125,283.654L27.212,283.674L27.384,283.71L27.47,283.727L27.558,283.744L27.645,283.761L27.732,283.777L27.906,283.807L27.994,283.821L28.083,283.835L28.259,283.861L28.35,283.873L28.438,283.885L28.527,283.896L28.616,283.906L28.796,283.926L28.886,283.934L28.976,283.943L29.067,283.951L29.251,283.965L29.342,283.971L29.432,283.976L29.525,283.981L29.618,283.985L29.71,283.989L29.803,283.993L29.895,283.995L30.083,283.999L30.176,284L269.824,284L269.917,283.999L270.011,283.997L270.105,283.995L270.197,283.993L270.29,283.989L270.382,283.985L270.475,283.981L270.568,283.976L270.658,283.971L270.749,283.965L270.841,283.958L270.933,283.951L271.024,283.943L271.114,283.934L271.204,283.926L271.294,283.916L271.384,283.906L271.473,283.896L271.562,283.885L271.65,283.873L271.741,283.861L271.829,283.848L271.917,283.835L272.006,283.821L272.094,283.807L272.181,283.792L272.268,283.777L272.355,283.761L272.442,283.744L272.53,283.727L272.616,283.71L272.702,283.692L272.788,283.674L272.875,283.654L272.96,283.635L273.045,283.615L273.131,283.594L273.215,283.574L273.3,283.552L273.385,283.53L273.469,283.507L273.553,283.484L273.638,283.46L273.722,283.436L273.804,283.412L273.887,283.387L273.972,283.361L274.054,283.335L274.136,283.309L274.219,283.281L274.301,283.254L274.383,283.226L274.465,283.197L274.546,283.168L274.627,283.139L274.709,283.109L274.79,283.078L274.871,283.047L274.95,283.016L275.031,282.984L275.112,282.951L275.19,282.919L275.271,282.885L275.352,282.851L275.429,282.817L275.507,282.782L275.586,282.747L275.665,282.711L275.744,282.675L275.822,282.638L275.9,282.601L275.977,282.563L276.053,282.525L276.131,282.486L276.208,282.447L276.284,282.408L276.361,282.368L276.436,282.328L276.512,282.287L276.589,282.244L276.663,282.203L276.738,282.161L276.814,282.118L276.888,282.075L276.962,282.032L277.036,281.987L277.11,281.943L277.183,281.898L277.256,281.852L277.33,281.806L277.402,281.761L277.473,281.714L277.547,281.666L277.619,281.618L277.69,281.571L277.761,281.522L277.831,281.474L277.903,281.424L277.973,281.374L278.044,281.324L278.114,281.273L278.182,281.223L278.252,281.171L278.322,281.118L278.389,281.067L278.458,281.014L278.526,280.961L278.593,280.908L278.66,280.854L278.728,280.799L278.795,280.744L278.86,280.69L278.927,280.633L278.993,280.578L279.058,280.522L279.123,280.465L279.187,280.408L279.252,280.35L279.316,280.293L279.38,280.234L279.444,280.175L279.506,280.117L279.569,280.057L279.632,279.997L279.693,279.938L279.755,279.877L279.816,279.816L279.877,279.755L279.938,279.693L279.997,279.632L280.057,279.569L280.117,279.506L280.175,279.444L280.234,279.38L280.293,279.316L280.35,279.252L280.408,279.187L280.465,279.123L280.522,279.058L280.578,278.993L280.633,278.927L280.69,278.86L280.744,278.795L280.799,278.728L280.854,278.66L280.908,278.593L280.961,278.526L281.014,278.458L281.067,278.389L281.118,278.322L281.171,278.252L281.223,278.182L281.273,278.114L281.324,278.044L281.374,277.973L281.424,277.903L281.474,277.831L281.522,277.761L281.571,277.69L281.618,277.619L281.666,277.547L281.714,277.473L281.761,277.402L281.806,277.33L281.852,277.256L281.898,277.183L281.943,277.11L281.987,277.036L282.032,276.962L282.075,276.888L282.118,276.814L282.161,276.738L282.203,276.663L282.244,276.589L282.287,276.512L282.328,276.436L282.368,276.361L282.408,276.284L282.447,276.208L282.486,276.131L282.525,276.053L282.563,275.977L282.601,275.9L282.638,275.822L282.675,275.744L282.711,275.665L282.747,275.586L282.782,275.507L282.817,275.429L282.851,275.352L282.885,275.271L282.919,275.19L282.951,275.112L282.984,275.031L283.016,274.95L283.047,274.871L283.078,274.79L283.109,274.709L283.139,274.627L283.168,274.546L283.197,274.465L283.226,274.383L283.254,274.301L283.281,274.219L283.309,274.136L283.335,274.054L283.361,273.972L283.387,273.887L283.412,273.804L283.436,273.722L283.46,273.638L283.484,273.553L283.507,273.469L283.53,273.385L283.552,273.3L283.574,273.215L283.594,273.131L283.615,273.045L283.635,272.96L283.654,272.875L283.674,272.788L283.692,272.702L283.71,272.616L283.727,272.53L283.744,272.442L283.761,272.355L283.777,272.268L283.792,272.181L283.807,272.094L283.821,272.006L283.835,271.917L283.848,271.829L283.861,271.741L283.873,271.65L283.885,271.562L283.896,271.473L283.906,271.384L283.916,271.294L283.926,271.204L283.934,271.114L283.943,271.024L283.951,270.933L283.958,270.841L283.965,270.749L283.971,270.658L283.976,270.568L283.981,270.475L283.985,270.382L283.989,270.29L283.993,270.197L283.995,270.105L283.997,270.011L283.999,269.917L284,269.824L284,269.704L284,30.296L284,30.176L283.999,30.083L283.997,29.989L283.995,29.895L283.993,29.803L283.989,29.71L283.985,29.618L283.981,29.525L283.976,29.432L283.971,29.342L283.965,29.251L283.958,29.159L283.951,29.067L283.943,28.976L283.934,28.886L283.926,28.796L283.916,28.706L283.906,28.616L283.896,28.527L283.885,28.438L283.873,28.35L283.861,28.259L283.848,28.171L283.835,28.083L283.821,27.994L283.807,27.906L283.792,27.819L283.777,27.732L283.761,27.645L283.744,27.558L283.727,27.47L283.71,27.384L283.692,27.298L283.674,27.212L283.654,27.125L283.635,27.04L283.615,26.955L283.594,26.869L283.574,26.786L283.552,26.7L283.53,26.615L283.507,26.531L283.484,26.447L283.46,26.362L283.436,26.278L283.412,26.196L283.387,26.113L283.361,26.028L283.335,25.946L283.309,25.864L283.282,25.781L283.254,25.699L283.226,25.617L283.197,25.534L283.168,25.454L283.139,25.373L283.109,25.291L283.078,25.21L283.047,25.129L283.016,25.05L282.984,24.969L282.951,24.888L282.919,24.81L282.885,24.729L282.851,24.649L282.817,24.57L282.782,24.492L282.747,24.414L282.711,24.335L282.674,24.256L282.638,24.178L282.601,24.1L282.563,24.023L282.525,23.946L282.487,23.869L282.447,23.793L282.408,23.716L282.368,23.64L282.327,23.563L282.286,23.487L282.245,23.411L282.203,23.336L282.161,23.262L282.118,23.186L282.075,23.112L282.032,23.038L281.987,22.964L281.943,22.89L281.898,22.817L281.852,22.743L281.806,22.67L281.761,22.598L281.714,22.526L281.666,22.454L281.619,22.381L281.571,22.31L281.522,22.239L281.474,22.168L281.424,22.097L281.374,22.027L281.324,21.957L281.273,21.886L281.223,21.817L281.171,21.748L281.119,21.678L281.067,21.61L281.014,21.542L280.961,21.474L280.908,21.407L280.854,21.34L280.799,21.272L280.745,21.206L280.689,21.139L280.634,21.073L280.578,21.007L280.522,20.942L280.465,20.877L280.408,20.812L280.35,20.748L280.293,20.684L280.234,20.62L280.176,20.557L280.117,20.494L280.057,20.431L279.997,20.368L279.938,20.307L279.877,20.245L279.816,20.184L279.755,20.123L279.693,20.063L279.632,20.003L279.568,19.942L279.506,19.884L279.444,19.825L279.38,19.766L279.316,19.707L279.252,19.649L279.188,19.592L279.123,19.535L279.058,19.478L278.993,19.422L278.927,19.366L278.86,19.31L278.795,19.256L278.728,19.201L278.661,19.147L278.593,19.092L278.526,19.039L278.458,18.986L278.389,18.933L278.321,18.881L278.252,18.829L278.182,18.777L278.113,18.727L278.044,18.676L277.973,18.626L277.903,18.576L277.832,18.526L277.761,18.478L277.69,18.429L277.619,18.382L277.547,18.334L277.474,18.286L277.402,18.24L277.33,18.194L277.256,18.147L277.183,18.102L277.11,18.057L277.036,18.013L276.962,17.969L276.887,17.925L276.813,17.882L276.738,17.839L276.663,17.797L276.589,17.755L276.512,17.713L276.436,17.672L276.361,17.632L276.285,17.592L276.208,17.553L276.131,17.514L276.054,17.475L275.977,17.437L275.899,17.399L275.821,17.362L275.743,17.325L275.665,17.289L275.587,17.253L275.508,17.218L275.429,17.183L275.351,17.149L275.271,17.115L275.191,17.082L275.111,17.049L275.031,17.016L274.951,16.984L274.871,16.953L274.79,16.922L274.709,16.891L274.628,16.861L274.546,16.832L274.465,16.803L274.383,16.774L274.301,16.746L274.219,16.719L274.137,16.691L274.054,16.665L273.971,16.639L273.888,16.613L273.805,16.588L273.721,16.564L273.637,16.539L273.553,16.516L273.469,16.493L273.385,16.47L273.3,16.448L273.216,16.427L273.13,16.406L273.045,16.385L272.96,16.365L272.874,16.345L272.788,16.327L272.702,16.308L272.616,16.29L272.529,16.273L272.442,16.256L272.355,16.239L272.268,16.223L272.181,16.208L272.093,16.193L272.005,16.179L271.917,16.165L271.829,16.152L271.74,16.139L271.652,16.127L271.562,16.115L271.473,16.104L271.384,16.094L271.294,16.084L271.204,16.074L271.114,16.066L271.023,16.057L270.932,16.049L270.841,16.042L270.75,16.036L270.659,16.029L270.567,16.024L270.475,16.019L270.383,16.015L270.29,16.011L270.197,16.007L270.104,16.005L270.011,16.003L269.917,16.001L269.824,16L269.704,16L30.296,16Z" style="fill:rgb(227,41,46);"/>
            </g>
            <g>
                <g transform="matrix(0.914248,0,0,1.64663,12.8627,21.2131)">
                    <path d="M259.395,93.085C259.395,84.877 247.392,78.212 232.608,78.212L67.392,78.212C52.608,78.212 40.605,84.877 40.605,93.085L40.605,122.831C40.605,131.04 52.608,137.704 67.392,137.704L232.608,137.704C247.392,137.704 259.395,131.04 259.395,122.831L259.395,93.085Z" style="fill:rgb(255,254,254);"/>
                    <path d="M232.781,78.213L233.127,78.215L233.299,78.217L233.643,78.223L233.815,78.227L234.157,78.237L234.327,78.243L234.498,78.249L234.838,78.263L235.007,78.271L235.177,78.28L235.345,78.289L235.514,78.299L235.682,78.31L235.85,78.32L236.018,78.332L236.185,78.344L236.519,78.37L236.851,78.398L237.017,78.413L237.347,78.445L237.512,78.462L237.676,78.479L238.004,78.515L238.33,78.553L238.493,78.573L238.655,78.594L238.816,78.615L238.978,78.636L239.139,78.658L239.299,78.681L239.46,78.704L239.62,78.728L239.779,78.752L240.097,78.802L240.255,78.828L240.413,78.855L240.727,78.909L240.884,78.937L241.04,78.965L241.196,78.994L241.506,79.054L241.661,79.085L241.815,79.116L241.968,79.147L242.121,79.179L242.274,79.212L242.578,79.278L242.729,79.312L243.031,79.382L243.181,79.418L243.479,79.49L243.628,79.527L243.924,79.603L244.071,79.641L244.363,79.719L244.509,79.759L244.799,79.841L244.943,79.882L245.087,79.924L245.23,79.966L245.656,80.095L245.797,80.14L245.937,80.184L246.077,80.229L246.217,80.275L246.356,80.321L246.494,80.367L246.632,80.414L246.769,80.461L246.906,80.509L247.042,80.557L247.447,80.704L247.581,80.754L247.714,80.804L247.847,80.855L247.979,80.906L248.111,80.958L248.242,81.01L248.372,81.063L248.502,81.115L248.76,81.223L248.888,81.277L249.015,81.331L249.142,81.386L249.394,81.498L249.519,81.554L249.643,81.61L249.767,81.668L249.89,81.725L250.013,81.783L250.134,81.841L250.256,81.9L250.496,82.018L250.734,82.138L250.852,82.199L251.086,82.321L251.202,82.383L251.317,82.445L251.432,82.508L251.546,82.571L251.659,82.634L251.772,82.698L251.884,82.762L251.995,82.826L252.106,82.891L252.215,82.956L252.325,83.021L252.433,83.087L252.541,83.154L252.648,83.22L252.86,83.354L252.965,83.422L253.173,83.558L253.377,83.696L253.479,83.766L253.579,83.835L253.679,83.905L253.778,83.976L253.974,84.118L254.071,84.189L254.167,84.261L254.357,84.405L254.451,84.478L254.544,84.551L254.636,84.624L254.818,84.772L254.908,84.847L254.997,84.921L255.173,85.071L255.26,85.147L255.346,85.223L255.431,85.299L255.515,85.376L255.599,85.452L255.681,85.53L255.763,85.607L255.925,85.763L256.004,85.841L256.083,85.92L256.16,85.998L256.237,86.078L256.313,86.157L256.389,86.237L256.537,86.397L256.681,86.559L256.752,86.64L256.822,86.721L256.892,86.803L257.028,86.967L257.094,87.049L257.16,87.132L257.225,87.215L257.289,87.298L257.352,87.382L257.476,87.55L257.536,87.634L257.596,87.719L257.654,87.803L257.712,87.888L257.769,87.974L257.825,88.059L257.88,88.145L257.934,88.231L257.987,88.317L258.039,88.404L258.09,88.491L258.141,88.577L258.19,88.665L258.239,88.752L258.333,88.928L258.423,89.104L258.467,89.193L258.51,89.281L258.592,89.459L258.632,89.549L258.671,89.638L258.709,89.728L258.746,89.818L258.782,89.908L258.817,89.999L258.851,90.09L258.884,90.18L258.916,90.271L258.947,90.363L258.977,90.454L259.006,90.546L259.034,90.637L259.061,90.729L259.087,90.822L259.111,90.914L259.135,91.007L259.158,91.099L259.18,91.192L259.201,91.285L259.221,91.379L259.239,91.472L259.257,91.566L259.274,91.659L259.304,91.847L259.317,91.942L259.33,92.036L259.341,92.131L259.351,92.226L259.361,92.32L259.369,92.416L259.376,92.511L259.382,92.606L259.387,92.702L259.39,92.797L259.393,92.893L259.395,92.989L259.395,122.927L259.393,123.023L259.39,123.119L259.387,123.215L259.382,123.31L259.376,123.406L259.369,123.501L259.361,123.596L259.351,123.691L259.341,123.786L259.33,123.88L259.317,123.975L259.304,124.069L259.289,124.163L259.274,124.257L259.257,124.351L259.239,124.445L259.221,124.538L259.201,124.631L259.18,124.724L259.158,124.817L259.135,124.91L259.111,125.003L259.087,125.095L259.061,125.187L259.034,125.279L259.006,125.371L258.977,125.462L258.947,125.554L258.916,125.645L258.884,125.736L258.851,125.827L258.817,125.918L258.782,126.008L258.746,126.098L258.709,126.188L258.671,126.278L258.632,126.368L258.592,126.457L258.551,126.546L258.51,126.635L258.467,126.724L258.423,126.813L258.378,126.901L258.333,126.989L258.286,127.077L258.239,127.164L258.19,127.252L258.141,127.339L258.09,127.426L258.039,127.513L257.987,127.599L257.934,127.685L257.88,127.771L257.825,127.857L257.769,127.943L257.712,128.028L257.654,128.113L257.596,128.198L257.536,128.282L257.476,128.367L257.414,128.451L257.352,128.535L257.289,128.618L257.225,128.701L257.16,128.784L257.094,128.867L257.028,128.95L256.96,129.032L256.892,129.114L256.822,129.195L256.752,129.277L256.681,129.358L256.609,129.439L256.537,129.519L256.463,129.6L256.389,129.68L256.313,129.759L256.237,129.839L256.16,129.918L256.083,129.997L256.004,130.075L255.925,130.154L255.844,130.232L255.763,130.31L255.681,130.387L255.599,130.464L255.515,130.541L255.431,130.617L255.346,130.694L255.26,130.769L255.173,130.845L255.085,130.92L254.997,130.995L254.908,131.07L254.818,131.144L254.727,131.218L254.636,131.292L254.544,131.365L254.451,131.439L254.357,131.511L254.262,131.584L254.167,131.656L254.071,131.727L253.974,131.799L253.876,131.87L253.778,131.941L253.679,132.011L253.579,132.081L253.479,132.151L253.377,132.22L253.275,132.289L253.173,132.358L253.069,132.426L252.965,132.494L252.86,132.562L252.754,132.629L252.648,132.696L252.541,132.763L252.433,132.829L252.325,132.895L252.215,132.961L252.106,133.026L251.995,133.09L251.884,133.155L251.772,133.219L251.659,133.283L251.546,133.346L251.432,133.409L251.317,133.471L251.202,133.533L251.086,133.595L250.969,133.657L250.852,133.718L250.734,133.778L250.615,133.838L250.496,133.898L250.376,133.958L250.256,134.017L250.134,134.075L250.013,134.134L249.89,134.192L249.767,134.249L249.643,134.306L249.519,134.363L249.394,134.419L249.268,134.475L249.142,134.53L249.015,134.585L248.888,134.64L248.76,134.694L248.631,134.748L248.502,134.801L248.372,134.854L248.242,134.906L248.111,134.959L247.979,135.01L247.847,135.061L247.714,135.112L247.581,135.163L247.447,135.212L247.312,135.262L247.177,135.311L247.042,135.36L246.906,135.408L246.769,135.455L246.632,135.503L246.494,135.55L246.356,135.596L246.217,135.642L246.077,135.687L245.937,135.732L245.797,135.777L245.656,135.821L245.514,135.865L245.372,135.908L245.23,135.951L245.087,135.993L244.943,136.035L244.799,136.076L244.654,136.117L244.509,136.157L244.363,136.197L244.217,136.236L244.071,136.275L243.924,136.314L243.776,136.352L243.628,136.389L243.479,136.426L243.33,136.463L243.181,136.499L243.031,136.534L242.88,136.57L242.729,136.604L242.578,136.638L242.426,136.672L242.274,136.705L242.121,136.737L241.968,136.769L241.815,136.801L241.661,136.832L241.506,136.863L241.351,136.893L241.196,136.922L241.04,136.951L240.884,136.98L240.727,137.007L240.57,137.035L240.413,137.062L240.255,137.088L240.097,137.114L239.938,137.139L239.779,137.164L239.62,137.189L239.46,137.212L239.299,137.235L239.139,137.258L238.978,137.28L238.816,137.302L238.655,137.323L238.493,137.343L238.33,137.363L238.167,137.383L238.004,137.402L237.84,137.42L237.676,137.438L237.512,137.455L237.347,137.472L237.182,137.488L237.017,137.503L236.851,137.518L236.685,137.533L236.519,137.546L236.352,137.56L236.185,137.572L236.018,137.584L235.85,137.596L235.682,137.607L235.514,137.617L235.345,137.627L235.177,137.636L235.007,137.645L234.838,137.653L234.668,137.661L234.498,137.668L234.327,137.674L234.157,137.68L233.986,137.685L233.815,137.689L233.643,137.693L233.471,137.696L233.299,137.699L233.127,137.701L232.954,137.703L232.781,137.704L232.608,137.704L67.392,137.704L67.219,137.704L67.046,137.703L66.873,137.701L66.701,137.699L66.529,137.696L66.357,137.693L66.185,137.689L66.014,137.685L65.843,137.68L65.673,137.674L65.502,137.668L65.332,137.661L65.162,137.653L64.993,137.645L64.823,137.636L64.655,137.627L64.486,137.617L64.318,137.607L64.15,137.596L63.982,137.584L63.815,137.572L63.648,137.56L63.481,137.546L63.315,137.533L63.149,137.518L62.983,137.503L62.818,137.488L62.653,137.472L62.488,137.455L62.324,137.438L62.16,137.42L61.996,137.402L61.833,137.383L61.67,137.363L61.507,137.343L61.345,137.323L61.184,137.302L61.022,137.28L60.861,137.258L60.701,137.235L60.54,137.212L60.38,137.189L60.221,137.164L60.062,137.139L59.903,137.114L59.745,137.088L59.587,137.062L59.43,137.035L59.273,137.007L59.116,136.98L58.96,136.951L58.804,136.922L58.649,136.893L58.494,136.863L58.339,136.832L58.185,136.801L58.032,136.769L57.879,136.737L57.726,136.705L57.574,136.672L57.422,136.638L57.271,136.604L57.12,136.57L56.969,136.534L56.819,136.499L56.67,136.463L56.521,136.426L56.372,136.389L56.224,136.352L56.076,136.314L55.929,136.275L55.783,136.236L55.637,136.197L55.491,136.157L55.346,136.117L55.201,136.076L55.057,136.035L54.913,135.993L54.77,135.951L54.628,135.908L54.486,135.865L54.344,135.821L54.203,135.777L54.063,135.732L53.923,135.687L53.783,135.642L53.644,135.596L53.506,135.55L53.368,135.503L53.231,135.455L53.094,135.408L52.958,135.36L52.823,135.311L52.688,135.262L52.553,135.212L52.419,135.163L52.286,135.112L52.153,135.061L52.021,135.01L51.889,134.959L51.758,134.906L51.628,134.854L51.498,134.801L51.369,134.748L51.24,134.694L51.112,134.64L50.985,134.585L50.858,134.53L50.732,134.475L50.606,134.419L50.481,134.363L50.357,134.306L50.233,134.249L50.11,134.192L49.987,134.134L49.866,134.075L49.744,134.017L49.624,133.958L49.504,133.898L49.385,133.838L49.266,133.778L49.148,133.718L49.031,133.657L48.914,133.595L48.798,133.533L48.683,133.471L48.568,133.409L48.454,133.346L48.341,133.283L48.228,133.219L48.116,133.155L48.005,133.09L47.894,133.026L47.785,132.961L47.675,132.895L47.567,132.829L47.459,132.763L47.352,132.696L47.246,132.629L47.14,132.562L47.035,132.494L46.931,132.426L46.827,132.358L46.725,132.289L46.623,132.22L46.521,132.151L46.421,132.081L46.321,132.011L46.222,131.941L46.124,131.87L46.026,131.799L45.929,131.727L45.833,131.656L45.738,131.584L45.643,131.511L45.549,131.439L45.456,131.365L45.364,131.292L45.273,131.218L45.182,131.144L45.092,131.07L45.003,130.995L44.915,130.92L44.827,130.845L44.74,130.769L44.654,130.694L44.569,130.617L44.485,130.541L44.401,130.464L44.319,130.387L44.237,130.31L44.156,130.232L44.075,130.154L43.996,130.075L43.917,129.997L43.84,129.918L43.763,129.839L43.687,129.759L43.611,129.68L43.537,129.6L43.463,129.519L43.391,129.439L43.319,129.358L43.248,129.277L43.178,129.195L43.108,129.114L43.04,129.032L42.972,128.95L42.906,128.867L42.84,128.784L42.775,128.701L42.711,128.618L42.648,128.535L42.586,128.451L42.524,128.367L42.464,128.282L42.404,128.198L42.346,128.113L42.288,128.028L42.231,127.943L42.175,127.857L42.12,127.771L42.066,127.685L42.013,127.599L41.961,127.513L41.91,127.426L41.859,127.339L41.81,127.252L41.761,127.164L41.714,127.077L41.667,126.989L41.622,126.901L41.577,126.813L41.533,126.724L41.49,126.635L41.449,126.546L41.408,126.457L41.368,126.368L41.329,126.278L41.291,126.188L41.254,126.098L41.218,126.008L41.183,125.918L41.149,125.827L41.116,125.736L41.084,125.645L41.053,125.554L41.023,125.462L40.994,125.371L40.966,125.279L40.939,125.187L40.913,125.095L40.889,125.003L40.865,124.91L40.842,124.817L40.82,124.724L40.799,124.631L40.779,124.538L40.761,124.445L40.743,124.351L40.726,124.257L40.711,124.163L40.696,124.069L40.683,123.975L40.67,123.88L40.659,123.786L40.649,123.691L40.639,123.596L40.631,123.501L40.624,123.406L40.618,123.31L40.613,123.215L40.61,123.119L40.607,123.023L40.605,122.927L40.605,122.831L40.605,93.085L40.605,92.989L40.607,92.893L40.61,92.797L40.613,92.702L40.618,92.606L40.624,92.511L40.631,92.416L40.639,92.32L40.649,92.226L40.659,92.131L40.67,92.036L40.683,91.942L40.696,91.847L40.711,91.753L40.726,91.659L40.743,91.566L40.761,91.472L40.779,91.379L40.799,91.285L40.82,91.192L40.842,91.099L40.865,91.007L40.889,90.914L40.913,90.822L40.939,90.729L40.966,90.637L40.994,90.546L41.023,90.454L41.053,90.363L41.084,90.271L41.116,90.18L41.149,90.09L41.183,89.999L41.218,89.908L41.254,89.818L41.291,89.728L41.329,89.638L41.368,89.549L41.408,89.459L41.449,89.37L41.49,89.281L41.533,89.193L41.577,89.104L41.622,89.016L41.667,88.928L41.714,88.84L41.761,88.752L41.81,88.665L41.859,88.577L41.91,88.491L41.961,88.404L42.013,88.317L42.066,88.231L42.12,88.145L42.175,88.059L42.231,87.974L42.288,87.888L42.346,87.803L42.404,87.719L42.464,87.634L42.524,87.55L42.586,87.466L42.648,87.382L42.711,87.298L42.775,87.215L42.84,87.132L42.906,87.049L42.972,86.967L43.04,86.885L43.108,86.803L43.178,86.721L43.248,86.64L43.319,86.559L43.391,86.478L43.463,86.397L43.537,86.317L43.611,86.237L43.687,86.157L43.763,86.078L43.84,85.998L43.917,85.92L43.996,85.841L44.075,85.763L44.156,85.685L44.237,85.607L44.319,85.53L44.401,85.452L44.485,85.376L44.569,85.299L44.654,85.223L44.74,85.147L44.827,85.071L44.915,84.996L45.003,84.921L45.092,84.847L45.182,84.772L45.273,84.698L45.364,84.624L45.456,84.551L45.549,84.478L45.643,84.405L45.738,84.333L45.833,84.261L45.929,84.189L46.026,84.118L46.124,84.047L46.222,83.976L46.321,83.905L46.421,83.835L46.521,83.766L46.623,83.696L46.725,83.627L46.827,83.558L46.931,83.49L47.035,83.422L47.14,83.354L47.246,83.287L47.352,83.22L47.459,83.154L47.567,83.087L47.675,83.021L47.785,82.956L47.894,82.891L48.005,82.826L48.116,82.762L48.228,82.698L48.341,82.634L48.454,82.571L48.568,82.508L48.683,82.445L48.798,82.383L48.914,82.321L49.031,82.26L49.148,82.199L49.266,82.138L49.385,82.078L49.504,82.018L49.624,81.959L49.744,81.9L49.866,81.841L49.987,81.783L50.11,81.725L50.233,81.668L50.357,81.61L50.481,81.554L50.606,81.498L50.732,81.442L50.858,81.386L50.985,81.331L51.112,81.277L51.24,81.223L51.369,81.169L51.498,81.115L51.628,81.063L51.758,81.01L51.889,80.958L52.021,80.906L52.153,80.855L52.286,80.804L52.419,80.754L52.553,80.704L52.688,80.655L52.823,80.606L52.958,80.557L53.094,80.509L53.231,80.461L53.368,80.414L53.506,80.367L53.644,80.321L53.783,80.275L53.923,80.229L54.063,80.184L54.203,80.14L54.344,80.095L54.486,80.052L54.628,80.009L54.77,79.966L54.913,79.924L55.057,79.882L55.201,79.841L55.346,79.8L55.491,79.759L55.637,79.719L55.783,79.68L55.929,79.641L56.076,79.603L56.224,79.565L56.372,79.527L56.521,79.49L56.67,79.454L56.819,79.418L56.969,79.382L57.12,79.347L57.271,79.312L57.422,79.278L57.574,79.245L57.726,79.212L57.879,79.179L58.032,79.147L58.185,79.116L58.339,79.085L58.494,79.054L58.649,79.024L58.804,78.994L58.96,78.965L59.116,78.937L59.273,78.909L59.43,78.882L59.587,78.855L59.745,78.828L59.903,78.802L60.062,78.777L60.221,78.752L60.38,78.728L60.54,78.704L60.701,78.681L60.861,78.658L61.022,78.636L61.184,78.615L61.345,78.594L61.507,78.573L61.67,78.553L61.833,78.534L61.996,78.515L62.16,78.497L62.324,78.479L62.488,78.462L62.653,78.445L62.818,78.429L62.983,78.413L63.149,78.398L63.315,78.384L63.481,78.37L63.648,78.357L63.815,78.344L63.982,78.332L64.15,78.32L64.318,78.31L64.486,78.299L64.655,78.289L64.823,78.28L64.993,78.271L65.162,78.263L65.332,78.256L65.502,78.249L65.673,78.243L65.843,78.237L66.014,78.232L66.185,78.227L66.357,78.223L66.529,78.22L66.701,78.217L66.873,78.215L67.046,78.214L67.219,78.213L67.392,78.212L232.608,78.212L232.781,78.213ZM67.412,85.5L67.302,85.5L67.212,85.501L67.123,85.502L67.034,85.503L66.945,85.504L66.856,85.506L66.768,85.508L66.68,85.51L66.591,85.513L66.504,85.516L66.417,85.519L66.329,85.522L66.242,85.526L66.156,85.53L66.069,85.535L65.982,85.54L65.896,85.545L65.81,85.55L65.725,85.555L65.639,85.561L65.554,85.568L65.469,85.574L65.384,85.581L65.299,85.588L65.215,85.595L65.131,85.603L65.047,85.611L64.963,85.619L64.88,85.627L64.796,85.636L64.713,85.645L64.631,85.654L64.547,85.664L64.465,85.674L64.383,85.684L64.301,85.694L64.219,85.705L64.137,85.716L64.055,85.727L63.974,85.738L63.893,85.75L63.812,85.762L63.731,85.774L63.651,85.787L63.571,85.8L63.491,85.813L63.411,85.826L63.331,85.84L63.252,85.854L63.172,85.868L63.094,85.882L63.015,85.897L62.936,85.912L62.858,85.927L62.78,85.943L62.701,85.958L62.624,85.974L62.546,85.99L62.469,86.007L62.392,86.024L62.315,86.041L62.238,86.058L62.162,86.075L62.085,86.093L62.009,86.111L61.933,86.13L61.858,86.148L61.783,86.167L61.708,86.186L61.632,86.205L61.558,86.225L61.483,86.244L61.409,86.264L61.335,86.285L61.261,86.305L61.188,86.326L61.114,86.347L61.042,86.368L60.969,86.39L60.896,86.412L60.823,86.434L60.751,86.456L60.68,86.478L60.608,86.501L60.536,86.524L60.465,86.547L60.395,86.571L60.324,86.594L60.254,86.618L60.184,86.642L60.114,86.667L60.044,86.691L59.975,86.716L59.906,86.741L59.837,86.766L59.769,86.792L59.701,86.818L59.633,86.844L59.565,86.87L59.498,86.896L59.431,86.923L59.364,86.95L59.297,86.977L59.231,87.004L59.165,87.032L59.1,87.06L59.034,87.088L58.969,87.116L58.904,87.144L58.84,87.173L58.776,87.202L58.712,87.231L58.649,87.26L58.585,87.29L58.523,87.319L58.46,87.349L58.398,87.379L58.336,87.41L58.274,87.44L58.213,87.471L58.152,87.502L58.092,87.533L58.031,87.564L57.972,87.596L57.912,87.628L57.853,87.659L57.794,87.692L57.735,87.724L57.677,87.756L57.62,87.789L57.562,87.822L57.504,87.855L57.448,87.888L57.392,87.922L57.335,87.955L57.28,87.989L57.224,88.023L57.169,88.057L57.115,88.092L57.061,88.126L57.007,88.161L56.953,88.196L56.9,88.231L56.847,88.266L56.795,88.302L56.743,88.337L56.691,88.373L56.64,88.409L56.59,88.445L56.539,88.481L56.489,88.518L56.439,88.554L56.39,88.591L56.341,88.628L56.293,88.665L56.245,88.702L56.197,88.74L56.15,88.777L56.103,88.815L56.057,88.853L56.011,88.891L55.965,88.929L55.92,88.967L55.876,89.006L55.831,89.044L55.787,89.083L55.744,89.122L55.701,89.161L55.658,89.2L55.616,89.24L55.574,89.279L55.533,89.319L55.492,89.359L55.452,89.398L55.411,89.439L55.372,89.479L55.333,89.519L55.294,89.559L55.256,89.6L55.218,89.641L55.18,89.682L55.143,89.722L55.107,89.764L55.071,89.805L55.035,89.846L55,89.888L54.965,89.929L54.931,89.971L54.897,90.013L54.864,90.055L54.831,90.097L54.798,90.139L54.767,90.181L54.735,90.224L54.704,90.267L54.673,90.309L54.643,90.352L54.613,90.395L54.584,90.438L54.555,90.481L54.527,90.525L54.499,90.568L54.472,90.611L54.445,90.655L54.418,90.699L54.393,90.743L54.367,90.787L54.342,90.831L54.318,90.875L54.294,90.919L54.27,90.964L54.247,91.008L54.224,91.053L54.202,91.098L54.181,91.143L54.159,91.188L54.139,91.233L54.119,91.278L54.099,91.324L54.08,91.369L54.061,91.415L54.043,91.46L54.025,91.506L54.008,91.552L53.991,91.598L53.975,91.644L53.959,91.691L53.944,91.737L53.929,91.783L53.915,91.83L53.901,91.877L53.888,91.924L53.875,91.971L53.863,92.018L53.852,92.065L53.841,92.112L53.83,92.16L53.82,92.207L53.81,92.255L53.801,92.303L53.793,92.351L53.785,92.399L53.777,92.447L53.77,92.495L53.764,92.544L53.758,92.592L53.753,92.641L53.748,92.69L53.744,92.739L53.74,92.788L53.737,92.837L53.735,92.887L53.733,92.936L53.731,92.986L53.73,93.035L53.73,122.881L53.731,122.931L53.737,123.079L53.74,123.129L53.748,123.227L53.753,123.276L53.758,123.324L53.764,123.373L53.77,123.421L53.777,123.469L53.785,123.518L53.801,123.614L53.81,123.662L53.82,123.709L53.83,123.757L53.841,123.804L53.852,123.852L53.863,123.899L53.875,123.946L53.901,124.04L53.915,124.087L53.929,124.133L53.944,124.18L53.959,124.226L53.991,124.318L54.008,124.365L54.025,124.41L54.061,124.502L54.08,124.548L54.099,124.593L54.119,124.638L54.139,124.684L54.159,124.729L54.18,124.774L54.202,124.819L54.224,124.863L54.27,124.953L54.318,125.041L54.342,125.086L54.367,125.13L54.393,125.174L54.418,125.218L54.445,125.261L54.499,125.349L54.555,125.435L54.584,125.479L54.613,125.521L54.673,125.607L54.735,125.693L54.766,125.735L54.799,125.777L54.831,125.82L54.897,125.904L54.931,125.946L54.965,125.987L55,126.029L55.035,126.07L55.071,126.112L55.107,126.153L55.218,126.276L55.256,126.316L55.294,126.357L55.333,126.398L55.411,126.478L55.452,126.518L55.492,126.558L55.533,126.598L55.616,126.677L55.658,126.716L55.787,126.833L55.831,126.872L55.876,126.911L55.92,126.949L55.965,126.987L56.011,127.026L56.103,127.102L56.15,127.139L56.197,127.177L56.293,127.251L56.342,127.289L56.39,127.325L56.439,127.362L56.489,127.399L56.539,127.435L56.59,127.472L56.64,127.508L56.691,127.543L56.795,127.615L56.847,127.65L56.9,127.686L56.953,127.721L57.007,127.755L57.06,127.79L57.115,127.825L57.169,127.859L57.224,127.893L57.336,127.961L57.391,127.995L57.448,128.028L57.505,128.062L57.562,128.095L57.619,128.127L57.735,128.193L57.912,128.289L57.972,128.321L58.031,128.352L58.092,128.384L58.153,128.415L58.213,128.446L58.274,128.476L58.336,128.507L58.522,128.597L58.586,128.627L58.649,128.657L58.712,128.686L58.84,128.744L58.904,128.772L58.969,128.801L59.099,128.857L59.165,128.885L59.232,128.912L59.298,128.94L59.364,128.967L59.43,128.993L59.497,129.02L59.565,129.047L59.633,129.073L59.7,129.099L59.769,129.124L59.837,129.15L60.044,129.225L60.114,129.25L60.183,129.274L60.254,129.298L60.394,129.346L60.466,129.369L60.537,129.393L60.608,129.415L60.679,129.438L60.751,129.461L60.823,129.483L60.969,129.527L61.041,129.548L61.114,129.569L61.262,129.611L61.335,129.632L61.483,129.672L61.558,129.692L61.632,129.711L61.708,129.731L61.783,129.75L61.858,129.768L61.933,129.787L62.161,129.841L62.238,129.859L62.392,129.893L62.468,129.909L62.546,129.926L62.702,129.958L62.779,129.974L62.857,129.989L62.936,130.005L63.014,130.019L63.094,130.034L63.173,130.049L63.331,130.077L63.41,130.09L63.491,130.104L63.651,130.13L63.732,130.142L63.812,130.154L63.974,130.178L64.056,130.19L64.218,130.212L64.301,130.222L64.383,130.233L64.465,130.243L64.548,130.253L64.63,130.262L64.713,130.272L64.796,130.281L64.879,130.289L64.963,130.298L65.131,130.314L65.215,130.321L65.3,130.329L65.384,130.336L65.469,130.342L65.554,130.349L65.64,130.355L65.81,130.367L65.896,130.372L65.983,130.377L66.069,130.382L66.155,130.386L66.329,130.394L66.417,130.398L66.505,130.401L66.591,130.404L66.68,130.406L66.768,130.409L66.856,130.411L66.945,130.412L67.034,130.414L67.212,130.416L232.788,130.416L232.877,130.415L232.966,130.414L233.055,130.412L233.144,130.411L233.232,130.409L233.32,130.406L233.409,130.404L233.495,130.401L233.583,130.398L233.671,130.394L233.758,130.39L233.845,130.386L233.931,130.382L234.017,130.377L234.104,130.372L234.19,130.367L234.275,130.361L234.36,130.355L234.446,130.349L234.531,130.342L234.616,130.336L234.7,130.329L234.785,130.321L234.869,130.314L234.953,130.306L235.037,130.298L235.121,130.289L235.204,130.281L235.287,130.272L235.37,130.262L235.452,130.253L235.535,130.243L235.618,130.233L235.699,130.222L235.782,130.212L235.863,130.201L235.944,130.19L236.026,130.178L236.107,130.166L236.188,130.154L236.268,130.142L236.349,130.13L236.43,130.117L236.508,130.104L236.59,130.09L236.669,130.077L236.748,130.063L236.827,130.049L236.906,130.034L236.985,130.02L237.064,130.005L237.143,129.989L237.221,129.974L237.298,129.958L237.376,129.942L237.454,129.926L237.532,129.909L237.608,129.893L237.685,129.876L237.762,129.859L237.839,129.841L237.915,129.823L237.991,129.805L238.067,129.787L238.142,129.768L238.217,129.75L238.292,129.731L238.367,129.711L238.442,129.692L238.517,129.672L238.591,129.652L238.665,129.632L238.739,129.611L238.812,129.59L238.886,129.569L238.959,129.548L239.032,129.527L239.104,129.505L239.177,129.483L239.249,129.461L239.32,129.438L239.392,129.415L239.463,129.393L239.534,129.369L239.606,129.346L239.676,129.322L239.746,129.298L239.817,129.274L239.886,129.25L239.956,129.225L240.025,129.2L240.094,129.175L240.163,129.15L240.232,129.124L240.3,129.099L240.367,129.073L240.435,129.047L240.503,129.02L240.57,128.993L240.637,128.966L240.702,128.94L240.768,128.912L240.835,128.885L240.9,128.857L240.966,128.829L241.031,128.801L241.095,128.772L241.16,128.744L241.224,128.715L241.288,128.686L241.351,128.657L241.415,128.627L241.478,128.597L241.54,128.567L241.602,128.537L241.664,128.507L241.726,128.476L241.787,128.446L241.848,128.415L241.908,128.384L241.968,128.352L242.029,128.321L242.088,128.289L242.147,128.257L242.206,128.225L242.265,128.193L242.323,128.16L242.381,128.127L242.438,128.095L242.495,128.062L242.552,128.028L242.609,127.995L242.665,127.961L242.721,127.927L242.775,127.894L242.83,127.859L242.886,127.825L242.94,127.79L242.993,127.756L243.047,127.721L243.1,127.685L243.153,127.65L243.205,127.615L243.257,127.579L243.309,127.543L243.36,127.508L243.41,127.472L243.461,127.435L243.511,127.399L243.561,127.362L243.61,127.325L243.658,127.289L243.707,127.251L243.755,127.214L243.803,127.177L243.85,127.139L243.896,127.102L243.943,127.064L243.989,127.026L244.034,126.988L244.079,126.949L244.124,126.911L244.169,126.872L244.212,126.833L244.256,126.794L244.299,126.755L244.341,126.717L244.384,126.677L244.426,126.637L244.467,126.598L244.508,126.558L244.548,126.518L244.588,126.478L244.628,126.438L244.667,126.398L244.706,126.357L244.744,126.316L244.782,126.276L244.82,126.235L244.857,126.194L244.893,126.153L244.929,126.112L244.965,126.07L245,126.029L245.035,125.987L245.069,125.946L245.103,125.904L245.136,125.862L245.169,125.82L245.201,125.777L245.233,125.735L245.265,125.693L245.296,125.65L245.327,125.607L245.357,125.565L245.386,125.522L245.416,125.478L245.445,125.435L245.473,125.392L245.501,125.349L245.528,125.305L245.555,125.262L245.582,125.217L245.608,125.173L245.633,125.13L245.658,125.086L245.682,125.042L245.707,124.997L245.73,124.953L245.753,124.908L245.776,124.863L245.798,124.819L245.82,124.774L245.841,124.729L245.861,124.684L245.882,124.638L245.901,124.593L245.92,124.547L245.939,124.502L245.957,124.456L245.975,124.41L245.992,124.365L246.009,124.319L246.025,124.272L246.041,124.226L246.056,124.18L246.071,124.133L246.085,124.087L246.099,124.04L246.112,123.993L246.125,123.946L246.137,123.899L246.148,123.852L246.16,123.804L246.17,123.757L246.18,123.709L246.19,123.662L246.199,123.613L246.207,123.566L246.215,123.518L246.223,123.469L246.23,123.421L246.236,123.373L246.242,123.324L246.247,123.276L246.252,123.227L246.256,123.177L246.26,123.129L246.263,123.079L246.265,123.03L246.267,122.981L246.269,122.931L246.27,122.881L246.27,122.819L246.27,93.097L246.27,93.036L246.269,92.986L246.267,92.936L246.265,92.887L246.263,92.837L246.26,92.788L246.256,92.739L246.252,92.69L246.247,92.641L246.242,92.593L246.236,92.544L246.23,92.495L246.223,92.447L246.215,92.398L246.207,92.351L246.199,92.303L246.19,92.255L246.18,92.207L246.17,92.16L246.16,92.113L246.148,92.065L246.137,92.018L246.125,91.971L246.112,91.924L246.099,91.877L246.085,91.83L246.071,91.784L246.056,91.737L246.041,91.69L246.025,91.644L246.009,91.598L245.992,91.552L245.975,91.506L245.957,91.46L245.939,91.415L245.92,91.369L245.901,91.323L245.882,91.278L245.861,91.233L245.841,91.188L245.82,91.143L245.798,91.098L245.776,91.053L245.753,91.008L245.73,90.964L245.707,90.92L245.682,90.875L245.658,90.831L245.633,90.787L245.608,90.743L245.582,90.699L245.555,90.655L245.528,90.611L245.501,90.568L245.473,90.524L245.445,90.482L245.416,90.438L245.386,90.395L245.357,90.352L245.327,90.31L245.296,90.267L245.265,90.224L245.233,90.181L245.202,90.139L245.169,90.097L245.136,90.055L245.103,90.013L245.069,89.971L245.035,89.929L245,89.888L244.965,89.846L244.929,89.805L244.893,89.763L244.857,89.723L244.82,89.682L244.782,89.641L244.744,89.6L244.706,89.559L244.667,89.519L244.628,89.479L244.588,89.438L244.548,89.398L244.508,89.358L244.467,89.319L244.426,89.279L244.384,89.24L244.341,89.2L244.299,89.161L244.256,89.122L244.213,89.083L244.169,89.045L244.124,89.006L244.08,88.967L244.034,88.929L243.989,88.891L243.943,88.853L243.896,88.815L243.85,88.778L243.803,88.74L243.755,88.702L243.707,88.665L243.659,88.628L243.61,88.591L243.561,88.555L243.511,88.518L243.461,88.481L243.41,88.445L243.36,88.409L243.308,88.373L243.257,88.337L243.205,88.302L243.153,88.266L243.1,88.231L243.047,88.196L242.993,88.161L242.939,88.126L242.886,88.092L242.83,88.057L242.775,88.023L242.72,87.989L242.665,87.955L242.608,87.922L242.552,87.888L242.496,87.855L242.438,87.822L242.38,87.789L242.323,87.756L242.265,87.724L242.206,87.692L242.147,87.659L242.088,87.627L242.029,87.596L241.968,87.564L241.908,87.533L241.848,87.502L241.787,87.471L241.725,87.44L241.664,87.41L241.602,87.379L241.539,87.349L241.477,87.319L241.415,87.29L241.351,87.26L241.288,87.231L241.224,87.202L241.16,87.173L241.095,87.144L241.031,87.116L240.966,87.088L240.9,87.059L240.835,87.032L240.769,87.004L240.703,86.977L240.637,86.95L240.569,86.923L240.502,86.896L240.435,86.87L240.367,86.844L240.299,86.818L240.231,86.792L240.163,86.766L240.094,86.741L240.025,86.716L239.956,86.691L239.886,86.667L239.816,86.642L239.746,86.618L239.676,86.594L239.605,86.571L239.535,86.547L239.463,86.524L239.392,86.501L239.32,86.478L239.249,86.456L239.177,86.434L239.104,86.412L239.032,86.39L238.958,86.368L238.886,86.347L238.812,86.326L238.739,86.305L238.665,86.285L238.591,86.265L238.517,86.244L238.442,86.225L238.367,86.205L238.292,86.186L238.217,86.167L238.142,86.148L238.067,86.13L237.991,86.111L237.915,86.093L237.838,86.075L237.762,86.058L237.685,86.041L237.608,86.024L237.531,86.007L237.453,85.99L237.376,85.974L237.299,85.958L237.221,85.943L237.142,85.927L237.064,85.912L236.985,85.897L236.906,85.882L236.828,85.868L236.748,85.854L236.669,85.84L236.589,85.826L236.509,85.813L236.429,85.8L236.349,85.787L236.269,85.774L236.188,85.762L236.107,85.75L236.026,85.738L235.945,85.727L235.863,85.716L235.781,85.705L235.699,85.694L235.618,85.684L235.535,85.674L235.453,85.664L235.37,85.654L235.287,85.645L235.204,85.636L235.12,85.627L235.037,85.619L234.953,85.611L234.869,85.603L234.785,85.595L234.701,85.588L234.616,85.581L234.531,85.574L234.446,85.568L234.361,85.561L234.275,85.555L234.19,85.55L234.104,85.545L234.018,85.54L233.931,85.535L233.844,85.53L233.758,85.526L233.671,85.522L233.583,85.519L233.496,85.516L233.409,85.513L233.32,85.51L233.232,85.508L233.144,85.506L233.055,85.504L232.966,85.503L232.877,85.502L232.788,85.501L232.698,85.5L232.588,85.5L67.412,85.5Z" style="fill:rgb(227,41,46);"/>
                </g>
                <g transform="matrix(0.679342,0,0,0.374249,48.0987,175.709)">
                    <path d="M259.395,93.085C259.395,84.877 255.724,78.212 251.202,78.212L48.798,78.212C44.276,78.212 40.605,84.877 40.605,93.085L40.605,122.831C40.605,131.04 44.276,137.704 48.798,137.704L251.202,137.704C255.724,137.704 259.395,131.04 259.395,122.831L259.395,93.085Z" style="fill:rgb(255,254,254);"/>
                    <path d="M251.308,78.214L251.413,78.217L251.518,78.223L251.623,78.232L251.728,78.243L251.832,78.256L251.936,78.271L252.039,78.289L252.142,78.31L252.245,78.332L252.347,78.357L252.449,78.384L252.55,78.413L252.652,78.445L252.752,78.479L252.852,78.515L252.952,78.553L253.051,78.594L253.15,78.636L253.249,78.681L253.346,78.728L253.444,78.777L253.541,78.828L253.637,78.882L253.733,78.937L253.829,78.994L253.924,79.054L254.018,79.116L254.112,79.179L254.205,79.245L254.298,79.312L254.39,79.382L254.482,79.454L254.573,79.527L254.663,79.603L254.753,79.68L254.842,79.759L254.931,79.841L255.019,79.924L255.106,80.009L255.193,80.095L255.279,80.184L255.364,80.275L255.449,80.367L255.533,80.461L255.617,80.557L255.7,80.655L255.782,80.754L255.863,80.855L255.944,80.958L256.024,81.063L256.103,81.169L256.181,81.277L256.259,81.386L256.336,81.498L256.412,81.61L256.488,81.725L256.563,81.841L256.637,81.959L256.71,82.078L256.782,82.199L256.854,82.321L256.925,82.445L256.994,82.571L257.064,82.698L257.132,82.826L257.199,82.956L257.266,83.087L257.332,83.22L257.396,83.354L257.46,83.49L257.523,83.627L257.586,83.766L257.647,83.905L257.767,84.189L257.825,84.333L257.883,84.478L257.94,84.624L257.995,84.772L258.05,84.921L258.104,85.071L258.157,85.223L258.209,85.376L258.259,85.53L258.309,85.685L258.358,85.841L258.406,85.998L258.453,86.157L258.498,86.317L258.543,86.478L258.587,86.64L258.63,86.803L258.671,86.967L258.712,87.132L258.751,87.298L258.827,87.634L258.863,87.803L258.898,87.974L258.932,88.145L258.965,88.317L259.027,88.665L259.056,88.84L259.084,89.016L259.111,89.193L259.137,89.37L259.162,89.549L259.185,89.728L259.208,89.908L259.229,90.09L259.249,90.271L259.285,90.637L259.301,90.822L259.316,91.007L259.33,91.192L259.342,91.379L259.353,91.566L259.363,91.753L259.379,92.131L259.385,92.32L259.393,92.702L259.395,92.893L259.395,123.023L259.393,123.215L259.389,123.406L259.385,123.596L259.379,123.786L259.371,123.975L259.363,124.163L259.353,124.351L259.342,124.538L259.33,124.724L259.316,124.91L259.301,125.095L259.285,125.279L259.267,125.462L259.249,125.645L259.229,125.827L259.208,126.008L259.185,126.188L259.162,126.368L259.137,126.546L259.111,126.724L259.084,126.901L259.056,127.077L259.027,127.252L258.996,127.426L258.965,127.599L258.932,127.771L258.898,127.943L258.863,128.113L258.827,128.282L258.789,128.451L258.751,128.618L258.712,128.784L258.671,128.95L258.63,129.114L258.587,129.277L258.543,129.439L258.498,129.6L258.453,129.759L258.406,129.918L258.358,130.075L258.309,130.232L258.259,130.387L258.209,130.541L258.157,130.694L258.104,130.845L258.05,130.995L257.995,131.144L257.94,131.292L257.883,131.439L257.825,131.584L257.767,131.727L257.707,131.87L257.647,132.011L257.586,132.151L257.523,132.289L257.46,132.426L257.396,132.562L257.332,132.696L257.266,132.829L257.199,132.961L257.132,133.09L257.064,133.219L256.994,133.346L256.925,133.471L256.854,133.595L256.782,133.718L256.71,133.838L256.637,133.958L256.563,134.075L256.488,134.192L256.412,134.306L256.336,134.419L256.259,134.53L256.181,134.64L256.103,134.748L256.024,134.854L255.944,134.959L255.863,135.061L255.782,135.163L255.7,135.262L255.617,135.36L255.533,135.455L255.449,135.55L255.364,135.642L255.279,135.732L255.193,135.821L255.106,135.908L255.019,135.993L254.931,136.076L254.842,136.157L254.753,136.236L254.663,136.314L254.573,136.389L254.482,136.463L254.39,136.534L254.298,136.604L254.205,136.672L254.112,136.737L254.018,136.801L253.924,136.863L253.829,136.922L253.733,136.98L253.637,137.035L253.541,137.088L253.444,137.139L253.346,137.189L253.249,137.235L253.15,137.28L253.051,137.323L252.952,137.363L252.852,137.402L252.752,137.438L252.652,137.472L252.55,137.503L252.449,137.533L252.347,137.56L252.245,137.584L252.142,137.607L252.039,137.627L251.936,137.645L251.832,137.661L251.728,137.674L251.623,137.685L251.518,137.693L251.413,137.699L251.308,137.703L251.202,137.704L48.798,137.704L48.692,137.703L48.587,137.699L48.482,137.693L48.377,137.685L48.272,137.674L48.168,137.661L48.064,137.645L47.961,137.627L47.858,137.607L47.755,137.584L47.653,137.56L47.551,137.533L47.45,137.503L47.348,137.472L47.248,137.438L47.148,137.402L47.048,137.363L46.949,137.323L46.85,137.28L46.751,137.235L46.654,137.189L46.556,137.139L46.459,137.088L46.363,137.035L46.267,136.98L46.171,136.922L46.076,136.863L45.982,136.801L45.888,136.737L45.795,136.672L45.702,136.604L45.61,136.534L45.518,136.463L45.427,136.389L45.337,136.314L45.247,136.236L45.158,136.157L45.069,136.076L44.981,135.993L44.894,135.908L44.807,135.821L44.721,135.732L44.636,135.642L44.551,135.55L44.467,135.455L44.383,135.36L44.3,135.262L44.218,135.163L44.137,135.061L44.056,134.959L43.976,134.854L43.897,134.748L43.819,134.64L43.741,134.53L43.664,134.419L43.588,134.306L43.512,134.192L43.437,134.075L43.363,133.958L43.29,133.838L43.218,133.718L43.146,133.595L43.075,133.471L43.006,133.346L42.936,133.219L42.868,133.09L42.801,132.961L42.734,132.829L42.668,132.696L42.604,132.562L42.54,132.426L42.477,132.289L42.414,132.151L42.353,132.011L42.293,131.87L42.233,131.727L42.175,131.584L42.117,131.439L42.06,131.292L42.005,131.144L41.95,130.995L41.896,130.845L41.843,130.694L41.791,130.541L41.741,130.387L41.691,130.232L41.642,130.075L41.594,129.918L41.547,129.759L41.502,129.6L41.457,129.439L41.413,129.277L41.37,129.114L41.329,128.95L41.288,128.784L41.249,128.618L41.211,128.451L41.173,128.282L41.137,128.113L41.102,127.943L41.068,127.771L41.035,127.599L41.004,127.426L40.973,127.252L40.944,127.077L40.916,126.901L40.889,126.724L40.863,126.546L40.838,126.368L40.815,126.188L40.792,126.008L40.771,125.827L40.751,125.645L40.733,125.462L40.715,125.279L40.699,125.095L40.684,124.91L40.67,124.724L40.658,124.538L40.647,124.351L40.637,124.163L40.629,123.975L40.621,123.786L40.615,123.596L40.611,123.406L40.607,123.215L40.605,123.023L40.605,122.831L40.605,93.085L40.605,92.893L40.607,92.702L40.611,92.511L40.615,92.32L40.621,92.131L40.629,91.942L40.637,91.753L40.647,91.566L40.658,91.379L40.67,91.192L40.684,91.007L40.699,90.822L40.715,90.637L40.733,90.454L40.751,90.271L40.771,90.09L40.792,89.908L40.815,89.728L40.838,89.549L40.863,89.37L40.889,89.193L40.916,89.016L40.944,88.84L40.973,88.665L41.004,88.491L41.035,88.317L41.068,88.145L41.102,87.974L41.137,87.803L41.173,87.634L41.211,87.466L41.249,87.298L41.288,87.132L41.329,86.967L41.37,86.803L41.413,86.64L41.457,86.478L41.502,86.317L41.547,86.157L41.594,85.998L41.642,85.841L41.691,85.685L41.741,85.53L41.791,85.376L41.843,85.223L41.896,85.071L41.95,84.921L42.005,84.772L42.06,84.624L42.117,84.478L42.175,84.333L42.233,84.189L42.293,84.047L42.353,83.905L42.414,83.766L42.477,83.627L42.54,83.49L42.604,83.354L42.668,83.22L42.734,83.087L42.801,82.956L42.868,82.826L42.936,82.698L43.006,82.571L43.075,82.445L43.146,82.321L43.218,82.199L43.29,82.078L43.363,81.959L43.437,81.841L43.512,81.725L43.588,81.61L43.664,81.498L43.741,81.386L43.819,81.277L43.897,81.169L43.976,81.063L44.056,80.958L44.137,80.855L44.218,80.754L44.3,80.655L44.383,80.557L44.467,80.461L44.551,80.367L44.636,80.275L44.721,80.184L44.807,80.095L44.894,80.009L44.981,79.924L45.069,79.841L45.158,79.759L45.247,79.68L45.337,79.603L45.427,79.527L45.518,79.454L45.61,79.382L45.702,79.312L45.795,79.245L45.888,79.179L45.982,79.116L46.076,79.054L46.171,78.994L46.267,78.937L46.363,78.882L46.459,78.828L46.556,78.777L46.654,78.728L46.751,78.681L46.85,78.636L46.949,78.594L47.048,78.553L47.148,78.515L47.248,78.479L47.348,78.445L47.45,78.413L47.551,78.384L47.653,78.357L47.755,78.332L47.858,78.31L47.961,78.289L48.064,78.271L48.168,78.256L48.272,78.243L48.377,78.232L48.482,78.223L48.587,78.217L48.692,78.214L48.798,78.212L251.202,78.212L251.308,78.214ZM48.822,91.573L48.786,91.573L48.773,91.573L48.761,91.574L48.75,91.575L48.738,91.576L48.727,91.578L48.717,91.579L48.706,91.581L48.695,91.583L48.684,91.586L48.674,91.588L48.664,91.591L48.654,91.594L48.644,91.597L48.635,91.6L48.625,91.603L48.615,91.607L48.606,91.611L48.597,91.615L48.586,91.619L48.578,91.624L48.569,91.628L48.56,91.633L48.551,91.638L48.541,91.643L48.533,91.649L48.523,91.655L48.514,91.661L48.506,91.666L48.497,91.672L48.488,91.679L48.479,91.686L48.47,91.693L48.462,91.699L48.453,91.707L48.444,91.715L48.435,91.722L48.426,91.73L48.417,91.739L48.408,91.748L48.4,91.756L48.392,91.765L48.383,91.774L48.374,91.784L48.365,91.793L48.357,91.803L48.349,91.813L48.339,91.824L48.331,91.835L48.323,91.845L48.314,91.856L48.306,91.867L48.298,91.878L48.29,91.89L48.281,91.902L48.273,91.914L48.265,91.927L48.257,91.939L48.249,91.952L48.241,91.965L48.233,91.977L48.225,91.991L48.217,92.005L48.21,92.018L48.203,92.031L48.195,92.045L48.188,92.06L48.181,92.073L48.174,92.088L48.166,92.103L48.16,92.117L48.153,92.132L48.146,92.147L48.139,92.162L48.133,92.177L48.127,92.192L48.121,92.207L48.115,92.222L48.109,92.237L48.103,92.253L48.097,92.269L48.092,92.284L48.086,92.299L48.081,92.316L48.075,92.332L48.071,92.347L48.066,92.363L48.061,92.378L48.056,92.394L48.052,92.411L48.047,92.426L48.043,92.442L48.039,92.458L48.035,92.475L48.031,92.489L48.027,92.506L48.023,92.523L48.02,92.538L48.016,92.554L48.013,92.57L48.01,92.587L48.007,92.603L48.004,92.619L48.001,92.636L47.998,92.652L47.995,92.668L47.993,92.686L47.99,92.703L47.988,92.719L47.986,92.736L47.984,92.754L47.982,92.77L47.98,92.788L47.978,92.806L47.976,92.824L47.975,92.842L47.973,92.86L47.972,92.879L47.971,92.898L47.969,92.917L47.968,92.937L47.967,92.957L47.967,92.977L47.966,92.997L47.965,93.019L47.965,122.898L47.967,122.94L47.967,122.96L47.969,122.999L47.971,123.018L47.973,123.056L47.975,123.075L47.976,123.093L47.982,123.146L47.99,123.214L47.993,123.231L47.995,123.248L48.001,123.28L48.007,123.314L48.013,123.346L48.02,123.378L48.023,123.394L48.039,123.458L48.043,123.475L48.047,123.49L48.052,123.506L48.056,123.522L48.071,123.57L48.076,123.585L48.086,123.617L48.092,123.632L48.097,123.648L48.103,123.664L48.109,123.679L48.115,123.695L48.121,123.709L48.127,123.725L48.133,123.74L48.146,123.77L48.153,123.785L48.16,123.799L48.166,123.814L48.174,123.829L48.195,123.871L48.203,123.885L48.21,123.898L48.217,123.912L48.225,123.926L48.257,123.978L48.273,124.002L48.281,124.015L48.29,124.027L48.298,124.038L48.306,124.05L48.314,124.061L48.331,124.082L48.339,124.093L48.348,124.103L48.357,124.114L48.374,124.133L48.383,124.142L48.4,124.161L48.409,124.17L48.417,124.177L48.426,124.186L48.453,124.21L48.47,124.224L48.488,124.238L48.506,124.25L48.523,124.262L48.533,124.268L48.551,124.279L48.56,124.284L48.586,124.297L48.606,124.306L48.615,124.309L48.635,124.317L48.644,124.32L48.664,124.326L48.674,124.328L48.684,124.331L48.717,124.337L48.727,124.339L48.761,124.342L48.786,124.344L251.214,124.344L251.227,124.343L251.239,124.342L251.25,124.341L251.262,124.34L251.273,124.339L251.283,124.337L251.294,124.335L251.305,124.333L251.316,124.331L251.326,124.328L251.336,124.326L251.346,124.323L251.356,124.32L251.365,124.317L251.375,124.313L251.385,124.309L251.394,124.306L251.403,124.302L251.413,124.297L251.422,124.293L251.431,124.288L251.44,124.284L251.449,124.279L251.459,124.273L251.467,124.268L251.477,124.262L251.486,124.256L251.494,124.25L251.503,124.244L251.512,124.238L251.521,124.231L251.53,124.224L251.538,124.217L251.548,124.209L251.556,124.202L251.565,124.194L251.575,124.185L251.583,124.177L251.591,124.17L251.6,124.161L251.608,124.152L251.617,124.143L251.626,124.133L251.634,124.124L251.643,124.114L251.652,124.103L251.661,124.093L251.669,124.083L251.677,124.072L251.686,124.061L251.694,124.05L251.702,124.038L251.711,124.026L251.719,124.015L251.727,124.002L251.735,123.99L251.743,123.978L251.751,123.965L251.76,123.951L251.767,123.939L251.774,123.926L251.783,123.912L251.79,123.898L251.797,123.886L251.805,123.871L251.812,123.857L251.819,123.843L251.827,123.828L251.834,123.813L251.84,123.799L251.847,123.785L251.854,123.77L251.86,123.755L251.867,123.739L251.873,123.725L251.879,123.71L251.885,123.694L251.891,123.679L251.897,123.664L251.903,123.648L251.908,123.632L251.914,123.617L251.919,123.601L251.924,123.586L251.93,123.569L251.934,123.554L251.939,123.539L251.944,123.522L251.948,123.506L251.953,123.491L251.957,123.475L251.961,123.458L251.965,123.442L251.969,123.427L251.973,123.41L251.977,123.394L251.98,123.379L251.984,123.362L251.987,123.346L251.99,123.329L251.993,123.313L251.996,123.297L251.999,123.282L252.002,123.264L252.005,123.248L252.007,123.231L252.01,123.214L252.012,123.197L252.014,123.18L252.016,123.163L252.018,123.145L252.02,123.129L252.022,123.11L252.024,123.092L252.025,123.075L252.027,123.057L252.028,123.037L252.029,123.018L252.031,123L252.032,122.98L252.033,122.959L252.033,122.939L252.034,122.919L252.034,122.898L252.035,122.876L252.035,122.853L252.035,122.788L252.035,93.128L252.035,93.064L252.035,93.04L252.034,93.019L252.034,92.997L252.033,92.977L252.033,92.958L252.032,92.936L252.031,92.916L252.029,92.898L252.028,92.879L252.027,92.859L252.025,92.841L252.024,92.825L252.022,92.806L252.02,92.787L252.018,92.771L252.016,92.753L252.014,92.736L252.012,92.72L252.01,92.703L252.007,92.685L252.005,92.669L252.002,92.653L251.999,92.635L251.996,92.619L251.993,92.604L251.99,92.587L251.987,92.571L251.984,92.554L251.98,92.538L251.977,92.522L251.973,92.507L251.969,92.49L251.965,92.474L251.961,92.458L251.957,92.442L251.953,92.426L251.948,92.411L251.944,92.395L251.939,92.378L251.934,92.363L251.93,92.347L251.924,92.331L251.919,92.316L251.914,92.299L251.908,92.284L251.903,92.269L251.897,92.252L251.891,92.238L251.885,92.223L251.879,92.206L251.873,92.192L251.867,92.178L251.86,92.162L251.854,92.146L251.847,92.131L251.84,92.117L251.834,92.103L251.827,92.088L251.819,92.073L251.812,92.06L251.805,92.046L251.797,92.031L251.79,92.019L251.783,92.005L251.774,91.99L251.767,91.978L251.76,91.965L251.751,91.952L251.743,91.939L251.735,91.926L251.727,91.914L251.719,91.902L251.711,91.89L251.702,91.878L251.694,91.867L251.686,91.856L251.677,91.845L251.669,91.835L251.661,91.824L251.652,91.813L251.643,91.803L251.635,91.793L251.626,91.784L251.617,91.773L251.608,91.764L251.6,91.756L251.592,91.748L251.583,91.739L251.574,91.731L251.565,91.722L251.556,91.714L251.548,91.707L251.538,91.699L251.53,91.693L251.521,91.686L251.512,91.679L251.503,91.672L251.494,91.666L251.486,91.66L251.477,91.655L251.467,91.649L251.459,91.643L251.449,91.638L251.44,91.633L251.431,91.628L251.422,91.624L251.413,91.619L251.403,91.615L251.394,91.611L251.385,91.607L251.375,91.603L251.365,91.6L251.356,91.597L251.346,91.594L251.336,91.591L251.326,91.588L251.316,91.586L251.305,91.583L251.294,91.581L251.283,91.579L251.273,91.578L251.262,91.576L251.25,91.575L251.239,91.574L251.227,91.573L251.214,91.573L251.178,91.573L48.822,91.573Z" style="fill:rgb(227,41,46);"/>
                </g>
                <g transform="matrix(1.02318,0,0,1.02318,45.8158,63.0004)">
                    <circle cx="37.462" cy="115.417" r="7.819" style="fill:rgb(227,41,46);"/>
                </g>
                <g transform="matrix(1.02318,0,0,1.02318,69.6871,63.0004)">
                    <circle cx="37.462" cy="115.417" r="7.819" style="fill:rgb(227,41,46);"/>
                </g>
                <g transform="matrix(1.37116,0,0,1,31.6697,123.899)">
                    <rect x="35.437" y="82.691" width="102.046" height="9.522" style="fill:rgb(227,41,46);"/>
                    <rect x="35.437" y="82.691" width="102.046" height="9.522" style="fill:rgb(227,41,46);"/>
                </g>
                <g transform="matrix(0.381081,0,0,1,144.69,7.04087)">
                    <path d="M208.951,169.32C208.951,168.033 206.209,166.988 202.831,166.988L162.19,166.988C158.812,166.988 156.07,168.033 156.07,169.32C156.07,170.607 158.812,171.652 162.19,171.652L202.831,171.652C206.209,171.652 208.951,170.607 208.951,169.32Z" style="fill:rgb(227,41,46);"/>
                    <path d="M178.111,167.145L177.975,167.382L177.855,167.621L177.751,167.859L177.662,168.101L177.589,168.345L177.533,168.587L177.492,168.831L177.467,169.075L177.459,169.32L177.467,169.564L177.492,169.808L177.533,170.053L177.589,170.294L177.662,170.538L177.751,170.78L177.855,171.018L177.975,171.257L178.111,171.495L178.211,171.652L162.19,171.652L162.032,171.651L161.875,171.649L161.719,171.645L161.564,171.64L161.411,171.633L161.258,171.625L161.107,171.615L160.957,171.604L160.808,171.592L160.661,171.578L160.515,171.563L160.371,171.547L160.228,171.529L160.086,171.51L159.947,171.49L159.809,171.468L159.672,171.446L159.538,171.422L159.405,171.396L159.274,171.37L159.145,171.343L159.017,171.314L158.892,171.284L158.769,171.253L158.648,171.221L158.529,171.188L158.412,171.154L158.298,171.119L158.186,171.083L158.076,171.046L157.968,171.007L157.863,170.968L157.761,170.928L157.661,170.887L157.563,170.846L157.468,170.803L157.376,170.759L157.286,170.715L157.2,170.669L157.116,170.623L157.035,170.576L156.956,170.529L156.881,170.48L156.809,170.431L156.74,170.381L156.674,170.33L156.611,170.279L156.551,170.227L156.495,170.174L156.442,170.121L156.392,170.067L156.345,170.013L156.302,169.958L156.263,169.902L156.227,169.846L156.194,169.789L156.166,169.732L156.141,169.675L156.119,169.617L156.102,169.558L156.088,169.499L156.078,169.44L156.072,169.38L156.07,169.32L156.072,169.26L156.078,169.2L156.088,169.14L156.102,169.081L156.119,169.023L156.141,168.965L156.166,168.907L156.194,168.85L156.227,168.793L156.263,168.737L156.302,168.682L156.345,168.626L156.392,168.572L156.442,168.518L156.495,168.465L156.551,168.412L156.611,168.36L156.674,168.309L156.74,168.258L156.809,168.208L156.881,168.159L156.956,168.111L157.035,168.063L157.116,168.016L157.2,167.97L157.286,167.925L157.376,167.88L157.468,167.837L157.563,167.794L157.661,167.752L157.761,167.711L157.863,167.671L157.968,167.632L158.076,167.594L158.186,167.557L158.298,167.52L158.412,167.485L158.529,167.451L158.648,167.418L158.769,167.386L158.892,167.355L159.017,167.325L159.145,167.297L159.274,167.269L159.405,167.243L159.538,167.218L159.672,167.194L159.809,167.171L159.947,167.149L160.086,167.129L160.228,167.11L160.371,167.092L160.515,167.076L160.661,167.061L160.808,167.047L160.957,167.035L161.107,167.024L161.258,167.014L161.411,167.006L161.564,167L161.719,166.994L161.875,166.991L162.032,166.988L178.211,166.988L178.111,167.145ZM202.989,166.988L203.146,166.991L203.302,166.994L203.457,167L203.61,167.006L203.763,167.014L203.914,167.024L204.064,167.035L204.213,167.047L204.36,167.061L204.506,167.076L204.65,167.092L204.793,167.11L204.935,167.129L205.074,167.149L205.213,167.171L205.349,167.194L205.484,167.218L205.616,167.243L205.747,167.269L205.877,167.297L206.004,167.325L206.129,167.355L206.252,167.386L206.373,167.418L206.492,167.451L206.609,167.485L206.723,167.52L206.835,167.557L206.945,167.594L207.053,167.632L207.158,167.671L207.26,167.711L207.361,167.752L207.458,167.794L207.553,167.837L207.645,167.88L207.735,167.925L207.821,167.97L207.905,168.016L207.986,168.063L208.065,168.111L208.14,168.159L208.212,168.208L208.281,168.258L208.347,168.309L208.41,168.36L208.47,168.412L208.526,168.465L208.58,168.518L208.629,168.572L208.676,168.626L208.719,168.682L208.758,168.737L208.794,168.793L208.827,168.85L208.855,168.907L208.881,168.965L208.902,169.023L208.92,169.081L208.933,169.14L208.943,169.2L208.949,169.26L208.951,169.32L208.949,169.38L208.943,169.44L208.933,169.499L208.92,169.558L208.902,169.617L208.881,169.675L208.855,169.732L208.827,169.789L208.794,169.846L208.758,169.902L208.719,169.958L208.676,170.013L208.629,170.067L208.58,170.121L208.526,170.174L208.47,170.227L208.41,170.279L208.347,170.33L208.281,170.381L208.212,170.431L208.14,170.48L208.065,170.529L207.986,170.576L207.905,170.623L207.821,170.669L207.735,170.715L207.645,170.759L207.553,170.803L207.458,170.846L207.361,170.887L207.26,170.928L207.158,170.968L207.053,171.007L206.945,171.046L206.835,171.083L206.723,171.119L206.609,171.154L206.492,171.188L206.373,171.221L206.252,171.253L206.129,171.284L206.004,171.314L205.877,171.343L205.747,171.37L205.616,171.396L205.484,171.422L205.349,171.446L205.213,171.468L205.074,171.49L204.935,171.51L204.793,171.529L204.65,171.547L204.506,171.563L204.36,171.578L204.213,171.592L204.064,171.604L203.914,171.615L203.763,171.625L203.61,171.633L203.457,171.64L203.302,171.645L203.146,171.649L202.989,171.651L202.831,171.652L186.81,171.652L186.91,171.495L187.045,171.259L187.166,171.018L187.271,170.779L187.359,170.538L187.432,170.296L187.489,170.053L187.529,169.808L187.554,169.562L187.562,169.32L187.554,169.077L187.529,168.831L187.489,168.587L187.432,168.344L187.359,168.101L187.271,167.861L187.166,167.621L187.045,167.381L186.91,167.145L186.81,166.988L202.989,166.988Z" style="fill:rgb(227,41,46);"/>
                </g>
            </g>
        </g>
        <g>
            <g>
                <path d="M178.679,120.543L178.679,127.095L110.881,127.095L110.881,120.543L178.679,120.543ZM178.679,101.97L178.679,108.521L110.881,108.521L110.881,101.97L178.679,101.97ZM178.679,83.396L178.679,89.948L110.881,89.948L110.881,83.396L178.679,83.396Z" style="fill:rgb(255,254,254);"/>
                <path d="M178.679,127.095L110.881,127.095L110.881,120.543L178.679,120.543L178.679,127.095ZM178.679,108.521L110.881,108.521L110.881,101.97L178.679,101.97L178.679,108.521ZM178.679,89.948L110.881,89.948L110.881,83.396L178.679,83.396L178.679,89.948Z" style="fill:rgb(227,41,46);"/>
            </g>
            <g transform="matrix(1,0,0,1,0.332323,2.43782)">
                <path d="M93.88,138.674L93.88,56.386L205.456,56.386L205.456,138.674" style="fill:rgb(75,75,75);fill-opacity:0;stroke:rgb(227,41,46);stroke-width:12px;"/>
            </g>
        </g>
    </g>
</svg>
