<?xml version="1.0" encoding="UTF-8" standalone="no"?>
<!DOCTYPE svg PUBLIC "-//W3C//DTD SVG 1.1//EN" "http://www.w3.org/Graphics/SVG/1.1/DTD/svg11.dtd">
<svg width="100%" height="100%" viewBox="0 0 204 205" version="1.1" xmlns="http://www.w3.org/2000/svg" xmlns:xlink="http://www.w3.org/1999/xlink" xml:space="preserve" xmlns:serif="http://www.serif.com/" style="fill-rule:evenodd;clip-rule:evenodd;stroke-linejoin:round;stroke-miterlimit:1.41421;">
    <g transform="matrix(1,0,0,1,-41.4123,-54.5283)">
        <g transform="matrix(0.707107,0.707107,-0.707107,0.707107,158.29,-70.8016)">
            <path d="M184.921,173.594C184.922,175.957 184.922,178.382 184.922,180.809L201.348,190.293C201.661,190.474 201.83,190.809 201.813,191.146C201.814,191.161 201.814,191.177 201.814,191.192L201.814,213.796L214.29,220.999C214.419,221.058 214.545,221.123 214.67,221.195L226.908,228.26C229.061,229.503 229.8,232.261 228.556,234.414C227.313,236.567 224.556,237.306 222.402,236.063L216.899,232.886C216.838,232.866 216.779,232.84 216.722,232.807L193.27,219.267C192.942,219.078 192.773,218.719 192.809,218.365C192.806,218.334 192.804,218.303 192.804,218.271L192.804,195.764L184.915,191.209C184.909,195.241 184.9,199.018 184.885,202.225C184.85,209.926 184.867,217.763 173.885,227.952C166.801,234.524 157.978,236.136 153.289,236.511L153.289,178.261C153.289,176.446 151.815,174.973 150,174.973C148.185,174.973 146.711,176.446 146.711,178.261L146.711,236.511C142.022,236.136 133.199,234.524 126.115,227.952C115.133,217.763 115.15,209.926 115.115,202.225C115.101,199.101 115.091,195.435 115.086,191.519L107.733,195.764L107.733,218.271C107.733,218.303 107.731,218.334 107.728,218.365C107.764,218.719 107.595,219.078 107.267,219.267L83.816,232.807C83.758,232.84 83.699,232.866 83.638,232.886L78.135,236.063C75.981,237.306 73.224,236.567 71.981,234.414C70.738,232.261 71.476,229.503 73.63,228.26L85.867,221.195C85.992,221.123 86.119,221.058 86.247,220.999L98.723,213.796L98.723,191.192C98.723,191.177 98.723,191.161 98.724,191.146C98.708,190.809 98.876,190.474 99.189,190.293L115.078,181.12C115.078,178.589 115.078,176.058 115.079,173.594L105.403,173.594L92.724,186.273C92.649,186.347 92.565,186.407 92.476,186.451C91.064,187.687 88.967,187.954 87.253,186.964L75.015,179.899C72.862,178.655 72.123,175.898 73.367,173.745C74.61,171.591 77.367,170.852 79.521,172.096L88.801,177.454L101.398,164.857C101.637,164.618 101.974,164.536 102.28,164.611C102.351,164.593 102.426,164.584 102.503,164.584L115.086,164.584L115.089,161.922L115.093,159.01L113.281,159.01L106.134,159.01C105.62,159.01 105.202,158.593 105.202,158.078L105.202,138.935L96.531,130.263C94.773,128.505 94.773,125.65 96.531,123.892C98.289,122.134 101.144,122.134 102.902,123.892L112.894,133.884C113.648,134.638 114.079,135.595 114.186,136.58C114.203,136.651 114.212,136.725 114.212,136.801L114.212,150L186.494,150L186.494,136.801C186.494,136.725 186.503,136.651 186.52,136.58C186.627,135.595 187.058,134.638 187.812,133.884L197.804,123.892C199.562,122.134 202.417,122.134 204.175,123.892C205.933,125.65 205.933,128.505 204.175,130.263L195.504,138.935L195.504,158.078C195.504,158.593 195.086,159.01 194.572,159.01L184.907,159.01L184.911,161.894L184.914,164.584L197.903,164.584C197.98,164.584 198.054,164.593 198.126,164.611C198.432,164.536 198.769,164.618 199.008,164.857L211.605,177.454L220.885,172.096C223.038,170.852 225.796,171.591 227.039,173.745C228.282,175.898 227.544,178.655 225.39,179.899L213.153,186.964C211.439,187.954 209.341,187.687 207.93,186.451C207.84,186.407 207.756,186.347 207.682,186.273L195.003,173.594L184.921,173.594Z" style="fill:rgb(77,77,77);"/>
        </g>
        <g transform="matrix(0.707107,0.707107,-0.707107,0.707107,158.29,-70.8016)">
            <path d="M130.534,145.925C130.203,144.555 130.028,143.13 130.028,141.666C130.028,136.495 132.212,131.801 135.757,128.362C134.17,125.715 132.386,123.138 130.405,120.652C120.539,108.273 107.383,100.171 93.466,96.716L93.468,96.711C90.921,96.028 89.407,93.406 90.09,90.859C90.772,88.312 93.394,86.799 95.941,87.481L95.941,87.48C111.68,91.558 126.526,100.812 137.703,114.836C139.95,117.655 141.976,120.577 143.783,123.576C145.739,122.952 147.828,122.602 150,122.575L150.203,122.579C152.302,122.624 154.323,122.971 156.217,123.576C158.024,120.577 160.05,117.655 162.297,114.836C173.474,100.812 188.32,91.558 204.059,87.48L204.059,87.481C206.606,86.799 209.228,88.312 209.91,90.859C210.593,93.406 209.079,96.028 206.532,96.711L206.534,96.716C192.617,100.171 179.461,108.273 169.595,120.652C167.614,123.138 165.83,125.715 164.243,128.362C167.788,131.801 169.972,136.495 169.972,141.666C169.972,143.13 169.797,144.555 169.466,145.925L130.534,145.925Z" style="fill:rgb(77,77,77);"/>
        </g>
    </g>
</svg>
