<?xml version="1.0" encoding="UTF-8" standalone="no"?>
<!DOCTYPE svg PUBLIC "-//W3C//DTD SVG 1.1//EN" "http://www.w3.org/Graphics/SVG/1.1/DTD/svg11.dtd">
<svg width="100%" height="100%" viewBox="0 0 199 86" version="1.1" xmlns="http://www.w3.org/2000/svg" xmlns:xlink="http://www.w3.org/1999/xlink" xml:space="preserve" xmlns:serif="http://www.serif.com/" style="fill-rule:evenodd;clip-rule:evenodd;stroke-linejoin:round;stroke-miterlimit:1.41421;">
    <g transform="matrix(1,0,0,1,-50.8618,-132.703)">
        <path d="M241.138,156.703L211.469,156.703C207.539,187.138 181.498,210.684 150,210.684C118.502,210.684 92.461,187.138 88.531,156.703L58.862,156.703L58.862,140.703L241.138,140.703L241.138,156.703Z" style="fill:white;"/>
        <path d="M241.138,156.703L211.469,156.703L211.421,157.059L211.372,157.415L211.321,157.77L211.268,158.124L211.213,158.478L211.156,158.831L211.097,159.183L211.036,159.535L210.973,159.886L210.908,160.237L210.841,160.586L210.772,160.935L210.701,161.284L210.628,161.631L210.553,161.978L210.477,162.324L210.398,162.67L210.318,163.014L210.235,163.358L210.151,163.702L210.064,164.044L209.976,164.386L209.886,164.727L209.794,165.067L209.7,165.406L209.605,165.745L209.507,166.083L209.407,166.42L209.306,166.756L209.203,167.092L209.098,167.426L208.991,167.76L208.882,168.093L208.772,168.425L208.66,168.757L208.545,169.087L208.429,169.417L208.312,169.746L208.192,170.074L208.071,170.401L207.948,170.727L207.823,171.053L207.696,171.377L207.567,171.701L207.437,172.023L207.305,172.345L207.171,172.666L207.036,172.986L206.899,173.305L206.76,173.623L206.619,173.94L206.477,174.257L206.333,174.572L206.187,174.886L206.039,175.2L205.89,175.512L205.739,175.824L205.586,176.134L205.432,176.444L205.276,176.753L205.119,177.06L204.959,177.367L204.798,177.672L204.636,177.977L204.472,178.281L204.306,178.583L204.138,178.885L203.969,179.185L203.798,179.485L203.626,179.783L203.452,180.08L203.276,180.377L203.099,180.672L202.921,180.966L202.74,181.259L202.558,181.552L202.375,181.843L202.19,182.132L202.003,182.421L201.815,182.709L201.625,182.995L201.434,183.281L201.241,183.565L201.047,183.849L200.851,184.131L200.654,184.412L200.455,184.691L200.254,184.97L200.053,185.248L199.849,185.524L199.644,185.799L199.438,186.073L199.23,186.346L199.021,186.618L198.81,186.888L198.598,187.157L198.384,187.425L198.169,187.692L197.953,187.958L197.735,188.222L197.515,188.486L197.294,188.747L197.072,189.008L196.848,189.268L196.623,189.526L196.397,189.783L196.169,190.039L195.94,190.293L195.709,190.546L195.477,190.798L195.244,191.049L195.009,191.298L194.773,191.546L194.535,191.793L194.297,192.038L194.056,192.282L193.815,192.525L193.572,192.766L193.328,193.006L193.083,193.245L192.836,193.483L192.588,193.719L192.338,193.953L192.088,194.187L191.836,194.419L191.583,194.649L191.328,194.878L191.072,195.106L190.815,195.333L190.557,195.558L190.298,195.781L190.037,196.004L189.775,196.224L189.512,196.444L189.247,196.662L188.982,196.878L188.715,197.093L188.447,197.307L188.177,197.519L187.907,197.73L187.635,197.939L187.362,198.147L187.088,198.353L186.813,198.558L186.537,198.761L186.259,198.963L185.98,199.163L185.7,199.362L185.419,199.56L185.137,199.755L184.854,199.95L184.57,200.142L184.284,200.334L183.998,200.523L183.71,200.711L183.421,200.898L183.131,201.083L182.84,201.266L182.548,201.448L182.255,201.629L181.961,201.807L181.665,201.984L181.369,202.16L181.071,202.334L180.773,202.506L180.473,202.677L180.173,202.846L179.871,203.013L179.569,203.179L179.265,203.343L178.96,203.506L178.655,203.667L178.348,203.826L178.041,203.984L177.732,204.14L177.422,204.294L177.112,204.446L176.8,204.597L176.488,204.746L176.174,204.894L175.86,205.04L175.544,205.184L175.228,205.326L174.911,205.467L174.593,205.606L174.274,205.743L173.954,205.878L173.633,206.012L173.311,206.144L172.988,206.274L172.665,206.402L172.34,206.529L172.015,206.654L171.688,206.777L171.361,206.898L171.033,207.018L170.704,207.136L170.375,207.251L170.044,207.366L169.713,207.478L169.381,207.588L169.048,207.697L168.714,207.804L168.379,207.909L168.043,208.012L167.707,208.113L167.37,208.213L167.032,208.31L166.694,208.406L166.354,208.5L166.014,208.591L165.673,208.681L165.331,208.77L164.989,208.856L164.645,208.94L164.301,209.023L163.957,209.103L163.611,209.182L163.265,209.258L162.918,209.333L162.57,209.406L162.222,209.477L161.873,209.546L161.523,209.612L161.173,209.677L160.822,209.74L160.47,209.801L160.118,209.86L159.764,209.917L159.411,209.972L159.056,210.025L158.701,210.077L158.345,210.126L157.989,210.173L157.632,210.217L157.274,210.26L156.916,210.301L156.557,210.34L156.198,210.377L155.838,210.412L155.477,210.444L155.116,210.475L154.754,210.504L154.392,210.53L154.029,210.555L153.665,210.577L153.301,210.597L152.936,210.615L152.571,210.631L152.205,210.645L151.839,210.657L151.472,210.666L151.105,210.674L150.737,210.679L150.369,210.683L150,210.684L149.631,210.683L149.263,210.679L148.895,210.674L148.528,210.666L148.161,210.657L147.795,210.645L147.429,210.631L147.064,210.615L146.699,210.597L146.335,210.577L145.971,210.555L145.608,210.53L145.246,210.504L144.884,210.475L144.523,210.444L144.162,210.412L143.802,210.377L143.443,210.34L143.084,210.301L142.726,210.26L142.368,210.217L142.011,210.173L141.655,210.126L141.299,210.077L140.944,210.025L140.589,209.972L140.236,209.917L139.882,209.86L139.53,209.801L139.178,209.74L138.827,209.677L138.477,209.612L138.127,209.546L137.778,209.477L137.43,209.406L137.082,209.333L136.735,209.258L136.389,209.182L136.043,209.103L135.699,209.023L135.355,208.94L135.011,208.856L134.669,208.77L134.327,208.681L133.986,208.591L133.646,208.5L133.306,208.406L132.968,208.31L132.63,208.213L132.293,208.113L131.957,208.012L131.621,207.909L131.286,207.804L130.952,207.697L130.619,207.588L130.287,207.478L129.956,207.366L129.625,207.251L129.296,207.136L128.967,207.018L128.639,206.898L128.312,206.777L127.985,206.654L127.66,206.529L127.335,206.402L127.012,206.274L126.689,206.144L126.367,206.012L126.046,205.878L125.726,205.743L125.407,205.606L125.089,205.467L124.772,205.326L124.456,205.184L124.14,205.04L123.826,204.894L123.512,204.746L123.2,204.597L122.888,204.446L122.578,204.294L122.268,204.14L121.959,203.984L121.652,203.826L121.345,203.667L121.04,203.506L120.735,203.343L120.431,203.179L120.129,203.013L119.827,202.846L119.527,202.677L119.227,202.506L118.929,202.334L118.631,202.16L118.335,201.984L118.039,201.807L117.745,201.629L117.452,201.448L117.16,201.266L116.869,201.083L116.579,200.898L116.29,200.711L116.002,200.523L115.716,200.334L115.43,200.142L115.146,199.95L114.863,199.755L114.581,199.56L114.3,199.362L114.02,199.163L113.741,198.963L113.463,198.761L113.187,198.558L112.912,198.353L112.638,198.147L112.365,197.939L112.093,197.73L111.823,197.519L111.553,197.307L111.285,197.093L111.018,196.878L110.753,196.662L110.488,196.444L110.225,196.224L109.963,196.004L109.702,195.781L109.443,195.558L109.185,195.333L108.928,195.106L108.672,194.878L108.417,194.649L108.164,194.419L107.912,194.187L107.662,193.953L107.412,193.719L107.164,193.483L106.917,193.245L106.672,193.006L106.428,192.766L106.185,192.525L105.944,192.282L105.703,192.038L105.465,191.793L105.227,191.546L104.991,191.298L104.756,191.049L104.523,190.798L104.291,190.546L104.06,190.293L103.831,190.039L103.603,189.783L103.377,189.526L103.152,189.268L102.928,189.008L102.706,188.747L102.485,188.486L102.265,188.222L102.047,187.958L101.831,187.692L101.616,187.425L101.402,187.157L101.19,186.888L100.979,186.618L100.77,186.346L100.562,186.073L100.356,185.799L100.151,185.524L99.947,185.248L99.746,184.97L99.545,184.691L99.346,184.412L99.149,184.131L98.953,183.849L98.759,183.565L98.566,183.281L98.375,182.995L98.185,182.709L97.997,182.421L97.81,182.132L97.625,181.843L97.442,181.552L97.26,181.259L97.079,180.966L96.901,180.672L96.724,180.377L96.548,180.08L96.374,179.783L96.202,179.485L96.031,179.185L95.862,178.885L95.694,178.583L95.528,178.281L95.364,177.977L95.202,177.672L95.041,177.367L94.881,177.06L94.724,176.753L94.568,176.444L94.414,176.134L94.261,175.824L94.11,175.512L93.961,175.2L93.813,174.886L93.667,174.572L93.523,174.257L93.381,173.94L93.24,173.623L93.101,173.305L92.964,172.986L92.829,172.666L92.695,172.345L92.563,172.023L92.433,171.701L92.304,171.377L92.177,171.053L92.052,170.727L91.929,170.401L91.808,170.074L91.688,169.746L91.571,169.417L91.455,169.087L91.34,168.757L91.228,168.425L91.118,168.093L91.009,167.76L90.902,167.426L90.797,167.092L90.694,166.756L90.593,166.42L90.493,166.083L90.395,165.745L90.3,165.406L90.206,165.067L90.114,164.727L90.024,164.386L89.936,164.044L89.849,163.702L89.765,163.358L89.682,163.014L89.602,162.67L89.523,162.324L89.447,161.978L89.372,161.631L89.299,161.284L89.228,160.935L89.159,160.586L89.092,160.237L89.027,159.886L88.964,159.535L88.903,159.183L88.844,158.831L88.787,158.478L88.732,158.124L88.679,157.77L88.628,157.415L88.579,157.059L88.531,156.703L58.862,156.703L58.862,140.703L241.138,140.703L241.138,156.703ZM104.712,156.703L104.72,156.753L104.767,157.013L104.815,157.273L104.865,157.532L104.916,157.79L104.968,158.048L105.022,158.305L105.078,158.562L105.134,158.818L105.193,159.073L105.252,159.329L105.313,159.583L105.376,159.837L105.439,160.09L105.505,160.343L105.571,160.595L105.639,160.847L105.709,161.098L105.78,161.349L105.852,161.599L105.925,161.848L106,162.096L106.077,162.345L106.154,162.592L106.233,162.839L106.314,163.085L106.396,163.331L106.479,163.576L106.563,163.821L106.649,164.065L106.736,164.308L106.825,164.551L106.914,164.793L107.005,165.034L107.098,165.275L107.192,165.515L107.287,165.754L107.383,165.993L107.481,166.231L107.58,166.469L107.68,166.706L107.782,166.942L107.885,167.178L107.989,167.413L108.094,167.647L108.201,167.88L108.309,168.113L108.418,168.345L108.529,168.577L108.641,168.808L108.754,169.038L108.868,169.267L108.983,169.496L109.1,169.724L109.218,169.951L109.338,170.177L109.458,170.403L109.58,170.628L109.703,170.853L109.827,171.076L109.953,171.299L110.079,171.521L110.207,171.743L110.336,171.963L110.466,172.183L110.598,172.402L110.73,172.621L110.864,172.838L110.999,173.055L111.135,173.271L111.273,173.486L111.411,173.7L111.551,173.914L111.692,174.127L111.834,174.339L111.977,174.55L112.121,174.76L112.267,174.97L112.414,175.179L112.561,175.386L112.71,175.593L112.86,175.8L113.011,176.005L113.163,176.209L113.317,176.413L113.471,176.616L113.627,176.818L113.783,177.019L113.941,177.219L114.1,177.418L114.26,177.617L114.421,177.814L114.583,178.01L114.746,178.206L114.91,178.401L115.076,178.595L115.242,178.788L115.409,178.98L115.578,179.171L115.747,179.361L115.918,179.55L116.089,179.739L116.262,179.926L116.435,180.112L116.61,180.298L116.785,180.482L116.962,180.666L117.14,180.848L117.318,181.03L117.498,181.21L117.678,181.39L117.86,181.568L118.043,181.746L118.226,181.923L118.411,182.098L118.596,182.273L118.782,182.446L118.97,182.619L119.158,182.79L119.347,182.961L119.538,183.13L119.729,183.298L119.921,183.466L120.114,183.632L120.308,183.797L120.502,183.961L120.698,184.125L120.895,184.287L121.092,184.448L121.291,184.607L121.49,184.766L121.69,184.924L121.891,185.081L122.093,185.236L122.296,185.39L122.499,185.544L122.704,185.696L122.909,185.847L123.115,185.997L123.323,186.146L123.53,186.294L123.739,186.44L123.949,186.586L124.159,186.73L124.37,186.873L124.582,187.015L124.795,187.156L125.009,187.295L125.223,187.434L125.438,187.571L125.654,187.707L125.871,187.842L126.089,187.976L126.307,188.109L126.526,188.24L126.746,188.37L126.967,188.499L127.188,188.627L127.41,188.754L127.633,188.879L127.857,189.003L128.081,189.126L128.306,189.248L128.532,189.369L128.759,189.488L128.986,189.606L129.214,189.723L129.443,189.838L129.672,189.952L129.902,190.065L130.133,190.177L130.364,190.288L130.597,190.397L130.829,190.505L131.063,190.612L131.297,190.717L131.532,190.821L131.768,190.924L132.004,191.026L132.241,191.126L132.478,191.225L132.717,191.322L132.955,191.419L133.195,191.514L133.435,191.608L133.676,191.7L133.917,191.791L134.159,191.881L134.402,191.969L134.645,192.056L134.889,192.142L135.134,192.227L135.379,192.31L135.625,192.391L135.871,192.472L136.118,192.551L136.365,192.628L136.614,192.705L136.862,192.779L137.112,192.853L137.362,192.925L137.612,192.996L137.863,193.065L138.115,193.133L138.367,193.2L138.62,193.265L138.873,193.329L139.127,193.391L139.382,193.452L139.637,193.512L139.893,193.57L140.149,193.627L140.406,193.682L140.663,193.736L140.921,193.788L141.179,193.839L141.438,193.889L141.697,193.937L141.957,193.984L142.218,194.029L142.479,194.072L142.741,194.115L143.003,194.155L143.266,194.195L143.529,194.233L143.792,194.269L144.057,194.304L144.321,194.337L144.587,194.369L144.853,194.399L145.119,194.428L145.386,194.456L145.653,194.481L145.921,194.506L146.189,194.528L146.458,194.55L146.728,194.569L146.998,194.587L147.268,194.604L147.539,194.619L147.81,194.633L148.082,194.644L148.355,194.655L148.628,194.664L148.901,194.671L149.175,194.676L149.45,194.68L149.724,194.683L150,194.684L150.276,194.683L150.55,194.68L150.825,194.676L151.099,194.671L151.372,194.664L151.645,194.655L151.918,194.644L152.19,194.633L152.461,194.619L152.732,194.604L153.002,194.587L153.272,194.569L153.542,194.55L153.811,194.528L154.079,194.506L154.347,194.481L154.614,194.456L154.881,194.428L155.147,194.399L155.413,194.369L155.679,194.337L155.943,194.304L156.208,194.269L156.471,194.233L156.734,194.195L156.997,194.155L157.259,194.115L157.521,194.072L157.782,194.029L158.043,193.984L158.303,193.937L158.562,193.889L158.821,193.839L159.079,193.788L159.337,193.736L159.594,193.682L159.851,193.627L160.107,193.57L160.363,193.512L160.618,193.452L160.873,193.391L161.127,193.329L161.38,193.265L161.633,193.2L161.885,193.133L162.137,193.065L162.388,192.996L162.638,192.925L162.888,192.853L163.138,192.779L163.386,192.705L163.635,192.628L163.882,192.551L164.129,192.472L164.375,192.391L164.621,192.31L164.866,192.227L165.111,192.142L165.355,192.056L165.598,191.969L165.841,191.881L166.083,191.791L166.324,191.7L166.565,191.608L166.805,191.514L167.045,191.419L167.283,191.322L167.522,191.225L167.759,191.126L167.996,191.026L168.232,190.924L168.468,190.821L168.703,190.717L168.937,190.612L169.171,190.505L169.403,190.397L169.636,190.288L169.867,190.177L170.098,190.065L170.328,189.952L170.558,189.838L170.786,189.723L171.014,189.606L171.242,189.488L171.468,189.369L171.694,189.248L171.919,189.126L172.143,189.003L172.367,188.879L172.59,188.754L172.812,188.627L173.033,188.499L173.254,188.37L173.474,188.24L173.693,188.109L173.911,187.976L174.129,187.842L174.346,187.707L174.562,187.571L174.777,187.434L174.991,187.295L175.205,187.156L175.418,187.015L175.63,186.873L175.841,186.73L176.051,186.586L176.261,186.44L176.469,186.294L176.677,186.146L176.885,185.997L177.091,185.847L177.296,185.696L177.501,185.544L177.704,185.39L177.907,185.236L178.109,185.081L178.31,184.924L178.51,184.766L178.71,184.607L178.908,184.448L179.105,184.287L179.302,184.125L179.498,183.961L179.692,183.797L179.886,183.632L180.079,183.466L180.271,183.298L180.462,183.13L180.653,182.961L180.842,182.79L181.03,182.619L181.218,182.446L181.404,182.273L181.589,182.098L181.774,181.922L181.957,181.746L182.14,181.568L182.322,181.39L182.502,181.21L182.682,181.03L182.86,180.848L183.038,180.666L183.215,180.482L183.39,180.298L183.565,180.112L183.738,179.926L183.911,179.738L184.082,179.55L184.253,179.361L184.422,179.171L184.591,178.98L184.758,178.788L184.924,178.595L185.09,178.401L185.254,178.206L185.417,178.011L185.579,177.814L185.74,177.617L185.9,177.418L186.059,177.219L186.217,177.019L186.373,176.818L186.529,176.616L186.683,176.413L186.837,176.209L186.989,176.005L187.14,175.8L187.29,175.594L187.439,175.386L187.586,175.179L187.733,174.97L187.879,174.76L188.023,174.55L188.166,174.339L188.308,174.127L188.449,173.914L188.589,173.7L188.727,173.486L188.865,173.271L189.001,173.055L189.136,172.838L189.27,172.621L189.402,172.402L189.534,172.183L189.664,171.963L189.793,171.743L189.921,171.521L190.047,171.299L190.173,171.076L190.297,170.853L190.42,170.629L190.542,170.403L190.662,170.177L190.782,169.951L190.9,169.724L191.016,169.496L191.132,169.267L191.246,169.038L191.359,168.808L191.471,168.577L191.582,168.346L191.691,168.113L191.799,167.88L191.906,167.647L192.011,167.412L192.115,167.178L192.218,166.942L192.32,166.706L192.42,166.469L192.519,166.232L192.617,165.993L192.713,165.754L192.808,165.515L192.902,165.275L192.995,165.034L193.086,164.792L193.175,164.551L193.264,164.308L193.351,164.065L193.437,163.821L193.521,163.576L193.604,163.331L193.686,163.086L193.767,162.839L193.846,162.592L193.923,162.345L194,162.097L194.075,161.848L194.148,161.598L194.22,161.349L194.291,161.098L194.361,160.847L194.429,160.595L194.495,160.343L194.56,160.091L194.624,159.837L194.687,159.583L194.748,159.328L194.807,159.074L194.866,158.818L194.922,158.562L194.978,158.305L195.032,158.048L195.084,157.79L195.135,157.531L195.185,157.273L195.233,157.013L195.28,156.753L195.288,156.703L104.712,156.703Z" style="fill:rgb(77,77,77);"/>
    </g>
</svg>
