<?xml version="1.0" encoding="UTF-8" standalone="no"?>
<svg
   xmlns:dc="http://purl.org/dc/elements/1.1/"
   xmlns:cc="http://creativecommons.org/ns#"
   xmlns:rdf="http://www.w3.org/1999/02/22-rdf-syntax-ns#"
   xmlns:svg="http://www.w3.org/2000/svg"
   xmlns="http://www.w3.org/2000/svg"
   xmlns:sodipodi="http://sodipodi.sourceforge.net/DTD/sodipodi-0.dtd"
   xmlns:inkscape="http://www.inkscape.org/namespaces/inkscape"
   width="100%"
   height="100%"
   viewBox="0 0 199 86"
   version="1.1"
   xml:space="preserve"
   style="fill-rule:evenodd;clip-rule:evenodd;stroke-linejoin:round;stroke-miterlimit:1.41421;"
   id="svg8"
   sodipodi:docname="camera_dome2.svg"
   inkscape:version="1.0.2 (e86c870879, 2021-01-15)"><metadata
   id="metadata14"><rdf:RDF><cc:Work
       rdf:about=""><dc:format>image/svg+xml</dc:format><dc:type
         rdf:resource="http://purl.org/dc/dcmitype/StillImage" /><dc:title></dc:title></cc:Work></rdf:RDF></metadata><defs
   id="defs12" /><sodipodi:namedview
   pagecolor="#ffffff"
   bordercolor="#666666"
   borderopacity="1"
   objecttolerance="10"
   gridtolerance="10"
   guidetolerance="10"
   inkscape:pageopacity="0"
   inkscape:pageshadow="2"
   inkscape:window-width="702"
   inkscape:window-height="480"
   id="namedview10"
   showgrid="false"
   inkscape:zoom="2"
   inkscape:cx="99.5"
   inkscape:cy="43"
   inkscape:window-x="78"
   inkscape:window-y="27"
   inkscape:window-maximized="0"
   inkscape:current-layer="svg8" />
    <g
   transform="matrix(1,0,0,-1,-50.8618,218.684)"
   id="g6">
        <path
   d="m 241.138,156.703 h -29.669 c -3.93,30.435 -29.971,53.981 -61.469,53.981 -31.498,0 -57.539,-23.546 -61.469,-53.981 H 58.862 v -16 h 182.276 z"
   style="fill:#ffffff"
   id="path2" />
        <path
   d="m 241.138,156.703 h -29.669 l -0.048,0.356 -0.049,0.356 -0.051,0.355 -0.053,0.354 -0.055,0.354 -0.057,0.353 -0.059,0.352 -0.061,0.352 -0.063,0.351 -0.065,0.351 -0.067,0.349 -0.069,0.349 -0.071,0.349 -0.073,0.347 -0.075,0.347 -0.076,0.346 -0.079,0.346 -0.08,0.344 -0.083,0.344 -0.084,0.344 -0.087,0.342 -0.088,0.342 -0.09,0.341 -0.092,0.34 -0.094,0.339 -0.095,0.339 -0.098,0.338 -0.1,0.337 -0.101,0.336 -0.103,0.336 -0.105,0.334 -0.107,0.334 -0.109,0.333 -0.11,0.332 -0.112,0.332 -0.115,0.33 -0.116,0.33 -0.117,0.329 -0.12,0.328 -0.121,0.327 -0.123,0.326 -0.125,0.326 -0.127,0.324 -0.129,0.324 -0.13,0.322 -0.132,0.322 -0.134,0.321 -0.135,0.32 -0.137,0.319 -0.139,0.318 -0.141,0.317 -0.142,0.317 -0.144,0.315 -0.146,0.314 -0.148,0.314 -0.149,0.312 -0.151,0.312 -0.153,0.31 -0.154,0.31 -0.156,0.309 -0.157,0.307 -0.16,0.307 -0.161,0.305 -0.162,0.305 -0.164,0.304 -0.166,0.302 -0.168,0.302 -0.169,0.3 -0.171,0.3 -0.172,0.298 -0.174,0.297 -0.176,0.297 -0.177,0.295 -0.178,0.294 -0.181,0.293 -0.182,0.293 -0.183,0.291 -0.185,0.289 -0.187,0.289 -0.188,0.288 -0.19,0.286 -0.191,0.286 -0.193,0.284 -0.194,0.284 -0.196,0.282 -0.197,0.281 -0.199,0.279 -0.201,0.279 -0.201,0.278 -0.204,0.276 -0.205,0.275 -0.206,0.274 -0.208,0.273 -0.209,0.272 -0.211,0.27 -0.212,0.269 -0.214,0.268 -0.215,0.267 -0.216,0.266 -0.218,0.264 -0.22,0.264 -0.221,0.261 -0.222,0.261 -0.224,0.26 -0.225,0.258 -0.226,0.257 -0.228,0.256 -0.229,0.254 -0.231,0.253 -0.232,0.252 -0.233,0.251 -0.235,0.249 -0.236,0.248 -0.238,0.247 -0.238,0.245 -0.241,0.244 -0.241,0.243 -0.243,0.241 -0.244,0.24 -0.245,0.239 -0.247,0.238 -0.248,0.236 -0.25,0.234 -0.25,0.234 -0.252,0.232 -0.253,0.23 -0.255,0.229 -0.256,0.228 -0.257,0.227 -0.258,0.225 -0.259,0.223 -0.261,0.223 -0.262,0.22 -0.263,0.22 -0.265,0.218 -0.265,0.216 -0.267,0.215 -0.268,0.214 -0.27,0.212 -0.27,0.211 -0.272,0.209 -0.273,0.208 -0.274,0.206 -0.275,0.205 -0.276,0.203 -0.278,0.202 -0.279,0.2 -0.28,0.199 -0.281,0.198 -0.282,0.195 -0.283,0.195 -0.284,0.192 -0.286,0.192 -0.286,0.189 -0.288,0.188 -0.289,0.187 -0.29,0.185 -0.291,0.183 -0.292,0.182 -0.293,0.181 -0.294,0.178 -0.296,0.177 -0.296,0.176 -0.298,0.174 -0.298,0.172 -0.3,0.171 -0.3,0.169 -0.302,0.167 -0.302,0.166 -0.304,0.164 -0.305,0.163 -0.305,0.161 -0.307,0.159 -0.307,0.158 -0.309,0.156 -0.31,0.154 -0.31,0.152 -0.312,0.151 -0.312,0.149 -0.314,0.148 -0.314,0.146 -0.316,0.144 -0.316,0.142 -0.317,0.141 -0.318,0.139 -0.319,0.137 -0.32,0.135 -0.321,0.134 -0.322,0.132 -0.323,0.13 -0.323,0.128 -0.325,0.127 -0.325,0.125 -0.327,0.123 -0.327,0.121 -0.328,0.12 -0.329,0.118 -0.329,0.115 -0.331,0.115 -0.331,0.112 -0.332,0.11 -0.333,0.109 -0.334,0.107 -0.335,0.105 -0.336,0.103 -0.336,0.101 -0.337,0.1 -0.338,0.097 -0.338,0.096 -0.34,0.094 -0.34,0.091 -0.341,0.09 -0.342,0.089 -0.342,0.086 -0.344,0.084 -0.344,0.083 -0.344,0.08 -0.346,0.079 -0.346,0.076 -0.347,0.075 -0.348,0.073 -0.348,0.071 -0.349,0.069 -0.35,0.066 -0.35,0.065 -0.351,0.063 -0.352,0.061 -0.352,0.059 -0.354,0.057 -0.353,0.055 -0.355,0.053 -0.355,0.052 -0.356,0.049 -0.356,0.047 -0.357,0.044 -0.358,0.043 -0.358,0.041 -0.359,0.039 -0.359,0.037 -0.36,0.035 -0.361,0.032 -0.361,0.031 -0.362,0.029 -0.362,0.026 -0.363,0.025 -0.364,0.022 -0.364,0.02 -0.365,0.018 -0.365,0.016 -0.366,0.014 -0.366,0.012 -0.367,0.009 -0.367,0.008 -0.368,0.005 -0.368,0.004 -0.369,0.001 -0.369,-0.001 -0.368,-0.004 -0.368,-0.005 -0.367,-0.008 -0.367,-0.009 -0.366,-0.012 -0.366,-0.014 -0.365,-0.016 -0.365,-0.018 -0.364,-0.02 -0.364,-0.022 -0.363,-0.025 -0.362,-0.026 -0.362,-0.029 -0.361,-0.031 -0.361,-0.032 -0.36,-0.035 -0.359,-0.037 -0.359,-0.039 -0.358,-0.041 -0.358,-0.043 -0.357,-0.044 -0.356,-0.047 -0.356,-0.049 -0.355,-0.052 -0.355,-0.053 -0.353,-0.055 -0.354,-0.057 -0.352,-0.059 -0.352,-0.061 -0.351,-0.063 -0.35,-0.065 -0.35,-0.066 -0.349,-0.069 -0.348,-0.071 -0.348,-0.073 -0.347,-0.075 -0.346,-0.076 -0.346,-0.079 -0.344,-0.08 -0.344,-0.083 -0.344,-0.084 -0.342,-0.086 -0.342,-0.089 -0.341,-0.09 -0.34,-0.091 -0.34,-0.094 -0.338,-0.096 -0.338,-0.097 -0.337,-0.1 -0.336,-0.101 -0.336,-0.103 -0.335,-0.105 -0.334,-0.107 -0.333,-0.109 -0.332,-0.11 -0.331,-0.112 -0.331,-0.115 -0.329,-0.115 -0.329,-0.118 -0.328,-0.12 -0.327,-0.121 -0.327,-0.123 -0.325,-0.125 -0.325,-0.127 -0.323,-0.128 -0.323,-0.13 -0.322,-0.132 -0.321,-0.134 -0.32,-0.135 -0.319,-0.137 -0.318,-0.139 -0.317,-0.141 -0.316,-0.142 -0.316,-0.144 -0.314,-0.146 -0.314,-0.148 -0.312,-0.149 -0.312,-0.151 -0.31,-0.152 -0.31,-0.154 -0.309,-0.156 -0.307,-0.158 -0.307,-0.159 -0.305,-0.161 -0.305,-0.163 -0.304,-0.164 -0.302,-0.166 -0.302,-0.167 -0.3,-0.169 -0.3,-0.171 -0.298,-0.172 -0.298,-0.174 -0.296,-0.176 -0.296,-0.177 -0.294,-0.178 -0.293,-0.181 -0.292,-0.182 -0.291,-0.183 -0.29,-0.185 -0.289,-0.187 -0.288,-0.188 -0.286,-0.189 -0.286,-0.192 -0.284,-0.192 -0.283,-0.195 -0.282,-0.195 -0.281,-0.198 -0.28,-0.199 -0.279,-0.2 -0.278,-0.202 -0.276,-0.203 -0.275,-0.205 -0.274,-0.206 -0.273,-0.208 -0.272,-0.209 -0.27,-0.211 -0.27,-0.212 -0.268,-0.214 -0.267,-0.215 -0.265,-0.216 -0.265,-0.218 -0.263,-0.22 -0.262,-0.22 -0.261,-0.223 -0.259,-0.223 -0.258,-0.225 -0.257,-0.227 -0.256,-0.228 -0.255,-0.229 -0.253,-0.23 -0.252,-0.232 -0.25,-0.234 -0.25,-0.234 -0.248,-0.236 -0.247,-0.238 -0.245,-0.239 -0.244,-0.24 -0.243,-0.241 -0.241,-0.243 -0.241,-0.244 -0.238,-0.245 -0.238,-0.247 -0.236,-0.248 -0.235,-0.249 -0.233,-0.251 -0.232,-0.252 -0.231,-0.253 -0.229,-0.254 -0.228,-0.256 -0.226,-0.257 -0.225,-0.258 -0.224,-0.26 -0.222,-0.261 -0.221,-0.261 -0.22,-0.264 -0.218,-0.264 -0.216,-0.266 -0.215,-0.267 -0.214,-0.268 -0.212,-0.269 -0.211,-0.27 -0.209,-0.272 -0.208,-0.273 -0.206,-0.274 -0.205,-0.275 -0.204,-0.276 -0.201,-0.278 -0.201,-0.279 -0.199,-0.279 -0.197,-0.281 -0.196,-0.282 -0.194,-0.284 -0.193,-0.284 -0.191,-0.286 -0.19,-0.286 -0.188,-0.288 -0.187,-0.289 -0.185,-0.289 -0.183,-0.291 -0.182,-0.293 -0.181,-0.293 -0.178,-0.294 -0.177,-0.295 -0.176,-0.297 -0.174,-0.297 -0.172,-0.298 -0.171,-0.3 -0.169,-0.3 -0.168,-0.302 -0.166,-0.302 -0.164,-0.304 -0.162,-0.305 -0.161,-0.305 -0.16,-0.307 -0.157,-0.307 -0.156,-0.309 -0.154,-0.31 -0.153,-0.31 -0.151,-0.312 -0.149,-0.312 -0.148,-0.314 -0.146,-0.314 -0.144,-0.315 -0.142,-0.317 -0.141,-0.317 -0.139,-0.318 -0.137,-0.319 -0.135,-0.32 -0.134,-0.321 -0.132,-0.322 -0.13,-0.322 -0.129,-0.324 -0.127,-0.324 -0.125,-0.326 -0.123,-0.326 -0.121,-0.327 -0.12,-0.328 -0.117,-0.329 -0.116,-0.33 -0.115,-0.33 -0.112,-0.332 -0.11,-0.332 -0.109,-0.333 -0.107,-0.334 -0.105,-0.334 -0.103,-0.336 -0.101,-0.336 -0.1,-0.337 -0.098,-0.338 -0.095,-0.339 -0.094,-0.339 -0.092,-0.34 -0.09,-0.341 -0.088,-0.342 -0.087,-0.342 -0.084,-0.344 -0.083,-0.344 -0.08,-0.344 -0.079,-0.346 -0.076,-0.346 -0.075,-0.347 -0.073,-0.347 -0.071,-0.349 -0.069,-0.349 -0.067,-0.349 -0.065,-0.351 -0.063,-0.351 -0.061,-0.352 -0.059,-0.352 -0.057,-0.353 -0.055,-0.354 -0.053,-0.354 -0.051,-0.355 -0.049,-0.356 -0.048,-0.356 H 58.862 v -16 h 182.276 z m -136.426,0 0.008,0.05 0.047,0.26 0.048,0.26 0.05,0.259 0.051,0.258 0.052,0.258 0.054,0.257 0.056,0.257 0.056,0.256 0.059,0.255 0.059,0.256 0.061,0.254 0.063,0.254 0.063,0.253 0.066,0.253 0.066,0.252 0.068,0.252 0.07,0.251 0.071,0.251 0.072,0.25 0.073,0.249 0.075,0.248 0.077,0.249 0.077,0.247 0.079,0.247 0.081,0.246 0.082,0.246 0.083,0.245 0.084,0.245 0.086,0.244 0.087,0.243 0.089,0.243 0.089,0.242 0.091,0.241 0.093,0.241 0.094,0.24 0.095,0.239 0.096,0.239 0.098,0.238 0.099,0.238 0.1,0.237 0.102,0.236 0.103,0.236 0.104,0.235 0.105,0.234 0.107,0.233 0.108,0.233 0.109,0.232 0.111,0.232 0.112,0.231 0.113,0.23 0.114,0.229 0.115,0.229 0.117,0.228 0.118,0.227 0.12,0.226 0.12,0.226 0.122,0.225 0.123,0.225 0.124,0.223 0.126,0.223 0.126,0.222 0.128,0.222 0.129,0.22 0.13,0.22 0.132,0.219 0.132,0.219 0.134,0.217 0.135,0.217 0.136,0.216 0.138,0.215 0.138,0.214 0.14,0.214 0.141,0.213 0.142,0.212 0.143,0.211 0.144,0.21 0.146,0.21 0.147,0.209 0.147,0.207 0.149,0.207 0.15,0.207 0.151,0.205 0.152,0.204 0.154,0.204 0.154,0.203 0.156,0.202 0.156,0.201 0.158,0.2 0.159,0.199 0.16,0.199 0.161,0.197 0.162,0.196 0.163,0.196 0.164,0.195 0.166,0.194 0.166,0.193 0.167,0.192 0.169,0.191 0.169,0.19 0.171,0.189 0.171,0.189 0.173,0.187 0.173,0.186 0.175,0.186 0.175,0.184 0.177,0.184 0.178,0.182 0.178,0.182 0.18,0.18 0.18,0.18 0.182,0.178 0.183,0.178 0.183,0.177 0.185,0.175 0.185,0.175 0.186,0.173 0.188,0.173 0.188,0.171 0.189,0.171 0.191,0.169 0.191,0.168 0.192,0.168 0.193,0.166 0.194,0.165 0.194,0.164 0.196,0.164 0.197,0.162 0.197,0.161 0.199,0.159 0.199,0.159 0.2,0.158 0.201,0.157 0.202,0.155 0.203,0.154 0.203,0.154 0.205,0.152 0.205,0.151 0.206,0.15 0.208,0.149 0.207,0.148 0.209,0.146 0.21,0.146 0.21,0.144 0.211,0.143 0.212,0.142 0.213,0.141 0.214,0.139 0.214,0.139 0.215,0.137 0.216,0.136 0.217,0.135 0.218,0.134 0.218,0.133 0.219,0.131 0.22,0.13 0.221,0.129 0.221,0.128 0.222,0.127 0.223,0.125 0.224,0.124 0.224,0.123 0.225,0.122 0.226,0.121 0.227,0.119 0.227,0.118 0.228,0.117 0.229,0.115 0.229,0.114 0.23,0.113 0.231,0.112 0.231,0.111 0.233,0.109 0.232,0.108 0.234,0.107 0.234,0.105 0.235,0.104 0.236,0.103 0.236,0.102 0.237,0.1 0.237,0.099 0.239,0.097 0.238,0.097 0.24,0.095 0.24,0.094 0.241,0.092 0.241,0.091 0.242,0.09 0.243,0.088 0.243,0.087 0.244,0.086 0.245,0.085 0.245,0.083 0.246,0.081 0.246,0.081 0.247,0.079 0.247,0.077 0.249,0.077 0.248,0.074 0.25,0.074 0.25,0.072 0.25,0.071 0.251,0.069 0.252,0.068 0.252,0.067 0.253,0.065 0.253,0.064 0.254,0.062 0.255,0.061 0.255,0.06 0.256,0.058 0.256,0.057 0.257,0.055 0.257,0.054 0.258,0.052 0.258,0.051 0.259,0.05 0.259,0.048 0.26,0.047 0.261,0.045 0.261,0.043 0.262,0.043 0.262,0.04 0.263,0.04 0.263,0.038 0.263,0.036 0.265,0.035 0.264,0.033 0.266,0.032 0.266,0.03 0.266,0.029 0.267,0.028 0.267,0.025 0.268,0.025 0.268,0.022 0.269,0.022 0.27,0.019 0.27,0.018 0.27,0.017 0.271,0.015 0.271,0.014 0.272,0.011 0.273,0.011 0.273,0.009 0.273,0.007 0.274,0.005 0.275,0.004 0.274,0.003 0.276,0.001 0.276,-0.001 0.274,-0.003 0.275,-0.004 0.274,-0.005 0.273,-0.007 0.273,-0.009 0.273,-0.011 0.272,-0.011 0.271,-0.014 0.271,-0.015 0.27,-0.017 0.27,-0.018 0.27,-0.019 0.269,-0.022 0.268,-0.022 0.268,-0.025 0.267,-0.025 0.267,-0.028 0.266,-0.029 0.266,-0.03 0.266,-0.032 0.264,-0.033 0.265,-0.035 0.263,-0.036 0.263,-0.038 0.263,-0.04 0.262,-0.04 0.262,-0.043 0.261,-0.043 0.261,-0.045 0.26,-0.047 0.259,-0.048 0.259,-0.05 0.258,-0.051 0.258,-0.052 0.257,-0.054 0.257,-0.055 0.256,-0.057 0.256,-0.058 0.255,-0.06 0.255,-0.061 0.254,-0.062 0.253,-0.064 0.253,-0.065 0.252,-0.067 0.252,-0.068 0.251,-0.069 0.25,-0.071 0.25,-0.072 0.25,-0.074 0.248,-0.074 0.249,-0.077 0.247,-0.077 0.247,-0.079 0.246,-0.081 0.246,-0.081 0.245,-0.083 0.245,-0.085 0.244,-0.086 0.243,-0.087 0.243,-0.088 0.242,-0.09 0.241,-0.091 0.241,-0.092 0.24,-0.094 0.24,-0.095 0.238,-0.097 0.239,-0.097 0.237,-0.099 0.237,-0.1 0.236,-0.102 0.236,-0.103 0.235,-0.104 0.234,-0.105 0.234,-0.107 0.232,-0.108 0.233,-0.109 0.231,-0.111 0.231,-0.112 0.23,-0.113 0.23,-0.114 0.228,-0.115 0.228,-0.117 0.228,-0.118 0.226,-0.119 0.226,-0.121 0.225,-0.122 0.224,-0.123 0.224,-0.124 0.223,-0.125 0.222,-0.127 0.221,-0.128 0.221,-0.129 0.22,-0.13 0.219,-0.131 0.218,-0.133 0.218,-0.134 0.217,-0.135 0.216,-0.136 0.215,-0.137 0.214,-0.139 0.214,-0.139 0.213,-0.141 0.212,-0.142 0.211,-0.143 0.21,-0.144 0.21,-0.146 0.208,-0.146 0.208,-0.148 0.208,-0.149 0.206,-0.15 0.205,-0.151 0.205,-0.152 0.203,-0.154 0.203,-0.154 0.202,-0.155 0.201,-0.157 0.2,-0.158 0.2,-0.159 0.198,-0.159 0.197,-0.161 0.197,-0.162 0.196,-0.164 0.194,-0.164 0.194,-0.165 0.193,-0.166 0.192,-0.168 0.191,-0.168 0.191,-0.169 0.189,-0.171 0.188,-0.171 0.188,-0.173 0.186,-0.173 0.185,-0.175 0.185,-0.176 0.183,-0.176 0.183,-0.178 0.182,-0.178 0.18,-0.18 0.18,-0.18 0.178,-0.182 0.178,-0.182 0.177,-0.184 0.175,-0.184 0.175,-0.186 0.173,-0.186 0.173,-0.188 0.171,-0.188 0.171,-0.189 0.169,-0.19 0.169,-0.191 0.167,-0.192 0.166,-0.193 0.166,-0.194 0.164,-0.195 0.163,-0.195 0.162,-0.197 0.161,-0.197 0.16,-0.199 0.159,-0.199 0.158,-0.2 0.156,-0.201 0.156,-0.202 0.154,-0.203 0.154,-0.204 0.152,-0.204 0.151,-0.205 0.15,-0.206 0.149,-0.208 0.147,-0.207 0.147,-0.209 0.146,-0.21 0.144,-0.21 0.143,-0.211 0.142,-0.212 0.141,-0.213 0.14,-0.214 0.138,-0.214 0.138,-0.215 0.136,-0.216 0.135,-0.217 0.134,-0.217 0.132,-0.219 0.132,-0.219 0.13,-0.22 0.129,-0.22 0.128,-0.222 0.126,-0.222 0.126,-0.223 0.124,-0.223 0.123,-0.224 0.122,-0.226 0.12,-0.226 0.12,-0.226 0.118,-0.227 0.116,-0.228 0.116,-0.229 0.114,-0.229 0.113,-0.23 0.112,-0.231 0.111,-0.231 0.109,-0.233 0.108,-0.233 0.107,-0.233 0.105,-0.235 0.104,-0.234 0.103,-0.236 0.102,-0.236 0.1,-0.237 0.099,-0.237 0.098,-0.239 0.096,-0.239 0.095,-0.239 0.094,-0.24 0.093,-0.241 0.091,-0.242 0.089,-0.241 0.089,-0.243 0.087,-0.243 0.086,-0.244 0.084,-0.245 0.083,-0.245 0.082,-0.245 0.081,-0.247 0.079,-0.247 0.077,-0.247 0.077,-0.248 0.075,-0.249 0.073,-0.25 0.072,-0.249 0.071,-0.251 0.07,-0.251 0.068,-0.252 0.066,-0.252 0.065,-0.252 0.064,-0.254 0.063,-0.254 0.061,-0.255 0.059,-0.254 0.059,-0.256 0.056,-0.256 0.056,-0.257 0.054,-0.257 0.052,-0.258 0.051,-0.259 0.05,-0.258 0.048,-0.26 0.047,-0.26 0.008,-0.05 z"
   style="fill:#4d4d4d"
   id="path4" />
    </g>
</svg>
