<?xml version="1.0" encoding="UTF-8" standalone="no"?>
<!DOCTYPE svg PUBLIC "-//W3C//DTD SVG 1.1//EN" "http://www.w3.org/Graphics/SVG/1.1/DTD/svg11.dtd">
<svg width="100%" height="100%" viewBox="0 0 144 188" version="1.1" xmlns="http://www.w3.org/2000/svg" xmlns:xlink="http://www.w3.org/1999/xlink" xml:space="preserve" xmlns:serif="http://www.serif.com/" style="fill-rule:evenodd;clip-rule:evenodd;stroke-linejoin:round;stroke-miterlimit:1.41421;">
    <g transform="matrix(1.27352,0,0,1.1454,-119.374,-106.503)">
        <path d="M200.03,111.246C200.03,105.021 195.485,99.968 189.886,99.968L110.161,99.968C104.562,99.968 100.017,105.021 100.017,111.246L100.017,238.686C100.017,244.91 104.562,249.964 110.161,249.964L189.886,249.964C195.485,249.964 200.03,244.91 200.03,238.686L200.03,111.246Z" style="fill:rgb(255,254,254);"/>
        <path d="M190.017,99.969L190.148,99.971L190.278,99.976L190.408,99.982L190.537,99.991L190.666,100.001L190.795,100.013L190.923,100.026L191.05,100.041L191.177,100.058L191.304,100.077L191.43,100.098L191.556,100.12L191.681,100.144L191.805,100.17L191.929,100.197L192.053,100.226L192.176,100.257L192.298,100.289L192.42,100.323L192.541,100.359L192.662,100.396L192.782,100.435L192.901,100.475L193.02,100.517L193.138,100.561L193.256,100.606L193.372,100.653L193.489,100.701L193.604,100.751L193.719,100.802L193.833,100.855L193.946,100.909L194.059,100.965L194.171,101.022L194.282,101.081L194.393,101.141L194.502,101.202L194.611,101.265L194.72,101.33L194.827,101.396L194.934,101.463L195.039,101.532L195.144,101.601L195.248,101.673L195.352,101.746L195.454,101.82L195.556,101.895L195.657,101.972L195.756,102.05L195.855,102.129L195.954,102.21L196.051,102.291L196.147,102.374L196.242,102.459L196.337,102.544L196.43,102.631L196.523,102.719L196.614,102.809L196.705,102.899L196.795,102.991L196.883,103.083L196.971,103.177L197.057,103.273L197.143,103.369L197.227,103.466L197.311,103.565L197.393,103.664L197.475,103.765L197.555,103.867L197.634,103.97L197.712,104.074L197.789,104.179L197.865,104.285L197.94,104.392L198.013,104.5L198.086,104.609L198.157,104.719L198.227,104.83L198.296,104.942L198.364,105.055L198.431,105.169L198.496,105.284L198.56,105.4L198.623,105.516L198.685,105.634L198.745,105.752L198.805,105.872L198.863,105.992L198.919,106.113L198.975,106.235L199.029,106.358L199.081,106.482L199.133,106.606L199.183,106.731L199.232,106.858L199.279,106.984L199.326,107.112L199.37,107.24L199.414,107.37L199.456,107.499L199.496,107.63L199.535,107.761L199.573,107.893L199.61,108.026L199.644,108.16L199.678,108.294L199.71,108.429L199.741,108.564L199.77,108.7L199.797,108.837L199.823,108.974L199.848,109.112L199.871,109.25L199.893,109.389L199.913,109.529L199.931,109.669L199.948,109.81L199.963,109.951L199.977,110.093L199.989,110.236L200,110.378L200.009,110.522L200.016,110.666L200.022,110.81L200.026,110.955L200.029,111.1L200.03,111.246L200.03,238.686L200.029,238.831L200.026,238.977L200.022,239.121L200.016,239.266L200.009,239.41L200,239.553L199.989,239.696L199.977,239.838L199.963,239.98L199.948,240.121L199.931,240.262L199.913,240.402L199.893,240.542L199.871,240.681L199.848,240.82L199.823,240.957L199.797,241.095L199.77,241.231L199.741,241.367L199.71,241.503L199.678,241.638L199.644,241.772L199.61,241.905L199.573,242.038L199.535,242.17L199.496,242.301L199.456,242.432L199.414,242.562L199.37,242.691L199.326,242.819L199.279,242.947L199.232,243.074L199.183,243.2L199.133,243.325L199.081,243.45L199.029,243.573L198.975,243.696L198.919,243.818L198.863,243.939L198.805,244.06L198.745,244.179L198.685,244.297L198.623,244.415L198.56,244.532L198.496,244.648L198.431,244.763L198.364,244.876L198.296,244.989L198.227,245.101L198.157,245.213L198.086,245.323L198.013,245.432L197.94,245.54L197.865,245.647L197.789,245.753L197.712,245.858L197.634,245.962L197.555,246.065L197.475,246.166L197.393,246.267L197.311,246.367L197.227,246.465L197.143,246.563L197.057,246.659L196.971,246.754L196.883,246.848L196.795,246.941L196.705,247.032L196.614,247.123L196.523,247.212L196.43,247.3L196.337,247.387L196.242,247.473L196.147,247.557L196.051,247.64L195.954,247.722L195.855,247.802L195.756,247.882L195.657,247.96L195.556,248.036L195.454,248.112L195.352,248.186L195.248,248.259L195.144,248.33L195.039,248.4L194.934,248.468L194.827,248.536L194.72,248.602L194.611,248.666L194.502,248.729L194.393,248.791L194.282,248.851L194.171,248.909L194.059,248.967L193.946,249.022L193.833,249.077L193.719,249.129L193.604,249.181L193.489,249.231L193.372,249.279L193.256,249.325L193.138,249.371L193.02,249.414L192.901,249.456L192.782,249.497L192.662,249.535L192.541,249.573L192.42,249.608L192.298,249.642L192.176,249.675L192.053,249.705L191.929,249.734L191.805,249.762L191.681,249.787L191.556,249.811L191.43,249.834L191.304,249.854L191.177,249.873L191.05,249.89L190.923,249.905L190.795,249.919L190.666,249.931L190.537,249.941L190.408,249.949L190.278,249.955L190.148,249.96L190.017,249.963L189.886,249.964L110.161,249.964L110.03,249.963L109.899,249.96L109.769,249.955L109.639,249.949L109.51,249.941L109.381,249.931L109.252,249.919L109.124,249.905L108.996,249.89L108.869,249.873L108.743,249.854L108.617,249.834L108.491,249.811L108.366,249.787L108.241,249.762L108.117,249.734L107.994,249.705L107.871,249.675L107.749,249.642L107.627,249.608L107.506,249.573L107.385,249.535L107.265,249.497L107.146,249.456L107.027,249.414L106.909,249.371L106.791,249.325L106.674,249.279L106.558,249.231L106.443,249.181L106.328,249.129L106.214,249.077L106.101,249.022L105.988,248.967L105.876,248.909L105.765,248.851L105.654,248.791L105.544,248.729L105.436,248.666L105.327,248.602L105.22,248.536L105.113,248.468L105.008,248.4L104.903,248.33L104.798,248.259L104.695,248.186L104.593,248.112L104.491,248.036L104.39,247.96L104.29,247.882L104.191,247.802L104.093,247.722L103.996,247.64L103.9,247.557L103.804,247.473L103.71,247.387L103.617,247.3L103.524,247.212L103.433,247.123L103.342,247.032L103.252,246.941L103.164,246.848L103.076,246.754L102.99,246.659L102.904,246.563L102.82,246.465L102.736,246.367L102.654,246.267L102.572,246.166L102.492,246.065L102.413,245.962L102.335,245.858L102.258,245.753L102.182,245.647L102.107,245.54L102.034,245.432L101.961,245.323L101.89,245.213L101.82,245.101L101.751,244.989L101.683,244.876L101.616,244.763L101.551,244.648L101.487,244.532L101.424,244.415L101.362,244.297L101.302,244.179L101.242,244.06L101.184,243.939L101.128,243.818L101.072,243.696L101.018,243.573L100.965,243.45L100.914,243.325L100.864,243.2L100.815,243.074L100.767,242.947L100.721,242.819L100.677,242.691L100.633,242.562L100.591,242.432L100.551,242.301L100.511,242.17L100.474,242.038L100.437,241.905L100.402,241.772L100.369,241.638L100.337,241.503L100.306,241.367L100.277,241.231L100.25,241.095L100.224,240.957L100.199,240.82L100.176,240.681L100.154,240.542L100.134,240.402L100.116,240.262L100.099,240.121L100.084,239.98L100.07,239.838L100.058,239.696L100.047,239.553L100.038,239.41L100.031,239.266L100.025,239.121L100.021,238.977L100.018,238.831L100.017,238.686L100.017,111.246L100.018,111.1L100.021,110.955L100.025,110.81L100.031,110.666L100.038,110.522L100.047,110.378L100.058,110.236L100.07,110.093L100.084,109.951L100.099,109.81L100.116,109.669L100.134,109.529L100.154,109.389L100.176,109.25L100.199,109.112L100.224,108.974L100.25,108.837L100.277,108.7L100.306,108.564L100.337,108.429L100.369,108.294L100.402,108.16L100.437,108.026L100.474,107.893L100.511,107.761L100.551,107.63L100.591,107.499L100.633,107.37L100.677,107.24L100.721,107.112L100.767,106.984L100.815,106.858L100.864,106.731L100.914,106.606L100.965,106.482L101.018,106.358L101.072,106.235L101.128,106.113L101.184,105.992L101.242,105.872L101.302,105.752L101.362,105.634L101.424,105.516L101.487,105.4L101.551,105.284L101.616,105.169L101.683,105.055L101.751,104.942L101.82,104.83L101.89,104.719L101.961,104.609L102.034,104.5L102.107,104.392L102.182,104.285L102.258,104.179L102.335,104.074L102.413,103.97L102.492,103.867L102.572,103.765L102.654,103.664L102.736,103.565L102.82,103.466L102.904,103.369L102.99,103.273L103.076,103.177L103.164,103.083L103.252,102.991L103.342,102.899L103.433,102.809L103.524,102.719L103.617,102.631L103.71,102.544L103.804,102.459L103.9,102.374L103.996,102.291L104.093,102.21L104.191,102.129L104.29,102.05L104.39,101.972L104.491,101.895L104.593,101.82L104.695,101.746L104.798,101.673L104.903,101.601L105.008,101.532L105.113,101.463L105.22,101.396L105.327,101.33L105.436,101.265L105.544,101.202L105.654,101.141L105.765,101.081L105.876,101.022L105.988,100.965L106.101,100.909L106.214,100.855L106.328,100.802L106.443,100.751L106.558,100.701L106.674,100.653L106.791,100.606L106.909,100.561L107.027,100.517L107.146,100.475L107.265,100.435L107.385,100.396L107.506,100.359L107.627,100.323L107.749,100.289L107.871,100.257L107.994,100.226L108.117,100.197L108.241,100.17L108.366,100.144L108.491,100.12L108.617,100.098L108.743,100.077L108.869,100.058L108.996,100.041L109.124,100.026L109.252,100.013L109.381,100.001L109.51,99.991L109.639,99.982L109.769,99.976L109.899,99.971L110.03,99.969L110.161,99.968L189.886,99.968L190.017,99.969ZM112.581,113.937L112.581,235.995L187.466,235.995L187.466,113.937L112.581,113.937Z" style="fill:rgb(77,77,77);"/>
    </g>
    <g transform="matrix(0.534164,0,0,0.534164,-8.44058,103.075)">
        <circle cx="150" cy="128.591" r="9.36" style="fill:white;"/>
    </g>
</svg>
