<?xml version="1.0" encoding="UTF-8" standalone="no"?>
<!DOCTYPE svg PUBLIC "-//W3C//DTD SVG 1.1//EN" "http://www.w3.org/Graphics/SVG/1.1/DTD/svg11.dtd">
<svg width="100%" height="100%" viewBox="0 0 200 142" version="1.1" xmlns="http://www.w3.org/2000/svg" xmlns:xlink="http://www.w3.org/1999/xlink" xml:space="preserve" xmlns:serif="http://www.serif.com/" style="fill-rule:evenodd;clip-rule:evenodd;stroke-linejoin:round;stroke-miterlimit:1.41421;">
    <g transform="matrix(1,0,0,1,-49.9796,-80.3779)">
        <path d="M121.564,153.868C113.065,146.14 107.726,134.996 107.726,122.615C107.726,99.304 126.652,80.378 149.963,80.378C173.274,80.378 192.2,99.304 192.2,122.615C192.2,134.996 186.861,146.14 178.362,153.868C211.914,163.225 238.755,188.747 249.946,221.496L49.98,221.496C61.171,188.747 88.012,163.225 121.564,153.868ZM225.453,205.598C209.224,181.172 181.46,165.059 149.963,165.059C118.466,165.059 90.702,181.172 74.472,205.598L225.453,205.598ZM150.098,150C165.151,149.927 177.349,137.684 177.349,122.615C177.349,107.5 165.078,95.228 149.963,95.228C134.848,95.228 122.577,107.5 122.577,122.615C122.577,137.684 134.775,149.927 149.827,150L149.963,150L150.098,150Z" style="fill:rgb(77,77,77);"/>
    </g>
</svg>
