<?xml version="1.0" encoding="UTF-8" standalone="no"?>
<!DOCTYPE svg PUBLIC "-//W3C//DTD SVG 1.1//EN" "http://www.w3.org/Graphics/SVG/1.1/DTD/svg11.dtd">
<svg width="100%" height="100%" viewBox="0 0 300 300" version="1.1" xmlns="http://www.w3.org/2000/svg" xmlns:xlink="http://www.w3.org/1999/xlink" xml:space="preserve" xmlns:serif="http://www.serif.com/" style="fill-rule:evenodd;clip-rule:evenodd;stroke-linejoin:round;stroke-miterlimit:2;">
    <g>
        <circle cx="150" cy="150" r="150" style="fill:rgb(255,254,254);"/>
        <path d="M150,0C232.787,0 300,67.213 300,150C300,232.787 232.787,300 150,300C67.213,300 0,232.787 0,150C0,67.213 67.213,0 150,0ZM150,16C223.957,16 284,76.043 284,150C284,223.957 223.957,284 150,284C76.043,284 16,223.957 16,150C16,76.043 76.043,16 150,16Z" style="fill:rgb(45,103,185);"/>
    </g>
    <path d="M178.937,160.122L178.937,190.414C178.937,195.68 174.662,199.955 169.396,199.955L74.938,199.955C69.673,199.955 65.398,195.68 65.398,190.414L65.398,109.509C65.398,104.243 69.673,99.968 74.938,99.968L169.396,99.968C174.662,99.968 178.937,104.243 178.937,109.509L178.937,139.8L235.568,99.968L235.568,199.955L178.937,160.122ZM164.491,115.903L79.844,115.903L79.844,184.097L164.491,184.097L164.491,115.903ZM192.64,149.961L219.295,131.213L219.295,168.709L192.64,149.961Z" style="fill:rgb(45,103,185);"/>
</svg>
