<?xml version="1.0" encoding="UTF-8" standalone="no"?>
<!DOCTYPE svg PUBLIC "-//W3C//DTD SVG 1.1//EN" "http://www.w3.org/Graphics/SVG/1.1/DTD/svg11.dtd">
<svg width="100%" height="100%" viewBox="0 0 300 300" version="1.1" xmlns="http://www.w3.org/2000/svg" xmlns:xlink="http://www.w3.org/1999/xlink" xml:space="preserve" xmlns:serif="http://www.serif.com/" style="fill-rule:evenodd;clip-rule:evenodd;stroke-linejoin:round;stroke-miterlimit:2;">
    <g>
        <circle cx="150" cy="150" r="150" style="fill:rgb(255,254,254);"/>
        <path d="M150,0C232.787,0 300,67.213 300,150C300,232.787 232.787,300 150,300C67.213,300 0,232.787 0,150C0,67.213 67.213,0 150,0ZM150,16C223.957,16 284,76.043 284,150C284,223.957 223.957,284 150,284C76.043,284 16,223.957 16,150C16,76.043 76.043,16 150,16Z" style="fill:rgb(45,103,185);"/>
        <g transform="matrix(0.796862,0,0,0.796862,30.4729,37.1879)">
            <path d="M216.943,234.5C216.943,230.502 213.697,227.257 209.7,227.257L90.3,227.257C86.303,227.257 83.057,230.502 83.057,234.5C83.057,238.497 86.303,241.743 90.3,241.743L209.7,241.743C213.697,241.743 216.943,238.497 216.943,234.5ZM250.015,71.91C250.015,63.45 243.146,56.581 234.686,56.581L65.308,56.581C56.848,56.581 49.98,63.45 49.98,71.91L49.98,185.253C49.98,193.713 56.848,200.581 65.308,200.581L234.686,200.581C243.146,200.581 250.015,193.713 250.015,185.253L250.015,71.91ZM235.604,71.402L65.604,71.402L65.604,185.402L235.604,185.402L235.604,71.402Z" style="fill:rgb(45,103,185);"/>
        </g>
        <g transform="matrix(0.306459,0,0,0.306459,102.851,96.9674)">
            <path d="M68.751,82.244L153.879,131.92L238.287,82.244L153.879,31.058L68.751,82.244Z" style="fill:rgb(45,103,185);"/>
        </g>
        <g transform="matrix(0.306459,0,0,0.306459,102.851,96.9674)">
            <path d="M59.634,99.464L144.594,148.484L144.594,246.56L59.634,197.919L59.634,99.464Z" style="fill:rgb(45,103,185);"/>
        </g>
        <g transform="matrix(0.306459,0,0,0.306459,102.851,96.9674)">
            <path d="M162.579,149.166L248.083,99.464L248.083,197.678L162.579,246.56L162.579,149.166Z" style="fill:rgb(45,103,185);"/>
        </g>
    </g>
</svg>
