<?xml version="1.0" encoding="UTF-8" standalone="no"?>
<!DOCTYPE svg PUBLIC "-//W3C//DTD SVG 1.1//EN" "http://www.w3.org/Graphics/SVG/1.1/DTD/svg11.dtd">
<svg width="100%" height="100%" viewBox="0 0 300 300" version="1.1" xmlns="http://www.w3.org/2000/svg" xmlns:xlink="http://www.w3.org/1999/xlink" xml:space="preserve" xmlns:serif="http://www.serif.com/" style="fill-rule:evenodd;clip-rule:evenodd;stroke-linejoin:round;stroke-miterlimit:2;">
    <g>
        <circle cx="150" cy="150" r="150" style="fill:rgb(255,254,254);"/>
        <path d="M150,0C232.787,0 300,67.213 300,150C300,232.787 232.787,300 150,300C67.213,300 0,232.787 0,150C0,67.213 67.213,0 150,0ZM150,16C223.957,16 284,76.043 284,150C284,223.957 223.957,284 150,284C76.043,284 16,223.957 16,150C16,76.043 76.043,16 150,16Z" style="fill:rgb(45,103,185);"/>
        <g transform="matrix(1.34621,0,0,1.34621,-39.85,-20.5565)">
            <path d="M180.131,174.282L180.131,175.422C180.131,186.506 177.407,199.955 155.026,199.955L123.37,199.955C100.961,199.955 98.234,186.506 98.234,175.422L98.234,122.818C98.234,122.586 98.423,122.399 98.655,122.399L98.655,122.399L139.208,122.573L179.711,122.399L179.711,122.399C179.942,122.399 180.13,122.586 180.131,122.818L180.131,131.011C192.072,131.011 201.766,140.706 201.766,152.646C201.766,164.587 192.072,174.282 180.131,174.282ZM180.131,138.883L180.131,166.409C187.727,166.409 193.894,160.242 193.894,152.646C193.894,145.05 187.727,138.883 180.131,138.883ZM118.502,57.692C118.502,57.692 125.61,69.531 120.498,82.602C110.514,108.134 130.224,111.086 130.224,111.086C130.224,111.086 120.603,105.706 128.877,86.055C137.248,66.171 118.502,57.692 118.502,57.692ZM142.001,41.902C142.001,41.902 151.979,52.726 144.743,76.665C135.047,108.742 157.05,111.245 159.186,111.079C161.323,110.913 145.958,108.41 157.564,75.671C166.108,51.569 142.001,41.902 142.001,41.902Z" style="fill:rgb(45,103,185);"/>
            <path d="M180.131,174.282L180.131,175.422C180.131,186.506 177.407,199.955 155.026,199.955L123.37,199.955C100.961,199.955 98.234,186.506 98.234,175.422L98.234,122.818C98.234,122.586 98.423,122.399 98.655,122.399L98.655,122.399L139.208,122.573L179.711,122.399L179.711,122.399C179.942,122.399 180.13,122.586 180.131,122.818L180.131,131.011C192.072,131.011 201.766,140.706 201.766,152.646C201.766,164.587 192.072,174.282 180.131,174.282ZM102.319,126.5L102.319,175.422C102.319,180.968 102.845,187.323 107.536,191.441C110.73,194.243 115.739,195.869 123.37,195.869C123.37,195.869 155.026,195.869 155.026,195.869C162.645,195.869 167.647,194.244 170.835,191.442C175.521,187.324 176.046,180.969 176.046,175.422L176.046,174.282C176.046,172.405 177.312,170.823 179.037,170.346C177.312,169.868 176.046,168.287 176.046,166.409L176.046,138.883C176.046,137.006 177.312,135.425 179.037,134.947C177.312,134.47 176.046,132.888 176.046,131.011L176.046,126.5L139.226,126.658C139.214,126.658 139.202,126.658 139.19,126.658L102.319,126.5ZM180.131,138.883L180.131,166.409C187.727,166.409 193.894,160.242 193.894,152.646C193.894,145.05 187.727,138.883 180.131,138.883ZM98.655,126.484L98.655,126.484C98.655,126.484 98.655,126.484 98.655,126.484ZM179.71,126.484L179.711,126.484L179.71,126.484ZM118.502,57.692C118.502,57.692 125.61,69.531 120.498,82.602C110.514,108.134 130.224,111.086 130.224,111.086C130.224,111.086 120.603,105.706 128.877,86.055C137.248,66.171 118.502,57.692 118.502,57.692ZM142.001,41.902C142.001,41.902 151.979,52.726 144.743,76.665C135.047,108.742 157.05,111.245 159.186,111.079C161.323,110.913 145.958,108.41 157.564,75.671C166.108,51.569 142.001,41.902 142.001,41.902ZM151.032,53.78C151.925,59.813 151.694,67.788 148.654,77.847C145.258,89.08 145.957,96.171 148.553,100.627C148.861,101.155 149.194,101.642 149.546,102.089C149.047,99.273 148.905,95.775 149.424,91.425C149.972,86.838 151.266,81.207 153.713,74.306C156.976,65.1 154.614,58.382 151.032,53.78ZM126.412,72.33C126.461,75.977 125.91,79.98 124.303,84.09C122.393,88.974 121.66,92.864 121.751,95.963C122.215,92.71 123.244,88.904 125.111,84.469C127.158,79.609 127.322,75.591 126.412,72.33Z" style="fill:rgb(45,103,185);"/>
        </g>
    </g>
</svg>
