<?xml version="1.0" encoding="UTF-8" standalone="no"?>
<!DOCTYPE svg PUBLIC "-//W3C//DTD SVG 1.1//EN" "http://www.w3.org/Graphics/SVG/1.1/DTD/svg11.dtd">
<svg width="100%" height="100%" viewBox="0 0 300 300" version="1.1" xmlns="http://www.w3.org/2000/svg" xmlns:xlink="http://www.w3.org/1999/xlink" xml:space="preserve" xmlns:serif="http://www.serif.com/" style="fill-rule:evenodd;clip-rule:evenodd;stroke-linejoin:round;stroke-miterlimit:2;">
    <g>
        <circle cx="150" cy="150" r="150" style="fill:rgb(255,254,254);"/>
        <path d="M150,0C232.787,0 300,67.213 300,150C300,232.787 232.787,300 150,300C67.213,300 0,232.787 0,150C0,67.213 67.213,0 150,0ZM150,16C223.957,16 284,76.043 284,150C284,223.957 223.957,284 150,284C76.043,284 16,223.957 16,150C16,76.043 76.043,16 150,16Z" style="fill:rgb(45,103,185);"/>
        <path d="M169.165,166.199L139.459,199.936L87.731,199.936C83.316,199.936 79.731,203.521 79.731,207.936C79.731,212.352 83.316,215.936 87.731,215.936L143.168,215.936C145.937,215.936 148.38,214.526 149.816,212.385L179.079,179.151L224.613,179.151C229.028,179.151 232.613,175.567 232.613,171.151C232.613,166.736 229.028,163.151 224.613,163.151L175.446,163.151C172.9,163.151 170.631,164.343 169.165,166.199ZM169.165,133.716L139.459,99.978L87.731,99.978C83.316,99.978 79.731,96.394 79.731,91.978C79.731,87.563 83.316,83.979 87.731,83.978L143.168,83.978C145.937,83.979 148.38,85.389 149.816,87.53L179.079,120.763L224.613,120.763C229.028,120.763 232.613,124.348 232.613,128.763C232.613,133.179 229.028,136.763 224.613,136.763L175.446,136.763C172.9,136.763 170.631,135.572 169.165,133.716Z" style="fill:rgb(45,103,185);"/>
    </g>
</svg>
