<?xml version="1.0" encoding="UTF-8" standalone="no"?>
<!DOCTYPE svg PUBLIC "-//W3C//DTD SVG 1.1//EN" "http://www.w3.org/Graphics/SVG/1.1/DTD/svg11.dtd">
<svg width="100%" height="100%" viewBox="0 0 300 300" version="1.1" xmlns="http://www.w3.org/2000/svg" xmlns:xlink="http://www.w3.org/1999/xlink" xml:space="preserve" xmlns:serif="http://www.serif.com/" style="fill-rule:evenodd;clip-rule:evenodd;stroke-linejoin:round;stroke-miterlimit:2;">
    <g>
        <circle cx="150" cy="150" r="150" style="fill:rgb(255,254,254);"/>
        <path d="M150,0C232.787,0 300,67.213 300,150C300,232.787 232.787,300 150,300C67.213,300 0,232.787 0,150C0,67.213 67.213,0 150,0ZM150,16C223.957,16 284,76.043 284,150C284,223.957 223.957,284 150,284C76.043,284 16,223.957 16,150C16,76.043 76.043,16 150,16Z" style="fill:rgb(45,103,185);"/>
        <g transform="matrix(0.886123,0,0,0.886123,17.0375,5.97027)">
            <path d="M69.997,234.964L69.997,121.73L70.43,121.73L110,99.968L110.069,121.73L110.357,121.73L149.927,99.968L149.996,121.73L185.149,121.73L192.535,55.694L207.524,55.694L214.91,121.73L229.997,121.73L229.997,234.964L238.331,234.964L238.331,249.964L61.769,249.964L61.769,234.964L69.997,234.964Z" style="fill:rgb(45,103,185);"/>
            <path d="M120.07,185.379L100.07,185.379L100.07,205.379L120.07,205.379L120.07,185.379ZM160.05,185.379L140.05,185.379L140.05,205.379L160.05,205.379L160.05,185.379ZM200.03,185.379L180.03,185.379L180.03,205.379L200.03,205.379L200.03,185.379ZM120.07,150L100.07,150L100.07,170L120.07,170L120.07,150ZM160.05,150L140.05,150L140.05,170L160.05,170L160.05,150ZM200.03,150L180.03,150L180.03,170L200.03,170L200.03,150Z" style="fill:white;"/>
        </g>
    </g>
</svg>
