<?xml version="1.0" encoding="UTF-8" standalone="no"?>
<!DOCTYPE svg PUBLIC "-//W3C//DTD SVG 1.1//EN" "http://www.w3.org/Graphics/SVG/1.1/DTD/svg11.dtd">
<svg width="100%" height="100%" viewBox="0 0 300 300" version="1.1" xmlns="http://www.w3.org/2000/svg" xmlns:xlink="http://www.w3.org/1999/xlink" xml:space="preserve" xmlns:serif="http://www.serif.com/" style="fill-rule:evenodd;clip-rule:evenodd;stroke-linejoin:round;stroke-miterlimit:2;">
    <g>
        <circle cx="150" cy="150" r="150" style="fill:rgb(255,254,254);"/>
        <path d="M150,0C232.787,0 300,67.213 300,150C300,232.787 232.787,300 150,300C67.213,300 0,232.787 0,150C0,67.213 67.213,0 150,0ZM150,16C223.957,16 284,76.043 284,150C284,223.957 223.957,284 150,284C76.043,284 16,223.957 16,150C16,76.043 76.043,16 150,16Z" style="fill:rgb(45,103,185);"/>
        <path d="M241.101,124.485C241.094,124.46 241.087,124.435 241.08,124.409C239.876,120.132 242.372,115.683 246.649,114.48C250.926,113.276 255.375,115.772 256.578,120.049C256.59,120.091 256.602,120.133 256.613,120.175L256.614,120.175C259.268,129.665 260.686,139.668 260.686,150C260.686,211.089 211.089,260.686 150,260.686C130.96,260.686 113.037,255.869 97.384,247.387C97.348,247.368 97.313,247.349 97.277,247.33C93.371,245.214 91.918,240.324 94.035,236.418C96.151,232.512 101.041,231.059 104.947,233.176L104.982,233.195L104.982,233.194C118.372,240.461 133.708,244.589 150,244.589C202.205,244.589 244.589,202.205 244.589,150C244.589,141.161 243.374,132.603 241.101,124.485L241.101,124.485ZM67.116,223.329L67.116,223.329C49.819,203.797 39.314,178.116 39.314,150C39.314,119.358 51.792,91.608 71.94,71.558C71.98,71.516 72.021,71.474 72.063,71.433C75.217,68.306 80.315,68.328 83.442,71.482C86.568,74.635 86.546,79.734 83.393,82.86L83.361,82.891L83.364,82.895C66.104,100.034 55.411,123.778 55.411,150C55.411,174.002 64.371,195.928 79.124,212.613C79.142,212.632 79.16,212.652 79.177,212.672C82.12,215.998 81.808,221.088 78.481,224.031C75.154,226.974 70.065,226.662 67.122,223.335L67.116,223.329ZM184.85,216.436L184.852,216.441C174.436,221.921 162.577,225.022 150,225.022C108.594,225.022 74.978,191.406 74.978,150C74.978,108.594 108.594,74.978 150,74.978C156.321,74.978 162.461,75.761 168.327,77.236L168.327,77.237L168.33,77.238C172.628,78.321 175.239,82.69 174.156,86.988C173.073,91.286 168.704,93.897 164.406,92.814C164.387,92.809 164.367,92.804 164.348,92.799L164.347,92.802C159.754,91.651 154.948,91.041 150,91.041C117.459,91.041 91.041,117.459 91.041,150C91.041,182.541 117.459,208.959 150,208.959C159.787,208.959 169.021,206.569 177.148,202.342C177.204,202.311 177.261,202.28 177.318,202.25C181.245,200.197 186.102,201.718 188.155,205.646C190.193,209.544 188.71,214.356 184.85,216.436ZM190.624,107.286C187.444,104.226 187.33,99.161 190.377,95.962C193.434,92.752 198.521,92.628 201.73,95.685L201.732,95.686L201.732,95.686C216.077,109.355 225.022,128.641 225.022,150C225.022,164.97 220.628,178.921 213.061,190.634L213.061,190.634C210.659,194.357 205.687,195.432 201.962,193.032C198.236,190.632 197.16,185.658 199.561,181.932C199.578,181.906 199.594,181.88 199.612,181.854L199.611,181.853C205.526,172.665 208.959,161.73 208.959,150C208.959,133.199 201.916,118.029 190.624,107.286L190.624,107.286ZM109.3,151.841C109.298,151.803 109.296,151.764 109.294,151.726C109.101,147.176 112.638,143.325 117.188,143.133C121.738,142.94 125.588,146.477 125.781,151.027C125.784,151.09 125.786,151.154 125.787,151.217L125.79,151.217C126.425,164.031 137.03,174.24 150,174.24C155.304,174.24 160.213,172.533 164.206,169.638L164.206,169.639C167.9,167.04 173.013,167.898 175.653,171.574C178.31,175.272 177.464,180.431 173.766,183.087L173.766,183.088C167.075,187.904 158.866,190.743 150,190.743C128.131,190.743 110.263,173.475 109.298,151.841L109.3,151.841ZM122.115,120.309L122.114,120.307C129.405,113.456 139.216,109.257 150,109.257C172.486,109.257 190.743,127.514 190.743,150C190.743,151.19 190.691,152.369 190.591,153.533L190.591,153.533C190.195,158.069 186.192,161.431 181.655,161.036C177.118,160.642 173.755,156.638 174.149,152.1C174.153,152.06 174.157,152.019 174.161,151.978L174.16,151.978C174.213,151.326 174.24,150.666 174.24,150C174.24,136.621 163.379,125.76 150,125.76C143.561,125.76 137.705,128.276 133.362,132.378L133.361,132.377C130.043,135.461 124.845,135.29 121.738,131.986C118.619,128.669 118.78,123.445 122.096,120.326L122.115,120.309ZM226.796,94.795L226.796,94.795C209.616,70.948 181.608,55.411 150,55.411C135.872,55.411 122.463,58.516 110.418,64.079L110.418,64.079C106.387,65.918 101.618,64.148 99.765,60.12C97.908,56.084 99.676,51.3 103.712,49.443L103.712,49.443C117.798,42.941 133.479,39.314 150,39.314C187.007,39.314 219.797,57.515 239.898,85.446L239.897,85.446L239.898,85.446C242.489,89.053 241.665,94.086 238.057,96.678C234.45,99.269 229.418,98.445 226.826,94.837L226.796,94.795Z" style="fill:rgb(45,103,185);"/>
    </g>
</svg>
