<?xml version="1.0" encoding="UTF-8" standalone="no"?>
<!DOCTYPE svg PUBLIC "-//W3C//DTD SVG 1.1//EN" "http://www.w3.org/Graphics/SVG/1.1/DTD/svg11.dtd">
<svg width="100%" height="100%" viewBox="0 0 300 300" version="1.1" xmlns="http://www.w3.org/2000/svg" xmlns:xlink="http://www.w3.org/1999/xlink" xml:space="preserve" xmlns:serif="http://www.serif.com/" style="fill-rule:evenodd;clip-rule:evenodd;stroke-linejoin:round;stroke-miterlimit:2;">
    <g>
        <circle cx="150" cy="150" r="150" style="fill:rgb(255,254,254);"/>
        <path d="M150,0C232.787,0 300,67.213 300,150C300,232.787 232.787,300 150,300C67.213,300 0,232.787 0,150C0,67.213 67.213,0 150,0ZM150,16C223.957,16 284,76.043 284,150C284,223.957 223.957,284 150,284C76.043,284 16,223.957 16,150C16,76.043 76.043,16 150,16Z" style="fill:rgb(45,103,185);"/>
        <g transform="matrix(1.32548,0,0,1.32548,-46.1396,-37.0647)">
            <path d="M207.746,91.788C207.746,90.698 206.86,89.813 205.77,89.813L190.766,89.813C189.676,89.813 188.791,90.698 188.791,91.788L188.791,190.472C188.791,191.562 189.676,192.447 190.766,192.447L205.77,192.447C206.86,192.447 207.746,191.562 207.746,190.472L207.746,91.788ZM179.467,141.121C179.38,145.907 93.977,195.33 90.689,192.315C87.543,189.43 87.222,93.207 90.689,89.927C93.641,87.135 179.556,136.24 179.467,141.121Z" style="fill:rgb(45,103,185);"/>
        </g>
    </g>
</svg>
