<?xml version="1.0" encoding="UTF-8" standalone="no"?>
<!DOCTYPE svg PUBLIC "-//W3C//DTD SVG 1.1//EN" "http://www.w3.org/Graphics/SVG/1.1/DTD/svg11.dtd">
<svg width="100%" height="100%" viewBox="0 0 300 300" version="1.1" xmlns="http://www.w3.org/2000/svg" xmlns:xlink="http://www.w3.org/1999/xlink" xml:space="preserve" xmlns:serif="http://www.serif.com/" style="fill-rule:evenodd;clip-rule:evenodd;stroke-linejoin:round;stroke-miterlimit:2;">
    <g>
        <circle cx="150" cy="150" r="150" style="fill:rgb(255,254,254);"/>
        <path d="M150,0C232.787,0 300,67.213 300,150C300,232.787 232.787,300 150,300C67.213,300 0,232.787 0,150C0,67.213 67.213,0 150,0ZM150,16C223.957,16 284,76.043 284,150C284,223.957 223.957,284 150,284C76.043,284 16,223.957 16,150C16,76.043 76.043,16 150,16Z" style="fill:rgb(45,103,185);"/>
        <path d="M150.036,50.036C205.228,50.036 250.036,94.845 250.036,150.036C250.036,205.228 205.228,250.036 150.036,250.036C94.845,250.036 50.036,205.228 50.036,150.036C50.036,94.845 94.845,50.036 150.036,50.036ZM155.189,234.882C163.475,224.618 170.292,213.117 175.317,200.702C167,200.035 158.564,199.694 150.036,199.694C141.479,199.694 133.015,200.037 124.662,200.71C129.695,213.119 136.518,224.615 144.813,234.878C146.54,234.983 148.282,235.036 150.036,235.036C151.768,235.036 153.487,234.985 155.189,234.882ZM213.791,206.23C206.151,204.633 198.383,203.316 190.502,202.294C186.74,212.399 181.919,221.991 176.172,230.936C190.862,226.188 203.809,217.546 213.791,206.23ZM123.799,230.903C118.058,221.973 113.239,212.396 109.476,202.306C101.627,203.327 93.891,204.639 86.282,206.23C96.241,217.519 109.15,226.147 123.799,230.903ZM65.355,157.44C66.489,170.546 70.601,182.804 77.013,193.54C86.192,191.459 95.553,189.762 105.071,188.469C102.425,178.494 100.782,168.114 100.256,157.44L65.355,157.44ZM234.717,157.44L199.693,157.44C199.173,168.106 197.537,178.482 194.898,188.455C204.452,189.75 213.849,191.452 223.06,193.539C229.471,182.808 233.585,170.547 234.717,157.44ZM184.944,157.44L115.006,157.44C115.558,167.557 117.225,177.382 119.888,186.796C129.782,185.904 139.847,185.445 150.036,185.445C160.179,185.445 170.198,185.9 180.081,186.787C182.736,177.375 184.397,167.555 184.944,157.44ZM222.944,106.34C213.75,108.42 204.375,110.116 194.841,111.407C197.502,121.402 199.155,131.799 199.686,142.487L234.705,142.487C233.548,129.356 229.399,117.078 222.944,106.34ZM77.129,106.341C70.675,117.078 66.526,129.355 65.368,142.487L100.256,142.487C100.783,131.79 102.432,121.385 105.09,111.388C95.606,110.1 86.277,108.411 77.129,106.341ZM184.936,142.487C184.377,132.343 182.698,122.497 180.021,113.072C170.167,113.956 160.164,114.409 150.036,114.409C139.862,114.409 129.813,113.952 119.908,113.059C117.235,122.49 115.56,132.34 115.006,142.487L184.936,142.487ZM155.188,65.191C153.487,65.088 151.768,65.036 150.036,65.036C148.24,65.036 146.456,65.092 144.688,65.203C136.468,75.403 129.697,86.822 124.69,99.147C133.044,99.818 141.494,100.16 150.036,100.16C158.535,100.16 166.941,99.822 175.231,99.159C170.213,86.826 163.427,75.399 155.188,65.191ZM176.173,69.137C181.878,78.017 186.673,87.539 190.424,97.57C198.276,96.554 206.016,95.245 213.628,93.658C203.668,82.433 190.783,73.86 176.173,69.137ZM123.68,69.209C109.16,73.947 96.354,82.492 86.445,93.658C94.012,95.236 101.701,96.537 109.502,97.551C113.235,87.556 118.005,78.065 123.68,69.209Z" style="fill:rgb(45,103,185);"/>
    </g>
</svg>
