<?xml version="1.0" encoding="UTF-8" standalone="no"?>
<!DOCTYPE svg PUBLIC "-//W3C//DTD SVG 1.1//EN" "http://www.w3.org/Graphics/SVG/1.1/DTD/svg11.dtd">
<svg width="100%" height="100%" viewBox="0 0 300 300" version="1.1" xmlns="http://www.w3.org/2000/svg" xmlns:xlink="http://www.w3.org/1999/xlink" xml:space="preserve" xmlns:serif="http://www.serif.com/" style="fill-rule:evenodd;clip-rule:evenodd;stroke-linejoin:round;stroke-miterlimit:2;">
    <g>
        <circle cx="150" cy="150" r="150" style="fill:rgb(255,254,254);"/>
        <path d="M150,0C232.787,0 300,67.213 300,150C300,232.787 232.787,300 150,300C67.213,300 0,232.787 0,150C0,67.213 67.213,0 150,0ZM150,16C223.957,16 284,76.043 284,150C284,223.957 223.957,284 150,284C76.043,284 16,223.957 16,150C16,76.043 76.043,16 150,16Z" style="fill:rgb(45,103,185);"/>
        <g transform="matrix(0.399245,0.399245,-0.399245,0.399245,149.909,30.4052)">
            <path d="M225.468,45.022C227.786,33.616 237.881,25.022 249.966,25.022C263.764,25.022 274.966,36.224 274.966,50.022C274.966,62.108 266.372,72.202 254.966,74.521L254.966,125.501C266.372,127.82 274.966,137.914 274.966,150C274.966,162.086 266.372,172.18 254.966,174.499L254.966,225.479C266.372,227.798 274.966,237.892 274.966,249.978C274.966,263.776 263.764,274.978 249.966,274.978C237.881,274.978 227.786,266.384 225.468,254.978L174.499,254.978C172.18,266.384 162.086,274.978 150,274.978C137.914,274.978 127.82,266.384 125.501,254.978L74.532,254.978C72.214,266.384 62.119,274.978 50.034,274.978C36.236,274.978 25.034,263.776 25.034,249.978C25.034,237.892 33.628,227.798 45.034,225.479L45.034,174.499C33.628,172.18 25.034,162.086 25.034,150C25.034,137.914 33.628,127.82 45.034,125.501L45.034,74.521C33.628,72.202 25.034,62.108 25.034,50.022C25.034,36.224 36.236,25.022 50.034,25.022C62.119,25.022 72.214,33.616 74.532,45.022L125.501,45.022C127.82,33.616 137.914,25.022 150,25.022C162.086,25.022 172.18,33.616 174.499,45.022L225.468,45.022ZM225.468,155L174.499,155C172.509,164.79 164.79,172.509 155,174.499L155,225.479C164.79,227.47 172.509,235.188 174.499,244.978L225.468,244.978C227.458,235.188 235.177,227.47 244.966,225.479L244.966,174.499C235.177,172.509 227.458,164.79 225.468,155ZM125.501,155L74.532,155C72.542,164.79 64.823,172.509 55.034,174.499L55.034,225.479C64.823,227.47 72.542,235.188 74.532,244.978L125.501,244.978C127.491,235.188 135.21,227.47 145,225.479L145,174.499C135.21,172.509 127.491,164.79 125.501,155ZM225.468,55.022L174.499,55.022C172.509,64.812 164.79,72.53 155,74.521L155,125.501C164.79,127.491 172.509,135.21 174.499,145L225.468,145C227.458,135.21 235.177,127.491 244.966,125.501L244.966,74.521C235.177,72.53 227.458,64.812 225.468,55.022ZM125.501,55.022L74.532,55.022C72.542,64.812 64.823,72.53 55.034,74.521L55.034,125.501C64.823,127.491 72.542,135.21 74.532,145L125.501,145C127.491,135.21 135.21,127.491 145,125.501L145,74.521C135.21,72.53 127.491,64.812 125.501,55.022Z" style="fill:rgb(45,103,185);"/>
        </g>
    </g>
</svg>
