<?xml version="1.0" encoding="UTF-8" standalone="no"?>
<!DOCTYPE svg PUBLIC "-//W3C//DTD SVG 1.1//EN" "http://www.w3.org/Graphics/SVG/1.1/DTD/svg11.dtd">
<svg width="100%" height="100%" viewBox="0 0 300 300" version="1.1" xmlns="http://www.w3.org/2000/svg" xmlns:xlink="http://www.w3.org/1999/xlink" xml:space="preserve" xmlns:serif="http://www.serif.com/" style="fill-rule:evenodd;clip-rule:evenodd;stroke-linejoin:round;stroke-miterlimit:2;">
    <g>
        <circle cx="150" cy="150" r="150" style="fill:rgb(255,254,254);"/>
        <path d="M150,0C232.787,0 300,67.213 300,150C300,232.787 232.787,300 150,300C67.213,300 0,232.787 0,150C0,67.213 67.213,0 150,0ZM150,16C223.957,16 284,76.043 284,150C284,223.957 223.957,284 150,284C76.043,284 16,223.957 16,150C16,76.043 76.043,16 150,16Z" style="fill:rgb(45,103,185);"/>
        <g transform="matrix(0.909079,0,0,0.909079,12.9415,34.6919)">
            <path d="M140,94.918L119.276,139.086C113.287,151.849 100.459,160 86.36,160L50.749,160C45.23,160 40.749,155.519 40.749,150C40.749,144.481 45.23,140 50.749,140L86.36,140C92.704,140 98.475,136.333 101.17,130.59C110.891,109.872 128.055,73.292 136.287,55.747C138.764,50.469 144.572,47.618 150.263,48.886C155.953,50.155 160,55.204 160,61.034L160,170.077L173.583,152.059C179.307,144.465 188.265,140 197.775,140C215.612,140 250.784,140 250.784,140C256.303,140 260.784,144.481 260.784,150C260.784,155.519 256.303,160 250.784,160C250.784,160 215.612,160 197.775,160C194.543,160 191.499,161.518 189.553,164.098C181.943,174.194 169.103,191.227 162.384,200.14C159.162,204.413 153.57,206.148 148.496,204.45C143.421,202.752 140,197.999 140,192.648L140,94.918Z" style="fill:rgb(45,103,185);"/>
        </g>
    </g>
</svg>
