<?xml version="1.0" encoding="UTF-8" standalone="no"?>
<!DOCTYPE svg PUBLIC "-//W3C//DTD SVG 1.1//EN" "http://www.w3.org/Graphics/SVG/1.1/DTD/svg11.dtd">
<svg width="100%" height="100%" viewBox="0 0 300 300" version="1.1" xmlns="http://www.w3.org/2000/svg" xmlns:xlink="http://www.w3.org/1999/xlink" xml:space="preserve" xmlns:serif="http://www.serif.com/" style="fill-rule:evenodd;clip-rule:evenodd;stroke-linejoin:round;stroke-miterlimit:2;">
    <g>
        <circle cx="150" cy="150" r="150" style="fill:rgb(255,254,254);"/>
        <path d="M150,0C232.787,0 300,67.213 300,150C300,232.787 232.787,300 150,300C67.213,300 0,232.787 0,150C0,67.213 67.213,0 150,0ZM150,16C223.957,16 284,76.043 284,150C284,223.957 223.957,284 150,284C76.043,284 16,223.957 16,150C16,76.043 76.043,16 150,16Z" style="fill:rgb(45,103,185);"/>
        <g transform="matrix(9.01333e-17,-1.47199,1.71211,1.04837e-16,-228.884,215.058)">
            <path d="M51.352,171.487L51.352,248.325C51.352,250.268 65.73,235.816 65.73,237.045L65.73,254.185C65.73,255.463 46.723,270.791 44.233,271.1L44.233,271.105C44.222,271.105 44.21,271.104 44.198,271.103C44.186,271.104 44.174,271.105 44.162,271.105L44.162,271.1C41.672,270.791 22.665,255.463 22.665,254.185L22.665,237.045C22.665,235.816 37.044,250.268 37.044,248.325L37.044,171.487L51.352,171.487Z" style="fill:rgb(45,103,185);"/>
        </g>
    </g>
</svg>
