<?xml version="1.0" encoding="UTF-8" standalone="no"?>
<!DOCTYPE svg PUBLIC "-//W3C//DTD SVG 1.1//EN" "http://www.w3.org/Graphics/SVG/1.1/DTD/svg11.dtd">
<svg width="100%" height="100%" viewBox="0 0 300 300" version="1.1" xmlns="http://www.w3.org/2000/svg" xmlns:xlink="http://www.w3.org/1999/xlink" xml:space="preserve" xmlns:serif="http://www.serif.com/" style="fill-rule:evenodd;clip-rule:evenodd;stroke-linejoin:round;stroke-miterlimit:2;">
    <g>
        <circle cx="150" cy="150" r="150" style="fill:rgb(255,254,254);"/>
        <path d="M150,0C232.787,0 300,67.213 300,150C300,232.787 232.787,300 150,300C67.213,300 0,232.787 0,150C0,67.213 67.213,0 150,0ZM150,16C223.957,16 284,76.043 284,150C284,223.957 223.957,284 150,284C76.043,284 16,223.957 16,150C16,76.043 76.043,16 150,16Z" style="fill:rgb(45,103,185);"/>
        <g transform="matrix(1,0,0,1,0.0808839,-14.5186)">
            <g transform="matrix(1,0,0,1,-0.0808839,6.33713)">
                <path d="M196.31,221.271C182.983,229.954 167.076,235 150,235C103.087,235 65,196.913 65,150C65,103.087 103.087,65 150,65C196.913,65 235,103.087 235,150C235,174.442 224.662,196.487 208.122,212.001L227.794,239.5C230.202,242.867 229.424,247.555 226.058,249.964C222.691,252.372 218.003,251.594 215.594,248.227L196.31,221.271ZM150,80C188.634,80 220,111.366 220,150C220,188.634 188.634,220 150,220C111.366,220 80,188.634 80,150C80,111.366 111.366,80 150,80Z" style="fill:rgb(45,103,185);"/>
            </g>
            <g transform="matrix(0.918727,0,0,0.918727,11.7264,19.2937)">
                <path d="M193.418,107.418L107.418,107.418L107.418,193.418L193.418,193.418L193.418,107.418ZM178,122.418L122,122.418L122,178.418L178,178.418L178,122.418Z" style="fill:rgb(45,103,185);"/>
            </g>
        </g>
    </g>
</svg>
