<?xml version="1.0" encoding="UTF-8" standalone="no"?>
<!DOCTYPE svg PUBLIC "-//W3C//DTD SVG 1.1//EN" "http://www.w3.org/Graphics/SVG/1.1/DTD/svg11.dtd">
<svg width="100%" height="100%" viewBox="0 0 300 300" version="1.1" xmlns="http://www.w3.org/2000/svg" xmlns:xlink="http://www.w3.org/1999/xlink" xml:space="preserve" xmlns:serif="http://www.serif.com/" style="fill-rule:evenodd;clip-rule:evenodd;stroke-linejoin:round;stroke-miterlimit:2;">
    <g>
        <circle cx="150" cy="150" r="150" style="fill:rgb(255,254,254);"/>
        <path d="M150,0C232.787,0 300,67.213 300,150C300,232.787 232.787,300 150,300C67.213,300 0,232.787 0,150C0,67.213 67.213,0 150,0ZM150,16C223.957,16 284,76.043 284,150C284,223.957 223.957,284 150,284C76.043,284 16,223.957 16,150C16,76.043 76.043,16 150,16Z" style="fill:rgb(45,103,185);"/>
        <g transform="matrix(0.891461,0,0,0.891461,16.2808,16.2808)">
            <path d="M181.066,86.193C174.239,79.658 172.476,69.071 177.409,60.526C183.204,50.488 196.058,47.044 206.096,52.839C216.133,58.634 219.577,71.488 213.782,81.526C208.849,90.071 198.799,93.838 189.726,91.193L175.628,115.61C184.847,122.494 191.209,132.994 192.605,145L220.792,145C223.037,135.82 231.324,129 241.192,129C252.782,129 262.192,138.41 262.192,150C262.192,161.59 252.782,171 241.192,171C231.324,171 223.037,164.18 220.792,155L192.605,155C191.209,167.006 184.847,177.506 175.628,184.39L189.726,208.807C198.799,206.162 208.849,209.929 213.782,218.474C219.577,228.512 216.133,241.366 206.096,247.161C196.058,252.956 183.204,249.512 177.409,239.474C172.476,230.929 174.239,220.342 181.066,213.807L166.974,189.4C161.767,191.648 156.028,192.894 150,192.894C143.972,192.894 138.233,191.648 133.026,189.4L118.934,213.807C125.761,220.342 127.524,230.929 122.591,239.474C116.796,249.512 103.942,252.956 93.904,247.161C83.867,241.366 80.423,228.512 86.218,218.474C91.151,209.929 101.201,206.162 110.274,208.807L124.372,184.39C115.153,177.506 108.791,167.006 107.395,155L79.208,155C76.963,164.18 68.676,171 58.808,171C47.218,171 37.808,161.59 37.808,150C37.808,138.41 47.218,129 58.808,129C68.676,129 76.963,135.82 79.208,145L107.395,145C108.791,132.994 115.153,122.494 124.372,115.61L110.274,91.193C101.201,93.838 91.151,90.071 86.218,81.526C80.423,71.488 83.867,58.634 93.904,52.839C103.942,47.044 116.796,50.488 122.591,60.526C127.524,69.071 125.761,79.658 118.934,86.193L133.026,110.6C138.233,108.352 143.972,107.106 150,107.106C156.028,107.106 161.767,108.352 166.974,110.6L181.066,86.193ZM150,121.823C165.552,121.823 178.177,134.448 178.177,150C178.177,165.552 165.552,178.177 150,178.177C134.448,178.177 121.823,165.552 121.823,150C121.823,134.448 134.448,121.823 150,121.823Z" style="fill:rgb(45,103,185);"/>
        </g>
    </g>
</svg>
