<?xml version="1.0" encoding="UTF-8" standalone="no"?>
<!DOCTYPE svg PUBLIC "-//W3C//DTD SVG 1.1//EN" "http://www.w3.org/Graphics/SVG/1.1/DTD/svg11.dtd">
<svg width="100%" height="100%" viewBox="0 0 300 300" version="1.1" xmlns="http://www.w3.org/2000/svg" xmlns:xlink="http://www.w3.org/1999/xlink" xml:space="preserve" xmlns:serif="http://www.serif.com/" style="fill-rule:evenodd;clip-rule:evenodd;stroke-linecap:round;stroke-linejoin:round;stroke-miterlimit:1.5;">
    <g>
        <circle cx="150" cy="150" r="150" style="fill:rgb(255,254,254);"/>
        <path d="M150,0C232.787,0 300,67.213 300,150C300,232.787 232.787,300 150,300C67.213,300 0,232.787 0,150C0,67.213 67.213,0 150,0ZM150,16C223.957,16 284,76.043 284,150C284,223.957 223.957,284 150,284C76.043,284 16,223.957 16,150C16,76.043 76.043,16 150,16Z" style="fill:rgb(45,103,185);"/>
        <g transform="matrix(0.757919,0,0,0.757919,40.2912,36.8782)">
            <g transform="matrix(1.22143,0,0,1,-77.5714,-6.39488e-14)">
                <path d="M260,53.349C260,45.982 255.103,40 249.071,40L130.929,40C124.897,40 120,45.982 120,53.349L120,226.651C120,234.018 124.897,240 130.929,240L249.071,240C255.103,240 260,234.018 260,226.651L260,53.349Z" style="fill:rgb(45,103,185);stroke:black;stroke-width:0.25px;"/>
            </g>
            <g transform="matrix(1,0,0,1.33333,-20,-20)">
                <rect x="140" y="60" width="100" height="60" style="fill:white;stroke:black;stroke-width:0.23px;"/>
            </g>
            <g transform="matrix(1,0,0,1,-20,-1.42109e-14)">
                <g transform="matrix(1,0,0,1,2.84217e-14,20)">
                    <path d="M160,142.5C160,141.12 158.88,140 157.5,140L142.5,140C141.12,140 140,141.12 140,142.5L140,147.5C140,148.88 141.12,150 142.5,150L157.5,150C158.88,150 160,148.88 160,147.5L160,142.5Z" style="fill:white;stroke:black;stroke-width:0.27px;"/>
                </g>
                <g transform="matrix(1,0,0,1,40,20)">
                    <path d="M160,142.5C160,141.12 158.88,140 157.5,140L142.5,140C141.12,140 140,141.12 140,142.5L140,147.5C140,148.88 141.12,150 142.5,150L157.5,150C158.88,150 160,148.88 160,147.5L160,142.5Z" style="fill:white;stroke:black;stroke-width:0.27px;"/>
                </g>
                <g transform="matrix(1,0,0,1,80,20)">
                    <path d="M160,142.5C160,141.12 158.88,140 157.5,140L142.5,140C141.12,140 140,141.12 140,142.5L140,147.5C140,148.88 141.12,150 142.5,150L157.5,150C158.88,150 160,148.88 160,147.5L160,142.5Z" style="fill:white;stroke:black;stroke-width:0.27px;"/>
                </g>
                <g transform="matrix(1,0,0,1,2.84217e-14,40)">
                    <path d="M160,142.5C160,141.12 158.88,140 157.5,140L142.5,140C141.12,140 140,141.12 140,142.5L140,147.5C140,148.88 141.12,150 142.5,150L157.5,150C158.88,150 160,148.88 160,147.5L160,142.5Z" style="fill:white;stroke:black;stroke-width:0.27px;"/>
                </g>
                <g transform="matrix(1,0,0,1,40,40)">
                    <path d="M160,142.5C160,141.12 158.88,140 157.5,140L142.5,140C141.12,140 140,141.12 140,142.5L140,147.5C140,148.88 141.12,150 142.5,150L157.5,150C158.88,150 160,148.88 160,147.5L160,142.5Z" style="fill:white;stroke:black;stroke-width:0.27px;"/>
                </g>
                <g transform="matrix(1,0,0,1,80,40)">
                    <path d="M160,142.5C160,141.12 158.88,140 157.5,140L142.5,140C141.12,140 140,141.12 140,142.5L140,147.5C140,148.88 141.12,150 142.5,150L157.5,150C158.88,150 160,148.88 160,147.5L160,142.5Z" style="fill:white;stroke:black;stroke-width:0.27px;"/>
                </g>
                <g transform="matrix(1,0,0,1,0,60)">
                    <path d="M160,142.5C160,141.12 158.88,140 157.5,140L142.5,140C141.12,140 140,141.12 140,142.5L140,147.5C140,148.88 141.12,150 142.5,150L157.5,150C158.88,150 160,148.88 160,147.5L160,142.5Z" style="fill:white;stroke:black;stroke-width:0.27px;"/>
                </g>
                <g transform="matrix(1,0,0,1,40,60)">
                    <path d="M160,142.5C160,141.12 158.88,140 157.5,140L142.5,140C141.12,140 140,141.12 140,142.5L140,147.5C140,148.88 141.12,150 142.5,150L157.5,150C158.88,150 160,148.88 160,147.5L160,142.5Z" style="fill:white;stroke:black;stroke-width:0.27px;"/>
                </g>
                <g transform="matrix(1,0,0,1,80,60)">
                    <path d="M160,142.5C160,141.12 158.88,140 157.5,140L142.5,140C141.12,140 140,141.12 140,142.5L140,147.5C140,148.88 141.12,150 142.5,150L157.5,150C158.88,150 160,148.88 160,147.5L160,142.5Z" style="fill:white;stroke:black;stroke-width:0.27px;"/>
                </g>
            </g>
            <g transform="matrix(1,0,0,1,17,4.9738e-14)">
                <path d="M59.5,40.005C74.171,40.271 86,52.265 86,67C86,69.535 85.65,71.988 84.995,74.316C83.059,88.83 79,121.47 79,140C79,158.53 83.059,191.17 84.995,205.684C85.65,208.012 86,210.465 86,213C86,227.735 74.171,239.729 59.5,239.995L59.5,240C59.417,240 59.333,240 59.25,239.999C59.167,240 59.083,240 59,240L59,239.995C44.329,239.729 32.5,227.735 32.5,213C32.5,210.465 32.85,208.012 33.505,205.684C35.441,191.17 39.5,158.53 39.5,140C39.5,121.47 35.441,88.83 33.505,74.316C32.85,71.988 32.5,69.535 32.5,67C32.5,52.265 44.329,40.271 59,40.005L59,40C59.083,40 59.167,40 59.25,40.001C59.333,40 59.417,40 59.5,40L59.5,40.005Z" style="fill:rgb(45,103,185);stroke:white;stroke-width:3.02px;"/>
            </g>
            <g transform="matrix(1,0,0,1,-175.94,101.324)">
                <path d="M292.083,135.483L292.083,152.941C292.083,164.853 282.412,174.524 270.5,174.524C258.588,174.524 248.917,164.853 248.917,152.941L248.917,135.483L253.083,135.483L253.083,152.941C253.083,162.553 260.887,170.357 270.5,170.357C280.113,170.357 287.917,162.553 287.917,152.941L287.917,135.483L292.083,135.483Z" style="fill:rgb(45,103,185);"/>
            </g>
        </g>
    </g>
</svg>
