<?xml version="1.0" encoding="UTF-8" standalone="no"?>
<!DOCTYPE svg PUBLIC "-//W3C//DTD SVG 1.1//EN" "http://www.w3.org/Graphics/SVG/1.1/DTD/svg11.dtd">
<svg width="100%" height="100%" viewBox="0 0 300 300" version="1.1" xmlns="http://www.w3.org/2000/svg" xmlns:xlink="http://www.w3.org/1999/xlink" xml:space="preserve" xmlns:serif="http://www.serif.com/" style="fill-rule:evenodd;clip-rule:evenodd;stroke-linejoin:round;stroke-miterlimit:2;">
    <g>
        <circle cx="150" cy="150" r="150" style="fill:rgb(255,254,254);"/>
        <path d="M150,0C232.787,0 300,67.213 300,150C300,232.787 232.787,300 150,300C67.213,300 0,232.787 0,150C0,67.213 67.213,0 150,0ZM150,16C223.957,16 284,76.043 284,150C284,223.957 223.957,284 150,284C76.043,284 16,223.957 16,150C16,76.043 76.043,16 150,16Z" style="fill:rgb(45,103,185);"/>
        <g transform="matrix(0.572024,-0.572024,0.572024,0.572024,-21.6071,150)">
            <path d="M62.539,139.838L105.61,139.838L105.61,160.184L62.645,160.184L81.557,179.096L52.267,179.096L23.171,150L52.267,120.904L81.473,120.904L62.539,139.838ZM247.733,179.096L218.443,179.096L237.355,160.184L194.39,160.184L194.39,139.838L237.461,139.838L218.527,120.904L247.733,120.904L276.829,150L247.733,179.096ZM176.634,160.184L158.878,160.184L158.878,139.84L167.8,139.84L167.8,139.838L176.634,139.838L176.634,160.184ZM132.2,139.838L132.2,139.84L141.122,139.84L141.122,160.184L123.366,160.184L123.366,139.838L132.2,139.838Z" style="fill:rgb(45,103,185);"/>
        </g>
    </g>
</svg>
