<?xml version="1.0" encoding="UTF-8" standalone="no"?>
<!DOCTYPE svg PUBLIC "-//W3C//DTD SVG 1.1//EN" "http://www.w3.org/Graphics/SVG/1.1/DTD/svg11.dtd">
<svg width="100%" height="100%" viewBox="0 0 300 300" version="1.1" xmlns="http://www.w3.org/2000/svg" xmlns:xlink="http://www.w3.org/1999/xlink" xml:space="preserve" xmlns:serif="http://www.serif.com/" style="fill-rule:evenodd;clip-rule:evenodd;stroke-linejoin:round;stroke-miterlimit:2;">
    <g>
        <circle cx="150" cy="150" r="150" style="fill:rgb(255,254,254);"/>
        <path d="M150,0C232.787,0 300,67.213 300,150C300,232.787 232.787,300 150,300C67.213,300 0,232.787 0,150C0,67.213 67.213,0 150,0ZM150,16C223.957,16 284,76.043 284,150C284,223.957 223.957,284 150,284C76.043,284 16,223.957 16,150C16,76.043 76.043,16 150,16Z" style="fill:rgb(45,103,185);"/>
        <g transform="matrix(1.12812,0,0,1.12812,-19.2177,-19.2177)">
            <path d="M75.614,208.233C69.509,208.233 65.904,204.807 63.829,200.638C62.037,197.039 61.496,192.865 61.35,190.511L61.349,190.488C61.287,189.187 61.761,187.917 62.66,186.974C63.559,186.032 64.805,185.498 66.107,185.499C75.58,185.499 125.576,185.499 137.32,185.499C140.338,185.499 142.811,187.837 143.024,190.801L156.979,190.801C157.191,187.837 159.664,185.499 162.683,185.499C174.426,185.499 224.422,185.499 233.894,185.499C235.197,185.498 236.443,186.032 237.342,186.974C238.241,187.917 238.715,189.187 238.65,190.534C238.506,192.865 237.965,197.039 236.173,200.638C234.098,204.807 230.493,208.233 224.388,208.233L75.614,208.233ZM157.738,197.301L142.265,197.301C139.245,197.301 136.772,194.963 136.558,191.999L68.019,191.999C68.242,193.703 68.698,195.833 69.647,197.741C70.71,199.876 72.488,201.733 75.614,201.733L224.388,201.733C227.514,201.733 229.292,199.876 230.355,197.741C231.308,195.827 231.763,193.69 231.984,191.999L163.445,191.999C163.23,194.963 160.757,197.301 157.738,197.301ZM222.187,98.017C222.187,94.568 219.386,91.767 215.937,91.767L88.437,91.767C84.988,91.767 82.187,94.568 82.187,98.017L82.187,175.517C82.187,178.967 84.988,181.767 88.437,181.767L215.937,181.767C219.386,181.767 222.187,178.967 222.187,175.517L222.187,98.017ZM214.687,99.267L89.687,99.267L89.687,174.267L214.687,174.267L214.687,99.267ZM125.805,121.416L100.991,146.23C100.308,146.913 100.308,148.022 100.991,148.705C101.674,149.388 102.783,149.388 103.466,148.705L128.28,123.891C128.962,123.208 128.962,122.099 128.28,121.416C127.597,120.733 126.488,120.733 125.805,121.416ZM107.145,127.765L100.991,133.92C100.308,134.603 100.308,135.712 100.991,136.395C101.674,137.078 102.783,137.078 103.466,136.395L109.62,130.24C110.303,129.557 110.303,128.448 109.62,127.765C108.937,127.082 107.828,127.082 107.145,127.765ZM125.828,109.301L111.88,123.249C111.197,123.932 111.197,125.041 111.88,125.724C112.563,126.407 113.672,126.407 114.355,125.724L128.303,111.776C128.986,111.093 128.986,109.984 128.303,109.301C127.62,108.618 126.511,108.618 125.828,109.301ZM138.703,108.736L132.077,115.362C131.394,116.045 131.394,117.154 132.077,117.837C132.76,118.52 133.869,118.52 134.552,117.837L141.178,111.21C141.861,110.527 141.861,109.418 141.178,108.736C140.495,108.053 139.386,108.053 138.703,108.736Z" style="fill:rgb(45,103,185);"/>
            <path d="M75.614,208.233C69.509,208.233 65.904,204.807 63.829,200.638C62.037,197.039 61.496,192.865 61.35,190.511L61.349,190.488C61.287,189.187 61.761,187.917 62.66,186.974C63.559,186.032 64.805,185.498 66.107,185.499C75.58,185.499 125.576,185.499 137.32,185.499C140.338,185.499 142.811,187.837 143.024,190.801L156.979,190.801C157.191,187.837 159.664,185.499 162.683,185.499C174.426,185.499 224.422,185.499 233.894,185.499C235.197,185.498 236.443,186.032 237.342,186.974C238.241,187.917 238.715,189.187 238.65,190.534C238.506,192.865 237.965,197.039 236.173,200.638C234.098,204.807 230.493,208.233 224.388,208.233L75.614,208.233ZM157.738,197.301L142.265,197.301C139.245,197.301 136.772,194.963 136.558,191.999L68.019,191.999C68.242,193.703 68.698,195.833 69.647,197.741C70.71,199.876 72.488,201.733 75.614,201.733L224.388,201.733C227.514,201.733 229.292,199.876 230.355,197.741C231.308,195.827 231.763,193.69 231.984,191.999L163.445,191.999C163.23,194.963 160.757,197.301 157.738,197.301ZM222.187,98.017C222.187,94.568 219.386,91.767 215.937,91.767L88.437,91.767C84.988,91.767 82.187,94.568 82.187,98.017L82.187,175.517C82.187,178.967 84.988,181.767 88.437,181.767L215.937,181.767C219.386,181.767 222.187,178.967 222.187,175.517L222.187,98.017ZM214.687,99.267L89.687,99.267L89.687,174.267L214.687,174.267L214.687,99.267ZM125.805,121.416L100.991,146.23C100.308,146.913 100.308,148.022 100.991,148.705C101.674,149.388 102.783,149.388 103.466,148.705L128.28,123.891C128.962,123.208 128.962,122.099 128.28,121.416C127.597,120.733 126.488,120.733 125.805,121.416ZM107.145,127.765L100.991,133.92C100.308,134.603 100.308,135.712 100.991,136.395C101.674,137.078 102.783,137.078 103.466,136.395L109.62,130.24C110.303,129.557 110.303,128.448 109.62,127.765C108.937,127.082 107.828,127.082 107.145,127.765ZM125.828,109.301L111.88,123.249C111.197,123.932 111.197,125.041 111.88,125.724C112.563,126.407 113.672,126.407 114.355,125.724L128.303,111.776C128.986,111.093 128.986,109.984 128.303,109.301C127.62,108.618 126.511,108.618 125.828,109.301ZM138.703,108.736L132.077,115.362C131.394,116.045 131.394,117.154 132.077,117.837C132.76,118.52 133.869,118.52 134.552,117.837L141.178,111.21C141.861,110.527 141.861,109.418 141.178,108.736C140.495,108.053 139.386,108.053 138.703,108.736Z" style="fill:rgb(45,103,185);"/>
        </g>
    </g>
</svg>
