<?xml version="1.0" encoding="UTF-8" standalone="no"?>
<!DOCTYPE svg PUBLIC "-//W3C//DTD SVG 1.1//EN" "http://www.w3.org/Graphics/SVG/1.1/DTD/svg11.dtd">
<svg width="100%" height="100%" viewBox="0 0 300 300" version="1.1" xmlns="http://www.w3.org/2000/svg" xmlns:xlink="http://www.w3.org/1999/xlink" xml:space="preserve" xmlns:serif="http://www.serif.com/" style="fill-rule:evenodd;clip-rule:evenodd;stroke-linejoin:round;stroke-miterlimit:2;">
    <g>
        <circle cx="150" cy="150" r="150" style="fill:rgb(255,254,254);"/>
        <path d="M150,0C232.787,0 300,67.213 300,150C300,232.787 232.787,300 150,300C67.213,300 0,232.787 0,150C0,67.213 67.213,0 150,0ZM150,16C223.957,16 284,76.043 284,150C284,223.957 223.957,284 150,284C76.043,284 16,223.957 16,150C16,76.043 76.043,16 150,16Z" style="fill:rgb(45,103,185);"/>
        <g transform="matrix(1,0,0,1,-0.301775,8.65455)">
            <g transform="matrix(0.701752,0,0,0.701752,45.0389,45.9246)">
                <path d="M122.981,208.691C122.272,208.48 121.654,208.25 121.154,208C116.854,205.85 113.135,200.807 113.154,196C113.259,169.562 105.629,158.554 93.652,139.25C93.652,139.25 93.652,139.25 93.652,139.25C87.984,129.292 85,117.997 85,106.5C85,70.35 113.936,41 149.577,41C185.218,41 214.154,70.35 214.154,106.5C214.154,117.997 211.17,129.292 205.502,139.25C193.525,158.554 185.894,169.562 186,196C186.019,200.807 182.3,205.85 178,208C177.459,208.27 176.781,208.517 176,208.741L176,248.623C176,250.487 174.487,252 172.623,252L172.558,252L161.745,267L137.235,267L126.422,252L126.358,252C124.494,252 122.981,250.487 122.981,248.623L122.981,208.691Z" style="fill:rgb(45,103,185);"/>
            </g>
            <g transform="matrix(0.984314,0,0,0.984314,-0.178869,2.39382)">
                <path d="M83.659,109.101C85.478,109.984 85.619,130.349 83.659,131.202C81.333,132.215 51.577,122.235 51.577,120.152C51.577,118.183 81.558,108.081 83.659,109.101Z" style="fill:rgb(45,103,185);"/>
            </g>
            <g transform="matrix(0.852441,-0.492157,0.492157,0.852441,-39.5315,92.0622)">
                <path d="M83.659,109.101C85.478,109.984 85.619,130.349 83.659,131.202C81.333,132.215 51.577,122.235 51.577,120.152C51.577,118.183 81.558,108.081 83.659,109.101Z" style="fill:rgb(45,103,185);"/>
            </g>
            <g transform="matrix(0.852441,0.492157,-0.492157,0.852441,78.7357,-55.585)">
                <path d="M83.659,109.101C85.478,109.984 85.619,130.349 83.659,131.202C81.333,132.215 51.577,122.235 51.577,120.152C51.577,118.183 81.558,108.081 83.659,109.101Z" style="fill:rgb(45,103,185);"/>
            </g>
            <g transform="matrix(-0.984314,0,0,0.984314,300.782,2.39382)">
                <path d="M83.659,109.101C85.478,109.984 85.619,130.349 83.659,131.202C81.333,132.215 51.577,122.235 51.577,120.152C51.577,118.183 81.558,108.081 83.659,109.101Z" style="fill:rgb(45,103,185);"/>
            </g>
            <g transform="matrix(-0.852441,-0.492157,-0.492157,0.852441,340.135,92.0622)">
                <path d="M83.659,109.101C85.478,109.984 85.619,130.349 83.659,131.202C81.333,132.215 51.577,122.235 51.577,120.152C51.577,118.183 81.558,108.081 83.659,109.101Z" style="fill:rgb(45,103,185);"/>
            </g>
            <g transform="matrix(-0.852441,0.492157,0.492157,0.852441,221.868,-55.585)">
                <path d="M83.659,109.101C85.478,109.984 85.619,130.349 83.659,131.202C81.333,132.215 51.577,122.235 51.577,120.152C51.577,118.183 81.558,108.081 83.659,109.101Z" style="fill:rgb(45,103,185);"/>
            </g>
        </g>
    </g>
</svg>
