<?xml version="1.0" encoding="UTF-8" standalone="no"?>
<!DOCTYPE svg PUBLIC "-//W3C//DTD SVG 1.1//EN" "http://www.w3.org/Graphics/SVG/1.1/DTD/svg11.dtd">
<svg width="100%" height="100%" viewBox="0 0 300 300" version="1.1" xmlns="http://www.w3.org/2000/svg" xmlns:xlink="http://www.w3.org/1999/xlink" xml:space="preserve" xmlns:serif="http://www.serif.com/" style="fill-rule:evenodd;clip-rule:evenodd;stroke-linejoin:round;stroke-miterlimit:2;">
    <g>
        <circle cx="150" cy="150" r="150" style="fill:rgb(255,254,254);"/>
        <path d="M150,0C232.787,0 300,67.213 300,150C300,232.787 232.787,300 150,300C67.213,300 0,232.787 0,150C0,67.213 67.213,0 150,0ZM150,16C223.957,16 284,76.043 284,150C284,223.957 223.957,284 150,284C76.043,284 16,223.957 16,150C16,76.043 76.043,16 150,16Z" style="fill:rgb(45,103,185);"/>
        <g transform="matrix(0.92047,0,0,0.92047,11.9295,11.9594)">
            <path d="M140.78,150.964L150.588,141.155L144.821,135.387C139.255,129.822 139.255,120.785 144.821,115.22L196.663,63.378C202.228,57.813 211.265,57.813 216.83,63.378L236.997,83.545C242.563,89.111 242.563,98.147 236.997,103.712L185.155,155.555C179.59,161.12 170.553,161.12 164.988,155.555L159.22,149.787L149.412,159.595L155.179,165.363C160.745,170.929 160.745,179.965 155.179,185.53L103.337,237.373C97.772,242.938 88.735,242.938 83.17,237.373L63.003,217.205C57.437,211.64 57.437,202.603 63.003,197.038L114.845,145.196C120.41,139.631 129.447,139.631 135.012,145.196L140.78,150.964ZM128.62,163.124C126.577,161.668 123.719,161.856 121.887,163.688L81.576,203.999C79.534,206.041 79.534,209.357 81.576,211.399L88.976,218.799C91.018,220.841 94.334,220.841 96.376,218.799L136.687,178.488C138.519,176.656 138.708,173.798 137.252,171.755L133.812,175.195C132.148,176.859 129.446,176.859 127.781,175.195L125.18,172.594C123.516,170.93 123.516,168.228 125.18,166.563L128.62,163.124ZM171.461,137.546C173.504,139.002 176.362,138.814 178.194,136.981L218.505,96.67C220.547,94.628 220.547,91.312 218.505,89.27L211.105,81.87C209.063,79.828 205.747,79.828 203.705,81.87L163.394,122.181C161.562,124.014 161.374,126.871 162.829,128.914L166.253,125.49C167.918,123.826 170.62,123.826 172.284,125.49L174.885,128.091C176.549,129.756 176.549,132.458 174.885,134.122L171.461,137.546Z" style="fill:rgb(45,103,185);"/>
        </g>
    </g>
</svg>
