<?xml version="1.0" encoding="UTF-8" standalone="no"?>
<!DOCTYPE svg PUBLIC "-//W3C//DTD SVG 1.1//EN" "http://www.w3.org/Graphics/SVG/1.1/DTD/svg11.dtd">
<svg width="100%" height="100%" viewBox="0 0 300 300" version="1.1" xmlns="http://www.w3.org/2000/svg" xmlns:xlink="http://www.w3.org/1999/xlink" xml:space="preserve" xmlns:serif="http://www.serif.com/" style="fill-rule:evenodd;clip-rule:evenodd;stroke-linejoin:round;stroke-miterlimit:2;">
    <g>
        <circle cx="150" cy="150" r="150" style="fill:rgb(255,254,254);"/>
        <path d="M150,0C232.787,0 300,67.213 300,150C300,232.787 232.787,300 150,300C67.213,300 0,232.787 0,150C0,67.213 67.213,0 150,0ZM150,16C223.957,16 284,76.043 284,150C284,223.957 223.957,284 150,284C76.043,284 16,223.957 16,150C16,76.043 76.043,16 150,16Z" style="fill:rgb(45,103,185);"/>
        <g transform="matrix(0.799577,0,0,0.799577,48.123,48.3877)">
            <path d="M187.606,237.115L67.221,237.115C60.387,237.115 54.839,231.567 54.839,224.734L54.839,29.431C54.839,22.598 60.387,17.05 67.221,17.05L187.606,17.05C194.44,17.05 199.988,22.598 199.988,29.431L199.988,224.734C199.988,231.567 194.441,237.115 187.606,237.115ZM171.533,192.226L83.294,192.226C76.27,192.226 70.567,197.929 70.567,204.953C70.567,211.978 76.27,217.681 83.294,217.681L171.533,217.681C178.557,217.681 184.26,211.978 184.26,204.953C184.26,197.929 178.558,192.226 171.533,192.226ZM84.24,198.95C87.553,198.95 90.243,201.64 90.243,204.953C90.243,208.267 87.553,210.957 84.24,210.957C80.927,210.957 78.237,208.267 78.237,204.953C78.237,201.64 80.927,198.95 84.24,198.95ZM171.533,153.406L83.294,153.406C76.269,153.406 70.567,159.109 70.567,166.133C70.567,173.158 76.27,178.861 83.294,178.861L171.533,178.861C178.557,178.861 184.26,173.158 184.26,166.133C184.26,159.109 178.558,153.406 171.533,153.406ZM84.24,160.13C87.553,160.13 90.243,162.82 90.243,166.133C90.243,169.447 87.553,172.137 84.24,172.137C80.927,172.137 78.237,169.447 78.237,166.133C78.237,162.82 80.927,160.13 84.24,160.13ZM171.533,114.686L83.294,114.686C76.269,114.686 70.567,120.389 70.567,127.414C70.567,134.438 76.27,140.141 83.294,140.141L171.533,140.141C178.557,140.141 184.26,134.438 184.26,127.414C184.26,120.389 178.558,114.686 171.533,114.686ZM84.24,121.41C87.553,121.41 90.243,124.1 90.243,127.414C90.243,130.727 87.553,133.417 84.24,133.417C80.927,133.417 78.237,130.727 78.237,127.414C78.237,124.1 80.927,121.41 84.24,121.41ZM171.533,75.85L83.294,75.85C76.269,75.851 70.567,81.553 70.567,88.578C70.567,95.602 76.27,101.305 83.294,101.305L171.533,101.305C178.557,101.305 184.26,95.602 184.26,88.578C184.26,81.553 178.558,75.851 171.533,75.85ZM84.24,82.574C87.553,82.574 90.243,85.264 90.243,88.578C90.243,91.891 87.553,94.581 84.24,94.581C80.927,94.581 78.237,91.891 78.237,88.578C78.237,85.264 80.927,82.574 84.24,82.574ZM171.533,37.365L83.294,37.365C76.269,37.365 70.567,43.068 70.567,50.092C70.567,57.117 76.27,62.82 83.294,62.82L171.533,62.82C178.557,62.82 184.26,57.117 184.26,50.092C184.26,43.068 178.558,37.365 171.533,37.365ZM84.24,44.089C87.553,44.089 90.243,46.779 90.243,50.092C90.243,53.405 87.553,56.095 84.24,56.095C80.927,56.095 78.237,53.405 78.237,50.092C78.237,46.779 80.927,44.089 84.24,44.089Z" style="fill:rgb(45,103,185);"/>
        </g>
    </g>
</svg>
