<?xml version="1.0" encoding="UTF-8" standalone="no"?>
<!DOCTYPE svg PUBLIC "-//W3C//DTD SVG 1.1//EN" "http://www.w3.org/Graphics/SVG/1.1/DTD/svg11.dtd">
<svg width="100%" height="100%" viewBox="0 0 300 300" version="1.1" xmlns="http://www.w3.org/2000/svg" xmlns:xlink="http://www.w3.org/1999/xlink" xml:space="preserve" xmlns:serif="http://www.serif.com/" style="fill-rule:evenodd;clip-rule:evenodd;stroke-linejoin:round;stroke-miterlimit:2;">
    <g>
        <circle cx="150" cy="150" r="150" style="fill:rgb(255,254,254);"/>
        <path d="M150,0C232.787,0 300,67.213 300,150C300,232.787 232.787,300 150,300C67.213,300 0,232.787 0,150C0,67.213 67.213,0 150,0ZM150,16C223.957,16 284,76.043 284,150C284,223.957 223.957,284 150,284C76.043,284 16,223.957 16,150C16,76.043 76.043,16 150,16Z" style="fill:rgb(45,103,185);"/>
        <g transform="matrix(0.832912,0,0,0.832912,25.0627,21.3895)">
            <path d="M229.997,234.964L250.015,234.964L250.015,249.964L49.98,249.964L49.98,234.964L69.997,234.964L69.997,50.064L229.997,50.064L229.997,234.964ZM165.98,234.964L165.98,194.935C165.98,194.192 165.377,193.589 164.635,193.589L135.365,193.589C134.623,193.589 134.02,194.192 134.02,194.935L134.02,234.964L165.98,234.964ZM120.017,150.725L100.017,150.725L100.017,170.725L120.017,170.725L120.017,150.725ZM159.997,150.725L139.997,150.725L139.997,170.725L159.997,170.725L159.997,150.725ZM199.977,150.725L179.977,150.725L179.977,170.725L199.977,170.725L199.977,150.725ZM120.017,115.347L100.017,115.347L100.017,135.347L120.017,135.347L120.017,115.347ZM159.997,115.347L139.997,115.347L139.997,135.347L159.997,135.347L159.997,115.347ZM199.977,115.347L179.977,115.347L179.977,135.347L199.977,135.347L199.977,115.347ZM120.017,79.968L100.017,79.968L100.017,99.968L120.017,99.968L120.017,79.968ZM159.997,79.968L139.997,79.968L139.997,99.968L159.997,99.968L159.997,79.968ZM199.977,79.968L179.977,79.968L179.977,99.968L199.977,99.968L199.977,79.968Z" style="fill:rgb(45,103,185);"/>
        </g>
    </g>
</svg>
