<?xml version="1.0" encoding="UTF-8" standalone="no"?>
<!DOCTYPE svg PUBLIC "-//W3C//DTD SVG 1.1//EN" "http://www.w3.org/Graphics/SVG/1.1/DTD/svg11.dtd">
<svg width="100%" height="100%" viewBox="0 0 300 300" version="1.1" xmlns="http://www.w3.org/2000/svg" xmlns:xlink="http://www.w3.org/1999/xlink" xml:space="preserve" xmlns:serif="http://www.serif.com/" style="fill-rule:evenodd;clip-rule:evenodd;stroke-linejoin:round;stroke-miterlimit:2;">
    <g>
        <circle cx="150" cy="150" r="150" style="fill:rgb(255,254,254);"/>
        <path d="M150,0C232.787,0 300,67.213 300,150C300,232.787 232.787,300 150,300C67.213,300 0,232.787 0,150C0,67.213 67.213,0 150,0ZM150,16C223.957,16 284,76.043 284,150C284,223.957 223.957,284 150,284C76.043,284 16,223.957 16,150C16,76.043 76.043,16 150,16Z" style="fill:rgb(45,103,185);"/>
        <g transform="matrix(1.26275,0,0,1.26275,-22.2863,-37.8446)">
            <path d="M81,109C82.238,98.745 96.5,84.167 104,85C111.5,85.833 126.614,108.435 126,116C125.241,125.347 117.654,126.813 112,129C110.153,129.715 106.992,131.721 111,142C116.466,156.021 134.239,175.9 142,178C153.696,181.165 149.77,177.564 155,172C159.526,167.184 163.054,165.497 167,167C174,169.667 192.667,188.5 192,196C191.333,203.5 173.557,215.229 163,212C148.833,207.667 120.667,187.167 107,170C93.333,152.833 79.279,123.254 81,109Z" style="fill:rgb(45,103,185);"/>
        </g>
    </g>
</svg>
