<?xml version="1.0" encoding="UTF-8" standalone="no"?>
<!DOCTYPE svg PUBLIC "-//W3C//DTD SVG 1.1//EN" "http://www.w3.org/Graphics/SVG/1.1/DTD/svg11.dtd">
<svg width="100%" height="100%" viewBox="0 0 300 300" version="1.1" xmlns="http://www.w3.org/2000/svg" xmlns:xlink="http://www.w3.org/1999/xlink" xml:space="preserve" xmlns:serif="http://www.serif.com/" style="fill-rule:evenodd;clip-rule:evenodd;stroke-linejoin:round;stroke-miterlimit:2;">
    <g>
        <circle cx="150" cy="150" r="150" style="fill:rgb(255,254,254);"/>
        <path d="M150,0C232.787,0 300,67.213 300,150C300,232.787 232.787,300 150,300C67.213,300 0,232.787 0,150C0,67.213 67.213,0 150,0ZM150,16C223.957,16 284,76.043 284,150C284,223.957 223.957,284 150,284C76.043,284 16,223.957 16,150C16,76.043 76.043,16 150,16Z" style="fill:rgb(45,103,185);"/>
        <g transform="matrix(1,0,0,1,-12.5533,19.85)">
            <path d="M81,109C82.238,98.745 96.5,84.167 104,85C111.5,85.833 126.614,108.435 126,116C125.241,125.347 117.654,126.813 112,129C110.153,129.715 106.992,131.721 111,142C116.466,156.021 134.239,175.9 142,178C153.696,181.165 149.77,177.564 155,172C159.526,167.184 163.054,165.497 167,167C174,169.667 192.667,188.5 192,196C191.333,203.5 173.557,215.229 163,212C148.833,207.667 120.667,187.167 107,170C93.333,152.833 79.279,123.254 81,109Z" style="fill:rgb(45,103,185);"/>
        </g>
        <g transform="matrix(1,0,0,1,-8.30326,7.60004)">
            <path d="M227,149.876C226.931,107.434 192.455,73 150,73L149.958,73C146.39,72.977 143.5,70.073 143.5,66.5C143.5,62.913 146.413,60 150,60C199.672,60 240,100.328 240,150C240,153.587 237.087,156.5 233.5,156.5C229.913,156.5 227,153.587 227,150L227,149.876Z" style="fill:rgb(45,103,185);"/>
            <path d="M150.207,86C185.437,86.115 214,114.748 214,150C214,153.587 211.087,156.5 207.5,156.5C203.913,156.5 201,153.587 201,150C201,121.909 178.239,99.091 150.165,99L150,99C146.413,99 143.5,96.087 143.5,92.5C143.5,88.913 146.413,86 150,86L150.207,86Z" style="fill:rgb(45,103,185);"/>
            <path d="M149.958,125C146.39,124.977 143.5,122.073 143.5,118.5C143.5,114.913 146.413,112 150,112C170.973,112 188,129.027 188,150C188,153.587 185.087,156.5 181.5,156.5C177.913,156.5 175,153.587 175,150C175,136.202 163.798,125 150,125L149.958,125Z" style="fill:rgb(45,103,185);"/>
        </g>
    </g>
</svg>
