<?xml version="1.0" encoding="UTF-8" standalone="no"?>
<!DOCTYPE svg PUBLIC "-//W3C//DTD SVG 1.1//EN" "http://www.w3.org/Graphics/SVG/1.1/DTD/svg11.dtd">
<svg width="100%" height="100%" viewBox="0 0 300 300" version="1.1" xmlns="http://www.w3.org/2000/svg" xmlns:xlink="http://www.w3.org/1999/xlink" xml:space="preserve" xmlns:serif="http://www.serif.com/" style="fill-rule:evenodd;clip-rule:evenodd;stroke-linecap:round;stroke-linejoin:round;stroke-miterlimit:1.5;">
    <g>
        <circle cx="150" cy="150" r="150" style="fill:rgb(255,254,254);"/>
        <path d="M150,0C232.787,0 300,67.213 300,150C300,232.787 232.787,300 150,300C67.213,300 0,232.787 0,150C0,67.213 67.213,0 150,0ZM150,16C223.957,16 284,76.043 284,150C284,223.957 223.957,284 150,284C76.043,284 16,223.957 16,150C16,76.043 76.043,16 150,16Z" style="fill:rgb(45,103,185);"/>
        <g transform="matrix(1.11166,0,0,1.11166,-16.7488,-35.4769)">
            <path d="M93.524,228.429C93.349,228.432 93.175,228.433 93,228.433C71.236,228.433 53.567,210.764 53.567,189C53.567,169.472 67.794,153.24 86.439,150.112C86.917,115.434 115.214,87.433 150,87.433C184.786,87.433 213.083,115.434 213.561,150.112C232.206,153.24 246.433,169.472 246.433,189C246.433,210.764 228.764,228.433 207,228.433C206.727,228.433 206.455,228.43 206.185,228.424L206.185,228.429L93.524,228.429ZM93,215L207,215C221.037,215 232.433,203.604 232.433,189.567C232.433,177.247 223.654,166.961 212.016,164.63L211.793,164.586L211.707,164.571L211.482,164.529L211.395,164.514L211.17,164.475L211.079,164.461L210.856,164.426L210.761,164.412L210.541,164.38L210.439,164.366L210.225,164.338L210.115,164.324L209.908,164.299L209.788,164.286L209.59,164.265L209.46,164.253L209.27,164.235L209.13,164.223L208.949,164.208L208.798,164.198L208.627,164.186L208.465,164.177L208.304,164.167L208.13,164.16L207.98,164.153L207.79,164.147L207.654,164.143L207.439,164.139L207.328,164.137L207,164.134L206.682,164.136L206.576,164.138L206.364,164.142L206.238,164.146L206.048,164.152L205.914,164.158L205.732,164.166L205.594,164.173L205.418,164.183L205.277,164.192L205.104,164.205L204.962,164.216L204.792,164.23L204.649,164.242L204.48,164.258L204.337,164.273L204.169,164.291L204.026,164.307L203.86,164.327L203.717,164.345L203.551,164.367L203.409,164.387L203.242,164.411L203.102,164.432L202.934,164.459L202.797,164.481L202.619,164.512L202.493,164.533L202.198,164.588L202.054,164.617L201.897,164.648L201.744,164.68L201.598,164.711L201.442,164.745L201.301,164.777L201.142,164.814L201.004,164.847L200.845,164.886L200.71,164.92L200.55,164.962L200.416,164.997L200.256,165.04L200.125,165.077L199.964,165.122L199.834,165.16L199.673,165.208L199.546,165.247L199.384,165.297L199.259,165.336L199.096,165.389L198.974,165.429L198.811,165.484L198.692,165.525L198.526,165.583L198.413,165.623L198.244,165.685L198.157,165.717L197.969,165.787L197.822,165.844L197.747,165.874C199.211,161.177 200,156.18 200,151C200,123.404 177.596,101 150,101C122.404,101 100,123.404 100,151C100,156.18 100.789,161.177 102.253,165.874L102.178,165.844L102.031,165.787L101.843,165.717L101.756,165.685L101.587,165.623L101.474,165.583L101.308,165.525L101.189,165.484L101.026,165.429L100.904,165.389L100.741,165.336L100.616,165.297L100.454,165.247L100.327,165.208L100.166,165.16L100.036,165.122L99.875,165.077L99.744,165.04L99.584,164.997L99.45,164.962L99.29,164.92L99.155,164.886L98.996,164.847L98.858,164.814L98.699,164.777L98.558,164.745L98.402,164.711L98.256,164.68L98.103,164.648L97.946,164.617L97.802,164.588L97.507,164.533L97.381,164.512L97.203,164.481L97.066,164.459L96.898,164.432L96.758,164.411L96.591,164.387L96.449,164.367L96.283,164.345L96.14,164.327L95.974,164.307L95.831,164.291L95.663,164.273L95.52,164.258L95.351,164.242L95.208,164.23L95.038,164.216L94.896,164.205L94.723,164.192L94.582,164.183L94.406,164.173L94.268,164.166L94.086,164.158L93.952,164.152L93.762,164.146L93.636,164.142L93.424,164.138L93.318,164.136L93,164.134L92.672,164.137L92.561,164.139L92.346,164.143L92.21,164.147L92.02,164.153L91.87,164.16L91.696,164.167L91.535,164.177L91.373,164.186L91.202,164.198L91.051,164.208L90.87,164.223L90.73,164.235L90.54,164.253L90.41,164.265L90.212,164.286L90.092,164.299L89.885,164.324L89.775,164.338L89.561,164.366L89.459,164.38L89.239,164.412L89.144,164.426L88.921,164.461L88.83,164.475L88.605,164.514L88.518,164.529L88.293,164.571L88.207,164.586L87.984,164.63C76.346,166.961 67.567,177.247 67.567,189.567C67.567,203.604 78.963,215 93,215Z" style="fill:rgb(45,103,185);"/>
        </g>
        <g transform="matrix(0.956634,0,0,0.956634,43.9363,33.2411)">
            <path d="M81,109C82.238,98.745 96.5,84.167 104,85C111.5,85.833 126.614,108.435 126,116C125.241,125.347 117.654,126.813 112,129C110.153,129.715 106.992,131.721 111,142C116.466,156.021 134.239,175.9 142,178C153.696,181.165 149.77,177.564 155,172C159.526,167.184 163.054,165.497 167,167C174,169.667 192.667,188.5 192,196C191.333,203.5 173.557,215.229 163,212C148.833,207.667 120.667,187.167 107,170C93.333,152.833 79.279,123.254 81,109Z" style="fill:rgb(45,103,185);stroke:white;stroke-width:3.92px;"/>
        </g>
    </g>
</svg>
