<?xml version="1.0" encoding="UTF-8" standalone="no"?>
<!DOCTYPE svg PUBLIC "-//W3C//DTD SVG 1.1//EN" "http://www.w3.org/Graphics/SVG/1.1/DTD/svg11.dtd">
<svg width="100%" height="100%" viewBox="0 0 300 300" version="1.1" xmlns="http://www.w3.org/2000/svg" xmlns:xlink="http://www.w3.org/1999/xlink" xml:space="preserve" xmlns:serif="http://www.serif.com/" style="fill-rule:evenodd;clip-rule:evenodd;stroke-linejoin:round;stroke-miterlimit:2;">
    <g>
        <circle cx="150" cy="150" r="150" style="fill:rgb(255,254,254);"/>
        <path d="M150,0C232.787,0 300,67.213 300,150C300,232.787 232.787,300 150,300C67.213,300 0,232.787 0,150C0,67.213 67.213,0 150,0ZM150,16C223.957,16 284,76.043 284,150C284,223.957 223.957,284 150,284C76.043,284 16,223.957 16,150C16,76.043 76.043,16 150,16Z" style="fill:rgb(45,103,185);"/>
        <g transform="matrix(0.871355,0,0,0.871355,38.9775,35.1186)">
            <path d="M72.756,101.516C69.449,94.064 67.611,85.816 67.611,77.14C67.611,44.014 94.408,17.12 127.414,17.12C160.42,17.12 187.216,44.014 187.216,77.14C187.216,85.816 185.378,94.064 182.071,101.516L182.094,101.516L127.414,246.564L72.733,101.516L72.756,101.516ZM127.414,35.129C150.516,35.129 169.272,53.954 169.272,77.14C169.272,100.326 150.516,119.151 127.414,119.151C104.311,119.151 85.555,100.326 85.555,77.14C85.555,53.954 104.311,35.129 127.414,35.129Z" style="fill:rgb(45,103,185);"/>
        </g>
    </g>
</svg>
