<?xml version="1.0" encoding="UTF-8" standalone="no"?>
<!DOCTYPE svg PUBLIC "-//W3C//DTD SVG 1.1//EN" "http://www.w3.org/Graphics/SVG/1.1/DTD/svg11.dtd">
<svg width="100%" height="100%" viewBox="0 0 300 300" version="1.1" xmlns="http://www.w3.org/2000/svg" xmlns:xlink="http://www.w3.org/1999/xlink" xml:space="preserve" xmlns:serif="http://www.serif.com/" style="fill-rule:evenodd;clip-rule:evenodd;stroke-linejoin:round;stroke-miterlimit:2;">
    <g>
        <circle cx="150" cy="150" r="150" style="fill:rgb(255,254,254);"/>
        <path d="M150,0C232.787,0 300,67.213 300,150C300,232.787 232.787,300 150,300C67.213,300 0,232.787 0,150C0,67.213 67.213,0 150,0ZM150,16C223.957,16 284,76.043 284,150C284,223.957 223.957,284 150,284C76.043,284 16,223.957 16,150C16,76.043 76.043,16 150,16Z" style="fill:rgb(45,103,185);"/>
        <g transform="matrix(1.60883,0,0,1.59255,-91.339,-88.7798)">
            <path d="M200.03,178.304L164.31,178.304L164.31,186.311L135.737,186.311L135.737,178.304L116.032,178.304L116.032,162.29L135.69,162.29L135.69,170.297L164.31,170.297L164.31,162.29L184.015,162.29L184.015,113.689L200.03,113.689L200.03,178.304ZM116.032,178.304L100.017,178.304L100.017,113.689L116.032,113.689L116.032,178.304ZM155.311,129.357L155.311,113.343L144.689,113.343L144.689,129.357L155.311,129.357ZM135.69,129.357L135.69,113.343L125.067,113.343L125.067,129.357L135.69,129.357ZM174.899,129.357L174.899,113.343L164.277,113.343L164.277,129.357L174.899,129.357Z" style="fill:rgb(45,103,185);"/>
        </g>
    </g>
</svg>
