<?xml version="1.0" encoding="UTF-8" standalone="no"?>
<!DOCTYPE svg PUBLIC "-//W3C//DTD SVG 1.1//EN" "http://www.w3.org/Graphics/SVG/1.1/DTD/svg11.dtd">
<svg width="100%" height="100%" viewBox="0 0 300 300" version="1.1" xmlns="http://www.w3.org/2000/svg" xmlns:xlink="http://www.w3.org/1999/xlink" xml:space="preserve" xmlns:serif="http://www.serif.com/" style="fill-rule:evenodd;clip-rule:evenodd;stroke-linejoin:round;stroke-miterlimit:2;">
    <g>
        <circle cx="150" cy="150" r="150" style="fill:rgb(255,254,254);"/>
        <path d="M150,0C232.787,0 300,67.213 300,150C300,232.787 232.787,300 150,300C67.213,300 0,232.787 0,150C0,67.213 67.213,0 150,0ZM150,16C223.957,16 284,76.043 284,150C284,223.957 223.957,284 150,284C76.043,284 16,223.957 16,150C16,76.043 76.043,16 150,16Z" style="fill:rgb(45,103,185);"/>
        <g transform="matrix(1,0,0,1,0,-11.8162)">
            <path d="M99.802,219.924L91.417,219.924C91.236,219.926 91.055,219.927 90.874,219.927C68.3,219.927 49.974,202.402 49.974,180.815C49.974,161.445 64.729,145.345 84.069,142.243C84.565,107.847 113.915,80.073 149.994,80.073C186.074,80.073 215.424,107.847 215.92,142.243C235.259,145.345 250.015,161.445 250.015,180.815C250.015,202.402 231.688,219.927 209.115,219.927C208.832,219.927 208.55,219.925 208.27,219.919L208.27,219.924L200.245,219.924C200.173,219.926 200.102,219.927 200.03,219.927C196.353,219.927 193.368,216.942 193.368,213.265C193.368,209.589 196.353,206.604 200.03,206.604L209.115,206.604C223.674,206.604 235.494,195.3 235.494,181.378C235.494,169.158 226.388,158.955 214.317,156.643L214.086,156.6L213.997,156.584L213.764,156.543L213.673,156.528L213.44,156.489L213.346,156.475L213.114,156.44L213.015,156.426L212.788,156.394L212.682,156.381L212.46,156.353L212.345,156.339L212.131,156.315L212.007,156.302L211.801,156.281L211.666,156.269L211.469,156.251L211.324,156.239L211.137,156.225L210.98,156.214L210.803,156.202L210.634,156.193L210.467,156.184L210.287,156.176L210.131,156.17L209.935,156.164L209.793,156.16L209.57,156.155L209.455,156.153L209.115,156.151L208.785,156.153L208.675,156.155L208.456,156.159L208.325,156.163L208.127,156.169L207.988,156.174L207.8,156.182L207.656,156.19L207.474,156.2L207.328,156.209L207.148,156.221L207.001,156.232L206.824,156.246L206.676,156.258L206.501,156.274L206.352,156.289L206.179,156.307L206.03,156.323L205.858,156.343L205.71,156.36L205.537,156.382L205.39,156.402L205.217,156.426L205.072,156.446L204.897,156.473L204.755,156.495L204.571,156.525L204.44,156.547L204.134,156.601L203.984,156.63L203.822,156.66L203.663,156.692L203.512,156.723L203.35,156.757L203.203,156.789L203.039,156.825L202.896,156.858L202.731,156.897L202.59,156.931L202.424,156.972L202.286,157.007L202.12,157.05L201.984,157.086L201.817,157.131L201.683,157.169L201.515,157.216L201.383,157.254L201.215,157.304L201.086,157.343L200.917,157.396L200.791,157.436L200.621,157.49L200.498,157.531L200.326,157.588L200.209,157.628L200.033,157.689L199.943,157.721L199.748,157.791L199.595,157.847L199.517,157.876C201.036,153.217 201.854,148.261 201.854,143.124C201.854,115.752 178.617,93.53 149.994,93.53C121.372,93.53 98.134,115.752 98.134,143.124C98.134,148.261 98.953,153.217 100.471,157.876L100.393,157.847L100.241,157.791L100.045,157.721L99.956,157.689L99.78,157.628L99.663,157.588L99.491,157.531L99.368,157.49L99.198,157.436L99.071,157.396L98.902,157.343L98.773,157.304L98.605,157.254L98.473,157.216L98.306,157.169L98.172,157.131L98.005,157.086L97.869,157.05L97.702,157.007L97.564,156.972L97.398,156.931L97.257,156.897L97.092,156.858L96.949,156.825L96.785,156.789L96.639,156.757L96.476,156.723L96.325,156.692L96.166,156.66L96.004,156.63L95.855,156.601L95.549,156.547L95.418,156.525L95.233,156.495L95.091,156.473L94.916,156.446L94.771,156.426L94.598,156.402L94.451,156.382L94.279,156.36L94.131,156.343L93.958,156.323L93.81,156.307L93.636,156.289L93.487,156.274L93.312,156.258L93.164,156.246L92.987,156.232L92.84,156.221L92.661,156.209L92.515,156.2L92.332,156.19L92.188,156.182L92,156.174L91.861,156.169L91.663,156.163L91.533,156.159L91.313,156.155L91.204,156.153L90.874,156.151L90.534,156.153L90.419,156.155L90.195,156.16L90.054,156.164L89.857,156.17L89.702,156.176L89.521,156.184L89.354,156.193L89.186,156.202L89.008,156.214L88.852,156.225L88.664,156.239L88.519,156.251L88.322,156.269L88.187,156.281L87.981,156.302L87.857,156.315L87.643,156.339L87.528,156.353L87.307,156.381L87.2,156.394L86.973,156.426L86.874,156.44L86.642,156.475L86.549,156.489L86.315,156.528L86.225,156.543L85.991,156.584L85.902,156.6L85.671,156.643C73.6,158.955 64.495,169.158 64.495,181.378C64.495,195.3 76.315,206.604 90.874,206.604L100.017,206.604C103.694,206.604 106.679,209.589 106.679,213.265C106.679,216.942 103.694,219.927 100.017,219.927C99.945,219.927 99.873,219.926 99.802,219.924Z" style="fill:rgb(45,103,185);"/>
        </g>
        <g transform="matrix(0.469056,0,0,0.469056,90.3126,102.765)">
            <path d="M138.458,152.273L138.458,202.269L158.915,181.814L158.846,213.18L127.346,244.68L95.912,213.245L95.912,181.769L116.43,202.287L116.43,152.415L138.458,152.273ZM194.491,116.43L244.364,116.43L244.505,138.458L194.509,138.458L214.964,158.915L183.599,158.846L152.099,127.346L183.533,95.912L215.009,95.912L194.491,116.43ZM70.967,158.915L39.49,158.915L60.009,138.397L10.136,138.397L9.994,116.369L59.99,116.369L39.536,95.912L70.901,95.981L102.401,127.481L70.967,158.915ZM116.369,102.434L116.369,52.438L95.912,72.893L95.981,41.527L127.481,10.028L158.915,41.462L158.915,72.938L138.397,52.42L138.397,102.292L116.369,102.434Z" style="fill:rgb(45,103,185);"/>
        </g>
    </g>
</svg>
