<?xml version="1.0" encoding="UTF-8" standalone="no"?>
<!DOCTYPE svg PUBLIC "-//W3C//DTD SVG 1.1//EN" "http://www.w3.org/Graphics/SVG/1.1/DTD/svg11.dtd">
<svg width="100%" height="100%" viewBox="0 0 300 300" version="1.1" xmlns="http://www.w3.org/2000/svg" xmlns:xlink="http://www.w3.org/1999/xlink" xml:space="preserve" xmlns:serif="http://www.serif.com/" style="fill-rule:evenodd;clip-rule:evenodd;stroke-linejoin:round;stroke-miterlimit:2;">
    <g>
        <circle cx="150" cy="150" r="150" style="fill:rgb(255,254,254);"/>
        <path d="M150,0C232.787,0 300,67.213 300,150C300,232.787 232.787,300 150,300C67.213,300 0,232.787 0,150C0,67.213 67.213,0 150,0ZM150,16C223.957,16 284,76.043 284,150C284,223.957 223.957,284 150,284C76.043,284 16,223.957 16,150C16,76.043 76.043,16 150,16Z" style="fill:rgb(45,103,185);"/>
        <g transform="matrix(0.93951,0,0,0.93951,6.42409,2.29716)">
            <g transform="matrix(1,0,0,1,-6.74023,6.74023)">
                <path d="M105.879,194.127L105.752,194C78.414,166.662 78.414,122.338 105.752,95L152.42,141.668L165.14,128.948C165.019,128.415 164.955,127.859 164.955,127.289C164.955,123.15 168.316,119.789 172.455,119.789C176.595,119.789 179.955,123.15 179.955,127.289C179.955,131.429 176.595,134.789 172.455,134.789C171.886,134.789 171.33,134.726 170.797,134.605L158.077,147.325L204.752,194C190.616,208.136 171.939,214.962 153.417,214.479L164,244L88,244L105.879,194.127Z" style="fill:rgb(45,103,185);"/>
            </g>
            <path d="M226.69,137.82C226.639,121.263 220.04,105.397 208.329,93.685C196.572,81.928 180.627,75.324 164,75.324C160.788,75.324 158.181,72.716 158.181,69.504C158.181,66.293 160.788,63.685 164,63.685C183.714,63.685 202.62,71.516 216.559,85.455C230.471,99.367 238.299,118.227 238.33,137.899L238.33,138.015C238.33,141.226 235.722,143.834 232.51,143.834C229.298,143.834 226.691,141.226 226.691,138.015L226.69,137.82Z" style="fill:rgb(45,103,185);"/>
            <path d="M164.002,87.984C177.271,87.984 189.995,93.255 199.377,102.637C208.76,112.02 214.031,124.745 214.031,138.015L214.031,138.015C214.031,141.218 211.43,143.819 208.226,143.819C205.022,143.819 202.421,141.218 202.421,138.015C202.422,127.824 198.374,118.052 191.168,110.846C183.963,103.641 174.19,99.593 164,99.593L164,99.593L164,99.593C160.796,99.593 158.195,96.992 158.195,93.789C158.195,90.585 160.796,87.984 164,87.984L164.002,87.984Z" style="fill:rgb(45,103,185);"/>
        </g>
    </g>
</svg>
