<?xml version="1.0" encoding="UTF-8" standalone="no"?>
<!DOCTYPE svg PUBLIC "-//W3C//DTD SVG 1.1//EN" "http://www.w3.org/Graphics/SVG/1.1/DTD/svg11.dtd">
<svg width="100%" height="100%" viewBox="0 0 300 300" version="1.1" xmlns="http://www.w3.org/2000/svg" xmlns:xlink="http://www.w3.org/1999/xlink" xml:space="preserve" xmlns:serif="http://www.serif.com/" style="fill-rule:evenodd;clip-rule:evenodd;stroke-linejoin:round;stroke-miterlimit:2;">
    <g>
        <circle cx="150" cy="150" r="150" style="fill:rgb(255,254,254);"/>
        <path d="M150,0C232.787,0 300,67.213 300,150C300,232.787 232.787,300 150,300C67.213,300 0,232.787 0,150C0,67.213 67.213,0 150,0ZM150,16C223.957,16 284,76.043 284,150C284,223.957 223.957,284 150,284C76.043,284 16,223.957 16,150C16,76.043 76.043,16 150,16Z" style="fill:rgb(45,103,185);"/>
        <g transform="matrix(0.852797,0,0,0.852797,24.1591,19.8157)">
            <path d="M162.09,193.903L173.438,182.555L208.811,217.928L242.108,184.631L206.734,149.258L218.083,137.91L264.53,184.358L208.538,240.35L162.09,193.903ZM98.693,190.226C93.431,180.235 94.999,167.575 103.398,159.176L183.356,79.218C193.684,68.89 210.454,68.89 220.782,79.218C231.11,89.546 231.11,106.316 220.782,116.644L140.824,196.602C132.51,204.915 120.022,206.537 110.08,201.466L102.534,209.012C99.412,212.134 94.343,212.134 91.221,209.012C88.099,205.89 88.099,200.821 91.221,197.699L91.22,197.698L98.693,190.226ZM210.275,107.177C215.091,102.361 215.091,94.541 210.275,89.725C205.459,84.909 197.639,84.909 192.823,89.725L113.297,169.251C108.48,174.067 108.48,181.887 113.297,186.703C118.113,191.52 125.933,191.52 130.749,186.703L210.275,107.177ZM162.09,81.917L150.742,93.266L115.369,57.892L82.072,91.189L117.445,126.562L106.097,137.91L59.65,91.462L115.642,35.47L162.09,81.917Z" style="fill:rgb(45,103,185);"/>
        </g>
        <g transform="matrix(0.852797,0,0,0.852797,-6.49747,50.8445)">
            <path d="M150,215.976C113.587,215.976 84.024,186.413 84.024,150L84.024,149.952C84.05,145.834 87.401,142.5 91.524,142.5C95.663,142.5 99.024,145.861 99.024,150C99.024,150.189 99.017,150.377 99.003,150.562C99.304,178.266 121.737,200.698 149.438,200.997C149.623,200.983 149.811,200.976 150,200.976C154.139,200.976 157.5,204.337 157.5,208.476C157.5,212.599 154.166,215.95 150.048,215.976L150,215.976Z" style="fill:rgb(45,103,185);"/>
        </g>
    </g>
</svg>
