<?xml version="1.0" encoding="UTF-8" standalone="no"?>
<!DOCTYPE svg PUBLIC "-//W3C//DTD SVG 1.1//EN" "http://www.w3.org/Graphics/SVG/1.1/DTD/svg11.dtd">
<svg width="100%" height="100%" viewBox="0 0 300 300" version="1.1" xmlns="http://www.w3.org/2000/svg" xmlns:xlink="http://www.w3.org/1999/xlink" xml:space="preserve" xmlns:serif="http://www.serif.com/" style="fill-rule:evenodd;clip-rule:evenodd;stroke-linejoin:round;stroke-miterlimit:2;">
    <g>
        <circle cx="150" cy="150" r="150" style="fill:rgb(255,254,254);"/>
        <path d="M150,0C232.787,0 300,67.213 300,150C300,232.787 232.787,300 150,300C67.213,300 0,232.787 0,150C0,67.213 67.213,0 150,0ZM150,16C223.957,16 284,76.043 284,150C284,223.957 223.957,284 150,284C76.043,284 16,223.957 16,150C16,76.043 76.043,16 150,16Z" style="fill:rgb(45,103,185);"/>
        <g transform="matrix(1,0,0,1,22.5864,24.9658)">
            <path d="M74.348,182.188C51.779,165.762 37.097,139.141 37.097,109.117C37.097,59.27 77.567,18.801 127.414,18.801C177.26,18.801 217.73,59.27 217.73,109.117C217.73,139.05 203.136,165.602 180.682,182.039C180.838,182.57 180.922,183.132 180.922,183.714L180.922,225.324C180.922,228.604 178.259,231.267 174.979,231.267L163.093,231.267C159.812,231.267 157.149,228.604 157.149,225.324L157.149,194.416C155.864,194.864 154.565,195.285 153.254,195.676L153.254,225.324C153.254,228.604 150.591,231.267 147.311,231.267L135.425,231.267C132.145,231.267 129.482,228.604 129.482,225.324L129.482,199.41C128.794,199.426 128.105,199.433 127.414,199.433C126.797,199.433 126.182,199.427 125.569,199.415L125.569,225.324C125.569,228.604 122.906,231.267 119.625,231.267L107.739,231.267C104.459,231.267 101.796,228.604 101.796,225.324L101.796,195.742C100.492,195.357 99.201,194.943 97.923,194.501L97.923,225.324C97.923,228.604 95.26,231.267 91.979,231.267L80.093,231.267C76.813,231.267 74.15,228.604 74.15,225.324L74.15,183.714C74.15,183.186 74.219,182.675 74.348,182.188Z" style="fill:rgb(45,103,185);"/>
            <g>
                <path d="M65.717,98.232C74.37,98.094 117.469,127.958 117.469,134.736C117.468,141.515 83.645,153.02 64.924,139.121C51.274,128.987 54.738,98.406 65.717,98.232Z" style="fill:white;"/>
                <g transform="matrix(-1,0,0,1,254.827,0)">
                    <path d="M65.717,98.232C74.37,98.094 117.469,127.958 117.469,134.736C117.468,141.515 83.645,153.02 64.924,139.121C51.274,128.987 54.738,98.406 65.717,98.232Z" style="fill:white;"/>
                </g>
                <g transform="matrix(1,0,0,1,-7.05456,-2.59864)">
                    <path d="M134.468,155.392C134.468,155.392 124.523,172.994 124.523,180.538C124.523,186.027 128.979,190.483 134.468,190.483C139.957,190.483 144.413,186.027 144.413,180.538C144.413,172.994 134.468,155.392 134.468,155.392Z" style="fill:white;"/>
                </g>
            </g>
        </g>
    </g>
</svg>
