<?xml version="1.0" encoding="UTF-8" standalone="no"?>
<!DOCTYPE svg PUBLIC "-//W3C//DTD SVG 1.1//EN" "http://www.w3.org/Graphics/SVG/1.1/DTD/svg11.dtd">
<svg width="100%" height="100%" viewBox="0 0 300 300" version="1.1" xmlns="http://www.w3.org/2000/svg" xmlns:xlink="http://www.w3.org/1999/xlink" xml:space="preserve" xmlns:serif="http://www.serif.com/" style="fill-rule:evenodd;clip-rule:evenodd;stroke-linejoin:round;stroke-miterlimit:2;">
    <g>
        <circle cx="150" cy="150" r="150" style="fill:rgb(255,254,254);"/>
        <path d="M150,0C232.787,0 300,67.213 300,150C300,232.787 232.787,300 150,300C67.213,300 0,232.787 0,150C0,67.213 67.213,0 150,0ZM150,16C223.957,16 284,76.043 284,150C284,223.957 223.957,284 150,284C76.043,284 16,223.957 16,150C16,76.043 76.043,16 150,16Z" style="fill:rgb(45,103,185);"/>
        <g transform="matrix(1.13559,0,0,1.13559,-20.3422,-20.339)">
            <path d="M190.028,68.703C195.548,68.703 200.03,73.184 200.03,78.704L200.03,221.296C200.03,226.816 195.548,231.297 190.028,231.297L110.019,231.297C104.499,231.297 100.017,226.816 100.017,221.296L100.017,78.704C100.017,73.184 104.499,68.703 110.019,68.703L190.028,68.703ZM158.023,199.955C158.023,195.539 154.439,191.955 150.023,191.955C145.608,191.955 142.023,195.539 142.023,199.955C142.023,204.37 145.608,207.955 150.023,207.955C154.439,207.955 158.023,204.37 158.023,199.955ZM184.199,113.997L115.801,113.997C115.002,113.997 114.353,114.646 114.353,115.445L114.353,127.027C114.353,127.826 115.002,128.475 115.801,128.475L184.199,128.475C184.998,128.475 185.647,127.826 185.647,127.027L185.647,115.445C185.647,114.646 184.998,113.997 184.199,113.997ZM184.199,85.49L115.801,85.49C115.002,85.49 114.353,86.139 114.353,86.938L114.353,98.52C114.353,99.319 115.002,99.968 115.801,99.968L184.199,99.968C184.998,99.968 185.647,99.319 185.647,98.52L185.647,86.938C185.647,86.139 184.998,85.49 184.199,85.49Z" style="fill:rgb(45,103,185);"/>
        </g>
    </g>
</svg>
