<?xml version="1.0" encoding="UTF-8" standalone="no"?>
<!DOCTYPE svg PUBLIC "-//W3C//DTD SVG 1.1//EN" "http://www.w3.org/Graphics/SVG/1.1/DTD/svg11.dtd">
<svg width="100%" height="100%" viewBox="0 0 300 300" version="1.1" xmlns="http://www.w3.org/2000/svg" xmlns:xlink="http://www.w3.org/1999/xlink" xml:space="preserve" xmlns:serif="http://www.serif.com/" style="fill-rule:evenodd;clip-rule:evenodd;stroke-linejoin:round;stroke-miterlimit:2;">
    <g>
        <circle cx="150" cy="150" r="150" style="fill:rgb(255,254,254);"/>
        <path d="M150,0C232.787,0 300,67.213 300,150C300,232.787 232.787,300 150,300C67.213,300 0,232.787 0,150C0,67.213 67.213,0 150,0ZM150,16C223.957,16 284,76.043 284,150C284,223.957 223.957,284 150,284C76.043,284 16,223.957 16,150C16,76.043 76.043,16 150,16Z" style="fill:rgb(45,103,185);"/>
        <g transform="matrix(0.91308,0,0,0.902406,13.0375,14.639)">
            <g transform="matrix(1.05166,0,0,1,-7.7487,-4.00974)">
                <path d="M241.494,85.91C243.488,85.91 245.107,87.53 245.107,89.524L245.107,118.431C245.107,120.426 243.488,122.045 241.494,122.045L58.506,122.045C56.512,122.045 54.893,120.426 54.893,118.431L54.893,89.524C54.893,87.53 56.512,85.91 58.506,85.91L241.494,85.91ZM112.403,97.521L101.309,97.521C100.596,97.521 100.017,98.1 100.017,98.813L100.017,109.143C100.017,109.855 100.596,110.434 101.309,110.434L112.403,110.434C113.116,110.434 113.694,109.855 113.694,109.143L113.694,98.813C113.694,98.1 113.116,97.521 112.403,97.521ZM228.794,97.521L171.265,97.521C170.552,97.521 169.974,98.1 169.974,98.813L169.974,109.143C169.974,109.855 170.552,110.434 171.265,110.434L228.794,110.434C229.507,110.434 230.085,109.855 230.085,109.143L230.085,98.813C230.085,98.1 229.507,97.521 228.794,97.521ZM88.318,97.521L77.224,97.521C76.511,97.521 75.933,98.1 75.933,98.813L75.933,109.143C75.933,109.855 76.511,110.434 77.224,110.434L88.318,110.434C89.031,110.434 89.61,109.855 89.61,109.143L89.61,98.813C89.61,98.1 89.031,97.521 88.318,97.521Z" style="fill:rgb(45,103,185);"/>
            </g>
            <g transform="matrix(1.05166,0,0,1,-7.76036,96.0547)">
                <path d="M241.494,85.91C243.488,85.91 245.107,87.53 245.107,89.524L245.107,118.431C245.107,120.426 243.488,122.045 241.494,122.045L58.506,122.045C56.512,122.045 54.893,120.426 54.893,118.431L54.893,89.524C54.893,87.53 56.512,85.91 58.506,85.91L241.494,85.91ZM112.403,97.521L101.309,97.521C100.596,97.521 100.017,98.1 100.017,98.813L100.017,109.143C100.017,109.855 100.596,110.434 101.309,110.434L112.403,110.434C113.116,110.434 113.694,109.855 113.694,109.143L113.694,98.813C113.694,98.1 113.116,97.521 112.403,97.521ZM228.794,97.521L171.265,97.521C170.552,97.521 169.974,98.1 169.974,98.813L169.974,109.143C169.974,109.855 170.552,110.434 171.265,110.434L228.794,110.434C229.507,110.434 230.085,109.855 230.085,109.143L230.085,98.813C230.085,98.1 229.507,97.521 228.794,97.521ZM88.318,97.521L77.224,97.521C76.511,97.521 75.933,98.1 75.933,98.813L75.933,109.143C75.933,109.855 76.511,110.434 77.224,110.434L88.318,110.434C89.031,110.434 89.61,109.855 89.61,109.143L89.61,98.813C89.61,98.1 89.031,97.521 88.318,97.521Z" style="fill:rgb(45,103,185);"/>
            </g>
            <g transform="matrix(1.05166,0,0,1,-7.75453,46.0225)">
                <path d="M241.494,85.91C243.488,85.91 245.107,87.53 245.107,89.524L245.107,118.431C245.107,120.426 243.488,122.045 241.494,122.045L58.506,122.045C56.512,122.045 54.893,120.426 54.893,118.431L54.893,89.524C54.893,87.53 56.512,85.91 58.506,85.91L241.494,85.91ZM112.403,97.521L101.309,97.521C100.596,97.521 100.017,98.1 100.017,98.813L100.017,109.143C100.017,109.855 100.596,110.434 101.309,110.434L112.403,110.434C113.116,110.434 113.694,109.855 113.694,109.143L113.694,98.813C113.694,98.1 113.116,97.521 112.403,97.521ZM228.794,97.521L171.265,97.521C170.552,97.521 169.974,98.1 169.974,98.813L169.974,109.143C169.974,109.855 170.552,110.434 171.265,110.434L228.794,110.434C229.507,110.434 230.085,109.855 230.085,109.143L230.085,98.813C230.085,98.1 229.507,97.521 228.794,97.521ZM88.318,97.521L77.224,97.521C76.511,97.521 75.933,98.1 75.933,98.813L75.933,109.143C75.933,109.855 76.511,110.434 77.224,110.434L88.318,110.434C89.031,110.434 89.61,109.855 89.61,109.143L89.61,98.813C89.61,98.1 89.031,97.521 88.318,97.521Z" style="fill:rgb(45,103,185);"/>
            </g>
        </g>
    </g>
</svg>
