<?xml version="1.0" encoding="UTF-8" standalone="no"?>
<!DOCTYPE svg PUBLIC "-//W3C//DTD SVG 1.1//EN" "http://www.w3.org/Graphics/SVG/1.1/DTD/svg11.dtd">
<svg width="100%" height="100%" viewBox="0 0 300 300" version="1.1" xmlns="http://www.w3.org/2000/svg" xmlns:xlink="http://www.w3.org/1999/xlink" xml:space="preserve" xmlns:serif="http://www.serif.com/" style="fill-rule:evenodd;clip-rule:evenodd;stroke-linejoin:round;stroke-miterlimit:2;">
    <g>
        <circle cx="150" cy="150" r="150" style="fill:rgb(255,254,254);"/>
        <path d="M150,0C232.787,0 300,67.213 300,150C300,232.787 232.787,300 150,300C67.213,300 0,232.787 0,150C0,67.213 67.213,0 150,0ZM150,16C223.957,16 284,76.043 284,150C284,223.957 223.957,284 150,284C76.043,284 16,223.957 16,150C16,76.043 76.043,16 150,16Z" style="fill:rgb(45,103,185);"/>
        <g transform="matrix(0.982862,0,0,0.982862,0.470945,0.0177126)">
            <g transform="matrix(1,0,0,1,2.13633,7.44273)">
                <path d="M150,251.643C149.913,251.602 119.057,237.1 95.732,195.074C65.581,140.753 67.191,75.178 67.191,75.178C122.952,75.971 149.943,48.379 150,48.32C150.057,48.379 177.048,75.971 232.809,75.178C232.809,75.178 234.419,140.753 204.268,195.074C180.91,237.159 150,251.643 150,251.643Z" style="fill:rgb(45,103,185);"/>
            </g>
            <g transform="matrix(0.853263,0,0,0.84723,24.1469,29.7079)">
                <path d="M150,251.643C149.913,251.602 119.057,237.1 95.732,195.074C65.581,140.753 67.191,75.178 67.191,75.178C122.952,75.971 149.943,48.379 150,48.32C150.057,48.379 177.048,75.971 232.809,75.178C232.809,75.178 234.419,140.753 204.268,195.074C180.91,237.159 150,251.643 150,251.643Z" style="fill:rgb(45,103,185);fill-opacity:0;"/>
                <path d="M150,251.643C149.913,251.602 119.057,237.1 95.732,195.074C65.581,140.753 67.191,75.178 67.191,75.178C122.952,75.971 149.943,48.379 150,48.32C150.057,48.379 177.048,75.971 232.809,75.178C232.809,75.178 234.419,140.753 204.268,195.074C180.91,237.159 150,251.643 150,251.643ZM150,63.042C138.616,71.291 115.069,84.423 78.735,86.358C79.672,106.494 84.235,150.98 105.62,189.508C121.522,218.159 141.115,232.915 150,238.54C158.881,232.917 178.476,218.163 194.38,189.508C215.765,150.98 220.328,106.494 221.265,86.358C184.934,84.424 161.385,71.293 150,63.042Z" style="fill:white;"/>
            </g>
        </g>
    </g>
</svg>
