<?xml version="1.0" encoding="UTF-8" standalone="no"?>
<!DOCTYPE svg PUBLIC "-//W3C//DTD SVG 1.1//EN" "http://www.w3.org/Graphics/SVG/1.1/DTD/svg11.dtd">
<svg width="100%" height="100%" viewBox="0 0 300 300" version="1.1" xmlns="http://www.w3.org/2000/svg" xmlns:xlink="http://www.w3.org/1999/xlink" xml:space="preserve" xmlns:serif="http://www.serif.com/" style="fill-rule:evenodd;clip-rule:evenodd;stroke-linejoin:round;stroke-miterlimit:1.41421;">
    <g>
        <g transform="matrix(1,0,0,1,2.13633,-0.018233)">
            <g id="Background_circle">
                <g>
                    <circle cx="150" cy="150" r="150" style="fill:rgb(255,254,254);"/>
                    <path d="M150.485,0.001L150.969,0.003L151.454,0.007L151.937,0.012L152.421,0.019L152.904,0.028L153.387,0.038L153.869,0.049L154.351,0.062L154.833,0.077L155.314,0.093L155.795,0.11L156.275,0.129L156.755,0.15L157.235,0.172L157.714,0.195L158.193,0.22L158.671,0.247L159.15,0.275L159.627,0.305L160.105,0.336L160.581,0.368L161.058,0.402L161.534,0.438L162.01,0.475L162.485,0.513L162.96,0.553L163.434,0.595L163.908,0.638L164.382,0.682L164.855,0.728L165.327,0.775L165.8,0.824L166.272,0.874L166.743,0.926L167.214,0.979L167.685,1.034L168.155,1.09L168.624,1.147L169.093,1.206L169.562,1.266L170.031,1.328L170.498,1.392L170.966,1.456L171.433,1.523L171.899,1.59L172.365,1.659L172.831,1.73L173.296,1.802L173.76,1.875L174.225,1.95L174.688,2.026L175.151,2.103L175.614,2.182L176.076,2.263L176.538,2.345L176.999,2.428L177.46,2.512L177.92,2.599L178.38,2.686L178.839,2.775L179.298,2.865L179.757,2.957L180.214,3.05L180.672,3.144L181.128,3.24L181.585,3.337L182.04,3.436L182.496,3.536L182.95,3.637L183.405,3.74L183.858,3.844L184.311,3.949L184.764,4.056L185.216,4.164L185.668,4.274L186.119,4.385L186.569,4.497L187.019,4.611L187.469,4.726L187.918,4.842L188.366,4.96L188.814,5.079L189.261,5.199L189.708,5.321L190.154,5.444L190.6,5.569L191.045,5.694L191.489,5.822L191.933,5.95L192.377,6.08L192.819,6.211L193.262,6.343L193.703,6.477L194.144,6.612L194.585,6.748L195.025,6.886L195.464,7.025L195.903,7.166L196.341,7.307L196.779,7.45L197.216,7.594L197.652,7.74L198.088,7.887L198.523,8.035L198.958,8.184L199.392,8.335L199.825,8.487L200.258,8.64L200.69,8.795L201.122,8.951L201.553,9.108L201.983,9.267L202.413,9.426L202.842,9.587L203.271,9.75L203.698,9.913L204.126,10.078L204.552,10.244L204.978,10.411L205.404,10.58L205.828,10.75L206.253,10.921L206.676,11.094L207.099,11.267L207.521,11.442L207.943,11.618L208.363,11.796L208.784,11.974L209.203,12.154L209.622,12.335L210.04,12.517L210.458,12.701L210.875,12.886L211.291,13.072L211.707,13.259L212.122,13.448L212.536,13.637L212.949,13.828L213.362,14.02L213.774,14.214L214.186,14.408L214.597,14.604L215.007,14.801L215.417,14.999L215.825,15.199L216.233,15.399L216.641,15.601L217.047,15.804L217.453,16.008L217.859,16.214L218.263,16.42L218.667,16.628L219.07,16.837L219.473,17.047L219.875,17.258L220.276,17.471L220.676,17.685L221.075,17.899L221.474,18.115L221.872,18.333L222.27,18.551L222.667,18.77L223.062,18.991L223.458,19.213L223.852,19.436L224.246,19.66L224.639,19.885L225.031,20.112L225.423,20.339L225.813,20.568L226.203,20.798L226.593,21.029L226.981,21.261L227.369,21.494L227.756,21.729L228.142,21.964L228.527,22.201L228.912,22.439L229.296,22.678L229.679,22.918L230.062,23.159L230.443,23.402L230.824,23.645L231.204,23.889L231.583,24.135L231.962,24.382L232.339,24.63L232.716,24.879L233.092,25.129L233.468,25.38L233.842,25.632L234.216,25.886L234.589,26.14L234.961,26.396L235.332,26.652L235.702,26.91L236.072,27.169L236.441,27.429L236.809,27.69L237.176,27.952L237.543,28.215L237.908,28.479L238.273,28.744L238.637,29.011L239,29.278L239.362,29.546L239.724,29.816L240.084,30.087L240.444,30.358L240.803,30.631L241.161,30.905L241.518,31.179L241.874,31.455L242.23,31.732L242.585,32.01L242.938,32.289L243.291,32.569L243.643,32.85L243.995,33.132L244.345,33.415L244.695,33.699L245.043,33.984L245.391,34.271L245.738,34.558L246.084,34.846L246.429,35.135L246.773,35.425L247.117,35.717L247.459,36.009L247.801,36.302L248.141,36.597L248.481,36.892L248.82,37.188L249.158,37.485L249.495,37.784L249.831,38.083L250.167,38.383L250.501,38.684L250.835,38.987L251.167,39.29L251.499,39.594L251.83,39.899L252.159,40.205L252.488,40.513L252.816,40.821L253.143,41.13L253.47,41.44L253.795,41.751L254.119,42.063L254.443,42.376L254.765,42.69L255.086,43.005L255.407,43.32L255.727,43.637L256.045,43.955L256.363,44.273L256.68,44.593L256.995,44.914L257.31,45.235L257.624,45.557L257.937,45.881L258.249,46.205L258.56,46.53L258.87,46.857L259.179,47.184L259.487,47.512L259.795,47.841L260.101,48.17L260.406,48.501L260.71,48.833L261.013,49.165L261.316,49.499L261.617,49.833L261.917,50.169L262.216,50.505L262.515,50.842L262.812,51.18L263.108,51.519L263.403,51.859L263.698,52.199L263.991,52.541L264.283,52.883L264.575,53.227L264.865,53.571L265.154,53.916L265.442,54.262L265.729,54.609L266.016,54.957L266.301,55.305L266.585,55.655L266.868,56.005L267.15,56.357L267.431,56.709L267.711,57.062L267.99,57.415L268.268,57.77L268.545,58.126L268.821,58.482L269.095,58.839L269.369,59.197L269.642,59.556L269.913,59.916L270.184,60.276L270.454,60.638L270.722,61L270.989,61.363L271.256,61.727L271.521,62.092L271.785,62.457L272.048,62.824L272.31,63.191L272.571,63.559L272.831,63.928L273.09,64.298L273.348,64.668L273.604,65.039L273.86,65.411L274.114,65.784L274.368,66.158L274.62,66.532L274.871,66.908L275.121,67.284L275.37,67.661L275.618,68.038L275.865,68.417L276.111,68.796L276.355,69.176L276.598,69.557L276.841,69.938L277.082,70.321L277.322,70.704L277.561,71.088L277.799,71.473L278.036,71.858L278.271,72.244L278.506,72.631L278.739,73.019L278.971,73.407L279.202,73.797L279.432,74.187L279.661,74.577L279.888,74.969L280.115,75.361L280.34,75.754L280.564,76.148L280.787,76.542L281.009,76.938L281.23,77.333L281.449,77.73L281.667,78.128L281.885,78.526L282.101,78.925L282.315,79.324L282.529,79.724L282.742,80.125L282.953,80.527L283.163,80.93L283.372,81.333L283.58,81.737L283.786,82.141L283.992,82.547L284.196,82.953L284.399,83.359L284.601,83.767L284.801,84.175L285.001,84.583L285.199,84.993L285.396,85.403L285.592,85.814L285.786,86.226L285.98,86.638L286.172,87.051L286.363,87.464L286.552,87.878L286.741,88.293L286.928,88.709L287.114,89.125L287.299,89.542L287.483,89.96L287.665,90.378L287.846,90.797L288.026,91.216L288.204,91.637L288.382,92.057L288.558,92.479L288.733,92.901L288.906,93.324L289.079,93.747L289.25,94.172L289.42,94.596L289.589,95.022L289.756,95.448L289.922,95.874L290.087,96.302L290.25,96.729L290.413,97.158L290.574,97.587L290.733,98.017L290.892,98.447L291.049,98.878L291.205,99.31L291.36,99.742L291.513,100.175L291.665,100.608L291.816,101.042L291.965,101.477L292.113,101.912L292.26,102.348L292.406,102.784L292.55,103.221L292.693,103.659L292.834,104.097L292.975,104.536L293.114,104.975L293.252,105.415L293.388,105.856L293.523,106.297L293.657,106.738L293.789,107.181L293.92,107.623L294.05,108.067L294.178,108.511L294.306,108.955L294.431,109.4L294.556,109.846L294.679,110.292L294.801,110.739L294.921,111.186L295.04,111.634L295.158,112.082L295.274,112.531L295.389,112.981L295.503,113.431L295.615,113.881L295.726,114.332L295.836,114.784L295.944,115.236L296.051,115.689L296.156,116.142L296.26,116.595L296.363,117.05L296.464,117.504L296.564,117.96L296.663,118.415L296.76,118.872L296.856,119.328L296.95,119.786L297.043,120.243L297.135,120.702L297.225,121.161L297.314,121.62L297.401,122.08L297.488,122.54L297.572,123.001L297.655,123.462L297.737,123.924L297.818,124.386L297.897,124.849L297.974,125.312L298.05,125.775L298.125,126.24L298.198,126.704L298.27,127.169L298.341,127.635L298.41,128.101L298.477,128.567L298.544,129.034L298.608,129.502L298.672,129.969L298.734,130.438L298.794,130.907L298.853,131.376L298.91,131.845L298.966,132.315L299.021,132.786L299.074,133.257L299.126,133.728L299.176,134.2L299.225,134.673L299.272,135.145L299.318,135.618L299.362,136.092L299.405,136.566L299.447,137.04L299.487,137.515L299.525,137.99L299.562,138.466L299.598,138.942L299.632,139.419L299.664,139.895L299.695,140.373L299.725,140.85L299.753,141.329L299.78,141.807L299.805,142.286L299.828,142.765L299.85,143.245L299.871,143.725L299.89,144.205L299.907,144.686L299.923,145.167L299.938,145.649L299.951,146.131L299.962,146.613L299.972,147.096L299.981,147.579L299.988,148.063L299.993,148.546L299.997,149.031L299.999,149.515L300,150L299.999,150.485L299.997,150.969L299.993,151.454L299.988,151.937L299.981,152.421L299.972,152.904L299.962,153.387L299.951,153.869L299.938,154.351L299.923,154.833L299.907,155.314L299.89,155.795L299.871,156.275L299.85,156.755L299.828,157.235L299.805,157.714L299.78,158.193L299.753,158.671L299.725,159.15L299.695,159.627L299.664,160.105L299.632,160.581L299.598,161.058L299.562,161.534L299.525,162.01L299.487,162.485L299.447,162.96L299.405,163.434L299.362,163.908L299.318,164.382L299.272,164.855L299.225,165.327L299.176,165.8L299.126,166.272L299.074,166.743L299.021,167.214L298.966,167.685L298.91,168.155L298.853,168.624L298.794,169.093L298.734,169.562L298.672,170.031L298.608,170.498L298.544,170.966L298.477,171.433L298.41,171.899L298.341,172.365L298.27,172.831L298.198,173.296L298.125,173.76L298.05,174.225L297.974,174.688L297.897,175.151L297.818,175.614L297.737,176.076L297.655,176.538L297.572,176.999L297.488,177.46L297.401,177.92L297.314,178.38L297.225,178.839L297.135,179.298L297.043,179.757L296.95,180.214L296.856,180.672L296.76,181.128L296.663,181.585L296.564,182.04L296.464,182.496L296.363,182.95L296.26,183.405L296.156,183.858L296.051,184.311L295.944,184.764L295.836,185.216L295.726,185.668L295.615,186.119L295.503,186.569L295.389,187.019L295.274,187.469L295.158,187.918L295.04,188.366L294.921,188.814L294.801,189.261L294.679,189.708L294.556,190.154L294.431,190.6L294.306,191.045L294.178,191.489L294.05,191.933L293.92,192.377L293.789,192.819L293.657,193.262L293.523,193.703L293.388,194.144L293.252,194.585L293.114,195.025L292.975,195.464L292.834,195.903L292.693,196.341L292.55,196.779L292.406,197.216L292.26,197.652L292.113,198.088L291.965,198.523L291.816,198.958L291.665,199.392L291.513,199.825L291.36,200.258L291.205,200.69L291.049,201.122L290.892,201.553L290.733,201.983L290.574,202.413L290.413,202.842L290.25,203.271L290.087,203.698L289.922,204.126L289.756,204.552L289.589,204.978L289.42,205.404L289.25,205.828L289.079,206.253L288.906,206.676L288.733,207.099L288.558,207.521L288.382,207.943L288.204,208.363L288.026,208.784L287.846,209.203L287.665,209.622L287.483,210.04L287.299,210.458L287.114,210.875L286.928,211.291L286.741,211.707L286.552,212.122L286.363,212.536L286.172,212.949L285.98,213.362L285.786,213.774L285.592,214.186L285.396,214.597L285.199,215.007L285.001,215.417L284.801,215.825L284.601,216.233L284.399,216.641L284.196,217.047L283.992,217.453L283.786,217.859L283.58,218.263L283.372,218.667L283.163,219.07L282.953,219.473L282.742,219.875L282.529,220.276L282.315,220.676L282.101,221.075L281.885,221.474L281.667,221.872L281.449,222.27L281.23,222.667L281.009,223.062L280.787,223.458L280.564,223.852L280.34,224.246L280.115,224.639L279.888,225.031L279.661,225.423L279.432,225.813L279.202,226.203L278.971,226.593L278.739,226.981L278.506,227.369L278.271,227.756L278.036,228.142L277.799,228.527L277.561,228.912L277.322,229.296L277.082,229.679L276.841,230.062L276.598,230.443L276.355,230.824L276.111,231.204L275.865,231.583L275.618,231.962L275.37,232.339L275.121,232.716L274.871,233.092L274.62,233.468L274.368,233.842L274.114,234.216L273.86,234.589L273.604,234.961L273.348,235.332L273.09,235.702L272.831,236.072L272.571,236.441L272.31,236.809L272.048,237.176L271.785,237.543L271.521,237.908L271.256,238.273L270.989,238.637L270.722,239L270.454,239.362L270.184,239.724L269.913,240.084L269.642,240.444L269.369,240.803L269.095,241.161L268.821,241.518L268.545,241.874L268.268,242.23L267.99,242.585L267.711,242.938L267.431,243.291L267.15,243.643L266.868,243.995L266.585,244.345L266.301,244.695L266.016,245.043L265.729,245.391L265.442,245.738L265.154,246.084L264.865,246.429L264.575,246.773L264.283,247.117L263.991,247.459L263.698,247.801L263.403,248.141L263.108,248.481L262.812,248.82L262.515,249.158L262.216,249.495L261.917,249.831L261.617,250.167L261.316,250.501L261.013,250.835L260.71,251.167L260.406,251.499L260.101,251.83L259.795,252.159L259.487,252.488L259.179,252.816L258.87,253.143L258.56,253.47L258.249,253.795L257.937,254.119L257.624,254.443L257.31,254.765L256.995,255.086L256.68,255.407L256.363,255.727L256.045,256.045L255.727,256.363L255.407,256.68L255.086,256.995L254.765,257.31L254.443,257.624L254.119,257.937L253.795,258.249L253.47,258.56L253.143,258.87L252.816,259.179L252.488,259.487L252.159,259.795L251.83,260.101L251.499,260.406L251.167,260.71L250.835,261.013L250.501,261.316L250.167,261.617L249.831,261.917L249.495,262.216L249.158,262.515L248.82,262.812L248.481,263.108L248.141,263.403L247.801,263.698L247.459,263.991L247.117,264.283L246.773,264.575L246.429,264.865L246.084,265.154L245.738,265.442L245.391,265.729L245.043,266.016L244.695,266.301L244.345,266.585L243.995,266.868L243.643,267.15L243.291,267.431L242.938,267.711L242.585,267.99L242.23,268.268L241.874,268.545L241.518,268.821L241.161,269.095L240.803,269.369L240.444,269.642L240.084,269.913L239.724,270.184L239.362,270.454L239,270.722L238.637,270.989L238.273,271.256L237.908,271.521L237.543,271.785L237.176,272.048L236.809,272.31L236.441,272.571L236.072,272.831L235.702,273.09L235.332,273.348L234.961,273.604L234.589,273.86L234.216,274.114L233.842,274.368L233.468,274.62L233.092,274.871L232.716,275.121L232.339,275.37L231.962,275.618L231.583,275.865L231.204,276.111L230.824,276.355L230.443,276.598L230.062,276.841L229.679,277.082L229.296,277.322L228.912,277.561L228.527,277.799L228.142,278.036L227.756,278.271L227.369,278.506L226.981,278.739L226.593,278.971L226.203,279.202L225.813,279.432L225.423,279.661L225.031,279.888L224.639,280.115L224.246,280.34L223.852,280.564L223.458,280.787L223.062,281.009L222.667,281.23L222.27,281.449L221.872,281.667L221.474,281.885L221.075,282.101L220.676,282.315L220.276,282.529L219.875,282.742L219.473,282.953L219.07,283.163L218.667,283.372L218.263,283.58L217.859,283.786L217.453,283.992L217.047,284.196L216.641,284.399L216.233,284.601L215.825,284.801L215.417,285.001L215.007,285.199L214.597,285.396L214.186,285.592L213.774,285.786L213.362,285.98L212.949,286.172L212.536,286.363L212.122,286.552L211.707,286.741L211.291,286.928L210.875,287.114L210.458,287.299L210.04,287.483L209.622,287.665L209.203,287.846L208.784,288.026L208.363,288.204L207.943,288.382L207.521,288.558L207.099,288.733L206.676,288.906L206.253,289.079L205.828,289.25L205.404,289.42L204.978,289.589L204.552,289.756L204.126,289.922L203.698,290.087L203.271,290.25L202.842,290.413L202.413,290.574L201.983,290.733L201.553,290.892L201.122,291.049L200.69,291.205L200.258,291.36L199.825,291.513L199.392,291.665L198.958,291.816L198.523,291.965L198.088,292.113L197.652,292.26L197.216,292.406L196.779,292.55L196.341,292.693L195.903,292.834L195.464,292.975L195.025,293.114L194.585,293.252L194.144,293.388L193.703,293.523L193.262,293.657L192.819,293.789L192.377,293.92L191.933,294.05L191.489,294.178L191.045,294.306L190.6,294.431L190.154,294.556L189.708,294.679L189.261,294.801L188.814,294.921L188.366,295.04L187.918,295.158L187.469,295.274L187.019,295.389L186.569,295.503L186.119,295.615L185.668,295.726L185.216,295.836L184.764,295.944L184.311,296.051L183.858,296.156L183.405,296.26L182.95,296.363L182.496,296.464L182.04,296.564L181.585,296.663L181.128,296.76L180.672,296.856L180.214,296.95L179.757,297.043L179.298,297.135L178.839,297.225L178.38,297.314L177.92,297.401L177.46,297.488L176.999,297.572L176.538,297.655L176.076,297.737L175.614,297.818L175.151,297.897L174.688,297.974L174.225,298.05L173.76,298.125L173.296,298.198L172.831,298.27L172.365,298.341L171.899,298.41L171.433,298.477L170.966,298.544L170.498,298.608L170.031,298.672L169.562,298.734L169.093,298.794L168.624,298.853L168.155,298.91L167.685,298.966L167.214,299.021L166.743,299.074L166.272,299.126L165.8,299.176L165.327,299.225L164.855,299.272L164.382,299.318L163.908,299.362L163.434,299.405L162.96,299.447L162.485,299.487L162.01,299.525L161.534,299.562L161.058,299.598L160.581,299.632L160.105,299.664L159.627,299.695L159.15,299.725L158.671,299.753L158.193,299.78L157.714,299.805L157.235,299.828L156.755,299.85L156.275,299.871L155.795,299.89L155.314,299.907L154.833,299.923L154.351,299.938L153.869,299.951L153.387,299.962L152.904,299.972L152.421,299.981L151.937,299.988L151.454,299.993L150.969,299.997L150.485,299.999L150,300L149.515,299.999L149.031,299.997L148.546,299.993L148.063,299.988L147.579,299.981L147.096,299.972L146.613,299.962L146.131,299.951L145.649,299.938L145.167,299.923L144.686,299.907L144.205,299.89L143.725,299.871L143.245,299.85L142.765,299.828L142.286,299.805L141.807,299.78L141.329,299.753L140.85,299.725L140.373,299.695L139.895,299.664L139.419,299.632L138.942,299.598L138.466,299.562L137.99,299.525L137.515,299.487L137.04,299.447L136.566,299.405L136.092,299.362L135.618,299.318L135.145,299.272L134.673,299.225L134.2,299.176L133.728,299.126L133.257,299.074L132.786,299.021L132.315,298.966L131.845,298.91L131.376,298.853L130.907,298.794L130.438,298.734L129.969,298.672L129.502,298.608L129.034,298.544L128.567,298.477L128.101,298.41L127.635,298.341L127.169,298.27L126.704,298.198L126.24,298.125L125.775,298.05L125.312,297.974L124.849,297.897L124.386,297.818L123.924,297.737L123.462,297.655L123.001,297.572L122.54,297.488L122.08,297.401L121.62,297.314L121.161,297.225L120.702,297.135L120.243,297.043L119.786,296.95L119.328,296.856L118.872,296.76L118.415,296.663L117.96,296.564L117.504,296.464L117.05,296.363L116.595,296.26L116.142,296.156L115.689,296.051L115.236,295.944L114.784,295.836L114.332,295.726L113.881,295.615L113.431,295.503L112.981,295.389L112.531,295.274L112.082,295.158L111.634,295.04L111.186,294.921L110.739,294.801L110.292,294.679L109.846,294.556L109.4,294.431L108.955,294.306L108.511,294.178L108.067,294.05L107.623,293.92L107.181,293.789L106.738,293.657L106.297,293.523L105.856,293.388L105.415,293.252L104.975,293.114L104.536,292.975L104.097,292.834L103.659,292.693L103.221,292.55L102.784,292.406L102.348,292.26L101.912,292.113L101.477,291.965L101.042,291.816L100.608,291.665L100.175,291.513L99.742,291.36L99.31,291.205L98.878,291.049L98.447,290.892L98.017,290.733L97.587,290.574L97.158,290.413L96.729,290.25L96.302,290.087L95.874,289.922L95.448,289.756L95.022,289.589L94.596,289.42L94.172,289.25L93.747,289.079L93.324,288.906L92.901,288.733L92.479,288.558L92.057,288.382L91.637,288.204L91.216,288.026L90.797,287.846L90.378,287.665L89.96,287.483L89.542,287.299L89.125,287.114L88.709,286.928L88.293,286.741L87.878,286.552L87.464,286.363L87.051,286.172L86.638,285.98L86.226,285.786L85.814,285.592L85.403,285.396L84.993,285.199L84.583,285.001L84.175,284.801L83.767,284.601L83.359,284.399L82.953,284.196L82.547,283.992L82.141,283.786L81.737,283.58L81.333,283.372L80.93,283.163L80.527,282.953L80.125,282.742L79.724,282.529L79.324,282.315L78.925,282.101L78.526,281.885L78.128,281.667L77.73,281.449L77.333,281.23L76.938,281.009L76.542,280.787L76.148,280.564L75.754,280.34L75.361,280.115L74.969,279.888L74.577,279.661L74.187,279.432L73.797,279.202L73.407,278.971L73.019,278.739L72.631,278.506L72.244,278.271L71.858,278.036L71.473,277.799L71.088,277.561L70.704,277.322L70.321,277.082L69.938,276.841L69.557,276.598L69.176,276.355L68.796,276.111L68.417,275.865L68.038,275.618L67.661,275.37L67.284,275.121L66.908,274.871L66.532,274.62L66.158,274.368L65.784,274.114L65.411,273.86L65.039,273.604L64.668,273.348L64.298,273.09L63.928,272.831L63.559,272.571L63.191,272.31L62.824,272.048L62.457,271.785L62.092,271.521L61.727,271.256L61.363,270.989L61,270.722L60.638,270.454L60.276,270.184L59.916,269.913L59.556,269.642L59.197,269.369L58.839,269.095L58.482,268.821L58.126,268.545L57.77,268.268L57.415,267.99L57.062,267.711L56.709,267.431L56.357,267.15L56.005,266.868L55.655,266.585L55.305,266.301L54.957,266.016L54.609,265.729L54.262,265.442L53.916,265.154L53.571,264.865L53.227,264.575L52.883,264.283L52.541,263.991L52.199,263.698L51.859,263.403L51.519,263.108L51.18,262.812L50.842,262.515L50.505,262.216L50.169,261.917L49.833,261.617L49.499,261.316L49.165,261.013L48.833,260.71L48.501,260.406L48.17,260.101L47.841,259.795L47.512,259.487L47.184,259.179L46.857,258.87L46.53,258.56L46.205,258.249L45.881,257.937L45.557,257.624L45.235,257.31L44.914,256.995L44.593,256.68L44.273,256.363L43.955,256.045L43.637,255.727L43.32,255.407L43.005,255.086L42.69,254.765L42.376,254.443L42.063,254.119L41.751,253.795L41.44,253.47L41.13,253.143L40.821,252.816L40.513,252.488L40.205,252.159L39.899,251.83L39.594,251.499L39.29,251.167L38.987,250.835L38.684,250.501L38.383,250.167L38.083,249.831L37.784,249.495L37.485,249.158L37.188,248.82L36.892,248.481L36.597,248.141L36.302,247.801L36.009,247.459L35.717,247.117L35.425,246.773L35.135,246.429L34.846,246.084L34.558,245.738L34.271,245.391L33.984,245.043L33.699,244.695L33.415,244.345L33.132,243.995L32.85,243.643L32.569,243.291L32.289,242.938L32.01,242.585L31.732,242.23L31.455,241.874L31.179,241.518L30.905,241.161L30.631,240.803L30.358,240.444L30.087,240.084L29.816,239.724L29.546,239.362L29.278,239L29.011,238.637L28.744,238.273L28.479,237.908L28.215,237.543L27.952,237.176L27.69,236.809L27.429,236.441L27.169,236.072L26.91,235.702L26.652,235.332L26.396,234.961L26.14,234.589L25.886,234.216L25.632,233.842L25.38,233.468L25.129,233.092L24.879,232.716L24.63,232.339L24.382,231.962L24.135,231.583L23.889,231.204L23.645,230.824L23.402,230.443L23.159,230.062L22.918,229.679L22.678,229.296L22.439,228.912L22.201,228.527L21.964,228.142L21.729,227.756L21.494,227.369L21.261,226.981L21.029,226.593L20.798,226.203L20.568,225.813L20.339,225.423L20.112,225.031L19.885,224.639L19.66,224.246L19.436,223.852L19.213,223.458L18.991,223.062L18.77,222.667L18.551,222.27L18.333,221.872L18.115,221.474L17.899,221.075L17.685,220.676L17.471,220.276L17.258,219.875L17.047,219.473L16.837,219.07L16.628,218.667L16.42,218.263L16.214,217.859L16.008,217.453L15.804,217.047L15.601,216.641L15.399,216.233L15.199,215.825L14.999,215.417L14.801,215.007L14.604,214.597L14.408,214.186L14.214,213.774L14.02,213.362L13.828,212.949L13.637,212.536L13.448,212.122L13.259,211.707L13.072,211.291L12.886,210.875L12.701,210.458L12.517,210.04L12.335,209.622L12.154,209.203L11.974,208.784L11.796,208.363L11.618,207.943L11.442,207.521L11.267,207.099L11.094,206.676L10.921,206.253L10.75,205.828L10.58,205.404L10.411,204.978L10.244,204.552L10.078,204.126L9.913,203.698L9.75,203.271L9.587,202.842L9.426,202.413L9.267,201.983L9.108,201.553L8.951,201.122L8.795,200.69L8.64,200.258L8.487,199.825L8.335,199.392L8.184,198.958L8.035,198.523L7.887,198.088L7.74,197.652L7.594,197.216L7.45,196.779L7.307,196.341L7.166,195.903L7.025,195.464L6.886,195.025L6.748,194.585L6.612,194.144L6.477,193.703L6.343,193.262L6.211,192.819L6.08,192.377L5.95,191.933L5.822,191.489L5.694,191.045L5.569,190.6L5.444,190.154L5.321,189.708L5.199,189.261L5.079,188.814L4.96,188.366L4.842,187.918L4.726,187.469L4.611,187.019L4.497,186.569L4.385,186.119L4.274,185.668L4.164,185.216L4.056,184.764L3.949,184.311L3.844,183.858L3.74,183.405L3.637,182.95L3.536,182.496L3.436,182.04L3.337,181.585L3.24,181.128L3.144,180.672L3.05,180.214L2.957,179.757L2.865,179.298L2.775,178.839L2.686,178.38L2.599,177.92L2.512,177.46L2.428,176.999L2.345,176.538L2.263,176.076L2.182,175.614L2.103,175.151L2.026,174.688L1.95,174.225L1.875,173.76L1.802,173.296L1.73,172.831L1.659,172.365L1.59,171.899L1.523,171.433L1.456,170.966L1.392,170.498L1.328,170.031L1.266,169.562L1.206,169.093L1.147,168.624L1.09,168.155L1.034,167.685L0.979,167.214L0.926,166.743L0.874,166.272L0.824,165.8L0.775,165.327L0.728,164.855L0.682,164.382L0.638,163.908L0.595,163.434L0.553,162.96L0.513,162.485L0.475,162.01L0.438,161.534L0.402,161.058L0.368,160.581L0.336,160.105L0.305,159.627L0.275,159.15L0.247,158.671L0.22,158.193L0.195,157.714L0.172,157.235L0.15,156.755L0.129,156.275L0.11,155.795L0.093,155.314L0.077,154.833L0.062,154.351L0.049,153.869L0.038,153.387L0.028,152.904L0.019,152.421L0.012,151.937L0.007,151.454L0.003,150.969L0.001,150.485L0,150L0.001,149.515L0.003,149.031L0.007,148.546L0.012,148.063L0.019,147.579L0.028,147.096L0.038,146.613L0.049,146.131L0.062,145.649L0.077,145.167L0.093,144.686L0.11,144.205L0.129,143.725L0.15,143.245L0.172,142.765L0.195,142.286L0.22,141.807L0.247,141.329L0.275,140.85L0.305,140.373L0.336,139.895L0.368,139.419L0.402,138.942L0.438,138.466L0.475,137.99L0.513,137.515L0.553,137.04L0.595,136.566L0.638,136.092L0.682,135.618L0.728,135.145L0.775,134.673L0.824,134.2L0.874,133.728L0.926,133.257L0.979,132.786L1.034,132.315L1.09,131.845L1.147,131.376L1.206,130.907L1.266,130.438L1.328,129.969L1.392,129.502L1.456,129.034L1.523,128.567L1.59,128.101L1.659,127.635L1.73,127.169L1.802,126.704L1.875,126.24L1.95,125.775L2.026,125.312L2.103,124.849L2.182,124.386L2.263,123.924L2.345,123.462L2.428,123.001L2.512,122.54L2.599,122.08L2.686,121.62L2.775,121.161L2.865,120.702L2.957,120.243L3.05,119.786L3.144,119.328L3.24,118.872L3.337,118.415L3.436,117.96L3.536,117.504L3.637,117.05L3.74,116.595L3.844,116.142L3.949,115.689L4.056,115.236L4.164,114.784L4.274,114.332L4.385,113.881L4.497,113.431L4.611,112.981L4.726,112.531L4.842,112.082L4.96,111.634L5.079,111.186L5.199,110.739L5.321,110.292L5.444,109.846L5.569,109.4L5.694,108.955L5.822,108.511L5.95,108.067L6.08,107.623L6.211,107.181L6.343,106.738L6.477,106.297L6.612,105.856L6.748,105.415L6.886,104.975L7.025,104.536L7.166,104.097L7.307,103.659L7.45,103.221L7.594,102.784L7.74,102.348L7.887,101.912L8.035,101.477L8.184,101.042L8.335,100.608L8.487,100.175L8.64,99.742L8.795,99.31L8.951,98.878L9.108,98.447L9.267,98.017L9.426,97.587L9.587,97.158L9.75,96.729L9.913,96.302L10.078,95.874L10.244,95.448L10.411,95.022L10.58,94.596L10.75,94.172L10.921,93.747L11.094,93.324L11.267,92.901L11.442,92.479L11.618,92.057L11.796,91.637L11.974,91.216L12.154,90.797L12.335,90.378L12.517,89.96L12.701,89.542L12.886,89.125L13.072,88.709L13.259,88.293L13.448,87.878L13.637,87.464L13.828,87.051L14.02,86.638L14.214,86.226L14.408,85.814L14.604,85.403L14.801,84.993L14.999,84.583L15.199,84.175L15.399,83.767L15.601,83.359L15.804,82.953L16.008,82.547L16.214,82.141L16.42,81.737L16.628,81.333L16.837,80.93L17.047,80.527L17.258,80.125L17.471,79.724L17.685,79.324L17.899,78.925L18.115,78.526L18.333,78.128L18.551,77.73L18.77,77.333L18.991,76.938L19.213,76.542L19.436,76.148L19.66,75.754L19.885,75.361L20.112,74.969L20.339,74.577L20.568,74.187L20.798,73.797L21.029,73.407L21.261,73.019L21.494,72.631L21.729,72.244L21.964,71.858L22.201,71.473L22.439,71.088L22.678,70.704L22.918,70.321L23.159,69.938L23.402,69.557L23.645,69.176L23.889,68.796L24.135,68.417L24.382,68.038L24.63,67.661L24.879,67.284L25.129,66.908L25.38,66.532L25.632,66.158L25.886,65.784L26.14,65.411L26.396,65.039L26.652,64.668L26.91,64.298L27.169,63.928L27.429,63.559L27.69,63.191L27.952,62.824L28.215,62.457L28.479,62.092L28.744,61.727L29.011,61.363L29.278,61L29.546,60.638L29.816,60.276L30.087,59.916L30.358,59.556L30.631,59.197L30.905,58.839L31.179,58.482L31.455,58.126L31.732,57.77L32.01,57.415L32.289,57.062L32.569,56.709L32.85,56.357L33.132,56.005L33.415,55.655L33.699,55.305L33.984,54.957L34.271,54.609L34.558,54.262L34.846,53.916L35.135,53.571L35.425,53.227L35.717,52.883L36.009,52.541L36.302,52.199L36.597,51.859L36.892,51.519L37.188,51.18L37.485,50.842L37.784,50.505L38.083,50.169L38.383,49.833L38.684,49.499L38.987,49.165L39.29,48.833L39.594,48.501L39.899,48.17L40.205,47.841L40.513,47.512L40.821,47.184L41.13,46.857L41.44,46.53L41.751,46.205L42.063,45.881L42.376,45.557L42.69,45.235L43.005,44.914L43.32,44.593L43.637,44.273L43.955,43.955L44.273,43.637L44.593,43.32L44.914,43.005L45.235,42.69L45.557,42.376L45.881,42.063L46.205,41.751L46.53,41.44L46.857,41.13L47.184,40.821L47.512,40.513L47.841,40.205L48.17,39.899L48.501,39.594L48.833,39.29L49.165,38.987L49.499,38.684L49.833,38.383L50.169,38.083L50.505,37.784L50.842,37.485L51.18,37.188L51.519,36.892L51.859,36.597L52.199,36.302L52.541,36.009L52.883,35.717L53.227,35.425L53.571,35.135L53.916,34.846L54.262,34.558L54.609,34.271L54.957,33.984L55.305,33.699L55.655,33.415L56.005,33.132L56.357,32.85L56.709,32.569L57.062,32.289L57.415,32.01L57.77,31.732L58.126,31.455L58.482,31.179L58.839,30.905L59.197,30.631L59.556,30.358L59.916,30.087L60.276,29.816L60.638,29.546L61,29.278L61.363,29.011L61.727,28.744L62.092,28.479L62.457,28.215L62.824,27.952L63.191,27.69L63.559,27.429L63.928,27.169L64.298,26.91L64.668,26.652L65.039,26.396L65.411,26.14L65.784,25.886L66.158,25.632L66.532,25.38L66.908,25.129L67.284,24.879L67.661,24.63L68.038,24.382L68.417,24.135L68.796,23.889L69.176,23.645L69.557,23.402L69.938,23.159L70.321,22.918L70.704,22.678L71.088,22.439L71.473,22.201L71.858,21.964L72.244,21.729L72.631,21.494L73.019,21.261L73.407,21.029L73.797,20.798L74.187,20.568L74.577,20.339L74.969,20.112L75.361,19.885L75.754,19.66L76.148,19.436L76.542,19.213L76.938,18.991L77.333,18.77L77.73,18.551L78.128,18.333L78.526,18.115L78.925,17.899L79.324,17.685L79.724,17.471L80.125,17.258L80.527,17.047L80.93,16.837L81.333,16.628L81.737,16.42L82.141,16.214L82.547,16.008L82.953,15.804L83.359,15.601L83.767,15.399L84.175,15.199L84.583,14.999L84.993,14.801L85.403,14.604L85.814,14.408L86.226,14.214L86.638,14.02L87.051,13.828L87.464,13.637L87.878,13.448L88.293,13.259L88.709,13.072L89.125,12.886L89.542,12.701L89.96,12.517L90.378,12.335L90.797,12.154L91.216,11.974L91.637,11.796L92.057,11.618L92.479,11.442L92.901,11.267L93.324,11.094L93.747,10.921L94.172,10.75L94.596,10.58L95.022,10.411L95.448,10.244L95.874,10.078L96.302,9.913L96.729,9.75L97.158,9.587L97.587,9.426L98.017,9.267L98.447,9.108L98.878,8.951L99.31,8.795L99.742,8.64L100.175,8.487L100.608,8.335L101.042,8.184L101.477,8.035L101.912,7.887L102.348,7.74L102.784,7.594L103.221,7.45L103.659,7.307L104.097,7.166L104.536,7.025L104.975,6.886L105.415,6.748L105.856,6.612L106.297,6.477L106.738,6.343L107.181,6.211L107.623,6.08L108.067,5.95L108.511,5.822L108.955,5.694L109.4,5.569L109.846,5.444L110.292,5.321L110.739,5.199L111.186,5.079L111.634,4.96L112.082,4.842L112.531,4.726L112.981,4.611L113.431,4.497L113.881,4.385L114.332,4.274L114.784,4.164L115.236,4.056L115.689,3.949L116.142,3.844L116.595,3.74L117.05,3.637L117.504,3.536L117.96,3.436L118.415,3.337L118.872,3.24L119.328,3.144L119.786,3.05L120.243,2.957L120.702,2.865L121.161,2.775L121.62,2.686L122.08,2.599L122.54,2.512L123.001,2.428L123.462,2.345L123.924,2.263L124.386,2.182L124.849,2.103L125.312,2.026L125.775,1.95L126.24,1.875L126.704,1.802L127.169,1.73L127.635,1.659L128.101,1.59L128.567,1.523L129.034,1.456L129.502,1.392L129.969,1.328L130.438,1.266L130.907,1.206L131.376,1.147L131.845,1.09L132.315,1.034L132.786,0.979L133.257,0.926L133.728,0.874L134.2,0.824L134.673,0.775L135.145,0.728L135.618,0.682L136.092,0.638L136.566,0.595L137.04,0.553L137.515,0.513L137.99,0.475L138.466,0.438L138.942,0.402L139.419,0.368L139.895,0.336L140.373,0.305L140.85,0.275L141.329,0.247L141.807,0.22L142.286,0.195L142.765,0.172L143.245,0.15L143.725,0.129L144.205,0.11L144.686,0.093L145.167,0.077L145.649,0.062L146.131,0.049L146.613,0.038L147.096,0.028L147.579,0.019L148.063,0.012L148.546,0.007L149.031,0.003L149.515,0.001L150,0L150.485,0.001ZM149.566,16.001L149.132,16.003L148.699,16.006L148.265,16.011L147.833,16.017L147.4,16.025L146.968,16.034L146.537,16.044L146.105,16.056L145.675,16.069L145.244,16.083L144.814,16.099L144.384,16.116L143.955,16.134L143.526,16.154L143.097,16.175L142.669,16.197L142.241,16.221L141.813,16.246L141.386,16.272L140.959,16.3L140.533,16.329L140.107,16.36L139.682,16.392L139.256,16.425L138.832,16.459L138.407,16.495L137.983,16.532L137.56,16.57L137.136,16.61L136.714,16.651L136.291,16.693L135.869,16.737L135.448,16.781L135.026,16.828L134.606,16.875L134.185,16.924L133.765,16.974L133.346,17.025L132.927,17.078L132.508,17.132L132.09,17.187L131.672,17.244L131.254,17.302L130.837,17.361L130.421,17.421L130.005,17.483L129.589,17.546L129.173,17.61L128.759,17.675L128.344,17.742L127.93,17.81L127.517,17.879L127.103,17.95L126.691,18.022L126.279,18.095L125.867,18.169L125.455,18.245L125.044,18.321L124.634,18.4L124.224,18.479L123.814,18.559L123.405,18.641L122.997,18.724L122.588,18.809L122.181,18.894L121.773,18.981L121.367,19.069L120.96,19.158L120.554,19.248L120.149,19.34L119.744,19.433L119.34,19.527L118.936,19.623L118.532,19.719L118.129,19.817L117.726,19.916L117.324,20.016L116.923,20.118L116.522,20.22L116.121,20.324L115.721,20.429L115.321,20.535L114.922,20.643L114.523,20.751L114.125,20.861L113.728,20.972L113.33,21.085L112.934,21.198L112.537,21.313L112.142,21.429L111.747,21.546L111.352,21.664L110.958,21.783L110.564,21.904L110.171,22.025L109.778,22.148L109.386,22.272L108.995,22.398L108.604,22.524L108.213,22.651L107.823,22.78L107.434,22.91L107.045,23.041L106.656,23.173L106.268,23.307L105.881,23.441L105.494,23.577L105.108,23.714L104.722,23.852L104.337,23.991L103.952,24.131L103.568,24.273L103.185,24.415L102.802,24.559L102.419,24.704L102.037,24.85L101.656,24.997L101.275,25.145L100.895,25.295L100.515,25.445L100.136,25.597L99.757,25.749L99.379,25.903L99.002,26.058L98.625,26.214L98.249,26.372L97.873,26.53L97.498,26.689L97.124,26.85L96.75,27.012L96.376,27.174L96.003,27.338L95.631,27.503L95.26,27.669L94.889,27.837L94.518,28.005L94.148,28.174L93.779,28.345L93.41,28.516L93.042,28.689L92.675,28.863L92.308,29.037L91.942,29.213L91.576,29.39L91.211,29.568L90.847,29.748L90.483,29.928L90.12,30.109L89.757,30.291L89.395,30.475L89.034,30.659L88.673,30.845L88.313,31.031L87.954,31.219L87.595,31.408L87.237,31.597L86.879,31.788L86.523,31.98L86.166,32.173L85.811,32.367L85.456,32.562L85.102,32.758L84.748,32.955L84.395,33.153L84.042,33.353L83.691,33.553L83.34,33.754L82.989,33.956L82.64,34.16L82.291,34.364L81.942,34.569L81.594,34.776L81.247,34.983L80.901,35.192L80.555,35.401L80.21,35.611L79.866,35.823L79.522,36.035L79.179,36.249L78.837,36.463L78.495,36.679L78.154,36.895L77.814,37.113L77.474,37.331L77.136,37.551L76.797,37.771L76.46,37.993L76.123,38.215L75.787,38.439L75.452,38.663L75.117,38.889L74.783,39.115L74.45,39.343L74.117,39.571L73.786,39.8L73.454,40.031L73.124,40.262L72.794,40.494L72.466,40.727L72.137,40.962L71.81,41.197L71.483,41.433L71.157,41.67L70.832,41.908L70.507,42.147L70.184,42.387L69.86,42.628L69.538,42.87L69.217,43.113L68.896,43.356L68.576,43.601L68.256,43.847L67.938,44.093L67.62,44.341L67.303,44.589L66.987,44.839L66.671,45.089L66.357,45.34L66.043,45.592L65.729,45.845L65.417,46.099L65.105,46.354L64.794,46.61L64.484,46.867L64.175,47.124L63.866,47.383L63.559,47.643L63.252,47.903L62.945,48.164L62.64,48.426L62.335,48.69L62.032,48.954L61.729,49.218L61.426,49.484L61.125,49.751L60.824,50.018L60.525,50.287L60.226,50.556L59.927,50.826L59.63,51.098L59.333,51.37L59.038,51.642L58.743,51.916L58.449,52.191L58.155,52.466L57.863,52.743L57.571,53.02L57.281,53.298L56.991,53.577L56.702,53.857L56.413,54.137L56.126,54.419L55.839,54.701L55.553,54.984L55.269,55.269L54.984,55.553L54.701,55.839L54.419,56.126L54.137,56.413L53.857,56.702L53.577,56.991L53.298,57.281L53.02,57.571L52.743,57.863L52.466,58.155L52.191,58.449L51.916,58.743L51.642,59.038L51.37,59.333L51.098,59.63L50.826,59.927L50.556,60.226L50.287,60.525L50.018,60.824L49.751,61.125L49.484,61.426L49.218,61.729L48.954,62.032L48.69,62.335L48.426,62.64L48.164,62.945L47.903,63.252L47.643,63.559L47.383,63.866L47.124,64.175L46.867,64.484L46.61,64.794L46.354,65.105L46.099,65.417L45.845,65.729L45.592,66.043L45.34,66.356L45.089,66.671L44.839,66.987L44.589,67.303L44.341,67.62L44.093,67.938L43.847,68.256L43.601,68.576L43.356,68.896L43.113,69.217L42.87,69.538L42.628,69.86L42.387,70.184L42.147,70.507L41.908,70.832L41.67,71.157L41.433,71.483L41.197,71.81L40.962,72.137L40.727,72.466L40.494,72.794L40.262,73.124L40.031,73.454L39.8,73.786L39.571,74.117L39.343,74.45L39.115,74.783L38.889,75.117L38.663,75.452L38.439,75.787L38.215,76.123L37.993,76.46L37.771,76.797L37.551,77.136L37.331,77.474L37.113,77.814L36.895,78.154L36.679,78.495L36.463,78.837L36.249,79.179L36.035,79.522L35.823,79.866L35.612,80.21L35.401,80.555L35.192,80.901L34.983,81.247L34.776,81.594L34.569,81.942L34.364,82.291L34.16,82.64L33.956,82.989L33.754,83.34L33.553,83.691L33.353,84.042L33.153,84.395L32.955,84.748L32.758,85.102L32.562,85.456L32.367,85.811L32.173,86.166L31.98,86.523L31.788,86.879L31.597,87.237L31.408,87.595L31.219,87.954L31.031,88.313L30.845,88.673L30.659,89.034L30.475,89.395L30.291,89.757L30.109,90.12L29.928,90.483L29.748,90.847L29.568,91.211L29.39,91.576L29.213,91.942L29.037,92.308L28.863,92.675L28.689,93.042L28.516,93.41L28.345,93.779L28.174,94.148L28.005,94.518L27.837,94.889L27.669,95.26L27.503,95.631L27.338,96.003L27.174,96.376L27.012,96.75L26.85,97.124L26.689,97.498L26.53,97.873L26.372,98.249L26.214,98.625L26.058,99.002L25.903,99.379L25.749,99.757L25.597,100.136L25.445,100.515L25.295,100.895L25.145,101.275L24.997,101.656L24.85,102.037L24.704,102.419L24.559,102.802L24.415,103.185L24.273,103.568L24.131,103.952L23.991,104.337L23.852,104.722L23.714,105.108L23.577,105.494L23.441,105.881L23.307,106.268L23.173,106.656L23.041,107.045L22.91,107.434L22.78,107.823L22.652,108.213L22.524,108.604L22.398,108.995L22.272,109.386L22.148,109.778L22.025,110.171L21.904,110.564L21.783,110.958L21.664,111.352L21.546,111.747L21.429,112.142L21.313,112.538L21.198,112.934L21.085,113.33L20.972,113.728L20.861,114.125L20.751,114.523L20.643,114.922L20.535,115.321L20.429,115.721L20.324,116.121L20.22,116.522L20.118,116.923L20.016,117.324L19.916,117.726L19.817,118.129L19.719,118.532L19.623,118.936L19.527,119.34L19.433,119.744L19.34,120.149L19.248,120.554L19.158,120.96L19.069,121.367L18.981,121.773L18.894,122.181L18.809,122.588L18.724,122.997L18.641,123.405L18.559,123.814L18.479,124.224L18.4,124.634L18.321,125.044L18.245,125.455L18.169,125.867L18.095,126.279L18.022,126.691L17.95,127.103L17.879,127.517L17.81,127.93L17.742,128.344L17.675,128.759L17.61,129.174L17.546,129.589L17.483,130.005L17.421,130.421L17.361,130.837L17.302,131.254L17.244,131.672L17.187,132.09L17.132,132.508L17.078,132.927L17.025,133.346L16.974,133.765L16.924,134.185L16.875,134.606L16.828,135.026L16.781,135.448L16.737,135.869L16.693,136.291L16.651,136.714L16.61,137.136L16.57,137.56L16.532,137.983L16.495,138.407L16.459,138.832L16.425,139.256L16.392,139.682L16.36,140.107L16.329,140.533L16.3,140.959L16.272,141.386L16.246,141.813L16.221,142.241L16.197,142.669L16.175,143.097L16.154,143.526L16.134,143.955L16.116,144.384L16.099,144.814L16.083,145.244L16.069,145.675L16.056,146.105L16.044,146.537L16.034,146.968L16.025,147.4L16.017,147.833L16.011,148.265L16.006,148.699L16.003,149.132L16.001,149.566L16,150L16.001,150.434L16.003,150.868L16.006,151.301L16.011,151.735L16.017,152.167L16.025,152.6L16.034,153.032L16.044,153.463L16.056,153.894L16.069,154.325L16.083,154.756L16.099,155.186L16.116,155.616L16.134,156.045L16.154,156.474L16.175,156.903L16.197,157.331L16.221,157.759L16.246,158.187L16.272,158.614L16.3,159.041L16.329,159.467L16.36,159.893L16.392,160.318L16.425,160.744L16.459,161.168L16.495,161.593L16.532,162.017L16.57,162.44L16.61,162.864L16.651,163.286L16.693,163.709L16.737,164.131L16.781,164.552L16.828,164.974L16.875,165.394L16.924,165.815L16.974,166.235L17.025,166.654L17.078,167.073L17.132,167.492L17.187,167.91L17.244,168.328L17.302,168.746L17.361,169.163L17.421,169.579L17.483,169.995L17.546,170.411L17.61,170.826L17.675,171.241L17.742,171.656L17.81,172.07L17.879,172.483L17.95,172.897L18.022,173.309L18.095,173.721L18.169,174.133L18.245,174.545L18.321,174.956L18.4,175.366L18.479,175.776L18.559,176.186L18.641,176.595L18.724,177.003L18.809,177.412L18.894,177.819L18.981,178.227L19.069,178.633L19.158,179.04L19.248,179.446L19.34,179.851L19.433,180.256L19.527,180.66L19.623,181.064L19.719,181.468L19.817,181.871L19.916,182.274L20.016,182.676L20.118,183.077L20.22,183.478L20.324,183.879L20.429,184.279L20.535,184.679L20.643,185.078L20.751,185.477L20.861,185.875L20.972,186.272L21.085,186.67L21.198,187.066L21.313,187.462L21.429,187.858L21.546,188.253L21.664,188.648L21.783,189.042L21.904,189.436L22.025,189.829L22.148,190.222L22.272,190.614L22.398,191.005L22.524,191.396L22.651,191.787L22.78,192.177L22.91,192.566L23.041,192.955L23.173,193.344L23.307,193.732L23.441,194.119L23.577,194.506L23.714,194.892L23.852,195.278L23.991,195.663L24.131,196.048L24.273,196.432L24.415,196.815L24.559,197.198L24.704,197.581L24.85,197.963L24.997,198.344L25.145,198.725L25.295,199.105L25.445,199.485L25.597,199.864L25.749,200.243L25.903,200.62L26.058,200.998L26.214,201.375L26.372,201.751L26.53,202.127L26.69,202.502L26.85,202.876L27.012,203.25L27.174,203.624L27.338,203.997L27.503,204.369L27.669,204.74L27.837,205.111L28.005,205.482L28.174,205.852L28.345,206.221L28.516,206.59L28.689,206.958L28.863,207.325L29.037,207.692L29.213,208.058L29.39,208.424L29.568,208.789L29.748,209.153L29.928,209.517L30.109,209.88L30.291,210.243L30.475,210.605L30.659,210.966L30.845,211.327L31.031,211.687L31.219,212.046L31.408,212.405L31.597,212.763L31.788,213.12L31.98,213.477L32.173,213.834L32.367,214.189L32.562,214.544L32.758,214.898L32.955,215.252L33.153,215.605L33.353,215.958L33.553,216.309L33.754,216.66L33.956,217.011L34.16,217.36L34.364,217.709L34.569,218.058L34.776,218.406L34.983,218.753L35.192,219.099L35.401,219.445L35.612,219.79L35.823,220.134L36.035,220.478L36.249,220.821L36.463,221.163L36.679,221.505L36.895,221.846L37.113,222.186L37.331,222.526L37.551,222.864L37.771,223.203L37.993,223.54L38.215,223.877L38.439,224.213L38.663,224.548L38.889,224.883L39.115,225.217L39.343,225.55L39.571,225.883L39.8,226.214L40.031,226.545L40.262,226.876L40.494,227.206L40.728,227.535L40.962,227.863L41.197,228.19L41.433,228.517L41.67,228.843L41.908,229.168L42.147,229.493L42.387,229.817L42.628,230.14L42.87,230.462L43.113,230.783L43.356,231.104L43.601,231.424L43.847,231.744L44.093,232.062L44.341,232.38L44.589,232.697L44.839,233.013L45.089,233.329L45.34,233.643L45.592,233.957L45.845,234.271L46.099,234.583L46.354,234.895L46.61,235.206L46.867,235.516L47.124,235.825L47.383,236.134L47.643,236.442L47.903,236.748L48.164,237.055L48.426,237.36L48.69,237.665L48.954,237.968L49.218,238.271L49.484,238.574L49.751,238.875L50.018,239.176L50.287,239.475L50.556,239.775L50.826,240.073L51.097,240.37L51.37,240.667L51.643,240.962L51.916,241.257L52.191,241.551L52.466,241.845L52.743,242.137L53.02,242.429L53.298,242.719L53.577,243.009L53.857,243.298L54.137,243.587L54.419,243.874L54.701,244.161L54.984,244.446L55.269,244.732L55.554,245.016L55.839,245.299L56.126,245.581L56.413,245.863L56.701,246.143L56.991,246.423L57.281,246.702L57.571,246.98L57.863,247.258L58.155,247.534L58.449,247.809L58.743,248.084L59.038,248.357L59.333,248.63L59.63,248.902L59.927,249.174L60.226,249.444L60.524,249.713L60.825,249.982L61.125,250.249L61.426,250.516L61.728,250.781L62.031,251.046L62.336,251.311L62.64,251.574L62.945,251.836L63.252,252.097L63.558,252.357L63.866,252.617L64.175,252.876L64.484,253.133L64.794,253.39L65.105,253.646L65.417,253.901L65.729,254.155L66.042,254.408L66.357,254.66L66.671,254.911L66.987,255.161L67.303,255.411L67.62,255.659L67.938,255.907L68.257,256.153L68.576,256.399L68.896,256.644L69.217,256.887L69.538,257.13L69.861,257.372L70.184,257.613L70.507,257.853L70.832,258.092L71.157,258.33L71.483,258.567L71.81,258.803L72.137,259.038L72.465,259.272L72.795,259.506L73.124,259.738L73.455,259.969L73.786,260.2L74.117,260.429L74.45,260.657L74.783,260.885L75.117,261.111L75.452,261.337L75.787,261.561L76.123,261.785L76.46,262.007L76.797,262.229L77.136,262.449L77.475,262.669L77.814,262.887L78.154,263.105L78.495,263.321L78.837,263.537L79.179,263.751L79.522,263.965L79.866,264.177L80.21,264.388L80.555,264.599L80.901,264.809L81.247,265.017L81.594,265.224L81.942,265.431L82.291,265.636L82.64,265.84L82.989,266.044L83.34,266.246L83.691,266.447L84.043,266.648L84.395,266.847L84.747,267.045L85.101,267.242L85.456,267.438L85.811,267.633L86.167,267.827L86.523,268.02L86.879,268.212L87.237,268.403L87.595,268.592L87.954,268.781L88.313,268.969L88.674,269.155L89.034,269.341L89.395,269.525L89.757,269.709L90.12,269.891L90.483,270.072L90.847,270.253L91.211,270.432L91.576,270.61L91.942,270.787L92.308,270.962L92.675,271.137L93.042,271.311L93.411,271.484L93.779,271.655L94.148,271.826L94.518,271.995L94.888,272.163L95.26,272.331L95.631,272.497L96.003,272.662L96.376,272.825L96.75,272.988L97.124,273.15L97.498,273.311L97.874,273.47L98.249,273.628L98.625,273.785L99.002,273.942L99.379,274.097L99.757,274.25L100.136,274.403L100.515,274.555L100.895,274.705L101.275,274.855L101.656,275.003L102.037,275.15L102.419,275.296L102.802,275.441L103.184,275.585L103.568,275.727L103.952,275.869L104.337,276.009L104.722,276.148L105.108,276.286L105.494,276.423L105.881,276.559L106.268,276.693L106.656,276.827L107.045,276.959L107.434,277.09L107.823,277.22L108.213,277.349L108.604,277.476L108.994,277.602L109.386,277.728L109.779,277.852L110.171,277.975L110.564,278.096L110.958,278.217L111.352,278.336L111.747,278.454L112.142,278.571L112.537,278.687L112.934,278.802L113.33,278.915L113.728,279.028L114.125,279.139L114.523,279.248L114.922,279.357L115.321,279.465L115.721,279.571L116.121,279.676L116.521,279.78L116.923,279.882L117.325,279.984L117.727,280.084L118.129,280.183L118.532,280.281L118.936,280.378L119.339,280.473L119.744,280.567L120.149,280.66L120.555,280.752L120.961,280.842L121.367,280.931L121.773,281.019L122.181,281.106L122.589,281.192L122.996,281.276L123.405,281.359L123.814,281.441L124.224,281.521L124.634,281.6L125.044,281.679L125.455,281.755L125.867,281.831L126.279,281.905L126.691,281.978L127.103,282.05L127.516,282.121L127.93,282.19L128.344,282.258L128.759,282.325L129.174,282.39L129.589,282.454L130.004,282.517L130.421,282.579L130.837,282.639L131.254,282.698L131.672,282.756L132.09,282.813L132.508,282.868L132.927,282.922L133.346,282.975L133.765,283.026L134.185,283.076L134.605,283.125L135.026,283.172L135.448,283.219L135.869,283.263L136.291,283.307L136.714,283.349L137.137,283.39L137.56,283.43L137.983,283.468L138.407,283.505L138.832,283.541L139.256,283.575L139.682,283.608L140.107,283.64L140.533,283.671L140.959,283.7L141.386,283.727L141.814,283.754L142.241,283.779L142.669,283.803L143.097,283.825L143.526,283.846L143.955,283.866L144.384,283.884L144.814,283.901L145.244,283.917L145.674,283.931L146.105,283.944L146.537,283.956L146.968,283.966L147.4,283.975L147.833,283.983L148.265,283.989L148.699,283.994L149.132,283.997L149.566,283.999L150,284L150.434,283.999L150.868,283.997L151.301,283.994L151.735,283.989L152.167,283.983L152.6,283.975L153.032,283.966L153.463,283.956L153.895,283.944L154.326,283.931L154.756,283.917L155.186,283.901L155.616,283.884L156.045,283.866L156.474,283.846L156.903,283.825L157.331,283.803L157.759,283.779L158.186,283.754L158.614,283.727L159.041,283.7L159.467,283.671L159.893,283.64L160.318,283.608L160.744,283.575L161.168,283.541L161.593,283.505L162.017,283.468L162.44,283.43L162.863,283.39L163.286,283.349L163.709,283.307L164.131,283.263L164.552,283.219L164.974,283.172L165.395,283.125L165.815,283.076L166.235,283.026L166.654,282.975L167.073,282.922L167.492,282.868L167.91,282.813L168.328,282.756L168.746,282.698L169.163,282.639L169.579,282.579L169.996,282.517L170.411,282.454L170.826,282.39L171.241,282.325L171.656,282.258L172.07,282.19L172.484,282.121L172.897,282.05L173.309,281.978L173.721,281.905L174.133,281.831L174.545,281.755L174.956,281.679L175.366,281.6L175.776,281.521L176.186,281.441L176.595,281.359L177.004,281.276L177.411,281.192L177.819,281.106L178.227,281.019L178.633,280.931L179.039,280.842L179.445,280.752L179.851,280.66L180.256,280.567L180.661,280.473L181.064,280.378L181.468,280.281L181.871,280.183L182.273,280.084L182.675,279.984L183.077,279.882L183.478,279.78L183.879,279.676L184.279,279.571L184.679,279.465L185.078,279.357L185.477,279.248L185.875,279.139L186.272,279.028L186.67,278.915L187.066,278.802L187.463,278.687L187.858,278.571L188.253,278.454L188.648,278.336L189.042,278.217L189.436,278.096L189.829,277.975L190.221,277.852L190.613,277.728L191.006,277.602L191.397,277.476L191.787,277.348L192.177,277.22L192.566,277.09L192.955,276.959L193.344,276.827L193.732,276.693L194.119,276.559L194.506,276.423L194.892,276.286L195.278,276.148L195.663,276.009L196.048,275.869L196.432,275.727L196.816,275.585L197.198,275.441L197.581,275.296L197.963,275.15L198.344,275.003L198.725,274.855L199.105,274.705L199.485,274.555L199.864,274.403L200.243,274.25L200.621,274.097L200.998,273.942L201.375,273.785L201.751,273.628L202.127,273.47L202.502,273.311L202.876,273.15L203.251,272.988L203.624,272.825L203.996,272.662L204.369,272.497L204.74,272.331L205.112,272.163L205.482,271.995L205.852,271.826L206.221,271.655L206.589,271.484L206.958,271.311L207.325,271.137L207.692,270.962L208.058,270.787L208.424,270.61L208.789,270.432L209.153,270.253L209.517,270.072L209.88,269.891L210.243,269.709L210.605,269.525L210.966,269.341L211.326,269.155L211.687,268.969L212.046,268.781L212.405,268.592L212.763,268.403L213.121,268.212L213.477,268.02L213.833,267.827L214.189,267.633L214.544,267.438L214.899,267.242L215.253,267.045L215.605,266.847L215.957,266.648L216.309,266.447L216.66,266.246L217.011,266.044L217.361,265.84L217.709,265.636L218.058,265.431L218.406,265.224L218.753,265.017L219.099,264.808L219.445,264.599L219.79,264.388L220.134,264.177L220.478,263.965L220.821,263.751L221.163,263.537L221.505,263.321L221.846,263.105L222.186,262.887L222.525,262.669L222.864,262.449L223.203,262.229L223.54,262.007L223.877,261.785L224.213,261.561L224.548,261.337L224.883,261.111L225.217,260.885L225.55,260.657L225.883,260.429L226.214,260.2L226.545,259.969L226.876,259.738L227.205,259.506L227.535,259.272L227.863,259.038L228.19,258.803L228.517,258.567L228.843,258.33L229.168,258.092L229.493,257.853L229.816,257.613L230.139,257.372L230.462,257.13L230.783,256.887L231.104,256.644L231.424,256.399L231.743,256.153L232.062,255.907L232.38,255.659L232.697,255.411L233.013,255.161L233.329,254.911L233.643,254.66L233.957,254.408L234.271,254.155L234.583,253.901L234.895,253.646L235.206,253.39L235.516,253.133L235.825,252.876L236.134,252.617L236.442,252.357L236.748,252.097L237.055,251.836L237.36,251.574L237.664,251.311L237.969,251.046L238.272,250.781L238.574,250.516L238.875,250.249L239.176,249.982L239.476,249.713L239.774,249.444L240.072,249.174L240.37,248.902L240.667,248.63L240.962,248.357L241.257,248.084L241.551,247.809L241.844,247.534L242.137,247.258L242.429,246.98L242.719,246.702L243.009,246.423L243.299,246.143L243.587,245.863L243.874,245.581L244.161,245.299L244.446,245.016L244.732,244.731L245.016,244.447L245.299,244.161L245.581,243.874L245.862,243.587L246.143,243.299L246.423,243.009L246.702,242.719L246.98,242.429L247.257,242.137L247.534,241.845L247.809,241.551L248.084,241.257L248.357,240.962L248.63,240.667L248.902,240.37L249.174,240.073L249.444,239.775L249.713,239.476L249.982,239.176L250.249,238.875L250.516,238.573L250.782,238.271L251.046,237.969L251.311,237.665L251.574,237.36L251.836,237.055L252.097,236.748L252.357,236.442L252.617,236.134L252.876,235.825L253.133,235.516L253.39,235.206L253.646,234.895L253.901,234.583L254.155,234.271L254.408,233.957L254.66,233.643L254.911,233.329L255.161,233.013L255.411,232.697L255.659,232.38L255.907,232.062L256.153,231.743L256.399,231.424L256.644,231.104L256.888,230.783L257.13,230.462L257.372,230.14L257.613,229.817L257.853,229.493L258.092,229.168L258.33,228.843L258.567,228.517L258.803,228.19L259.038,227.863L259.272,227.535L259.506,227.205L259.738,226.876L259.969,226.546L260.2,226.214L260.429,225.882L260.657,225.55L260.885,225.217L261.111,224.883L261.337,224.548L261.561,224.213L261.785,223.877L262.007,223.54L262.229,223.203L262.449,222.865L262.669,222.525L262.887,222.186L263.104,221.846L263.321,221.505L263.537,221.163L263.751,220.821L263.965,220.478L264.177,220.134L264.389,219.789L264.599,219.445L264.808,219.099L265.017,218.752L265.224,218.406L265.431,218.058L265.636,217.71L265.84,217.36L266.044,217.011L266.246,216.66L266.447,216.309L266.647,215.958L266.847,215.605L267.045,215.252L267.242,214.898L267.438,214.544L267.633,214.189L267.827,213.834L268.02,213.477L268.212,213.12L268.402,212.763L268.592,212.405L268.781,212.046L268.969,211.687L269.155,211.327L269.341,210.966L269.525,210.605L269.709,210.243L269.891,209.88L270.072,209.517L270.253,209.153L270.432,208.789L270.61,208.424L270.787,208.058L270.963,207.692L271.137,207.325L271.311,206.958L271.484,206.59L271.655,206.221L271.826,205.852L271.995,205.482L272.163,205.112L272.331,204.74L272.497,204.369L272.662,203.997L272.825,203.624L272.988,203.25L273.15,202.876L273.311,202.502L273.47,202.127L273.628,201.751L273.786,201.374L273.942,200.998L274.097,200.621L274.251,200.242L274.403,199.864L274.555,199.485L274.705,199.105L274.855,198.725L275.003,198.344L275.15,197.963L275.296,197.581L275.441,197.198L275.585,196.816L275.727,196.432L275.869,196.048L276.009,195.663L276.148,195.278L276.286,194.892L276.423,194.506L276.559,194.119L276.693,193.732L276.827,193.344L276.959,192.955L277.09,192.567L277.22,192.177L277.348,191.787L277.476,191.396L277.603,191.005L277.728,190.614L277.852,190.221L277.975,189.829L278.096,189.436L278.217,189.042L278.336,188.648L278.454,188.253L278.571,187.858L278.687,187.462L278.802,187.066L278.915,186.67L279.027,186.273L279.139,185.875L279.249,185.476L279.357,185.078L279.465,184.679L279.571,184.279L279.676,183.879L279.78,183.479L279.882,183.077L279.984,182.675L280.084,182.273L280.183,181.871L280.281,181.468L280.377,181.065L280.473,180.661L280.567,180.256L280.66,179.851L280.752,179.445L280.842,179.04L280.931,178.633L281.019,178.226L281.106,177.82L281.191,177.412L281.276,177.003L281.359,176.594L281.441,176.186L281.521,175.776L281.6,175.366L281.679,174.956L281.755,174.545L281.831,174.133L281.905,173.722L281.978,173.309L282.05,172.896L282.121,172.483L282.19,172.07L282.258,171.656L282.325,171.241L282.39,170.826L282.454,170.411L282.517,169.996L282.579,169.58L282.639,169.162L282.698,168.745L282.756,168.328L282.813,167.91L282.868,167.492L282.922,167.073L282.975,166.654L283.026,166.235L283.076,165.815L283.125,165.395L283.172,164.974L283.219,164.553L283.263,164.131L283.307,163.709L283.349,163.287L283.39,162.863L283.43,162.441L283.468,162.017L283.505,161.593L283.541,161.169L283.575,160.743L283.608,160.318L283.64,159.893L283.671,159.467L283.7,159.04L283.728,158.614L283.754,158.187L283.779,157.759L283.803,157.331L283.825,156.903L283.846,156.474L283.866,156.046L283.884,155.616L283.901,155.186L283.917,154.756L283.931,154.325L283.944,153.894L283.956,153.463L283.966,153.032L283.975,152.6L283.983,152.167L283.989,151.735L283.994,151.301L283.997,150.868L283.999,150.435L284,150L283.999,149.565L283.997,149.132L283.994,148.699L283.989,148.265L283.983,147.833L283.975,147.4L283.966,146.968L283.956,146.537L283.944,146.106L283.931,145.675L283.917,145.244L283.901,144.814L283.884,144.384L283.866,143.954L283.846,143.526L283.825,143.097L283.803,142.669L283.779,142.241L283.754,141.813L283.728,141.386L283.7,140.96L283.671,140.533L283.64,140.107L283.608,139.682L283.575,139.257L283.541,138.831L283.505,138.407L283.468,137.983L283.43,137.559L283.39,137.137L283.349,136.713L283.307,136.291L283.263,135.869L283.219,135.447L283.172,135.026L283.125,134.605L283.076,134.185L283.026,133.765L282.975,133.346L282.922,132.927L282.868,132.508L282.813,132.09L282.756,131.672L282.698,131.255L282.639,130.837L282.579,130.42L282.517,130.004L282.454,129.589L282.39,129.174L282.325,128.759L282.258,128.344L282.19,127.93L282.121,127.517L282.05,127.104L281.978,126.691L281.905,126.278L281.831,125.867L281.755,125.455L281.679,125.044L281.6,124.634L281.521,124.224L281.441,123.814L281.359,123.406L281.276,122.997L281.191,122.588L281.106,122.18L281.019,121.774L280.931,121.367L280.842,120.96L280.752,120.555L280.66,120.149L280.567,119.744L280.473,119.339L280.377,118.935L280.281,118.532L280.183,118.129L280.084,117.727L279.984,117.325L279.882,116.923L279.78,116.521L279.676,116.121L279.571,115.721L279.464,115.321L279.357,114.922L279.249,114.524L279.139,114.125L279.028,113.727L278.915,113.33L278.802,112.934L278.687,112.537L278.571,112.142L278.454,111.747L278.336,111.352L278.217,110.958L278.096,110.564L277.975,110.171L277.852,109.779L277.728,109.386L277.603,108.995L277.476,108.604L277.348,108.213L277.22,107.823L277.09,107.433L276.959,107.045L276.827,106.656L276.693,106.268L276.559,105.881L276.423,105.494L276.286,105.108L276.148,104.722L276.009,104.337L275.869,103.952L275.727,103.568L275.585,103.184L275.441,102.802L275.296,102.419L275.15,102.037L275.003,101.656L274.855,101.275L274.705,100.895L274.555,100.515L274.403,100.136L274.251,99.758L274.097,99.379L273.942,99.002L273.786,98.626L273.628,98.249L273.47,97.873L273.311,97.498L273.15,97.124L272.988,96.75L272.825,96.376L272.662,96.003L272.497,95.631L272.331,95.26L272.163,94.888L271.995,94.518L271.826,94.149L271.655,93.779L271.484,93.41L271.311,93.042L271.137,92.675L270.963,92.308L270.787,91.942L270.61,91.576L270.432,91.211L270.253,90.847L270.072,90.483L269.891,90.12L269.709,89.757L269.525,89.395L269.341,89.034L269.155,88.673L268.969,88.313L268.781,87.954L268.592,87.595L268.402,87.237L268.212,86.879L268.02,86.523L267.827,86.166L267.633,85.811L267.438,85.456L267.242,85.102L267.045,84.748L266.847,84.395L266.647,84.042L266.447,83.691L266.246,83.34L266.044,82.989L265.84,82.64L265.636,82.29L265.431,81.942L265.224,81.594L265.017,81.248L264.808,80.901L264.599,80.555L264.389,80.211L264.177,79.866L263.965,79.522L263.751,79.179L263.537,78.837L263.321,78.495L263.104,78.154L262.887,77.814L262.669,77.475L262.449,77.135L262.229,76.797L262.007,76.46L261.785,76.123L261.561,75.787L261.337,75.452L261.111,75.117L260.885,74.783L260.657,74.45L260.429,74.118L260.2,73.786L259.969,73.454L259.738,73.124L259.506,72.795L259.272,72.465L259.038,72.137L258.803,71.81L258.567,71.483L258.33,71.157L258.092,70.832L257.853,70.507L257.613,70.183L257.372,69.86L257.13,69.538L256.888,69.217L256.644,68.896L256.399,68.575L256.153,68.257L255.907,67.938L255.659,67.62L255.411,67.303L255.161,66.987L254.911,66.671L254.66,66.357L254.408,66.042L254.155,65.729L253.901,65.417L253.646,65.105L253.39,64.794L253.133,64.484L252.876,64.175L252.617,63.866L252.357,63.558L252.097,63.252L251.836,62.945L251.574,62.64L251.311,62.336L251.046,62.031L250.782,61.729L250.516,61.427L250.249,61.125L249.981,60.824L249.713,60.524L249.444,60.226L249.174,59.927L248.902,59.63L248.63,59.333L248.357,59.038L248.084,58.743L247.809,58.449L247.534,58.155L247.257,57.863L246.98,57.571L246.702,57.281L246.423,56.991L246.143,56.701L245.862,56.413L245.581,56.126L245.299,55.839L245.016,55.553L244.732,55.269L244.446,54.984L244.161,54.701L243.874,54.419L243.587,54.137L243.298,53.857L243.009,53.577L242.719,53.298L242.429,53.02L242.137,52.743L241.845,52.466L241.551,52.191L241.257,51.916L240.962,51.643L240.666,51.37L240.37,51.097L240.073,50.826L239.774,50.556L239.475,50.287L239.176,50.018L238.875,49.751L238.574,49.484L238.271,49.218L237.968,48.954L237.665,48.69L237.36,48.426L237.055,48.164L236.748,47.903L236.441,47.643L236.134,47.383L235.825,47.124L235.516,46.867L235.206,46.61L234.895,46.354L234.583,46.099L234.271,45.845L233.957,45.592L233.644,45.34L233.329,45.089L233.013,44.839L232.697,44.589L232.38,44.341L232.062,44.093L231.744,43.847L231.424,43.601L231.104,43.356L230.783,43.113L230.462,42.87L230.14,42.628L229.816,42.387L229.493,42.147L229.168,41.908L228.843,41.67L228.517,41.433L228.19,41.197L227.863,40.962L227.535,40.728L227.206,40.494L226.876,40.262L226.546,40.031L226.214,39.8L225.883,39.571L225.55,39.343L225.217,39.115L224.883,38.889L224.548,38.663L224.213,38.439L223.877,38.215L223.54,37.993L223.203,37.771L222.865,37.551L222.526,37.331L222.186,37.113L221.846,36.895L221.505,36.679L221.163,36.463L220.821,36.249L220.478,36.035L220.134,35.823L219.79,35.611L219.445,35.401L219.099,35.192L218.753,34.983L218.406,34.776L218.058,34.569L217.709,34.364L217.36,34.16L217.011,33.956L216.66,33.754L216.309,33.553L215.957,33.353L215.605,33.153L215.252,32.955L214.898,32.758L214.544,32.562L214.189,32.367L213.834,32.173L213.477,31.98L213.121,31.788L212.763,31.597L212.405,31.408L212.046,31.219L211.687,31.031L211.327,30.845L210.966,30.659L210.605,30.475L210.243,30.291L209.88,30.109L209.517,29.928L209.153,29.748L208.789,29.568L208.424,29.39L208.058,29.213L207.692,29.037L207.325,28.863L206.958,28.689L206.59,28.516L206.221,28.345L205.852,28.174L205.482,28.005L205.111,27.837L204.74,27.669L204.369,27.503L203.997,27.338L203.624,27.174L203.25,27.012L202.876,26.85L202.502,26.689L202.127,26.53L201.751,26.372L201.375,26.214L200.998,26.058L200.621,25.903L200.243,25.749L199.864,25.597L199.485,25.445L199.105,25.295L198.725,25.145L198.344,24.997L197.963,24.85L197.581,24.704L197.198,24.559L196.815,24.415L196.432,24.273L196.048,24.131L195.663,23.991L195.278,23.852L194.892,23.714L194.506,23.577L194.119,23.441L193.732,23.307L193.344,23.173L192.955,23.041L192.566,22.91L192.177,22.78L191.787,22.652L191.396,22.524L191.005,22.398L190.614,22.272L190.222,22.148L189.829,22.025L189.436,21.904L189.042,21.783L188.648,21.664L188.253,21.546L187.858,21.429L187.463,21.313L187.066,21.198L186.67,21.085L186.272,20.972L185.875,20.861L185.477,20.752L185.078,20.643L184.679,20.535L184.279,20.429L183.879,20.324L183.478,20.22L183.077,20.118L182.676,20.016L182.274,19.916L181.871,19.817L181.468,19.719L181.064,19.623L180.66,19.527L180.256,19.433L179.851,19.34L179.446,19.248L179.04,19.158L178.633,19.069L178.227,18.981L177.819,18.894L177.412,18.809L177.003,18.724L176.595,18.641L176.186,18.559L175.776,18.479L175.366,18.4L174.956,18.321L174.545,18.245L174.133,18.169L173.721,18.095L173.309,18.022L172.897,17.95L172.483,17.879L172.07,17.81L171.656,17.742L171.241,17.675L170.827,17.61L170.411,17.546L169.995,17.483L169.579,17.421L169.163,17.361L168.746,17.302L168.328,17.244L167.91,17.187L167.492,17.132L167.073,17.078L166.654,17.025L166.235,16.974L165.815,16.924L165.394,16.875L164.974,16.828L164.552,16.781L164.131,16.737L163.709,16.693L163.286,16.651L162.864,16.61L162.44,16.57L162.017,16.532L161.593,16.495L161.168,16.459L160.744,16.425L160.318,16.392L159.893,16.36L159.467,16.329L159.041,16.3L158.614,16.272L158.187,16.246L157.759,16.221L157.331,16.197L156.903,16.175L156.474,16.154L156.045,16.134L155.616,16.116L155.186,16.099L154.756,16.083L154.325,16.069L153.894,16.056L153.463,16.044L153.032,16.034L152.6,16.025L152.167,16.017L151.735,16.011L151.301,16.006L150.868,16.003L150.434,16.001L150,16L149.566,16.001Z" style="fill:rgb(45,103,185);"/>
                </g>
            </g>
        </g>
        <g id="Layer1">
            <g>
                <g transform="matrix(1,0,0,1,2.13633,7.44273)">
                    <path d="M150,251.643C149.913,251.602 119.057,237.1 95.732,195.074C65.581,140.753 67.191,75.178 67.191,75.178C122.952,75.971 149.943,48.379 150,48.32C150.057,48.379 177.048,75.971 232.809,75.178C232.809,75.178 234.419,140.753 204.268,195.074C180.91,237.159 150,251.643 150,251.643Z" style="fill:rgb(45,103,185);"/>
                </g>
                <g transform="matrix(0.853263,0,0,0.84723,24.1469,29.7079)">
                    <path d="M150,251.643C149.913,251.602 119.057,237.1 95.732,195.074C65.581,140.753 67.191,75.178 67.191,75.178C122.952,75.971 149.943,48.379 150,48.32C150.057,48.379 177.048,75.971 232.809,75.178C232.809,75.178 234.419,140.753 204.268,195.074C180.91,237.159 150,251.643 150,251.643Z" style="fill:rgb(45,103,185);fill-opacity:0;"/>
                    <path d="M150.084,48.405L150.186,48.504L150.327,48.64L150.507,48.811L150.728,49.017L150.988,49.254L151.133,49.385L151.288,49.524L151.452,49.67L151.627,49.823L151.812,49.983L152.006,50.151L152.211,50.325L152.426,50.507L152.65,50.694L152.885,50.888L153.129,51.089L153.384,51.295L153.649,51.508L153.923,51.726L154.208,51.95L154.502,52.179L154.807,52.413L155.122,52.653L155.446,52.897L155.781,53.147L156.126,53.401L156.481,53.659L156.845,53.922L157.22,54.189L157.605,54.46L158,54.735L158.405,55.014L158.821,55.296L159.246,55.581L159.681,55.87L160.127,56.161L160.582,56.456L161.048,56.753L161.524,57.053L162.01,57.355L162.506,57.66L162.758,57.813L163.012,57.966L163.269,58.12L163.528,58.275L163.79,58.43L164.055,58.585L164.322,58.741L164.591,58.897L164.863,59.053L165.138,59.21L165.415,59.367L165.695,59.525L165.977,59.682L166.262,59.84L166.549,59.999L166.839,60.157L167.131,60.316L167.426,60.474L167.724,60.633L168.024,60.793L168.326,60.952L168.631,61.111L168.939,61.271L169.249,61.43L169.562,61.59L169.877,61.749L170.195,61.909L170.516,62.068L170.839,62.228L171.164,62.387L171.492,62.547L171.823,62.706L172.156,62.865L172.492,63.024L172.83,63.183L173.171,63.341L173.514,63.5L173.86,63.658L174.208,63.816L174.559,63.974L174.913,64.131L175.269,64.289L175.628,64.445L175.989,64.602L176.353,64.758L176.72,64.914L177.088,65.069L177.46,65.224L177.834,65.379L178.211,65.533L178.59,65.686L178.972,65.839L179.356,65.992L179.743,66.144L180.132,66.295L180.525,66.446L180.919,66.597L181.316,66.746L181.716,66.895L182.118,67.044L182.523,67.191L182.931,67.338L183.341,67.485L183.753,67.63L184.169,67.775L184.586,67.919L185.007,68.062L185.43,68.205L185.855,68.346L186.283,68.487L186.714,68.627L187.147,68.765L187.583,68.903L188.021,69.041L188.462,69.177L188.906,69.312L189.352,69.446L189.801,69.579L190.252,69.711L190.706,69.842L191.162,69.972L191.621,70.101L192.083,70.228L192.547,70.355L193.014,70.48L193.483,70.605L193.955,70.728L194.43,70.849L194.907,70.97L195.387,71.089L195.869,71.207L196.354,71.324L196.841,71.439L197.331,71.553L197.824,71.666L198.319,71.778L198.817,71.887L199.318,71.996L199.821,72.103L200.327,72.209L200.835,72.313L201.346,72.415L201.859,72.517L202.375,72.616L202.894,72.714L203.415,72.811L203.939,72.905L204.466,72.999L204.995,73.09L205.526,73.18L206.061,73.268L206.597,73.355L207.137,73.44L207.679,73.523L208.224,73.604L208.771,73.684L209.321,73.762L209.873,73.837L210.429,73.912L210.986,73.984L211.547,74.054L212.11,74.123L212.675,74.189L213.243,74.254L213.814,74.316L214.388,74.377L214.964,74.436L215.542,74.492L216.124,74.547L216.707,74.6L217.294,74.65L217.883,74.698L218.475,74.745L219.069,74.789L219.666,74.831L220.266,74.87L220.868,74.908L221.473,74.943L222.08,74.977L222.69,75.007L223.303,75.036L223.918,75.062L224.536,75.086L225.157,75.108L225.78,75.127L226.406,75.144L227.034,75.159L227.665,75.171L228.299,75.18L228.935,75.187L229.574,75.192L230.216,75.194L230.86,75.194L231.507,75.191L232.156,75.186L232.809,75.178L232.812,75.367L232.816,75.602L232.819,75.927L232.822,76.342L232.824,76.843L232.823,77.431L232.819,78.101L232.811,78.854L232.806,79.261L232.799,79.687L232.791,80.134L232.782,80.599L232.771,81.084L232.758,81.587L232.744,82.11L232.728,82.651L232.71,83.21L232.69,83.787L232.668,84.382L232.644,84.995L232.618,85.625L232.589,86.273L232.558,86.937L232.524,87.618L232.488,88.316L232.448,89.03L232.406,89.76L232.361,90.506L232.313,91.267L232.262,92.045L232.207,92.837L232.15,93.644L232.089,94.466L232.024,95.303L231.956,96.154L231.884,97.019L231.808,97.898L231.728,98.791L231.644,99.697L231.557,100.616L231.465,101.549L231.368,102.494L231.268,103.452L231.163,104.422L231.053,105.404L230.939,106.399L230.82,107.404L230.696,108.422L230.632,108.935L230.567,109.451L230.5,109.969L230.433,110.49L230.364,111.014L230.294,111.541L230.222,112.07L230.149,112.602L230.075,113.137L230,113.674L229.923,114.213L229.845,114.755L229.765,115.3L229.684,115.847L229.602,116.397L229.518,116.949L229.433,117.503L229.346,118.059L229.258,118.618L229.168,119.18L229.077,119.743L228.985,120.309L228.891,120.877L228.795,121.447L228.698,122.019L228.6,122.594L228.499,123.17L228.398,123.749L228.294,124.33L228.189,124.912L228.083,125.497L227.975,126.084L227.865,126.672L227.754,127.263L227.641,127.855L227.526,128.449L227.41,129.045L227.292,129.643L227.172,130.243L227.051,130.844L226.928,131.447L226.803,132.052L226.677,132.658L226.548,133.267L226.418,133.876L226.286,134.488L226.153,135.1L226.017,135.715L225.88,136.33L225.741,136.948L225.6,137.567L225.457,138.187L225.313,138.808L225.166,139.431L225.018,140.055L224.868,140.681L224.716,141.308L224.562,141.936L224.406,142.565L224.248,143.196L224.088,143.827L223.926,144.46L223.762,145.094L223.596,145.729L223.429,146.365L223.259,147.002L223.087,147.64L222.913,148.279L222.737,148.919L222.559,149.56L222.379,150.202L222.197,150.845L222.013,151.488L221.826,152.133L221.638,152.778L221.447,153.424L221.255,154.07L221.06,154.718L220.863,155.366L220.663,156.014L220.462,156.663L220.258,157.313L220.052,157.964L219.844,158.615L219.634,159.266L219.421,159.918L219.207,160.57L218.989,161.223L218.77,161.876L218.548,162.53L218.324,163.184L218.098,163.838L217.869,164.493L217.638,165.147L217.405,165.802L217.169,166.458L216.931,167.113L216.69,167.769L216.448,168.424L216.202,169.08L215.954,169.736L215.704,170.392L215.452,171.048L215.196,171.704L214.939,172.359L214.679,173.015L214.416,173.671L214.151,174.326L213.883,174.982L213.613,175.637L213.34,176.292L213.065,176.947L212.787,177.601L212.507,178.256L212.224,178.91L211.938,179.563L211.65,180.216L211.359,180.869L211.065,181.521L210.769,182.173L210.47,182.825L210.168,183.476L209.864,184.126L209.557,184.776L209.248,185.425L208.935,186.074L208.62,186.722L208.302,187.369L207.981,188.016L207.658,188.662L207.332,189.307L207.003,189.951L206.671,190.595L206.336,191.237L205.999,191.879L205.658,192.52L205.315,193.16L204.969,193.799L204.62,194.437L204.268,195.074L203.994,195.566L203.719,196.056L203.444,196.543L203.168,197.027L202.891,197.509L202.614,197.988L202.336,198.465L202.057,198.939L201.778,199.411L201.498,199.881L201.218,200.348L200.937,200.812L200.656,201.274L200.374,201.733L200.092,202.19L199.809,202.645L199.526,203.097L199.242,203.547L198.958,203.994L198.673,204.439L198.388,204.881L198.103,205.321L197.817,205.759L197.531,206.194L197.245,206.626L196.958,207.057L196.67,207.485L196.383,207.91L196.095,208.333L195.807,208.754L195.518,209.172L195.23,209.588L194.941,210.002L194.652,210.413L194.362,210.821L194.073,211.228L193.783,211.632L193.493,212.034L193.203,212.433L192.912,212.83L192.622,213.225L192.331,213.617L192.041,214.007L191.75,214.395L191.459,214.78L191.168,215.163L190.877,215.544L190.586,215.922L190.295,216.299L190.004,216.672L189.713,217.044L189.422,217.413L189.131,217.78L188.84,218.145L188.549,218.507L188.258,218.868L187.967,219.225L187.676,219.581L187.385,219.934L187.095,220.286L186.805,220.634L186.514,220.981L186.224,221.326L185.934,221.668L185.645,222.008L185.355,222.345L185.066,222.681L184.777,223.014L184.488,223.345L184.199,223.674L183.911,224.001L183.623,224.325L183.335,224.648L183.048,224.968L182.761,225.286L182.474,225.602L182.188,225.915L181.902,226.227L181.616,226.536L181.331,226.843L181.046,227.148L180.762,227.451L180.478,227.751L180.194,228.05L179.911,228.346L179.629,228.641L179.347,228.933L179.065,229.223L178.784,229.511L178.503,229.796L178.224,230.08L177.944,230.362L177.665,230.641L177.387,230.919L177.109,231.194L176.832,231.467L176.556,231.738L176.28,232.008L176.005,232.275L175.731,232.54L175.457,232.803L175.184,233.063L174.912,233.322L174.64,233.579L174.369,233.834L174.099,234.086L173.83,234.337L173.561,234.586L173.293,234.832L173.026,235.077L172.76,235.32L172.495,235.56L172.23,235.799L171.967,236.035L171.704,236.27L171.442,236.503L170.921,236.962L170.404,237.413L169.891,237.857L169.381,238.292L168.876,238.72L168.375,239.141L167.878,239.553L167.385,239.958L166.897,240.355L166.414,240.745L165.935,241.127L165.461,241.501L164.992,241.868L164.528,242.228L164.069,242.58L163.616,242.925L163.168,243.262L162.725,243.592L162.288,243.915L161.857,244.231L161.431,244.54L161.012,244.841L160.598,245.135L160.191,245.423L159.79,245.703L159.395,245.976L159.007,246.242L158.625,246.502L158.25,246.754L157.882,247L157.521,247.238L157.166,247.47L156.819,247.696L156.479,247.914L156.147,248.126L155.822,248.332L155.504,248.53L155.195,248.723L154.893,248.908L154.599,249.087L154.313,249.26L154.035,249.427L153.765,249.587L153.504,249.741L153.251,249.888L153.006,250.029L152.771,250.164L152.544,250.293L152.326,250.416L152.117,250.532L151.727,250.748L151.374,250.939L151.059,251.106L150.783,251.251L150.548,251.372L150.353,251.47L150.2,251.546L150.089,251.6L150,251.643L149.903,251.597L149.789,251.541L149.632,251.463L149.434,251.363L149.196,251.24L148.917,251.094L148.6,250.925L148.244,250.732L147.852,250.515L147.642,250.398L147.423,250.274L147.195,250.145L146.958,250.009L146.713,249.867L146.459,249.719L146.197,249.564L145.927,249.404L145.648,249.237L145.361,249.063L145.067,248.883L144.764,248.697L144.454,248.504L144.136,248.305L143.81,248.099L143.477,247.886L143.137,247.667L142.789,247.441L142.435,247.209L142.073,246.97L141.704,246.723L141.329,246.47L140.947,246.211L140.559,245.944L140.164,245.67L139.762,245.39L139.355,245.102L138.941,244.807L138.522,244.506L138.096,244.197L137.665,243.881L137.228,243.557L136.785,243.227L136.337,242.889L135.884,242.544L135.425,242.192L134.961,241.832L134.492,241.465L134.019,241.09L133.54,240.708L133.057,240.318L132.569,239.921L132.077,239.516L131.58,239.103L131.079,238.683L130.574,238.255L130.065,237.819L129.552,237.375L129.036,236.924L128.515,236.465L128.253,236.232L127.991,235.997L127.728,235.761L127.463,235.522L127.198,235.282L126.932,235.039L126.666,234.795L126.398,234.548L126.13,234.299L125.861,234.049L125.591,233.796L125.32,233.541L125.049,233.285L124.777,233.026L124.504,232.765L124.231,232.502L123.957,232.238L123.682,231.971L123.406,231.702L123.13,231.43L122.853,231.157L122.576,230.882L122.298,230.605L122.02,230.325L121.741,230.044L121.461,229.76L121.181,229.475L120.9,229.187L120.619,228.897L120.337,228.605L120.055,228.311L119.772,228.015L119.489,227.716L119.205,227.416L118.921,227.113L118.637,226.808L118.352,226.501L118.067,226.192L117.781,225.881L117.495,225.568L117.209,225.252L116.922,224.935L116.635,224.615L116.348,224.293L116.06,223.968L115.772,223.642L115.484,223.313L115.196,222.982L114.907,222.649L114.618,222.314L114.329,221.977L114.04,221.637L113.75,221.295L113.46,220.951L113.171,220.605L112.881,220.256L112.59,219.905L112.3,219.552L112.01,219.197L111.719,218.839L111.429,218.479L111.138,218.117L110.848,217.753L110.557,217.386L110.266,217.017L109.976,216.646L109.685,216.273L109.394,215.897L109.104,215.519L108.813,215.139L108.523,214.756L108.232,214.371L107.942,213.984L107.651,213.594L107.361,213.202L107.071,212.808L106.781,212.411L106.492,212.012L106.202,211.611L105.913,211.207L105.623,210.801L105.334,210.393L105.046,209.982L104.757,209.569L104.469,209.154L104.181,208.736L103.893,208.316L103.606,207.893L103.319,207.468L103.032,207.041L102.745,206.611L102.459,206.179L102.173,205.745L101.888,205.308L101.603,204.868L101.318,204.426L101.034,203.982L100.751,203.535L100.467,203.086L100.184,202.635L99.902,202.181L99.62,201.724L99.339,201.266L99.058,200.804L98.777,200.34L98.498,199.874L98.218,199.405L97.94,198.934L97.661,198.46L97.384,197.984L97.107,197.505L96.831,197.024L96.555,196.541L96.28,196.054L96.006,195.566L95.732,195.074L95.38,194.437L95.031,193.799L94.685,193.16L94.342,192.52L94.001,191.879L93.664,191.237L93.329,190.595L92.997,189.951L92.668,189.307L92.342,188.662L92.019,188.016L91.698,187.369L91.38,186.722L91.065,186.074L90.752,185.425L90.443,184.776L90.136,184.126L89.832,183.476L89.53,182.825L89.231,182.173L88.935,181.521L88.641,180.869L88.35,180.216L88.062,179.563L87.776,178.91L87.493,178.256L87.213,177.601L86.935,176.947L86.66,176.292L86.387,175.637L86.117,174.982L85.849,174.326L85.584,173.671L85.321,173.015L85.061,172.359L84.804,171.704L84.548,171.048L84.296,170.392L84.046,169.736L83.798,169.08L83.552,168.424L83.31,167.769L83.069,167.113L82.831,166.458L82.595,165.802L82.362,165.147L82.131,164.493L81.902,163.838L81.676,163.184L81.452,162.53L81.23,161.876L81.011,161.223L80.793,160.57L80.579,159.918L80.366,159.266L80.156,158.615L79.948,157.964L79.742,157.313L79.538,156.663L79.337,156.014L79.137,155.366L78.94,154.718L78.745,154.07L78.553,153.424L78.362,152.778L78.174,152.133L77.987,151.488L77.803,150.845L77.621,150.202L77.441,149.56L77.263,148.919L77.087,148.279L76.913,147.64L76.741,147.002L76.571,146.365L76.404,145.729L76.238,145.094L76.074,144.46L75.912,143.827L75.752,143.196L75.594,142.565L75.438,141.936L75.284,141.308L75.132,140.681L74.982,140.055L74.834,139.431L74.687,138.808L74.543,138.187L74.4,137.567L74.259,136.948L74.12,136.33L73.983,135.715L73.847,135.1L73.714,134.488L73.582,133.876L73.452,133.267L73.323,132.658L73.197,132.052L73.072,131.447L72.949,130.844L72.828,130.243L72.708,129.643L72.59,129.045L72.474,128.449L72.359,127.855L72.246,127.263L72.135,126.672L72.025,126.084L71.917,125.497L71.811,124.912L71.706,124.33L71.602,123.749L71.501,123.17L71.4,122.594L71.302,122.019L71.205,121.447L71.109,120.877L71.015,120.309L70.923,119.743L70.832,119.18L70.742,118.618L70.654,118.059L70.567,117.503L70.482,116.949L70.398,116.397L70.316,115.847L70.235,115.3L70.155,114.755L70.077,114.213L70,113.674L69.925,113.137L69.851,112.602L69.778,112.07L69.706,111.541L69.636,111.014L69.567,110.49L69.5,109.969L69.433,109.451L69.368,108.935L69.304,108.422L69.18,107.404L69.061,106.399L68.947,105.404L68.837,104.422L68.732,103.452L68.632,102.494L68.535,101.549L68.443,100.616L68.356,99.697L68.272,98.791L68.192,97.898L68.116,97.019L68.044,96.154L67.976,95.303L67.911,94.466L67.85,93.644L67.793,92.837L67.738,92.045L67.687,91.267L67.639,90.506L67.594,89.76L67.552,89.03L67.512,88.316L67.476,87.618L67.442,86.937L67.411,86.273L67.382,85.625L67.356,84.995L67.332,84.382L67.31,83.787L67.29,83.21L67.272,82.651L67.256,82.11L67.242,81.587L67.229,81.084L67.218,80.599L67.209,80.134L67.201,79.687L67.194,79.261L67.189,78.854L67.181,78.101L67.177,77.431L67.176,76.843L67.178,76.342L67.181,75.927L67.184,75.602L67.188,75.367L67.191,75.178L67.844,75.186L68.493,75.191L69.14,75.194L69.784,75.194L70.426,75.192L71.065,75.187L71.701,75.18L72.335,75.171L72.966,75.159L73.594,75.144L74.22,75.127L74.843,75.108L75.464,75.086L76.082,75.062L76.697,75.036L77.31,75.007L77.92,74.977L78.527,74.943L79.132,74.908L79.734,74.87L80.334,74.831L80.931,74.789L81.525,74.745L82.117,74.698L82.706,74.65L83.293,74.6L83.876,74.547L84.458,74.492L85.036,74.436L85.612,74.377L86.186,74.316L86.757,74.254L87.325,74.189L87.89,74.123L88.453,74.054L89.014,73.984L89.571,73.912L90.127,73.837L90.679,73.762L91.229,73.684L91.776,73.604L92.321,73.523L92.863,73.44L93.403,73.355L93.939,73.268L94.474,73.18L95.005,73.09L95.534,72.999L96.061,72.905L96.585,72.811L97.106,72.714L97.625,72.616L98.141,72.517L98.654,72.415L99.165,72.313L99.673,72.209L100.179,72.103L100.682,71.996L101.183,71.887L101.681,71.778L102.176,71.666L102.669,71.553L103.159,71.439L103.646,71.324L104.131,71.207L104.613,71.089L105.093,70.97L105.57,70.849L106.045,70.728L106.517,70.605L106.986,70.48L107.453,70.355L107.917,70.228L108.379,70.101L108.838,69.972L109.294,69.842L109.748,69.711L110.199,69.579L110.648,69.446L111.094,69.312L111.538,69.177L111.979,69.041L112.417,68.903L112.853,68.765L113.286,68.627L113.717,68.487L114.145,68.346L114.57,68.205L114.993,68.062L115.414,67.919L115.831,67.775L116.247,67.63L116.659,67.485L117.069,67.338L117.477,67.191L117.882,67.044L118.284,66.895L118.684,66.746L119.081,66.597L119.475,66.446L119.868,66.295L120.257,66.144L120.644,65.992L121.028,65.839L121.41,65.686L121.789,65.533L122.166,65.379L122.54,65.224L122.912,65.069L123.28,64.914L123.647,64.758L124.011,64.602L124.372,64.445L124.731,64.289L125.087,64.131L125.441,63.974L125.792,63.816L126.14,63.658L126.486,63.5L126.829,63.341L127.17,63.183L127.508,63.024L127.844,62.865L128.177,62.706L128.508,62.547L128.836,62.387L129.161,62.228L129.484,62.068L129.805,61.909L130.123,61.749L130.438,61.59L130.751,61.43L131.061,61.271L131.369,61.111L131.674,60.952L131.976,60.793L132.276,60.633L132.574,60.474L132.869,60.316L133.161,60.157L133.451,59.999L133.738,59.84L134.023,59.682L134.305,59.525L134.585,59.367L134.862,59.21L135.137,59.053L135.409,58.897L135.678,58.741L135.945,58.585L136.21,58.43L136.472,58.275L136.731,58.12L136.988,57.966L137.242,57.813L137.494,57.66L137.99,57.355L138.476,57.053L138.952,56.753L139.418,56.456L139.873,56.161L140.319,55.87L140.754,55.581L141.179,55.296L141.595,55.014L142,54.735L142.395,54.46L142.78,54.189L143.155,53.922L143.519,53.659L143.874,53.401L144.219,53.147L144.554,52.897L144.878,52.653L145.193,52.413L145.498,52.179L145.792,51.95L146.077,51.726L146.351,51.508L146.616,51.295L146.871,51.089L147.115,50.888L147.35,50.694L147.574,50.507L147.789,50.325L147.994,50.151L148.188,49.983L148.373,49.823L148.548,49.67L148.712,49.524L148.867,49.385L149.012,49.254L149.272,49.017L149.493,48.811L149.673,48.64L149.814,48.504L149.916,48.405L150,48.32L150.084,48.405ZM149.607,63.06L149.183,63.362L148.748,63.668L148.302,63.978L147.846,64.292L147.379,64.609L146.902,64.93L146.414,65.253L145.915,65.58L145.405,65.909L144.885,66.241L144.354,66.576L143.813,66.913L143.268,67.247L142.981,67.422L142.698,67.592L142.412,67.764L142.124,67.935L141.833,68.107L141.54,68.28L141.244,68.452L140.945,68.625L140.643,68.799L140.339,68.973L140.032,69.147L139.722,69.321L139.41,69.495L139.095,69.67L138.777,69.845L138.457,70.02L138.134,70.196L137.808,70.371L137.48,70.546L137.149,70.722L136.815,70.898L136.478,71.074L136.139,71.249L135.797,71.425L135.453,71.601L135.105,71.777L134.755,71.952L134.403,72.128L134.047,72.303L133.689,72.479L133.329,72.654L132.965,72.829L132.599,73.004L132.23,73.179L131.859,73.353L131.484,73.528L131.107,73.701L130.728,73.875L130.345,74.048L129.96,74.222L129.572,74.394L129.182,74.566L128.789,74.738L128.393,74.91L127.994,75.081L127.593,75.252L127.189,75.422L126.782,75.591L126.373,75.76L125.961,75.929L125.546,76.097L125.129,76.264L124.708,76.431L124.286,76.597L123.86,76.763L123.432,76.928L123.001,77.092L122.567,77.255L122.131,77.418L121.691,77.58L121.25,77.741L120.805,77.901L120.358,78.061L119.908,78.22L119.455,78.377L119,78.534L118.542,78.69L118.081,78.846L117.618,79L117.152,79.153L116.683,79.305L116.211,79.456L115.737,79.606L115.26,79.756L114.78,79.904L114.298,80.05L113.813,80.196L113.325,80.341L112.835,80.484L112.342,80.627L111.846,80.768L111.347,80.908L110.846,81.046L110.342,81.184L109.836,81.32L109.326,81.455L108.814,81.588L108.3,81.72L107.782,81.851L107.262,81.98L106.739,82.108L106.214,82.235L105.686,82.36L105.155,82.483L104.621,82.605L104.085,82.726L103.546,82.845L103.005,82.962L102.461,83.078L101.914,83.192L101.364,83.305L100.812,83.416L100.257,83.525L99.699,83.633L99.139,83.739L98.576,83.843L98.01,83.945L97.441,84.046L96.87,84.145L96.297,84.242L95.72,84.337L95.141,84.43L94.56,84.522L93.975,84.611L93.388,84.699L92.798,84.785L92.206,84.869L91.611,84.95L91.013,85.03L90.412,85.108L89.809,85.184L89.204,85.257L88.595,85.329L87.984,85.398L87.37,85.466L86.754,85.531L86.135,85.594L85.513,85.655L84.889,85.714L84.262,85.77L83.632,85.824L83,85.876L82.365,85.926L81.728,85.973L81.087,86.018L80.445,86.061L79.799,86.101L79.151,86.139L78.552,86.171L78.563,86.391L78.595,87.043L78.63,87.711L78.668,88.395L78.708,89.095L78.751,89.81L78.797,90.541L78.846,91.286L78.899,92.047L78.954,92.822L79.013,93.612L79.075,94.416L79.141,95.234L79.21,96.066L79.283,96.911L79.359,97.769L79.44,98.641L79.524,99.525L79.613,100.423L79.705,101.332L79.802,102.254L79.903,103.188L80.009,104.133L80.119,105.09L80.234,106.058L80.354,107.042L80.414,107.531L80.477,108.028L80.541,108.527L80.606,109.028L80.672,109.533L80.74,110.039L80.809,110.549L80.879,111.061L80.95,111.575L81.023,112.092L81.097,112.611L81.172,113.133L81.248,113.657L81.326,114.183L81.406,114.712L81.486,115.243L81.568,115.776L81.652,116.312L81.736,116.849L81.822,117.389L81.91,117.931L81.999,118.475L82.089,119.022L82.181,119.57L82.275,120.12L82.37,120.672L82.466,121.227L82.564,121.783L82.663,122.341L82.764,122.901L82.866,123.463L82.97,124.027L83.075,124.592L83.182,125.159L83.291,125.728L83.401,126.299L83.513,126.872L83.626,127.446L83.741,128.021L83.857,128.599L83.975,129.178L84.095,129.758L84.217,130.34L84.34,130.924L84.465,131.509L84.591,132.095L84.719,132.683L84.849,133.272L84.981,133.863L85.114,134.454L85.249,135.048L85.386,135.642L85.524,136.238L85.665,136.835L85.807,137.433L85.951,138.032L86.096,138.632L86.244,139.233L86.393,139.836L86.544,140.439L86.697,141.044L86.852,141.65L87.009,142.256L87.168,142.863L87.328,143.472L87.49,144.081L87.655,144.691L87.821,145.302L87.989,145.913L88.159,146.526L88.331,147.139L88.505,147.753L88.681,148.367L88.859,148.982L89.039,149.598L89.221,150.214L89.405,150.831L89.59,151.449L89.778,152.067L89.968,152.685L90.16,153.304L90.354,153.923L90.551,154.543L90.749,155.163L90.949,155.783L91.151,156.404L91.356,157.025L91.563,157.646L91.771,158.267L91.982,158.889L92.195,159.511L92.41,160.133L92.628,160.755L92.847,161.377L93.069,161.999L93.293,162.621L93.519,163.243L93.747,163.865L93.977,164.487L94.21,165.109L94.445,165.731L94.682,166.353L94.922,166.975L95.163,167.596L95.407,168.217L95.654,168.838L95.902,169.459L96.153,170.079L96.406,170.699L96.662,171.319L96.92,171.938L97.18,172.557L97.442,173.175L97.707,173.793L97.974,174.41L98.244,175.027L98.516,175.643L98.791,176.259L99.067,176.874L99.347,177.489L99.628,178.103L99.912,178.716L100.199,179.328L100.488,179.94L100.779,180.551L101.073,181.161L101.369,181.77L101.668,182.378L101.969,182.986L102.273,183.593L102.579,184.198L102.888,184.803L103.2,185.407L103.513,186.009L103.83,186.611L104.149,187.212L104.47,187.811L104.794,188.41L105.121,189.007L105.452,189.606L105.706,190.063L105.963,190.52L106.22,190.974L106.478,191.426L106.736,191.876L106.995,192.324L107.254,192.769L107.514,193.211L107.774,193.651L108.035,194.089L108.297,194.525L108.559,194.958L108.821,195.389L109.084,195.817L109.347,196.243L109.61,196.667L109.874,197.088L110.139,197.507L110.403,197.924L110.668,198.339L110.934,198.75L111.2,199.16L111.466,199.568L111.732,199.973L111.999,200.376L112.266,200.776L112.533,201.175L112.801,201.571L113.069,201.964L113.337,202.356L113.605,202.745L113.873,203.132L114.142,203.517L114.411,203.899L114.68,204.279L114.949,204.657L115.219,205.033L115.488,205.406L115.758,205.777L116.027,206.146L116.297,206.513L116.567,206.878L116.837,207.24L117.107,207.6L117.377,207.958L117.647,208.314L117.917,208.668L118.188,209.019L118.458,209.368L118.728,209.715L118.998,210.06L119.268,210.403L119.538,210.744L119.808,211.082L120.078,211.418L120.348,211.752L120.617,212.084L120.887,212.414L121.156,212.742L121.425,213.067L121.694,213.391L121.963,213.712L122.232,214.031L122.501,214.349L122.769,214.664L123.037,214.976L123.305,215.287L123.572,215.596L123.84,215.903L124.107,216.207L124.374,216.51L124.64,216.81L124.906,217.109L125.172,217.405L125.438,217.699L125.703,217.991L125.968,218.282L126.232,218.57L126.496,218.856L126.76,219.14L127.023,219.422L127.286,219.702L127.548,219.98L127.81,220.256L128.072,220.53L128.332,220.802L128.593,221.072L128.853,221.34L129.112,221.606L129.371,221.87L129.63,222.131L129.887,222.392L130.145,222.65L130.401,222.906L130.657,223.16L130.913,223.412L131.168,223.662L131.422,223.91L131.675,224.157L131.928,224.401L132.18,224.643L132.432,224.884L132.683,225.122L132.933,225.359L133.182,225.593L133.431,225.826L133.679,226.057L133.926,226.286L134.172,226.513L134.417,226.738L134.662,226.961L134.906,227.183L135.149,227.402L135.391,227.62L135.633,227.836L135.868,228.045L136.352,228.471L136.826,228.886L137.297,229.293L137.764,229.693L138.227,230.086L138.686,230.471L139.141,230.849L139.592,231.219L140.038,231.583L140.48,231.939L140.917,232.288L141.349,232.63L141.777,232.965L142.199,233.293L142.617,233.614L143.03,233.928L143.437,234.235L143.839,234.535L144.235,234.829L144.626,235.115L145.011,235.395L145.391,235.667L145.764,235.934L146.132,236.193L146.494,236.446L146.849,236.692L147.198,236.932L147.541,237.165L147.877,237.391L148.206,237.611L148.529,237.825L148.845,238.032L149.154,238.233L149.456,238.427L149.751,238.615L150,238.773L150.211,238.639L150.505,238.452L150.807,238.258L151.116,238.058L151.431,237.851L151.753,237.638L152.082,237.419L152.418,237.193L152.76,236.96L153.109,236.721L153.464,236.475L153.826,236.223L154.193,235.964L154.567,235.698L154.946,235.425L155.331,235.146L155.722,234.86L156.118,234.567L156.52,234.267L156.928,233.96L157.34,233.647L157.758,233.326L158.181,232.998L158.608,232.664L159.041,232.322L159.478,231.973L159.92,231.617L160.367,231.253L160.817,230.883L161.272,230.505L161.732,230.12L162.195,229.728L162.663,229.328L163.134,228.921L163.609,228.506L164.093,228.08L164.328,227.87L164.57,227.655L164.812,227.437L165.055,227.218L165.3,226.996L165.545,226.773L165.79,226.548L166.037,226.321L166.284,226.092L166.532,225.861L166.781,225.628L167.031,225.393L167.281,225.157L167.532,224.918L167.784,224.678L168.036,224.435L168.289,224.191L168.543,223.944L168.797,223.696L169.053,223.446L169.309,223.193L169.565,222.94L169.822,222.683L170.079,222.425L170.337,222.165L170.596,221.903L170.855,221.639L171.115,221.373L171.375,221.105L171.636,220.835L171.897,220.562L172.159,220.288L172.421,220.013L172.684,219.734L172.947,219.454L173.21,219.172L173.474,218.888L173.739,218.601L174.003,218.313L174.269,218.023L174.534,217.73L174.8,217.436L175.066,217.139L175.333,216.841L175.6,216.54L175.867,216.237L176.134,215.933L176.402,215.626L176.67,215.317L176.938,215.006L177.206,214.693L177.475,214.377L177.744,214.06L178.013,213.74L178.282,213.419L178.552,213.095L178.822,212.769L179.091,212.441L179.361,212.111L179.631,211.779L179.901,211.444L180.172,211.108L180.442,210.769L180.712,210.428L180.983,210.085L181.253,209.74L181.524,209.392L181.794,209.043L182.065,208.691L182.335,208.337L182.606,207.981L182.876,207.623L183.147,207.262L183.417,206.899L183.687,206.534L183.957,206.167L184.228,205.798L184.498,205.426L184.767,205.052L185.037,204.676L185.307,204.298L185.576,203.917L185.845,203.534L186.115,203.149L186.383,202.762L186.652,202.372L186.921,201.98L187.189,201.586L187.457,201.19L187.724,200.791L187.992,200.39L188.259,199.987L188.526,199.581L188.792,199.173L189.058,198.763L189.324,198.35L189.59,197.935L189.855,197.518L190.119,197.099L190.384,196.677L190.648,196.252L190.911,195.826L191.174,195.397L191.437,194.965L191.699,194.532L191.961,194.096L192.222,193.657L192.483,193.216L192.743,192.773L193.003,192.328L193.262,191.88L193.521,191.429L193.779,190.976L194.036,190.521L194.293,190.063L194.548,189.605L194.879,189.007L195.206,188.41L195.53,187.811L195.851,187.212L196.17,186.611L196.487,186.009L196.8,185.407L197.112,184.803L197.421,184.198L197.727,183.592L198.031,182.986L198.332,182.378L198.631,181.77L198.927,181.161L199.221,180.551L199.512,179.94L199.801,179.328L200.088,178.716L200.372,178.103L200.653,177.489L200.933,176.874L201.21,176.259L201.484,175.643L201.756,175.027L202.026,174.41L202.293,173.793L202.558,173.175L202.82,172.557L203.08,171.938L203.338,171.318L203.594,170.699L203.847,170.079L204.098,169.459L204.346,168.838L204.593,168.217L204.837,167.596L205.078,166.975L205.318,166.353L205.555,165.731L205.79,165.109L206.023,164.487L206.253,163.865L206.481,163.243L206.707,162.621L206.931,161.999L207.153,161.377L207.372,160.754L207.59,160.133L207.805,159.511L208.018,158.889L208.229,158.267L208.437,157.646L208.644,157.025L208.849,156.404L209.051,155.783L209.251,155.163L209.449,154.543L209.646,153.923L209.84,153.304L210.032,152.685L210.222,152.067L210.41,151.449L210.595,150.831L210.779,150.214L210.961,149.598L211.141,148.982L211.319,148.367L211.495,147.753L211.669,147.139L211.841,146.526L212.011,145.913L212.179,145.302L212.345,144.691L212.51,144.081L212.672,143.472L212.832,142.864L212.991,142.256L213.148,141.65L213.303,141.044L213.456,140.439L213.607,139.836L213.756,139.233L213.904,138.632L214.049,138.032L214.193,137.432L214.335,136.835L214.476,136.238L214.614,135.642L214.751,135.048L214.886,134.454L215.019,133.863L215.151,133.272L215.281,132.683L215.409,132.095L215.535,131.509L215.66,130.924L215.783,130.34L215.905,129.758L216.025,129.178L216.143,128.599L216.259,128.021L216.374,127.446L216.487,126.872L216.599,126.299L216.709,125.728L216.818,125.159L216.925,124.592L217.03,124.026L217.134,123.463L217.236,122.901L217.337,122.341L217.436,121.783L217.534,121.226L217.63,120.672L217.725,120.12L217.819,119.57L217.911,119.022L218.001,118.475L218.09,117.931L218.178,117.389L218.264,116.849L218.348,116.312L218.432,115.776L218.514,115.243L218.594,114.712L218.674,114.183L218.752,113.657L218.828,113.133L218.903,112.611L218.977,112.092L219.05,111.575L219.121,111.061L219.192,110.549L219.26,110.04L219.328,109.533L219.394,109.028L219.459,108.527L219.523,108.028L219.586,107.531L219.646,107.042L219.766,106.058L219.881,105.09L219.991,104.133L220.097,103.187L220.198,102.254L220.295,101.332L220.387,100.423L220.476,99.525L220.56,98.641L220.641,97.769L220.717,96.911L220.79,96.066L220.859,95.234L220.925,94.416L220.987,93.612L221.046,92.822L221.101,92.047L221.154,91.286L221.203,90.541L221.249,89.81L221.292,89.095L221.332,88.395L221.37,87.711L221.405,87.043L221.437,86.391L221.448,86.171L220.849,86.139L220.201,86.101L219.555,86.061L218.913,86.018L218.272,85.973L217.635,85.926L217,85.876L216.368,85.824L215.738,85.77L215.111,85.714L214.487,85.655L213.865,85.594L213.246,85.531L212.63,85.466L212.016,85.398L211.405,85.329L210.796,85.257L210.191,85.184L209.587,85.108L208.987,85.03L208.389,84.95L207.794,84.869L207.202,84.785L206.612,84.699L206.025,84.611L205.441,84.522L204.859,84.43L204.28,84.337L203.703,84.242L203.13,84.145L202.559,84.046L201.99,83.945L201.424,83.843L200.861,83.739L200.301,83.633L199.743,83.525L199.188,83.416L198.636,83.305L198.086,83.192L197.539,83.078L196.995,82.962L196.454,82.845L195.915,82.726L195.379,82.605L194.845,82.483L194.314,82.36L193.786,82.235L193.261,82.108L192.738,81.98L192.218,81.851L191.7,81.72L191.186,81.588L190.674,81.455L190.164,81.32L189.658,81.184L189.154,81.046L188.653,80.908L188.154,80.768L187.658,80.627L187.165,80.484L186.675,80.341L186.187,80.196L185.702,80.05L185.22,79.904L184.74,79.756L184.263,79.606L183.789,79.456L183.317,79.305L182.848,79.153L182.382,79L181.919,78.845L181.458,78.69L181,78.534L180.545,78.377L180.092,78.22L179.642,78.061L179.195,77.901L178.75,77.741L178.309,77.58L177.869,77.418L177.433,77.255L176.999,77.092L176.568,76.928L176.14,76.763L175.715,76.597L175.292,76.431L174.871,76.264L174.454,76.097L174.039,75.929L173.627,75.76L173.218,75.591L172.811,75.422L172.407,75.252L172.006,75.081L171.607,74.91L171.211,74.738L170.818,74.566L170.428,74.394L170.04,74.221L169.655,74.048L169.273,73.875L168.893,73.701L168.516,73.527L168.142,73.353L167.77,73.179L167.401,73.004L167.035,72.829L166.672,72.654L166.311,72.479L165.953,72.303L165.597,72.128L165.245,71.952L164.895,71.777L164.547,71.601L164.203,71.425L163.861,71.249L163.522,71.074L163.185,70.898L162.851,70.722L162.52,70.546L162.192,70.371L161.866,70.196L161.543,70.02L161.223,69.845L160.905,69.67L160.59,69.495L160.278,69.321L159.968,69.147L159.661,68.973L159.357,68.799L159.055,68.625L158.756,68.452L158.46,68.28L158.167,68.107L157.876,67.935L157.588,67.764L157.302,67.592L157.02,67.422L156.732,67.247L156.187,66.913L155.646,66.576L155.115,66.241L154.595,65.909L154.085,65.58L153.586,65.253L153.098,64.93L152.621,64.609L152.154,64.292L151.698,63.978L151.252,63.668L150.817,63.362L150.393,63.06L150,62.777L149.607,63.06Z" style="fill:white;"/>
                </g>
            </g>
        </g>
    </g>
</svg>
