<?xml version="1.0" encoding="UTF-8" standalone="no"?>
<!DOCTYPE svg PUBLIC "-//W3C//DTD SVG 1.1//EN" "http://www.w3.org/Graphics/SVG/1.1/DTD/svg11.dtd">
<svg width="100%" height="100%" viewBox="0 0 300 300" version="1.1" xmlns="http://www.w3.org/2000/svg" xmlns:xlink="http://www.w3.org/1999/xlink" xml:space="preserve" xmlns:serif="http://www.serif.com/" style="fill-rule:evenodd;clip-rule:evenodd;stroke-linejoin:round;stroke-miterlimit:2;">
    <g>
        <circle cx="150" cy="150" r="150" style="fill:rgb(255,254,254);"/>
        <path d="M150,0C232.787,0 300,67.213 300,150C300,232.787 232.787,300 150,300C67.213,300 0,232.787 0,150C0,67.213 67.213,0 150,0ZM150,16C223.957,16 284,76.043 284,150C284,223.957 223.957,284 150,284C76.043,284 16,223.957 16,150C16,76.043 76.043,16 150,16Z" style="fill:rgb(45,103,185);"/>
        <g transform="matrix(0.812375,0,0,0.812375,28.1437,28.1437)">
            <g transform="matrix(0.922586,0,0,0.701968,2.01093,62.254)">
                <path d="M109,132.106C109,128.184 106.577,125 103.593,125L57.407,125C54.423,125 52,128.184 52,132.106L52,255.894C52,259.816 54.423,263 57.407,263L103.593,263C106.577,263 109,259.816 109,255.894L109,132.106Z" style="fill:rgb(45,103,185);"/>
            </g>
            <g transform="matrix(0.922586,0,0,1.04292,76.1931,-27.4174)">
                <path d="M109,129.783C109,127.143 106.577,125 103.593,125L57.407,125C54.423,125 52,127.143 52,129.783L52,258.217C52,260.857 54.423,263 57.407,263L103.593,263C106.577,263 109,260.857 109,258.217L109,129.783Z" style="fill:rgb(45,103,185);"/>
            </g>
            <g transform="matrix(0.922586,0,0,1.40394,149.453,-122.364)">
                <path d="M109,128.553C109,126.592 106.577,125 103.593,125L57.407,125C54.423,125 52,126.592 52,128.553L52,259.447C52,261.408 54.423,263 57.407,263L103.593,263C106.577,263 109,261.408 109,259.447L109,128.553Z" style="fill:rgb(45,103,185);"/>
            </g>
        </g>
    </g>
</svg>
