<?xml version="1.0" encoding="UTF-8" standalone="no"?>
<!DOCTYPE svg PUBLIC "-//W3C//DTD SVG 1.1//EN" "http://www.w3.org/Graphics/SVG/1.1/DTD/svg11.dtd">
<svg width="100%" height="100%" viewBox="0 0 300 300" version="1.1" xmlns="http://www.w3.org/2000/svg" xmlns:xlink="http://www.w3.org/1999/xlink" xml:space="preserve" xmlns:serif="http://www.serif.com/" style="fill-rule:evenodd;clip-rule:evenodd;stroke-linejoin:round;stroke-miterlimit:2;">
    <g>
        <circle cx="150" cy="150" r="150" style="fill:rgb(255,254,254);"/>
        <path d="M150,0C232.787,0 300,67.213 300,150C300,232.787 232.787,300 150,300C67.213,300 0,232.787 0,150C0,67.213 67.213,0 150,0ZM150,16C223.957,16 284,76.043 284,150C284,223.957 223.957,284 150,284C76.043,284 16,223.957 16,150C16,76.043 76.043,16 150,16Z" style="fill:rgb(45,103,185);"/>
        <g transform="matrix(0.971284,0,0,0.971284,4.32021,14.0579)">
            <path d="M50,99.968C50,77.891 94.808,59.968 150,59.968C205.192,59.968 250,77.891 250,99.968L250.015,99.968L250.015,179.961L249.959,179.961C249.949,202.036 205.144,219.955 149.959,219.955C94.773,219.955 49.968,202.035 49.959,179.961L49.959,179.961L49.959,99.968L50,99.968ZM66.005,179.961L65.959,179.961C65.97,195.136 103.605,207.455 149.959,207.455C196.32,207.455 233.959,195.132 233.959,179.955L233.969,179.955L233.969,161.696C216.139,172.689 185.185,179.968 150.015,179.968C114.808,179.968 83.826,172.674 66.005,161.662L66.005,179.961ZM66.005,121.671L66.005,139.968L66.015,139.968C66.015,155.146 103.654,167.468 150.015,167.468C195.438,167.468 232.489,155.639 233.969,140.885L233.969,121.687C216.141,132.686 185.18,139.968 150,139.968C114.803,139.968 83.828,132.678 66.005,121.671ZM66.005,100.274C66.507,115.311 103.951,127.468 150,127.468C195.589,127.468 232.745,115.552 233.969,100.723L233.969,99.968L234,99.968C234,84.79 196.361,72.468 150,72.468C103.639,72.468 66,84.79 66,99.968L66.005,99.968L66.005,100.274Z" style="fill:rgb(45,103,185);"/>
        </g>
    </g>
</svg>
