<?xml version="1.0" encoding="UTF-8" standalone="no"?>
<!DOCTYPE svg PUBLIC "-//W3C//DTD SVG 1.1//EN" "http://www.w3.org/Graphics/SVG/1.1/DTD/svg11.dtd">
<svg width="100%" height="100%" viewBox="0 0 300 300" version="1.1" xmlns="http://www.w3.org/2000/svg" xmlns:xlink="http://www.w3.org/1999/xlink" xml:space="preserve" xmlns:serif="http://www.serif.com/" style="fill-rule:evenodd;clip-rule:evenodd;stroke-linejoin:round;stroke-miterlimit:2;">
    <g>
        <circle cx="150" cy="150" r="150" style="fill:rgb(255,254,254);"/>
        <path d="M150,0C232.787,0 300,67.213 300,150C300,232.787 232.787,300 150,300C67.213,300 0,232.787 0,150C0,67.213 67.213,0 150,0ZM150,16C223.957,16 284,76.043 284,150C284,223.957 223.957,284 150,284C76.043,284 16,223.957 16,150C16,76.043 76.043,16 150,16Z" style="fill:rgb(45,103,185);"/>
        <g transform="matrix(0.981407,0,0,0.981407,2.78901,2.78901)">
            <path d="M142.23,100.647L142.23,62.571L127.8,77.001L127.8,54.695L150,32.495L172.2,54.695L172.2,77.049L157.801,62.65L157.801,100.652C165.782,101.906 173.138,105.052 179.395,109.616L206.328,82.684L185.921,82.684L201.693,66.912L233.088,66.912L233.088,98.307L217.282,114.113L217.282,93.75L190.402,120.63C194.962,126.89 198.104,134.248 199.353,142.23L237.429,142.23L222.999,127.8L245.305,127.8L267.505,150L245.305,172.2L222.951,172.2L237.35,157.801L199.348,157.801C198.094,165.782 194.948,173.138 190.384,179.395L217.316,206.328L217.316,185.921L233.088,201.693L233.088,233.088L201.693,233.088L185.887,217.282L206.25,217.282L179.37,190.402C173.11,194.962 165.752,198.104 157.77,199.353L157.77,237.429L172.2,222.999L172.2,245.305L150,267.505L127.8,245.305L127.8,222.951L142.199,237.35L142.199,199.348C134.218,198.094 126.862,194.948 120.605,190.384L93.672,217.316L114.079,217.316L98.307,233.088L66.912,233.088L66.912,201.693L82.718,185.887L82.718,206.25L109.598,179.37C105.038,173.11 101.896,165.752 100.647,157.77L62.571,157.77L77.001,172.2L54.695,172.2L32.495,150L54.695,127.8L77.049,127.8L62.65,142.199L100.652,142.199C101.906,134.218 105.052,126.862 109.616,120.605L82.684,93.672L82.684,114.079L66.912,98.307L66.912,66.912L98.307,66.912L114.113,82.718L93.75,82.718L120.63,109.598C126.89,105.038 134.248,101.896 142.23,100.647ZM150,120.789C166.122,120.789 179.211,133.878 179.211,150C179.211,166.122 166.122,179.211 150,179.211C133.878,179.211 120.789,166.122 120.789,150C120.789,133.878 133.878,120.789 150,120.789Z" style="fill:rgb(45,103,185);"/>
        </g>
    </g>
</svg>
