<?xml version="1.0" encoding="UTF-8" standalone="no"?>
<!DOCTYPE svg PUBLIC "-//W3C//DTD SVG 1.1//EN" "http://www.w3.org/Graphics/SVG/1.1/DTD/svg11.dtd">
<svg width="100%" height="100%" viewBox="0 0 300 300" version="1.1" xmlns="http://www.w3.org/2000/svg" xmlns:xlink="http://www.w3.org/1999/xlink" xml:space="preserve" xmlns:serif="http://www.serif.com/" style="fill-rule:evenodd;clip-rule:evenodd;stroke-linejoin:round;stroke-miterlimit:2;">
    <g>
        <circle cx="150" cy="150" r="150" style="fill:rgb(255,254,254);"/>
        <path d="M150,0C232.787,0 300,67.213 300,150C300,232.787 232.787,300 150,300C67.213,300 0,232.787 0,150C0,67.213 67.213,0 150,0ZM150,16C223.957,16 284,76.043 284,150C284,223.957 223.957,284 150,284C76.043,284 16,223.957 16,150C16,76.043 76.043,16 150,16Z" style="fill:rgb(45,103,185);"/>
        <g transform="matrix(1.07787,0,0,1.07787,-11.6803,-11.6795)">
            <path d="M96.579,121.319L150,121.319L150,141.665L96.685,141.665L115.597,160.577L86.307,160.577L57.211,131.481L86.307,102.385L115.513,102.385L96.579,121.319Z" style="fill:rgb(45,103,185);"/>
            <g transform="matrix(1,0,0,1,0,68.5311)">
                <path d="M96.579,121.319L150,121.319L150,141.665L96.685,141.665L115.597,160.577L86.307,160.577L57.211,131.481L86.307,102.385L115.513,102.385L96.579,121.319Z" style="fill:rgb(45,103,185);"/>
            </g>
            <g transform="matrix(-1,0,0,1,300,37.0177)">
                <path d="M96.579,121.319L150,121.319L150,141.665L96.685,141.665L115.597,160.577L86.307,160.577L57.211,131.481L86.307,102.385L115.513,102.385L96.579,121.319Z" style="fill:rgb(45,103,185);"/>
            </g>
            <g transform="matrix(-1,0,0,1,300,-31.5135)">
                <path d="M96.579,121.319L150,121.319L150,141.665L96.685,141.665L115.597,160.577L86.307,160.577L57.211,131.481L86.307,102.385L115.513,102.385L96.579,121.319Z" style="fill:rgb(45,103,185);"/>
            </g>
        </g>
    </g>
</svg>
