<?xml version="1.0" encoding="UTF-8" standalone="no"?>
<!DOCTYPE svg PUBLIC "-//W3C//DTD SVG 1.1//EN" "http://www.w3.org/Graphics/SVG/1.1/DTD/svg11.dtd">
<svg width="100%" height="100%" viewBox="0 0 300 300" version="1.1" xmlns="http://www.w3.org/2000/svg" xmlns:xlink="http://www.w3.org/1999/xlink" xml:space="preserve" xmlns:serif="http://www.serif.com/" style="fill-rule:evenodd;clip-rule:evenodd;stroke-linejoin:round;stroke-miterlimit:2;">
    <g>
        <circle cx="150" cy="150" r="150" style="fill:rgb(255,254,254);"/>
        <path d="M150,0C232.787,0 300,67.213 300,150C300,232.787 232.787,300 150,300C67.213,300 0,232.787 0,150C0,67.213 67.213,0 150,0ZM150,16C223.957,16 284,76.043 284,150C284,223.957 223.957,284 150,284C76.043,284 16,223.957 16,150C16,76.043 76.043,16 150,16Z" style="fill:rgb(45,103,185);"/>
        <g transform="matrix(1,0,0,1,0.00291511,-5.71162)">
            <path d="M144.963,120.378L125.99,120.378C122.644,120.378 119.928,117.662 119.928,114.317L119.928,66.439C119.928,63.094 122.644,60.378 125.99,60.378L173.867,60.378C177.213,60.378 179.928,63.094 179.928,66.439L179.928,114.317C179.928,117.662 177.213,120.378 173.867,120.378L155.037,120.378L155.037,134.258L222.146,134.258C223.536,134.258 224.664,135.387 224.664,136.776L224.664,160.314L244.015,160.314C247.326,160.314 250.015,163.003 250.015,166.314L250.015,214.314C250.015,217.625 247.326,220.314 244.015,220.314L196.015,220.314C192.703,220.314 190.015,217.626 190.015,214.314L190.015,166.314C190.015,163.003 192.703,160.314 196.015,160.314L214.59,160.314L214.59,144.332L155.037,144.332L155.037,160.314L174,160.314C177.312,160.314 180,163.003 180,166.314L180,214.314C180,217.625 177.312,220.314 174,220.314L126,220.314C122.689,220.314 120,217.626 120,214.314L120,166.314C120,163.003 122.688,160.314 126,160.314L144.963,160.314L144.963,144.332L85.41,144.332L85.41,160.314L103.98,160.314C107.291,160.314 109.98,163.003 109.98,166.314L109.98,214.314C109.98,217.625 107.291,220.314 103.98,220.314L55.98,220.314C52.668,220.314 49.98,217.626 49.98,214.314L49.98,166.314C49.98,163.003 52.668,160.314 55.98,160.314L75.336,160.314L75.336,136.776C75.336,135.386 76.464,134.258 77.854,134.258L144.963,134.258L144.963,120.378ZM168,170.314L132,170.314C130.896,170.314 130,171.21 130,172.314L130,208.314C130,209.418 130.896,210.314 132,210.314L168,210.314C169.104,210.314 170,209.418 170,208.314L170,172.314C170,171.21 169.104,170.314 168,170.314ZM238.015,170.314L202.015,170.314C200.91,170.314 200.015,171.21 200.015,172.314L200.015,208.314C200.015,209.418 200.911,210.314 202.015,210.314L238.015,210.314C239.118,210.314 240.015,209.418 240.015,208.314L240.015,172.314C240.015,171.21 239.119,170.314 238.015,170.314ZM97.98,170.314L61.98,170.314C60.875,170.314 59.98,171.21 59.98,172.314L59.98,208.314C59.98,209.418 60.876,210.314 61.98,210.314L97.98,210.314C99.083,210.314 99.98,209.418 99.98,208.314L99.98,172.314C99.98,171.21 99.084,170.314 97.98,170.314ZM167.928,70.378L131.928,70.378C130.824,70.379 129.928,71.275 129.928,72.378L129.928,108.378C129.928,109.482 130.825,110.378 131.928,110.378L167.928,110.378C169.032,110.378 169.928,109.482 169.928,108.378L169.928,72.378C169.928,71.275 169.033,70.379 167.928,70.378Z" style="fill:rgb(45,103,185);"/>
        </g>
    </g>
</svg>
