<?xml version="1.0" encoding="UTF-8" standalone="no"?>
<!DOCTYPE svg PUBLIC "-//W3C//DTD SVG 1.1//EN" "http://www.w3.org/Graphics/SVG/1.1/DTD/svg11.dtd">
<svg width="100%" height="100%" viewBox="0 0 300 300" version="1.1" xmlns="http://www.w3.org/2000/svg" xmlns:xlink="http://www.w3.org/1999/xlink" xml:space="preserve" xmlns:serif="http://www.serif.com/" style="fill-rule:evenodd;clip-rule:evenodd;stroke-linejoin:round;stroke-miterlimit:2;">
    <g>
        <circle cx="150" cy="150" r="150" style="fill:rgb(255,254,254);"/>
        <path d="M150,0C232.787,0 300,67.213 300,150C300,232.787 232.787,300 150,300C67.213,300 0,232.787 0,150C0,67.213 67.213,0 150,0ZM150,16C223.957,16 284,76.043 284,150C284,223.957 223.957,284 150,284C76.043,284 16,223.957 16,150C16,76.043 76.043,16 150,16Z" style="fill:rgb(45,103,185);"/>
        <g transform="matrix(0.959447,0,0,0.959447,21.809,27.7535)">
            <path d="M133.609,114.97C139.406,107.853 148.238,103.305 158.123,103.305C168.006,103.305 176.835,107.851 182.632,114.964C188.429,107.851 197.259,103.305 207.142,103.305C222,103.305 234.478,113.581 237.849,127.408L237.851,127.408L237.85,127.414L237.851,127.419L237.849,127.419C234.478,141.246 222,151.523 207.142,151.523C197.259,151.523 188.429,146.977 182.632,139.863C176.835,146.977 168.006,151.523 158.123,151.523C148.238,151.523 139.406,146.974 133.609,139.858C127.812,146.974 118.981,151.523 109.095,151.523C99.213,151.523 90.383,146.977 84.586,139.863C78.789,146.977 69.96,151.523 60.077,151.523C45.218,151.523 32.741,141.246 29.37,127.419L29.367,127.419L29.369,127.414L29.367,127.408L29.37,127.408C32.741,113.581 45.218,103.305 60.077,103.305C69.96,103.305 78.789,107.851 84.586,114.964C90.383,107.851 99.213,103.305 109.095,103.305C118.981,103.305 127.812,107.853 133.609,114.97ZM176.433,127.408C173.475,120.204 166.388,115.125 158.123,115.125C149.857,115.125 142.767,120.207 139.811,127.414C142.767,134.621 149.857,139.702 158.123,139.702C166.388,139.702 173.476,134.623 176.433,127.419L176.432,127.419L176.433,127.414L176.432,127.408L176.433,127.408ZM188.832,127.419C191.789,134.623 198.877,139.702 207.142,139.702C215.408,139.702 222.498,134.621 225.454,127.414C222.498,120.207 215.408,115.125 207.142,115.125C198.877,115.125 191.79,120.204 188.832,127.408L188.833,127.408L188.832,127.414L188.833,127.419L188.832,127.419ZM78.387,127.408C75.429,120.204 68.342,115.125 60.077,115.125C51.81,115.125 44.721,120.207 41.765,127.414C44.721,134.621 51.81,139.702 60.077,139.702C68.342,139.702 75.429,134.623 78.387,127.419L78.386,127.419L78.387,127.414L78.386,127.408L78.387,127.408ZM90.786,127.419C93.743,134.623 100.831,139.702 109.095,139.702C117.362,139.702 124.451,134.621 127.407,127.414C124.451,120.207 117.362,115.125 109.095,115.125C100.831,115.125 93.744,120.204 90.786,127.408L90.787,127.408L90.785,127.414L90.787,127.419L90.786,127.419Z" style="fill:rgb(45,103,185);"/>
        </g>
    </g>
</svg>
