<?xml version="1.0" encoding="UTF-8" standalone="no"?>
<!DOCTYPE svg PUBLIC "-//W3C//DTD SVG 1.1//EN" "http://www.w3.org/Graphics/SVG/1.1/DTD/svg11.dtd">
<svg width="100%" height="100%" viewBox="0 0 300 300" version="1.1" xmlns="http://www.w3.org/2000/svg" xmlns:xlink="http://www.w3.org/1999/xlink" xml:space="preserve" xmlns:serif="http://www.serif.com/" style="fill-rule:evenodd;clip-rule:evenodd;stroke-linejoin:round;stroke-miterlimit:2;">
    <g>
        <circle cx="150" cy="150" r="150" style="fill:rgb(255,254,254);"/>
        <path d="M150,0C232.787,0 300,67.213 300,150C300,232.787 232.787,300 150,300C67.213,300 0,232.787 0,150C0,67.213 67.213,0 150,0ZM150,16C223.957,16 284,76.043 284,150C284,223.957 223.957,284 150,284C76.043,284 16,223.957 16,150C16,76.043 76.043,16 150,16Z" style="fill:rgb(45,103,185);"/>
        <g transform="matrix(1.04391,0,0,1.04391,-6.58595,-6.58595)">
            <path d="M169.872,108.912C170.064,108.336 170.16,107.856 170.16,107.376C170.16,105.936 169.2,104.784 167.568,104.208C166.992,104.016 166.416,103.92 165.84,103.92C164.304,103.92 163.056,104.784 162.48,106.32L130.128,191.184C129.936,191.664 129.84,192.144 129.84,192.624C129.84,194.064 130.896,195.024 132.624,195.696C133.296,195.984 133.872,196.08 134.448,196.08C135.888,196.08 136.944,195.312 137.52,193.68L169.872,108.912ZM63.408,149.904L96.912,130.32C98.16,129.648 98.64,128.592 98.64,127.44C98.64,126.672 98.448,125.904 98.064,125.232C97.488,123.984 96.336,122.832 94.8,122.832C94.32,122.832 93.648,123.024 93.072,123.408L57.84,144.432C55.344,145.968 54.192,147.312 54.192,150C54.192,152.592 55.344,153.936 57.744,155.28L92.976,176.592C93.552,176.976 94.224,177.168 94.8,177.168C96.24,177.168 97.392,176.112 98.064,174.768C98.352,174.096 98.544,173.328 98.544,172.656C98.544,171.504 98.064,170.448 96.912,169.68L63.408,149.904ZM236.592,149.904L203.088,169.68C201.84,170.448 201.36,171.504 201.36,172.656C201.36,173.328 201.552,174.096 201.84,174.768C202.512,176.112 203.664,177.168 205.2,177.168C205.776,177.168 206.352,176.976 206.928,176.592L242.256,155.28C244.56,153.936 245.808,152.592 245.808,150C245.808,147.312 244.56,145.968 242.16,144.432L206.928,123.408C206.352,123.024 205.68,122.832 205.104,122.832C203.664,122.832 202.416,123.984 201.84,125.232C201.552,125.904 201.36,126.672 201.36,127.344C201.36,128.496 201.84,129.552 203.088,130.32L236.592,149.904Z" style="fill:rgb(45,103,185);fill-rule:nonzero;"/>
        </g>
    </g>
</svg>
