<?xml version="1.0" encoding="UTF-8" standalone="no"?>
<!DOCTYPE svg PUBLIC "-//W3C//DTD SVG 1.1//EN" "http://www.w3.org/Graphics/SVG/1.1/DTD/svg11.dtd">
<svg width="100%" height="100%" viewBox="0 0 300 300" version="1.1" xmlns="http://www.w3.org/2000/svg" xmlns:xlink="http://www.w3.org/1999/xlink" xml:space="preserve" xmlns:serif="http://www.serif.com/" style="fill-rule:evenodd;clip-rule:evenodd;stroke-linejoin:round;stroke-miterlimit:2;">
    <g>
        <circle cx="150" cy="150" r="150" style="fill:rgb(255,254,254);"/>
        <path d="M150,0C232.787,0 300,67.213 300,150C300,232.787 232.787,300 150,300C67.213,300 0,232.787 0,150C0,67.213 67.213,0 150,0ZM150,16C223.957,16 284,76.043 284,150C284,223.957 223.957,284 150,284C76.043,284 16,223.957 16,150C16,76.043 76.043,16 150,16Z" style="fill:rgb(227,28,0);"/>
        <g transform="matrix(0.871548,0,0,0.871548,19.2704,19.2678)">
            <path d="M94.046,180.962L94.046,224.945L49.98,224.945L49.98,180.962L94.046,180.962ZM250.015,224.945L206.001,224.945L206.001,180.962L250.015,180.962L250.015,224.945ZM194.058,224.945L105.988,224.945L105.988,180.962L194.058,180.962L194.058,224.945ZM144.029,130.929L144.029,169.019L49.98,169.019L49.98,130.929L144.029,130.929ZM250.015,169.019L155.971,169.019L155.971,130.929L250.015,130.929L250.015,169.019ZM94.046,118.987L49.98,118.987L49.98,75.055L94.046,75.055L94.046,118.987ZM194.058,75.055L194.058,118.987L105.988,118.987L105.988,75.055L194.058,75.055ZM250.015,118.987L206.001,118.987L206.001,75.055L250.015,75.055L250.015,118.987Z" style="fill:rgb(227,28,0);"/>
        </g>
    </g>
</svg>
