<?xml version="1.0" encoding="UTF-8" standalone="no"?>
<!DOCTYPE svg PUBLIC "-//W3C//DTD SVG 1.1//EN" "http://www.w3.org/Graphics/SVG/1.1/DTD/svg11.dtd">
<svg width="100%" height="100%" viewBox="0 0 145 195" version="1.1" xmlns="http://www.w3.org/2000/svg" xmlns:xlink="http://www.w3.org/1999/xlink" xml:space="preserve" xmlns:serif="http://www.serif.com/" style="fill-rule:evenodd;clip-rule:evenodd;stroke-linejoin:round;stroke-miterlimit:1.41421;">
    <g>
        <path d="M85.144,79.26C81.075,80.745 76.682,81.555 72.102,81.555C67.522,81.555 63.13,80.745 59.061,79.26L34.011,79.26L34.011,43.464C34.011,22.44 51.079,5.373 72.102,5.373C93.125,5.373 110.193,22.441 110.193,43.464L110.193,79.26L85.144,79.26ZM90.826,73.47L90.826,43.464C90.826,33.13 82.436,24.74 72.102,24.74C61.768,24.74 53.379,33.13 53.379,43.464L53.379,73.47L90.826,73.47Z" style="fill:white;"/>
        <g transform="matrix(1,0,0,1,-86.9111,-53.9668)">
            <path d="M205.23,248.502L112.797,248.502C98.51,248.502 86.911,236.903 86.911,222.616L86.911,150.815C86.911,137.438 97.079,126.418 110.102,125.068L110.102,102.879C110.102,75.883 132.018,53.967 159.013,53.967C186.008,53.967 207.925,75.883 207.925,102.879L207.925,125.068C220.947,126.418 231.116,137.438 231.116,150.815L231.116,222.616C231.116,236.903 219.517,248.501 205.23,248.502ZM182.42,124.929L195.426,124.929L195.426,102.879C195.426,82.781 179.11,66.466 159.013,66.466C138.917,66.466 122.601,82.781 122.6,102.879L122.6,124.929L135.607,124.929L135.607,100.529C135.607,87.611 146.095,77.123 159.013,77.123C171.932,77.123 182.42,87.611 182.42,100.529L182.42,124.929ZM176.439,124.929L176.439,100.529C176.439,90.912 168.631,83.104 159.013,83.104C149.396,83.104 141.588,90.912 141.588,100.529L141.588,124.929L176.439,124.929Z" style="fill:rgb(75,75,75);"/>
            <g transform="matrix(0.889868,0,0,0.828563,17.1331,32.01)">
                <path d="M229.228,146.24C229.228,134.478 220.336,124.929 209.385,124.929L109.494,124.929C98.543,124.929 89.651,134.478 89.651,146.24L89.651,227.191C89.651,238.952 98.543,248.502 109.494,248.502L209.385,248.502C220.336,248.502 229.228,238.952 229.228,227.191L229.228,146.24Z" style="fill:white;"/>
            </g>
            <g transform="matrix(1,0,0,1,0,-4.42193)">
                <path d="M170.26,220.021L146.977,220.021L146.977,202.689C140.819,198.813 136.724,191.955 136.724,184.148C136.724,172.064 146.534,162.253 158.618,162.253C170.702,162.253 180.512,172.064 180.512,184.148C180.512,191.955 176.417,198.813 170.26,202.689L170.26,220.021ZM163.448,213.755L163.448,198.857C169.629,196.826 174.097,191.004 174.097,184.148C174.097,175.605 167.161,168.669 158.618,168.669C150.075,168.669 143.14,175.605 143.14,184.148C143.14,191.154 147.805,197.08 154.197,198.984L154.197,213.755L163.448,213.755Z" style="fill:rgb(77,77,77);"/>
            </g>
        </g>
    </g>
</svg>
